<svg width="245" height="81" viewBox="0 0 245 81" fill="none" xmlns="http://www.w3.org/2000/svg">
<g clip-path="url(#clip0_479_1240)">
<path d="M29.0222 4.18555H24.8755V36.6179H29.0222V4.18555Z" fill="black"/>
<path d="M64.3337 2.6748C60.8864 2.6748 57.5165 3.69705 54.6502 5.61227C51.7838 7.52748 49.5498 10.2497 48.2306 13.4345C46.9114 16.6194 46.5662 20.124 47.2387 23.5051C47.9113 26.8861 49.5713 29.9918 52.0089 32.4294C54.4465 34.867 57.5522 36.5271 60.9333 37.1996C64.3143 37.8721 67.8189 37.527 71.0038 36.2078C74.1887 34.8885 76.9109 32.6545 78.8261 29.7882C80.7413 26.9218 81.7635 23.552 81.7635 20.1047C81.76 15.4831 79.9225 11.0518 76.6545 7.78384C73.3865 4.51588 68.9553 2.67838 64.3337 2.6748ZM64.3337 33.2866C61.7249 33.2866 59.1747 32.513 57.0057 31.0635C54.8367 29.614 53.1463 27.5538 52.1483 25.1435C51.1502 22.7331 50.8894 20.081 51.3989 17.5225C51.9083 14.9639 53.1651 12.6139 55.0102 10.7697C56.8554 8.92551 59.206 7.66994 61.7648 7.16181C64.3236 6.65368 66.9756 6.91583 69.3854 7.91508C71.7953 8.91434 73.8546 10.6058 75.303 12.7756C76.7513 14.9453 77.5237 17.4959 77.5224 20.1047C77.5188 23.6008 76.1279 26.9526 73.6551 29.4242C71.1824 31.8957 67.8298 33.2848 64.3337 33.2866Z" fill="black"/>
<path d="M166.668 4.18555H162.521V36.6179H166.668V4.18555Z" fill="black"/>
<path d="M202.141 2.6748C198.693 2.6748 195.324 3.69705 192.457 5.61227C189.591 7.52748 187.357 10.2497 186.038 13.4345C184.718 16.6194 184.373 20.124 185.046 23.5051C185.718 26.8861 187.378 29.9918 189.816 32.4294C192.254 34.867 195.359 36.5271 198.74 37.1996C202.121 37.8721 205.626 37.527 208.811 36.2078C211.996 34.8885 214.718 32.6545 216.633 29.7882C218.548 26.9218 219.571 23.552 219.571 20.1047C219.565 15.4836 217.727 11.0534 214.46 7.78581C211.192 4.51823 206.762 2.68016 202.141 2.6748ZM202.141 33.2866C199.532 33.2866 196.982 32.513 194.813 31.0635C192.644 29.614 190.953 27.5538 189.955 25.1435C188.957 22.7331 188.697 20.081 189.206 17.5225C189.715 14.9639 190.972 12.6139 192.817 10.7697C194.663 8.92551 197.013 7.66994 199.572 7.16181C202.131 6.65368 204.783 6.91583 207.193 7.91508C209.602 8.91434 211.662 10.6058 213.11 12.7756C214.558 14.9453 215.331 17.4959 215.329 20.1047C215.326 23.6008 213.935 26.9526 211.462 29.4242C208.989 31.8957 205.637 33.2848 202.141 33.2866Z" fill="black"/>
<path d="M98.4651 3.80762H90.8931L114.695 20.0238L90.3469 36.6176H97.9122L118.477 22.6062L122.26 20.0238L118.477 17.4481L98.4651 3.80762Z" fill="black"/>
<path d="M123.231 25.944L138.901 36.6176H146.433L127 23.375L123.231 25.944Z" fill="black"/>
<path d="M145.887 3.80762H138.348L123.231 14.1104L127 16.6794L145.887 3.80762Z" fill="black"/>
</g>
<path d="M84.9729 76.4959V53.4658H78.1005V50.5413H94.9892V53.4658H88.1167V76.4959H84.9729Z" fill="black"/>
<path d="M115.458 50.5413H118.601L128.91 76.4959H125.51L123.171 70.5008H110.888L108.549 76.4959H105.149L115.458 50.5413ZM112.021 67.5763H122.038L117.029 54.599L112.021 67.5763Z" fill="black"/>
<path d="M154.642 76.8614C147.477 76.8614 141.482 71.4512 141.482 63.5186C141.482 55.586 147.477 50.1758 154.715 50.1758C157.895 50.1758 162.026 51.2359 164.841 55.257L162.574 56.9386C160.418 54.0507 157.347 53.2099 154.788 53.2099C149.195 53.2099 144.699 57.2676 144.699 63.5186C144.699 69.7696 149.232 73.937 154.788 73.937C159.065 73.937 162.903 71.4878 163.525 65.9678H156.177V63.2993H166.596C167.254 71.7802 161.514 76.8614 154.642 76.8614Z" fill="black"/>
<defs>
<clipPath id="clip0_479_1240">
<rect width="194.695" height="34.853" fill="black" transform="translate(24.8755 2.6748)"/>
</clipPath>
</defs>
</svg>
