<svg width="196" height="36" viewBox="0 0 196 36" fill="none" xmlns="http://www.w3.org/2000/svg">
<g clip-path="url(#clip0_546_186)">
<path d="M5.02224 2.18555H0.875488V34.6179H5.02224V2.18555Z" fill="white"/>
<path d="M40.3337 0.674805C36.8864 0.674805 33.5165 1.69705 30.6502 3.61227C27.7838 5.52748 25.5498 8.24965 24.2306 11.4345C22.9114 14.6194 22.5662 18.124 23.2387 21.5051C23.9113 24.8861 25.5713 27.9918 28.0089 30.4294C30.4465 32.867 33.5522 34.5271 36.9333 35.1996C40.3143 35.8721 43.8189 35.527 47.0038 34.2078C50.1887 32.8885 52.9109 30.6545 54.8261 27.7882C56.7413 24.9218 57.7635 21.552 57.7635 18.1047C57.76 13.4831 55.9225 9.0518 52.6545 5.78384C49.3865 2.51588 44.9553 0.678376 40.3337 0.674805ZM40.3337 31.2866C37.7249 31.2866 35.1747 30.513 33.0057 29.0635C30.8367 27.614 29.1463 25.5538 28.1483 23.1435C27.1502 20.7331 26.8894 18.081 27.3989 15.5225C27.9083 12.9639 29.1651 10.6139 31.0102 8.76971C32.8554 6.92551 35.206 5.66994 37.7648 5.16181C40.3236 4.65368 42.9756 4.91583 45.3854 5.91508C47.7953 6.91434 49.8546 8.60582 51.303 10.7756C52.7513 12.9453 53.5237 15.4959 53.5224 18.1047C53.5188 21.6008 52.1279 24.9526 49.6551 27.4242C47.1824 29.8957 43.8298 31.2848 40.3337 31.2866Z" fill="white"/>
<path d="M142.668 2.18555H138.521V34.6179H142.668V2.18555Z" fill="white"/>
<path d="M178.141 0.674805C174.693 0.674805 171.324 1.69705 168.457 3.61227C165.591 5.52748 163.357 8.24965 162.038 11.4345C160.718 14.6194 160.373 18.124 161.046 21.5051C161.718 24.8861 163.378 27.9918 165.816 30.4294C168.254 32.867 171.359 34.5271 174.74 35.1996C178.121 35.8721 181.626 35.527 184.811 34.2078C187.996 32.8885 190.718 30.6545 192.633 27.7882C194.548 24.9218 195.571 21.552 195.571 18.1047C195.565 13.4836 193.727 9.05338 190.46 5.78581C187.192 2.51823 182.762 0.680158 178.141 0.674805ZM178.141 31.2866C175.532 31.2866 172.982 30.513 170.813 29.0635C168.644 27.614 166.953 25.5538 165.955 23.1435C164.957 20.7331 164.697 18.081 165.206 15.5225C165.715 12.9639 166.972 10.6139 168.817 8.76971C170.663 6.92551 173.013 5.66994 175.572 5.16181C178.131 4.65368 180.783 4.91583 183.193 5.91508C185.602 6.91434 187.662 8.60582 189.11 10.7756C190.558 12.9453 191.331 15.4959 191.329 18.1047C191.326 21.6008 189.935 24.9526 187.462 27.4242C184.989 29.8957 181.637 31.2848 178.141 31.2866Z" fill="white"/>
<path d="M74.4651 1.80762H66.8931L90.6948 18.0238L66.3469 34.6176H73.9122L94.4774 20.6062L98.2601 18.0238L94.4774 15.4481L74.4651 1.80762Z" fill="white"/>
<path d="M99.2311 23.944L114.901 34.6176H122.433L103 21.375L99.2311 23.944Z" fill="white"/>
<path d="M121.887 1.80762H114.348L99.2311 12.1104L103 14.6794L121.887 1.80762Z" fill="white"/>
</g>
<defs>
<clipPath id="clip0_546_186">
<rect width="194.695" height="34.853" fill="white" transform="translate(0.875488 0.674805)"/>
</clipPath>
</defs>
</svg>
