<svg xmlns="http://www.w3.org/2000/svg" fill="none" viewBox="0 0 345 505">
    <path id="slice-0" fill="#6C47FF"
          d="M114.243 35.06a172.007 172.007 0 0 1 58.871-10.164l-.614 171.999-58.257-161.834Z">
    </path>
    <path id="slice-1" fill="#ED4343"
          d="M101.24 40.35c4.6-2.093 9.29-3.984 14.057-5.665l57.203 162.21-71.26-156.544Z"/>
    <path id="slice-2" fill="#45AFAF"
          d="M169.24 24.895a160.587 160.587 0 0 1 34.372 317.453A160.587 160.587 0 0 1 102.09 39.608l67.15 145.874V24.894Z"/>
    <path fill="#fff"
          d="M160.937 364.471c.16.842.651 1.264 1.472 1.264.566 0 .966-.251 1.2-.752.235-.502.352-1.318.352-2.448a2.3 2.3 0 0 1-.96.768 3.296 3.296 0 0 1-1.36.272c-.682 0-1.29-.139-1.824-.416a3.145 3.145 0 0 1-1.264-1.264c-.298-.566-.448-1.248-.448-2.048 0-.79.16-1.478.48-2.064a3.42 3.42 0 0 1 1.392-1.36c.608-.32 1.323-.48 2.144-.48 1.579 0 2.683.49 3.312 1.472.63.981.944 2.426.944 4.336 0 1.386-.128 2.533-.384 3.44-.245.896-.666 1.578-1.264 2.048-.586.469-1.392.704-2.416.704-.81 0-1.504-.16-2.08-.48a3.491 3.491 0 0 1-1.312-1.264 3.994 3.994 0 0 1-.512-1.728h2.528Zm1.328-3.056c.448 0 .806-.134 1.072-.4.267-.278.4-.651.4-1.12 0-.512-.138-.907-.416-1.184-.277-.278-.65-.416-1.12-.416-.469 0-.842.144-1.12.432-.266.277-.4.661-.4 1.152 0 .458.134.832.4 1.12.278.277.672.416 1.184.416Zm5.668-1.904c.043-1.142.416-2.022 1.12-2.64.704-.619 1.659-.928 2.864-.928.8 0 1.483.138 2.048.416.576.277 1.008.656 1.296 1.136.299.48.448 1.018.448 1.616 0 .704-.176 1.28-.528 1.728-.352.437-.762.736-1.232.896v.064c.608.202 1.088.538 1.44 1.008.352.469.528 1.072.528 1.808 0 .661-.154 1.248-.464 1.76-.298.501-.741.896-1.328 1.184-.576.288-1.264.432-2.064.432-1.28 0-2.304-.315-3.072-.944-.757-.63-1.157-1.579-1.2-2.848h2.656c.011.469.144.842.4 1.12.256.266.63.4 1.12.4.416 0 .736-.118.96-.352.235-.246.352-.566.352-.96 0-.512-.165-.88-.496-1.104-.32-.235-.837-.352-1.552-.352h-.512v-2.224h.512c.544 0 .982-.091 1.312-.272.342-.192.512-.528.512-1.008 0-.384-.106-.683-.32-.896-.213-.214-.506-.32-.88-.32-.405 0-.709.122-.912.368-.192.245-.304.549-.336.912h-2.672Zm9.368-.352c0-.864.245-1.531.736-2 .501-.47 1.146-.704 1.936-.704.789 0 1.429.234 1.92.704.49.469.736 1.136.736 2 0 .864-.246 1.53-.736 2-.491.469-1.131.704-1.92.704-.79 0-1.435-.235-1.936-.704-.491-.47-.736-1.136-.736-2Zm10.864-2.528-6.16 11.264h-2.64l6.16-11.264h2.64Zm-8.208 1.424c-.512 0-.768.368-.768 1.104 0 .725.256 1.088.768 1.088a.686.686 0 0 0 .576-.272c.138-.182.208-.454.208-.816 0-.736-.262-1.104-.784-1.104Zm4.96 7.312c0-.864.245-1.531.736-2 .49-.47 1.13-.704 1.92-.704.789 0 1.429.234 1.92.704.49.469.736 1.136.736 2 0 .864-.246 1.53-.736 2-.491.469-1.131.704-1.92.704-.79 0-1.43-.235-1.92-.704-.491-.47-.736-1.136-.736-2Zm2.64-1.104a.681.681 0 0 0-.576.272c-.128.181-.192.458-.192.832 0 .725.256 1.088.768 1.088a.686.686 0 0 0 .576-.272c.138-.182.208-.454.208-.816 0-.363-.07-.635-.208-.816a.672.672 0 0 0-.576-.288ZM136.996 10.367c-.085-.395-.235-.688-.448-.88-.213-.203-.517-.304-.912-.304-.608 0-1.045.266-1.312.8-.267.522-.405 1.354-.416 2.495a2.402 2.402 0 0 1 1.008-.88c.448-.213.939-.32 1.472-.32 1.045 0 1.883.331 2.512.992.64.662.96 1.585.96 2.769 0 .778-.16 1.46-.48 2.048a3.289 3.289 0 0 1-1.376 1.375c-.597.331-1.307.497-2.128.497-1.643 0-2.784-.512-3.424-1.537-.64-1.034-.96-2.517-.96-4.447 0-2.027.336-3.531 1.008-4.512.683-.992 1.771-1.488 3.264-1.488.8 0 1.472.16 2.016.48.555.309.971.72 1.248 1.232.288.512.459 1.072.512 1.68h-2.544Zm-1.264 3.071c-.459 0-.843.14-1.152.416-.299.267-.448.651-.448 1.153 0 .511.139.912.416 1.2.288.287.693.431 1.216.431.469 0 .837-.138 1.104-.416.277-.288.416-.677.416-1.168 0-.5-.133-.896-.4-1.184-.267-.287-.651-.431-1.152-.431Zm5.452-3.28c0-.863.245-1.53.736-2 .501-.469 1.146-.703 1.936-.703.789 0 1.429.234 1.92.704.49.469.736 1.136.736 2 0 .864-.246 1.53-.736 2-.491.469-1.131.704-1.92.704-.79 0-1.435-.235-1.936-.704-.491-.47-.736-1.136-.736-2Zm10.864-2.527-6.16 11.264h-2.64l6.16-11.264h2.64Zm-8.208 1.424c-.512 0-.768.368-.768 1.104 0 .725.256 1.087.768 1.087.245 0 .437-.09.576-.271.138-.182.208-.454.208-.816 0-.736-.262-1.104-.784-1.104Zm4.96 7.311c0-.864.245-1.53.736-2 .49-.469 1.13-.704 1.92-.704.789 0 1.429.235 1.92.704.49.47.736 1.136.736 2 0 .864-.246 1.531-.736 2-.491.47-1.131.704-1.92.704-.79 0-1.43-.234-1.92-.704-.491-.469-.736-1.136-.736-2Zm2.64-1.104a.683.683 0 0 0-.576.272c-.128.182-.192.46-.192.832 0 .726.256 1.088.768 1.088.245 0 .437-.09.576-.271.138-.182.208-.454.208-.817 0-.362-.07-.634-.208-.816a.672.672 0 0 0-.576-.288ZM95.932 19.759v-2.544h4.432v11.68h-2.848v-9.136h-1.584Zm6.08.4c0-.864.245-1.531.736-2 .501-.47 1.146-.704 1.936-.704.789 0 1.429.234 1.92.704.49.469.736 1.136.736 2 0 .864-.246 1.53-.736 2-.491.469-1.131.704-1.92.704-.79 0-1.435-.235-1.936-.704-.491-.47-.736-1.136-.736-2Zm10.864-2.528-6.16 11.264h-2.64l6.16-11.264h2.64Zm-8.208 1.424c-.512 0-.768.367-.768 1.104 0 .725.256 1.088.768 1.088.245 0 .437-.091.576-.273.138-.18.208-.453.208-.816 0-.736-.262-1.104-.784-1.104Zm4.96 7.311c0-.863.245-1.53.736-2 .49-.469 1.13-.703 1.92-.703.789 0 1.429.234 1.92.703.49.47.736 1.137.736 2 0 .864-.246 1.531-.736 2-.491.47-1.131.704-1.92.704-.79 0-1.43-.234-1.92-.704-.491-.469-.736-1.136-.736-2Zm2.64-1.104a.683.683 0 0 0-.576.273c-.128.18-.192.458-.192.831 0 .726.256 1.088.768 1.088.245 0 .437-.09.576-.271.138-.182.208-.454.208-.817 0-.362-.07-.634-.208-.816a.672.672 0 0 0-.576-.288Z"/>
    <rect width="20" height="20" x=".5" y="391.895" fill="#45AFAF" rx="3"/>
    <path fill="#fff"
          d="M39.188 402.811c0-1.088.245-2.064.736-2.928a5.342 5.342 0 0 1 2-2.048c.853-.491 1.797-.736 2.832-.736 1.216 0 2.277.293 3.184.88.907.586 1.568 1.418 1.984 2.496H48.18c-.31-.672-.757-1.19-1.344-1.552-.576-.363-1.27-.544-2.08-.544-.779 0-1.477.181-2.096.544a3.788 3.788 0 0 0-1.456 1.552c-.352.661-.528 1.44-.528 2.336 0 .885.176 1.664.528 2.336a3.82 3.82 0 0 0 1.456 1.536c.619.362 1.317.544 2.096.544.81 0 1.504-.176 2.08-.528.587-.363 1.035-.88 1.344-1.552h1.744c-.416 1.066-1.077 1.893-1.984 2.48-.907.576-1.968.864-3.184.864-1.035 0-1.979-.24-2.832-.72a5.383 5.383 0 0 1-2-2.032c-.49-.864-.736-1.84-.736-2.928Zm20.903.864c0 .277-.016.57-.048.88h-7.008c.054.864.347 1.541.88 2.032.544.48 1.2.72 1.968.72.63 0 1.152-.144 1.568-.432.427-.299.726-.694.896-1.184h1.568a3.813 3.813 0 0 1-1.408 2.064c-.704.522-1.578.784-2.624.784-.832 0-1.578-.187-2.24-.56a4.001 4.001 0 0 1-1.536-1.584c-.373-.694-.56-1.494-.56-2.4 0-.907.182-1.702.544-2.384a3.775 3.775 0 0 1 1.52-1.568c.662-.374 1.419-.56 2.272-.56.832 0 1.568.181 2.208.544.64.362 1.131.864 1.472 1.504.352.629.528 1.344.528 2.144Zm-1.504-.304c0-.555-.122-1.03-.368-1.424a2.309 2.309 0 0 0-1.008-.912 2.997 2.997 0 0 0-1.392-.32c-.736 0-1.365.234-1.888.704-.512.469-.805 1.12-.88 1.952h5.536Zm4.882-6.816v11.84h-1.456v-11.84h1.456Zm3.938 0v11.84H65.95v-11.84h1.456Zm5.585 11.984c-.672 0-1.274-.112-1.808-.336-.533-.235-.954-.555-1.264-.96a2.595 2.595 0 0 1-.512-1.424h1.504c.043.437.246.794.608 1.072.374.277.859.416 1.456.416.555 0 .992-.123 1.312-.368.32-.246.48-.555.48-.928a.898.898 0 0 0-.512-.848c-.341-.192-.87-.379-1.584-.56a13.209 13.209 0 0 1-1.6-.512 3.05 3.05 0 0 1-1.056-.784c-.288-.352-.432-.811-.432-1.376 0-.448.134-.859.4-1.232.267-.374.646-.667 1.136-.88.49-.224 1.05-.336 1.68-.336.97 0 1.755.245 2.352.736.598.49.918 1.162.96 2.016h-1.456a1.493 1.493 0 0 0-.56-1.104c-.33-.278-.778-.416-1.344-.416-.522 0-.938.112-1.248.336-.31.224-.464.517-.464.88 0 .288.09.528.272.72.192.181.427.33.704.448.288.106.683.229 1.184.368.63.17 1.142.341 1.536.512.395.16.73.405 1.008.736.288.33.438.762.448 1.296 0 .48-.133.912-.4 1.296-.266.384-.645.688-1.136.912-.48.213-1.034.32-1.664.32ZM315.723 404.791c.107.608.352 1.077.736 1.408.395.33.923.496 1.584.496.886 0 1.536-.347 1.952-1.04.427-.694.63-1.862.608-3.504-.224.48-.597.858-1.12 1.136-.522.266-1.104.4-1.744.4-.714 0-1.354-.144-1.92-.432a3.271 3.271 0 0 1-1.312-1.296c-.32-.566-.48-1.248-.48-2.048 0-1.142.331-2.059.992-2.752.662-.704 1.6-1.056 2.816-1.056 1.494 0 2.539.485 3.136 1.456.608.97.912 2.416.912 4.336 0 1.344-.122 2.453-.368 3.328-.234.874-.64 1.541-1.216 2-.565.458-1.344.688-2.336.688-1.088 0-1.936-.294-2.544-.88-.608-.587-.954-1.334-1.04-2.24h1.344Zm2.256-2.336c.715 0 1.302-.219 1.76-.656.459-.448.688-1.051.688-1.808 0-.8-.224-1.446-.672-1.936-.448-.491-1.077-.736-1.888-.736-.746 0-1.344.234-1.792.704-.437.469-.656 1.088-.656 1.856 0 .778.219 1.402.656 1.872.438.469 1.072.704 1.904.704Zm5.919-3.216c.074-.982.453-1.75 1.136-2.304.682-.555 1.568-.832 2.656-.832.725 0 1.349.133 1.872.4.533.256.933.608 1.2 1.056.277.448.416.954.416 1.52 0 .661-.192 1.232-.576 1.712a2.52 2.52 0 0 1-1.472.928v.08c.693.17 1.242.506 1.648 1.008.405.501.607 1.157.607 1.968 0 .608-.138 1.157-.415 1.648-.278.48-.694.858-1.248 1.136-.555.277-1.222.416-2 .416-1.131 0-2.059-.294-2.784-.88-.726-.598-1.131-1.44-1.216-2.528h1.408c.074.64.336 1.162.784 1.568.448.405 1.045.608 1.792.608.746 0 1.312-.192 1.696-.576.394-.395.592-.902.592-1.52 0-.8-.267-1.376-.8-1.728-.534-.352-1.339-.528-2.416-.528h-.368v-1.216h.384c.981-.011 1.722-.171 2.224-.48.501-.32.752-.811.752-1.472 0-.566-.187-1.019-.56-1.36-.363-.342-.886-.512-1.569-.512-.661 0-1.194.17-1.599.512-.406.341-.646.8-.72 1.376h-1.424Zm9.133-.304c0-.726.219-1.302.656-1.728.438-.438.998-.656 1.68-.656.683 0 1.243.218 1.68.656.438.426.656 1.002.656 1.728 0 .736-.218 1.322-.656 1.76-.437.426-.997.64-1.68.64-.682 0-1.242-.214-1.68-.64-.437-.438-.656-1.024-.656-1.76Zm9.344-2.208-6.48 11.168h-1.44l6.48-11.168h1.44Zm-7.008.72c-.362 0-.65.128-.864.384-.202.245-.304.613-.304 1.104 0 .49.102.864.304 1.12.214.256.502.384.864.384.363 0 .651-.128.864-.384.214-.267.32-.64.32-1.12 0-.491-.106-.859-.32-1.104-.213-.256-.501-.384-.864-.384Zm3.792 8.24c0-.736.219-1.318.656-1.744.438-.438.998-.656 1.68-.656.683 0 1.238.218 1.664.656.438.426.656 1.008.656 1.744 0 .725-.218 1.306-.656 1.744-.426.437-.981.656-1.664.656-.682 0-1.242-.214-1.68-.64-.437-.438-.656-1.024-.656-1.76Zm2.32-1.488c-.362 0-.65.128-.864.384-.213.245-.32.613-.32 1.104 0 .48.107.848.32 1.104.214.245.502.368.864.368.363 0 .651-.123.864-.368.214-.256.32-.624.32-1.104 0-.491-.106-.859-.32-1.104-.213-.256-.501-.384-.864-.384Z"/>
    <rect width="20" height="20" x=".5" y="436.895" fill="#6C47FF" rx="3"/>
    <path fill="#fff"
          d="M44.788 453.507c-1.035 0-1.979-.24-2.832-.72a5.466 5.466 0 0 1-2.032-2.032c-.49-.875-.736-1.856-.736-2.944 0-1.088.245-2.064.736-2.928a5.31 5.31 0 0 1 2.032-2.032c.853-.491 1.797-.736 2.832-.736 1.045 0 1.995.245 2.848.736a5.231 5.231 0 0 1 2.016 2.016c.49.864.736 1.845.736 2.944 0 1.098-.245 2.08-.736 2.944a5.348 5.348 0 0 1-2.016 2.032c-.853.48-1.803.72-2.848.72Zm0-1.264c.779 0 1.477-.182 2.096-.544.63-.363 1.12-.88 1.472-1.552.363-.672.544-1.451.544-2.336 0-.896-.181-1.675-.544-2.336a3.788 3.788 0 0 0-1.456-1.552c-.619-.363-1.323-.544-2.112-.544-.79 0-1.493.181-2.112.544-.619.362-1.11.88-1.472 1.552-.352.661-.528 1.44-.528 2.336 0 .885.176 1.664.528 2.336a3.902 3.902 0 0 0 1.472 1.552 4.16 4.16 0 0 0 2.112.544Zm9.298-6.416v5.168c0 .426.09.73.272.912.181.17.496.256.944.256h1.072v1.232h-1.312c-.81 0-1.418-.187-1.824-.56-.405-.374-.608-.987-.608-1.84v-5.168h-1.136v-1.2h1.136v-2.208h1.456v2.208h2.288v1.2h-2.288Zm8.404-1.36a3.71 3.71 0 0 1 1.792.432c.534.277.95.698 1.248 1.264.31.565.464 1.253.464 2.064v5.168h-1.44v-4.96c0-.875-.218-1.542-.656-2-.437-.47-1.034-.704-1.792-.704-.768 0-1.381.24-1.84.72-.448.48-.672 1.178-.672 2.096v4.848h-1.456v-11.84h1.456v4.32a2.877 2.877 0 0 1 1.184-1.04 3.901 3.901 0 0 1 1.712-.368Zm13.883 4.208c0 .277-.016.57-.048.88h-7.008c.053.864.346 1.541.88 2.032.544.48 1.2.72 1.968.72.629 0 1.152-.144 1.568-.432a2.36 2.36 0 0 0 .896-1.184h1.568a3.812 3.812 0 0 1-1.408 2.064c-.704.522-1.579.784-2.624.784-.832 0-1.579-.187-2.24-.56a4.002 4.002 0 0 1-1.536-1.584c-.374-.694-.56-1.494-.56-2.4 0-.907.181-1.702.544-2.384a3.776 3.776 0 0 1 1.52-1.568c.661-.374 1.418-.56 2.272-.56.832 0 1.568.181 2.208.544.64.362 1.13.864 1.472 1.504.352.629.528 1.344.528 2.144Zm-1.504-.304c0-.555-.123-1.03-.368-1.424a2.308 2.308 0 0 0-1.008-.912 2.997 2.997 0 0 0-1.392-.32c-.736 0-1.366.234-1.888.704-.512.469-.806 1.12-.88 1.952h5.536Zm4.882-2.32a2.803 2.803 0 0 1 1.087-1.168c.48-.278 1.062-.416 1.745-.416v1.504h-.385c-1.631 0-2.447.885-2.447 2.656v4.768h-1.457v-8.768h1.457v1.424ZM329.643 444.079c-.235-1.184-.965-1.776-2.192-1.776-.949 0-1.659.368-2.128 1.104-.469.725-.699 1.925-.688 3.6.245-.555.651-.987 1.216-1.296a3.886 3.886 0 0 1 1.92-.48c1.099 0 1.973.341 2.624 1.024.661.682.992 1.626.992 2.832 0 .725-.144 1.376-.432 1.952a3.182 3.182 0 0 1-1.28 1.376c-.565.341-1.253.512-2.064.512-1.099 0-1.957-.246-2.576-.736-.619-.491-1.051-1.168-1.296-2.032-.245-.864-.368-1.931-.368-3.2 0-3.915 1.365-5.872 4.096-5.872 1.045 0 1.867.282 2.464.848.597.565.949 1.28 1.056 2.144h-1.344Zm-2.176 2.384c-.459 0-.891.096-1.296.288a2.308 2.308 0 0 0-.992.848c-.245.373-.368.832-.368 1.376 0 .81.235 1.472.704 1.984.469.501 1.141.752 2.016.752.747 0 1.339-.23 1.776-.688.448-.47.672-1.099.672-1.888 0-.832-.213-1.483-.64-1.952-.427-.48-1.051-.72-1.872-.72Zm5.564-2.528c0-.726.219-1.302.656-1.728.438-.438.998-.656 1.68-.656.683 0 1.243.218 1.68.656.438.426.656 1.002.656 1.728 0 .736-.218 1.322-.656 1.76-.437.426-.997.64-1.68.64-.682 0-1.242-.214-1.68-.64-.437-.438-.656-1.024-.656-1.76Zm9.344-2.208-6.48 11.168h-1.44l6.48-11.168h1.44Zm-7.008.72c-.362 0-.65.128-.864.384-.202.245-.304.613-.304 1.104 0 .49.102.864.304 1.12.214.256.502.384.864.384.363 0 .651-.128.864-.384.214-.267.32-.64.32-1.12 0-.491-.106-.859-.32-1.104-.213-.256-.501-.384-.864-.384Zm3.792 8.24c0-.736.219-1.318.656-1.744.438-.438.998-.656 1.68-.656.683 0 1.238.218 1.664.656.438.426.656 1.008.656 1.744 0 .725-.218 1.306-.656 1.744-.426.437-.981.656-1.664.656-.682 0-1.242-.214-1.68-.64-.437-.438-.656-1.024-.656-1.76Zm2.32-1.488c-.362 0-.65.128-.864.384-.213.245-.32.613-.32 1.104 0 .48.107.848.32 1.104.214.245.502.368.864.368.363 0 .651-.123.864-.368.214-.256.32-.624.32-1.104 0-.491-.106-.859-.32-1.104-.213-.256-.501-.384-.864-.384Z"/>
    <rect width="20" height="20" x=".5" y="481.895" fill="#ED4343" rx="3"/>
    <path fill="#fff"
          d="M46.596 488.743v1.184h-3.04v9.968H42.1v-9.968h-3.056v-1.184h7.552Zm3.248 3.808a2.802 2.802 0 0 1 1.088-1.168c.48-.278 1.062-.416 1.744-.416v1.504h-.384c-1.632 0-2.448.885-2.448 2.656v4.768h-1.456v-8.768h1.456v1.424Zm3.969 2.928c0-.896.181-1.68.544-2.352a3.948 3.948 0 0 1 1.488-1.584 4.14 4.14 0 0 1 2.128-.56c.768 0 1.435.165 2 .496.565.33.987.746 1.264 1.248v-1.6h1.472v8.768h-1.472v-1.632c-.288.512-.72.938-1.296 1.28-.565.33-1.227.496-1.984.496a3.974 3.974 0 0 1-2.112-.576 4.043 4.043 0 0 1-1.488-1.616c-.363-.694-.544-1.483-.544-2.368Zm7.424.016c0-.662-.133-1.238-.4-1.728a2.752 2.752 0 0 0-1.088-1.12 2.851 2.851 0 0 0-1.488-.4c-.544 0-1.04.128-1.488.384a2.784 2.784 0 0 0-1.072 1.12c-.267.49-.4 1.066-.4 1.728 0 .672.133 1.258.4 1.76.267.49.624.869 1.072 1.136.448.256.944.384 1.488.384s1.04-.128 1.488-.384a2.87 2.87 0 0 0 1.088-1.136c.267-.502.4-1.083.4-1.744Zm8.205-4.528c1.066 0 1.93.325 2.592.976.66.64.991 1.568.991 2.784v5.168h-1.44v-4.96c0-.875-.218-1.542-.655-2-.438-.47-1.035-.704-1.793-.704-.767 0-1.38.24-1.84.72-.447.48-.671 1.178-.671 2.096v4.848h-1.457v-8.768h1.457v1.248a2.9 2.9 0 0 1 1.167-1.04 3.69 3.69 0 0 1 1.648-.368Zm9.066 9.072c-.672 0-1.275-.112-1.808-.336-.534-.235-.955-.555-1.264-.96a2.595 2.595 0 0 1-.512-1.424h1.504c.043.437.245.794.608 1.072.373.277.858.416 1.456.416.554 0 .992-.123 1.312-.368.32-.246.48-.555.48-.928a.898.898 0 0 0-.512-.848c-.342-.192-.87-.379-1.584-.56a13.209 13.209 0 0 1-1.6-.512 3.05 3.05 0 0 1-1.056-.784c-.288-.352-.432-.811-.432-1.376 0-.448.133-.859.4-1.232.266-.374.645-.667 1.136-.88.49-.224 1.05-.336 1.68-.336.97 0 1.754.245 2.352.736.597.49.917 1.162.96 2.016h-1.456a1.493 1.493 0 0 0-.56-1.104c-.33-.278-.779-.416-1.344-.416-.523 0-.939.112-1.248.336-.31.224-.464.517-.464.88 0 .288.09.528.272.72.192.181.426.33.704.448.288.106.683.229 1.184.368.63.17 1.141.341 1.536.512.395.16.73.405 1.008.736.288.33.437.762.448 1.296 0 .48-.133.912-.4 1.296s-.646.688-1.136.912c-.48.213-1.035.32-1.664.32Zm6.711-7.296c.288-.502.715-.918 1.28-1.248.576-.342 1.243-.512 2-.512.779 0 1.483.186 2.112.56.64.373 1.142.901 1.504 1.584.363.672.544 1.456.544 2.352 0 .885-.181 1.674-.544 2.368a4.006 4.006 0 0 1-1.504 1.616 3.974 3.974 0 0 1-2.112.576c-.746 0-1.408-.166-1.984-.496-.565-.342-.997-.763-1.296-1.264v5.776h-1.456v-12.928h1.456v1.616Zm5.952 2.736c0-.662-.133-1.238-.4-1.728a2.752 2.752 0 0 0-1.088-1.12 2.946 2.946 0 0 0-1.488-.384c-.533 0-1.03.133-1.488.4-.448.256-.81.634-1.088 1.136-.266.49-.4 1.061-.4 1.712 0 .661.134 1.242.4 1.744.278.49.64.869 1.088 1.136.459.256.955.384 1.488.384.544 0 1.04-.128 1.488-.384a2.87 2.87 0 0 0 1.088-1.136c.267-.502.4-1.088.4-1.76Zm7.229 4.56a4.537 4.537 0 0 1-2.24-.56 4.079 4.079 0 0 1-1.568-1.584c-.374-.694-.56-1.494-.56-2.4 0-.896.192-1.686.576-2.368a4 4 0 0 1 1.6-1.584c.672-.374 1.424-.56 2.256-.56.832 0 1.584.186 2.256.56.672.362 1.2.885 1.584 1.568.394.682.592 1.477.592 2.384 0 .906-.203 1.706-.608 2.4a4.134 4.134 0 0 1-1.616 1.584c-.683.373-1.44.56-2.272.56Zm0-1.28c.522 0 1.013-.123 1.472-.368a2.764 2.764 0 0 0 1.104-1.104c.288-.491.432-1.088.432-1.792s-.139-1.302-.416-1.792c-.278-.491-.64-.854-1.088-1.088a2.976 2.976 0 0 0-1.456-.368c-.534 0-1.024.122-1.472.368-.438.234-.79.597-1.056 1.088-.267.49-.4 1.088-.4 1.792 0 .714.128 1.317.384 1.808.266.49.618.858 1.056 1.104.437.234.917.352 1.44.352Zm7.866-6.208a2.804 2.804 0 0 1 1.088-1.168c.48-.278 1.061-.416 1.744-.416v1.504h-.384c-1.632 0-2.448.885-2.448 2.656v4.768h-1.456v-8.768h1.456v1.424Zm6.289-.224v5.168c0 .426.091.73.272.912.181.17.496.256.944.256h1.072v1.232h-1.312c-.811 0-1.419-.187-1.824-.56-.405-.374-.608-.987-.608-1.84v-5.168h-1.136v-1.2h1.136v-2.208h1.456v2.208h2.288v1.2h-2.288Zm3.508 3.152c0-.896.181-1.68.544-2.352a3.952 3.952 0 0 1 1.488-1.584 4.139 4.139 0 0 1 2.128-.56c.768 0 1.435.165 2 .496.565.33.987.746 1.264 1.248v-1.6h1.472v8.768h-1.472v-1.632c-.288.512-.72.938-1.296 1.28-.565.33-1.227.496-1.984.496a3.973 3.973 0 0 1-2.112-.576 4.047 4.047 0 0 1-1.488-1.616c-.363-.694-.544-1.483-.544-2.368Zm7.424.016c0-.662-.133-1.238-.4-1.728a2.752 2.752 0 0 0-1.088-1.12 2.851 2.851 0 0 0-1.488-.4c-.544 0-1.04.128-1.488.384a2.786 2.786 0 0 0-1.072 1.12c-.267.49-.4 1.066-.4 1.728 0 .672.133 1.258.4 1.76.267.49.624.869 1.072 1.136.448.256.944.384 1.488.384s1.04-.128 1.488-.384a2.87 2.87 0 0 0 1.088-1.136c.267-.502.4-1.083.4-1.744Zm5.709-3.168v5.168c0 .426.09.73.272.912.181.17.496.256.943.256h1.073v1.232h-1.312c-.811 0-1.419-.187-1.824-.56-.406-.374-.608-.987-.608-1.84v-5.168h-1.136v-1.2h1.136v-2.208h1.456v2.208h2.288v1.2h-2.288Zm4.804-2.624a.957.957 0 0 1-.704-.288.958.958 0 0 1-.288-.704c0-.278.096-.512.288-.704a.957.957 0 0 1 .704-.288.89.89 0 0 1 .672.288.957.957 0 0 1 .288.704.958.958 0 0 1-.288.704.89.89 0 0 1-.672.288Zm.704 1.424v8.768h-1.456v-8.768h1.456Zm6.305 8.912a4.538 4.538 0 0 1-2.24-.56 4.081 4.081 0 0 1-1.568-1.584c-.373-.694-.56-1.494-.56-2.4 0-.896.192-1.686.576-2.368a4.002 4.002 0 0 1 1.6-1.584c.672-.374 1.424-.56 2.256-.56.832 0 1.584.186 2.256.56.672.362 1.2.885 1.584 1.568.395.682.592 1.477.592 2.384 0 .906-.203 1.706-.608 2.4a4.128 4.128 0 0 1-1.616 1.584c-.683.373-1.44.56-2.272.56Zm0-1.28c.523 0 1.013-.123 1.472-.368a2.753 2.753 0 0 0 1.104-1.104c.288-.491.432-1.088.432-1.792s-.139-1.302-.416-1.792c-.277-.491-.64-.854-1.088-1.088a2.975 2.975 0 0 0-1.456-.368c-.533 0-1.024.122-1.472.368-.437.234-.789.597-1.056 1.088-.267.49-.4 1.088-.4 1.792 0 .714.128 1.317.384 1.808.267.49.619.858 1.056 1.104.437.234.917.352 1.44.352Zm10.683-7.792c1.066 0 1.93.325 2.592.976.661.64.992 1.568.992 2.784v5.168h-1.44v-4.96c0-.875-.219-1.542-.656-2-.438-.47-1.035-.704-1.792-.704-.768 0-1.382.24-1.84.72-.448.48-.672 1.178-.672 2.096v4.848h-1.456v-8.768h1.456v1.248a2.898 2.898 0 0 1 1.168-1.04 3.686 3.686 0 0 1 1.648-.368ZM327.842 487.655v-1.328h3.008v11.568h-1.472v-10.24h-1.536Zm5.189 1.28c0-.726.219-1.302.656-1.728.438-.438.998-.656 1.68-.656.683 0 1.243.218 1.68.656.438.426.656 1.002.656 1.728 0 .736-.218 1.322-.656 1.76-.437.426-.997.64-1.68.64-.682 0-1.242-.214-1.68-.64-.437-.438-.656-1.024-.656-1.76Zm9.344-2.208-6.48 11.168h-1.44l6.48-11.168h1.44Zm-7.008.72c-.362 0-.65.128-.864.384-.202.245-.304.613-.304 1.104 0 .49.102.864.304 1.12.214.256.502.384.864.384.363 0 .651-.128.864-.384.214-.267.32-.64.32-1.12 0-.491-.106-.859-.32-1.104-.213-.256-.501-.384-.864-.384Zm3.792 8.24c0-.736.219-1.318.656-1.744.438-.438.998-.656 1.68-.656.683 0 1.238.218 1.664.656.438.426.656 1.008.656 1.744 0 .725-.218 1.306-.656 1.744-.426.437-.981.656-1.664.656-.682 0-1.242-.214-1.68-.64-.437-.438-.656-1.024-.656-1.76Zm2.32-1.488c-.362 0-.65.128-.864.384-.213.245-.32.613-.32 1.104 0 .48.107.848.32 1.104.214.245.502.368.864.368.363 0 .651-.123.864-.368.214-.256.32-.624.32-1.104 0-.491-.106-.859-.32-1.104-.213-.256-.501-.384-.864-.384Z"/>
</svg>
