<svg xmlns="http://www.w3.org/2000/svg" fill="none" viewBox="0 0 352 694">
    <path fill="#fff"
          d="M106.739 15.922c-.097-.447-.266-.78-.507-.997-.242-.229-.586-.344-1.033-.344-.689 0-1.184.302-1.486.906-.302.592-.459 1.534-.471 2.827a2.717 2.717 0 0 1 1.141-.997 3.83 3.83 0 0 1 1.667-.362c1.184 0 2.132.374 2.845 1.123.725.749 1.087 1.794 1.087 3.135 0 .881-.181 1.654-.543 2.319a3.73 3.73 0 0 1-1.559 1.558c-.676.374-1.479.562-2.409.562-1.861 0-3.153-.58-3.878-1.74-.724-1.171-1.087-2.85-1.087-5.037 0-2.295.381-3.998 1.142-5.11.773-1.122 2.005-1.684 3.696-1.684.906 0 1.667.181 2.283.543.628.35 1.099.816 1.413 1.396.326.58.519 1.213.58 1.902h-2.881Zm-1.431 3.479c-.52 0-.955.157-1.305.47-.338.303-.507.738-.507 1.305 0 .58.157 1.033.471 1.36.326.325.785.488 1.377.488.531 0 .948-.157 1.25-.47.314-.327.471-.768.471-1.323 0-.568-.151-1.015-.453-1.341-.302-.326-.737-.49-1.304-.49Zm10.068 3.315-2.011 5.2h-1.975l1.051-5.2h2.935Zm1.56-3.931c0-2.078.399-3.715 1.196-4.91.81-1.196 2.108-1.794 3.896-1.794 1.787 0 3.08.598 3.877 1.794.809 1.195 1.214 2.832 1.214 4.91 0 2.101-.405 3.75-1.214 4.946-.797 1.196-2.09 1.794-3.877 1.794-1.788 0-3.086-.598-3.896-1.794-.797-1.196-1.196-2.845-1.196-4.946Zm7.139 0c0-1.22-.133-2.156-.399-2.809-.265-.664-.815-.996-1.648-.996-.834 0-1.383.332-1.649.996-.266.653-.399 1.589-.399 2.809 0 .821.049 1.503.145 2.047.097.531.29.966.58 1.305.302.326.743.489 1.323.489s1.014-.163 1.304-.49c.302-.338.502-.773.598-1.304.097-.544.145-1.226.145-2.047Zm4.427-3.099c0-.978.278-1.733.834-2.264.567-.532 1.298-.798 2.192-.798.894 0 1.619.266 2.174.798.556.531.834 1.286.834 2.264 0 .979-.278 1.734-.834 2.265-.555.532-1.28.797-2.174.797-.894 0-1.625-.265-2.192-.797-.556-.531-.834-1.286-.834-2.265Zm12.303-2.862-6.976 12.755h-2.99l6.976-12.755h2.99Zm-9.295 1.612c-.58 0-.87.417-.87 1.25 0 .822.29 1.233.87 1.233a.775.775 0 0 0 .652-.309c.157-.205.236-.513.236-.924 0-.833-.296-1.25-.888-1.25Zm5.617 8.28c0-.978.277-1.733.833-2.264.556-.532 1.28-.798 2.174-.798.894 0 1.619.266 2.174.798.556.531.834 1.286.834 2.264 0 .979-.278 1.734-.834 2.265-.555.532-1.28.797-2.174.797-.894 0-1.618-.265-2.174-.797-.556-.531-.833-1.286-.833-2.265Zm2.989-1.25a.775.775 0 0 0-.652.308c-.145.206-.218.52-.218.942 0 .822.29 1.232.87 1.232a.774.774 0 0 0 .652-.308c.157-.205.236-.513.236-.924 0-.41-.079-.718-.236-.924a.76.76 0 0 0-.652-.326ZM48.776 34.216c.048-1.292.47-2.289 1.268-2.99.797-.7 1.878-1.05 3.243-1.05.906 0 1.68.157 2.32.471.651.314 1.14.743 1.467 1.287.338.543.507 1.153.507 1.83 0 .797-.2 1.449-.598 1.956-.398.495-.863.834-1.395 1.015v.072c.689.23 1.232.61 1.63 1.142.4.531.599 1.214.599 2.047 0 .75-.175 1.413-.526 1.993-.338.568-.84 1.015-1.504 1.341-.652.326-1.43.49-2.337.49-1.45 0-2.609-.357-3.479-1.07-.857-.712-1.31-1.788-1.358-3.225h3.007c.012.532.163.954.453 1.268.29.302.713.453 1.268.453.471 0 .834-.133 1.087-.398.266-.278.4-.64.4-1.087 0-.58-.188-.997-.563-1.25-.362-.266-.948-.4-1.757-.4h-.58v-2.518h.58c.616 0 1.111-.102 1.486-.308.386-.217.58-.597.58-1.141 0-.435-.121-.773-.363-1.015-.242-.241-.574-.362-.996-.362-.46 0-.804.139-1.033.417-.218.278-.344.622-.38 1.032h-3.026Zm14.503 6.632-2.011 5.2h-1.975l1.05-5.2h2.936Zm3.734-4.24c-1.135-.604-1.703-1.552-1.703-2.845 0-.652.17-1.244.507-1.775.339-.544.852-.973 1.54-1.287.689-.326 1.534-.489 2.537-.489s1.842.163 2.518.49c.689.313 1.202.742 1.54 1.286.339.531.508 1.123.508 1.775 0 .653-.157 1.22-.471 1.704a3.207 3.207 0 0 1-1.232 1.141c.652.314 1.153.749 1.504 1.305.35.543.525 1.183.525 1.92 0 .858-.217 1.6-.652 2.229-.435.616-1.027 1.087-1.776 1.413-.737.326-1.558.49-2.464.49-.906 0-1.733-.164-2.482-.49-.737-.326-1.323-.797-1.758-1.413-.434-.628-.652-1.371-.652-2.229 0-.749.175-1.395.526-1.939.35-.555.845-.984 1.485-1.286Zm4.44-2.373c0-.496-.146-.876-.436-1.142-.277-.278-.652-.417-1.123-.417s-.852.14-1.141.417c-.278.278-.417.664-.417 1.16 0 .47.145.845.435 1.123.29.266.664.399 1.123.399.459 0 .834-.14 1.123-.417.29-.278.435-.652.435-1.123Zm-1.559 3.714c-.568 0-1.027.157-1.377.47-.35.303-.525.726-.525 1.27 0 .507.169.923.507 1.25.35.325.815.489 1.395.489.58 0 1.033-.163 1.359-.49.338-.326.507-.742.507-1.25 0-.531-.175-.954-.525-1.268-.338-.314-.785-.471-1.341-.471Zm6.44-4.131c0-.979.278-1.733.833-2.265.568-.532 1.299-.797 2.193-.797.894 0 1.618.265 2.174.797.556.531.833 1.286.833 2.265 0 .978-.277 1.733-.833 2.265-.556.531-1.28.797-2.174.797-.894 0-1.625-.266-2.193-.797-.555-.532-.833-1.287-.833-2.265Zm12.302-2.863L81.661 43.71h-2.99l6.976-12.755h2.99Zm-9.294 1.613c-.58 0-.87.416-.87 1.25 0 .821.29 1.232.87 1.232a.775.775 0 0 0 .652-.308c.157-.206.236-.514.236-.924 0-.834-.297-1.25-.888-1.25Zm5.616 8.28c0-.979.278-1.734.834-2.265.555-.532 1.28-.797 2.174-.797.894 0 1.619.265 2.174.797.556.531.834 1.286.834 2.265 0 .978-.278 1.733-.834 2.264-.555.532-1.28.798-2.174.798-.894 0-1.619-.266-2.174-.797-.556-.532-.834-1.287-.834-2.265Zm2.99-1.25a.775.775 0 0 0-.652.308c-.145.205-.218.519-.218.942 0 .821.29 1.232.87 1.232a.775.775 0 0 0 .652-.308c.157-.206.236-.514.236-.924 0-.41-.079-.719-.236-.924a.76.76 0 0 0-.652-.326ZM153.604 9.654v-2.88h5.019V20h-3.225V9.654h-1.794Zm10.78 7.483-2.011 5.2h-1.975l1.051-5.2h2.935Zm1.234-7.483v-2.88h5.019V20h-3.225V9.654h-1.794Zm6.885.453c0-.978.277-1.733.833-2.264.568-.532 1.299-.798 2.192-.798.894 0 1.619.266 2.175.798.555.531.833 1.286.833 2.264 0 .979-.278 1.734-.833 2.265-.556.532-1.281.797-2.175.797-.893 0-1.624-.265-2.192-.797-.556-.531-.833-1.286-.833-2.265Zm12.302-2.862L177.829 20h-2.989l6.976-12.755h2.989Zm-9.295 1.612c-.579 0-.869.417-.869 1.25 0 .822.29 1.232.869 1.232a.776.776 0 0 0 .653-.308c.157-.205.235-.513.235-.924 0-.833-.296-1.25-.888-1.25Zm5.617 8.28c0-.978.278-1.733.833-2.264.556-.532 1.281-.798 2.175-.798.894 0 1.618.266 2.174.798.556.531.833 1.286.833 2.264 0 .979-.277 1.734-.833 2.265-.556.532-1.28.797-2.174.797-.894 0-1.619-.265-2.175-.797-.555-.531-.833-1.286-.833-2.265Zm2.99-1.25a.776.776 0 0 0-.653.308c-.145.206-.217.52-.217.942 0 .822.29 1.232.87 1.232a.776.776 0 0 0 .652-.308c.157-.205.235-.513.235-.924 0-.41-.078-.718-.235-.924a.76.76 0 0 0-.652-.326ZM217.272 14.672l-4.548 10.907h-3.17l4.602-10.563h-5.635v-2.645h8.751v2.3Zm4.895 8.044-2.011 5.2h-1.975l1.051-5.2h2.935Zm1.234-7.483v-2.88h5.019v13.226h-3.225V15.233h-1.794Zm6.885.453c0-.978.277-1.733.833-2.264.568-.532 1.299-.798 2.192-.798.894 0 1.619.266 2.175.798.555.531.833 1.286.833 2.264 0 .979-.278 1.734-.833 2.265-.556.532-1.281.797-2.175.797-.893 0-1.624-.265-2.192-.797-.556-.531-.833-1.286-.833-2.265Zm12.302-2.862-6.976 12.755h-2.989l6.975-12.755h2.99Zm-9.295 1.612c-.58 0-.869.417-.869 1.25 0 .822.289 1.233.869 1.233a.778.778 0 0 0 .653-.309c.157-.205.235-.513.235-.924 0-.833-.296-1.25-.888-1.25Zm5.617 8.28c0-.978.278-1.733.833-2.264.556-.532 1.281-.798 2.175-.798.893 0 1.618.266 2.174.798.555.531.833 1.286.833 2.264 0 .979-.278 1.734-.833 2.265-.556.532-1.281.797-2.174.797-.894 0-1.619-.265-2.175-.797-.555-.531-.833-1.286-.833-2.265Zm2.989-1.25a.776.776 0 0 0-.652.308c-.145.206-.217.52-.217.942 0 .822.29 1.232.869 1.232a.776.776 0 0 0 .653-.308c.157-.205.235-.513.235-.924 0-.41-.078-.718-.235-.924a.76.76 0 0 0-.653-.326ZM158.21 385.292c-1.136-.604-1.704-1.552-1.704-2.844 0-.653.169-1.245.508-1.776.338-.544.851-.972 1.54-1.286.688-.327 1.534-.49 2.536-.49 1.003 0 1.842.163 2.519.49.688.314 1.202.742 1.54 1.286.338.531.507 1.123.507 1.776 0 .652-.157 1.219-.471 1.703a3.211 3.211 0 0 1-1.232 1.141c.652.314 1.154.749 1.504 1.305.35.543.525 1.183.525 1.92 0 .858-.217 1.601-.652 2.229-.435.616-1.027 1.087-1.776 1.413-.736.326-1.558.489-2.464.489-.906 0-1.733-.163-2.482-.489-.737-.326-1.323-.797-1.757-1.413-.435-.628-.653-1.371-.653-2.229 0-.749.176-1.395.526-1.938.35-.556.845-.985 1.486-1.287Zm4.439-2.373c0-.496-.145-.876-.435-1.142-.278-.278-.653-.417-1.124-.417-.471 0-.851.139-1.141.417-.278.278-.417.664-.417 1.16 0 .471.145.845.435 1.123.29.266.664.399 1.123.399.459 0 .834-.139 1.124-.417.29-.278.435-.652.435-1.123Zm-1.559 3.714c-.567 0-1.026.157-1.377.471-.35.302-.525.725-.525 1.268 0 .508.169.924.507 1.25.351.327.816.49 1.395.49.58 0 1.033-.163 1.359-.49.338-.326.508-.742.508-1.25 0-.531-.176-.954-.526-1.268-.338-.314-.785-.471-1.341-.471Zm6.585 3.279a66.478 66.478 0 0 0 3.352-2.862 11.471 11.471 0 0 0 1.74-1.975c.471-.689.706-1.359.706-2.011 0-.496-.115-.882-.344-1.16-.23-.278-.574-.417-1.033-.417-.459 0-.821.175-1.087.526-.254.338-.38.821-.38 1.449h-2.99c.024-1.027.242-1.884.652-2.573.423-.688.973-1.195 1.649-1.522.689-.326 1.45-.489 2.283-.489 1.437 0 2.518.369 3.243 1.105.737.737 1.105 1.698 1.105 2.881 0 1.293-.44 2.495-1.322 3.606-.882 1.099-2.005 2.174-3.37 3.225h4.892v2.518h-9.096v-2.301Zm14.102-.38-2.012 5.2h-1.974l1.05-5.2h2.936Zm1.234-7.483v-2.881h5.018v13.227h-3.225v-10.346h-1.793Zm6.884.453c0-.979.278-1.733.834-2.265.567-.531 1.298-.797 2.192-.797.894 0 1.619.266 2.174.797.556.532.834 1.286.834 2.265 0 .978-.278 1.733-.834 2.265-.555.531-1.28.797-2.174.797-.894 0-1.625-.266-2.192-.797-.556-.532-.834-1.287-.834-2.265Zm12.303-2.863-6.976 12.756h-2.989l6.975-12.756h2.99Zm-9.295 1.613c-.58 0-.87.416-.87 1.25 0 .821.29 1.232.87 1.232a.775.775 0 0 0 .652-.308c.157-.205.236-.513.236-.924 0-.834-.296-1.25-.888-1.25Zm5.617 8.28c0-.979.277-1.734.833-2.265.556-.531 1.28-.797 2.174-.797.894 0 1.619.266 2.174.797.556.531.834 1.286.834 2.265 0 .978-.278 1.733-.834 2.265-.555.531-1.28.797-2.174.797-.894 0-1.618-.266-2.174-.797-.556-.532-.833-1.287-.833-2.265Zm2.989-1.25a.773.773 0 0 0-.652.308c-.145.205-.218.519-.218.942 0 .821.29 1.232.87 1.232a.775.775 0 0 0 .652-.308c.157-.205.236-.513.236-.924 0-.411-.079-.719-.236-.924a.758.758 0 0 0-.652-.326Z"/>
    <path id="slice-0" fill="#76B7B2"
          d="M245.591 44.22a172.106 172.106 0 0 1 78.875 75.245 172.46 172.46 0 0 1 17.919 107.606 172.33 172.33 0 0 1-50.224 96.805 171.894 171.894 0 0 1-98.221 47.175 171.789 171.789 0 0 1-106.822-21.378 172.164 172.164 0 0 1-72.574-81.356A172.483 172.483 0 0 1 5.33 159.616a172.282 172.282 0 0 1 57.84-92.445L172.5 200.145l73.091-155.924Z"/>
    <path id="slice-1" fill="#508DB9"
          d="M172.5 27.895a171.79 171.79 0 0 1 74.274 16.888L172.5 200.145V27.895Z"/>
    <path id="slice-2" fill="#E15759"
          d="M164.526 28.08c2.965-.138 5.932-.199 8.9-.183l-.926 172.248-7.974-172.065Z"/>
    <path id="slice-3" fill="#F28E2C"
          d="M158.588 28.459c3.408-.277 6.825-.452 10.244-.525l3.668 172.211-13.912-171.686Z"/>
    <path id="slice-4" fill="#59A14F"
          d="M98.383 44.707a171.806 171.806 0 0 1 60.282-16.254L172.5 200.145 98.383 44.707Z"/>
    <path id="slice-5" fill="#4E79A7"
          d="M61.554 68.52a171.972 171.972 0 0 1 37.04-23.913L172.5 200.145 61.554 68.519Z"/>
    <rect width="20" height="20" x=".5" y="421.895" fill="#76B7B2" rx="3"/>
    <path fill="#fff"
          d="M43.204 427.243c1.216 0 2.267.229 3.152.688.896.448 1.579 1.093 2.048 1.936.48.842.72 1.834.72 2.976 0 1.141-.24 2.133-.72 2.976-.47.832-1.152 1.472-2.048 1.92-.885.437-1.936.656-3.152.656h-3.472v-11.152h3.472Zm0 9.952c1.44 0 2.539-.379 3.296-1.136.757-.768 1.136-1.84 1.136-3.216 0-1.387-.384-2.47-1.152-3.248-.757-.779-1.85-1.168-3.28-1.168h-2.016v8.768h2.016Zm9.297-6.144a2.803 2.803 0 0 1 1.088-1.168c.48-.278 1.06-.416 1.744-.416v1.504h-.384c-1.633 0-2.448.885-2.448 2.656v4.768h-1.456v-8.768H52.5v1.424Zm5.264-2.848a.958.958 0 0 1-.704-.288.958.958 0 0 1-.288-.704c0-.278.096-.512.288-.704a.958.958 0 0 1 .704-.288c.267 0 .49.096.672.288a.957.957 0 0 1 .288.704.958.958 0 0 1-.288.704.888.888 0 0 1-.672.288Zm.704 1.424v8.768h-1.456v-8.768h1.456Zm3.938-3.072v11.84H60.95v-11.84h1.456Zm3.937 0v11.84h-1.456v-11.84h1.456Zm3.234 1.648a.958.958 0 0 1-.704-.288.958.958 0 0 1-.288-.704c0-.278.096-.512.288-.704a.958.958 0 0 1 .704-.288c.266 0 .49.096.672.288a.957.957 0 0 1 .288.704.958.958 0 0 1-.288.704.888.888 0 0 1-.672.288Zm.704 1.424v8.768h-1.456v-8.768h1.456Zm6.753-.16c1.067 0 1.93.325 2.592.976.662.64.992 1.568.992 2.784v5.168h-1.44v-4.96c0-.875-.218-1.542-.656-2-.437-.47-1.034-.704-1.792-.704-.768 0-1.381.24-1.84.72-.448.48-.672 1.178-.672 2.096v4.848h-1.456v-8.768h1.456v1.248a2.9 2.9 0 0 1 1.168-1.04 3.689 3.689 0 0 1 1.648-.368Zm9.579.016c.757 0 1.418.165 1.984.496.576.33 1.002.746 1.28 1.248v-1.6h1.472v8.96c0 .8-.171 1.509-.512 2.128a3.625 3.625 0 0 1-1.472 1.472c-.63.352-1.366.528-2.208.528-1.152 0-2.112-.272-2.88-.816-.768-.544-1.222-1.286-1.36-2.224h1.44c.16.533.49.96.992 1.28.501.33 1.104.496 1.808.496.8 0 1.45-.251 1.952-.752.512-.502.768-1.206.768-2.112v-1.84c-.288.512-.715.938-1.28 1.28-.566.341-1.227.512-1.984.512a4.057 4.057 0 0 1-2.128-.576 4.043 4.043 0 0 1-1.488-1.616c-.363-.694-.544-1.483-.544-2.368 0-.896.181-1.68.544-2.352a3.948 3.948 0 0 1 1.488-1.584 4.14 4.14 0 0 1 2.128-.56Zm3.264 4.512c0-.662-.134-1.238-.4-1.728a2.751 2.751 0 0 0-1.088-1.12 2.851 2.851 0 0 0-1.488-.4c-.544 0-1.04.128-1.488.384a2.784 2.784 0 0 0-1.072 1.12c-.267.49-.4 1.066-.4 1.728 0 .672.133 1.258.4 1.76.266.49.624.869 1.072 1.136.448.256.944.384 1.488.384s1.04-.128 1.488-.384a2.87 2.87 0 0 0 1.088-1.136c.266-.502.4-1.083.4-1.744ZM307.87 431.879c-.598-.235-1.056-.576-1.376-1.024-.32-.448-.48-.992-.48-1.632 0-.576.144-1.094.432-1.552.288-.47.714-.838 1.28-1.104.576-.278 1.269-.416 2.08-.416.81 0 1.498.138 2.064.416.576.266 1.008.634 1.296 1.104.298.458.448.976.448 1.552 0 .618-.166 1.162-.496 1.632-.331.458-.784.8-1.36 1.024.661.202 1.184.56 1.568 1.072.394.501.592 1.109.592 1.824 0 .693-.171 1.301-.512 1.824-.342.512-.827.912-1.456 1.2-.619.277-1.334.416-2.144.416-.811 0-1.526-.139-2.144-.416-.608-.288-1.083-.688-1.424-1.2-.342-.523-.512-1.131-.512-1.824 0-.715.192-1.328.576-1.84.384-.512.906-.864 1.568-1.056Zm4.336-2.48c0-.651-.214-1.152-.64-1.504-.427-.352-1.014-.528-1.76-.528-.736 0-1.318.176-1.744.528-.427.352-.64.858-.64 1.52 0 .597.218 1.077.656 1.44.448.362 1.024.544 1.728.544.714 0 1.29-.182 1.728-.544.448-.374.672-.859.672-1.456Zm-2.4 3.12c-.79 0-1.435.186-1.936.56-.502.362-.752.912-.752 1.648 0 .682.24 1.232.72 1.648.49.416 1.146.624 1.968.624.821 0 1.472-.208 1.952-.624.48-.416.72-.966.72-1.648 0-.715-.246-1.259-.736-1.632-.491-.384-1.136-.576-1.936-.576Zm5.869 4.208c1.355-1.088 2.416-1.979 3.184-2.672a13.019 13.019 0 0 0 1.936-2.192c.534-.768.8-1.52.8-2.256 0-.694-.17-1.238-.512-1.632-.33-.406-.869-.608-1.616-.608-.725 0-1.29.229-1.696.688-.394.448-.608 1.05-.64 1.808h-1.408c.043-1.195.406-2.118 1.088-2.768.683-.651 1.563-.976 2.64-.976 1.099 0 1.968.304 2.608.912.651.608.976 1.445.976 2.512 0 .885-.266 1.749-.8 2.592a11.394 11.394 0 0 1-1.792 2.208 47.02 47.02 0 0 1-2.576 2.208h5.504v1.216h-7.696v-1.04Zm11.124-.848-1.792 4.304h-.977l1.169-4.304h1.6Zm1.043-8.224v-1.328h3.008v11.568h-1.472v-10.24h-1.536Zm5.189 1.28c0-.726.219-1.302.656-1.728.438-.438.998-.656 1.68-.656.683 0 1.243.218 1.68.656.438.426.656 1.002.656 1.728 0 .736-.218 1.322-.656 1.76-.437.426-.997.64-1.68.64-.682 0-1.242-.214-1.68-.64-.437-.438-.656-1.024-.656-1.76Zm9.344-2.208-6.48 11.168h-1.44l6.48-11.168h1.44Zm-7.008.72c-.362 0-.65.128-.864.384-.202.245-.304.613-.304 1.104 0 .49.102.864.304 1.12.214.256.502.384.864.384.363 0 .651-.128.864-.384.214-.267.32-.64.32-1.12 0-.491-.106-.859-.32-1.104-.213-.256-.501-.384-.864-.384Zm3.792 8.24c0-.736.219-1.318.656-1.744.438-.438.998-.656 1.68-.656.683 0 1.238.218 1.664.656.438.426.656 1.008.656 1.744 0 .725-.218 1.306-.656 1.744-.426.437-.981.656-1.664.656-.682 0-1.242-.214-1.68-.64-.437-.438-.656-1.024-.656-1.76Zm2.32-1.488c-.362 0-.65.128-.864.384-.213.245-.32.613-.32 1.104 0 .48.107.848.32 1.104.214.245.502.368.864.368.363 0 .651-.123.864-.368.214-.256.32-.624.32-1.104 0-.491-.106-.859-.32-1.104-.213-.256-.501-.384-.864-.384Z"/>
    <rect width="20" height="20" x=".5" y="466.895" fill="#508DB9" rx="3"/>
    <path fill="#fff"
          d="M47.188 475.507c0 .928-.32 1.701-.96 2.32-.63.608-1.595.912-2.896.912h-2.144v4.656h-1.456v-11.152h3.6c1.259 0 2.213.304 2.864.912.661.608.992 1.392.992 2.352Zm-3.856 2.032c.81 0 1.408-.176 1.792-.528.384-.352.576-.854.576-1.504 0-1.376-.79-2.064-2.368-2.064h-2.144v4.096h2.144Zm7.122-1.488a2.803 2.803 0 0 1 1.088-1.168c.48-.278 1.061-.416 1.744-.416v1.504h-.384c-1.632 0-2.448.885-2.448 2.656v4.768h-1.456v-8.768h1.456v1.424Zm8.336 7.488a4.537 4.537 0 0 1-2.24-.56 4.079 4.079 0 0 1-1.568-1.584c-.373-.694-.56-1.494-.56-2.4 0-.896.192-1.686.576-2.368a4 4 0 0 1 1.6-1.584c.672-.374 1.424-.56 2.256-.56.832 0 1.584.186 2.256.56.672.362 1.2.885 1.584 1.568.395.682.592 1.477.592 2.384 0 .906-.202 1.706-.608 2.4a4.129 4.129 0 0 1-1.616 1.584 4.66 4.66 0 0 1-2.272.56Zm0-1.28c.523 0 1.014-.123 1.472-.368a2.758 2.758 0 0 0 1.104-1.104c.288-.491.432-1.088.432-1.792s-.138-1.302-.416-1.792c-.277-.491-.64-.854-1.088-1.088a2.976 2.976 0 0 0-1.456-.368c-.533 0-1.024.122-1.472.368-.437.234-.789.597-1.056 1.088-.266.49-.4 1.088-.4 1.792 0 .714.128 1.317.384 1.808.267.49.619.858 1.056 1.104.438.234.918.352 1.44.352Zm5.867-3.28c0-.896.181-1.68.544-2.352a3.947 3.947 0 0 1 1.488-1.584 4.17 4.17 0 0 1 2.144-.56c.682 0 1.317.16 1.904.48.586.309 1.034.72 1.344 1.232v-4.64h1.472v11.84H72.08v-1.648c-.288.522-.715.954-1.28 1.296-.566.33-1.227.496-1.984.496a4.057 4.057 0 0 1-2.128-.576 4.041 4.041 0 0 1-1.488-1.616c-.363-.694-.544-1.483-.544-2.368Zm7.424.016c0-.662-.134-1.238-.4-1.728a2.752 2.752 0 0 0-1.088-1.12 2.851 2.851 0 0 0-1.488-.4c-.544 0-1.04.128-1.488.384a2.783 2.783 0 0 0-1.072 1.12c-.267.49-.4 1.066-.4 1.728 0 .672.133 1.258.4 1.76.266.49.624.869 1.072 1.136.448.256.944.384 1.488.384s1.04-.128 1.488-.384a2.87 2.87 0 0 0 1.088-1.136c.266-.502.4-1.083.4-1.744Zm11.708-4.368v8.768h-1.456v-1.296c-.277.448-.666.8-1.168 1.056a3.602 3.602 0 0 1-1.632.368c-.682 0-1.296-.139-1.84-.416a3.186 3.186 0 0 1-1.296-1.28c-.31-.566-.464-1.254-.464-2.064v-5.136h1.44v4.944c0 .864.219 1.53.656 2 .438.458 1.035.688 1.792.688.779 0 1.392-.24 1.84-.72.448-.48.672-1.179.672-2.096v-4.816h1.456Zm1.915 4.368c0-.907.181-1.696.544-2.368a3.914 3.914 0 0 1 1.504-1.584c.65-.374 1.392-.56 2.224-.56 1.077 0 1.962.261 2.656.784.704.522 1.168 1.248 1.392 2.176h-1.568a2.235 2.235 0 0 0-.88-1.264c-.427-.31-.96-.464-1.6-.464-.832 0-1.504.288-2.016.864-.512.565-.768 1.37-.768 2.416 0 1.056.256 1.872.768 2.448.512.576 1.184.864 2.016.864.64 0 1.173-.15 1.6-.448.426-.299.72-.726.88-1.28h1.568c-.235.896-.704 1.616-1.408 2.16-.704.533-1.584.8-2.64.8-.832 0-1.574-.187-2.224-.56a3.926 3.926 0 0 1-1.504-1.584c-.363-.683-.544-1.483-.544-2.4Zm12.038-3.168v5.168c0 .426.091.73.272.912.182.17.496.256.944.256h1.072v1.232h-1.312c-.81 0-1.418-.187-1.824-.56-.405-.374-.608-.987-.608-1.84v-5.168H95.15v-1.2h1.136v-2.208h1.456v2.208h2.288v1.2h-2.288Zm4.805-2.624a.957.957 0 0 1-.704-.288.958.958 0 0 1-.288-.704c0-.278.096-.512.288-.704a.957.957 0 0 1 .704-.288.89.89 0 0 1 .672.288.957.957 0 0 1 .288.704.958.958 0 0 1-.288.704.89.89 0 0 1-.672.288Zm.704 1.424v8.768h-1.456v-8.768h1.456Zm6.305 8.912a4.538 4.538 0 0 1-2.24-.56 4.081 4.081 0 0 1-1.568-1.584c-.373-.694-.56-1.494-.56-2.4 0-.896.192-1.686.576-2.368a4.002 4.002 0 0 1 1.6-1.584c.672-.374 1.424-.56 2.256-.56.832 0 1.584.186 2.256.56.672.362 1.2.885 1.584 1.568.395.682.592 1.477.592 2.384 0 .906-.203 1.706-.608 2.4a4.128 4.128 0 0 1-1.616 1.584c-.683.373-1.44.56-2.272.56Zm0-1.28c.523 0 1.013-.123 1.472-.368a2.753 2.753 0 0 0 1.104-1.104c.288-.491.432-1.088.432-1.792s-.139-1.302-.416-1.792c-.277-.491-.64-.854-1.088-1.088a2.975 2.975 0 0 0-1.456-.368c-.533 0-1.024.122-1.472.368-.437.234-.789.597-1.056 1.088-.267.49-.4 1.088-.4 1.792 0 .714.128 1.317.384 1.808.267.49.619.858 1.056 1.104.437.234.917.352 1.44.352Zm10.682-7.792c1.067 0 1.931.325 2.592.976.662.64.992 1.568.992 2.784v5.168h-1.44v-4.96c0-.875-.218-1.542-.656-2-.437-.47-1.034-.704-1.792-.704-.768 0-1.381.24-1.84.72-.448.48-.672 1.178-.672 2.096v4.848h-1.456v-8.768h1.456v1.248a2.905 2.905 0 0 1 1.168-1.04 3.692 3.692 0 0 1 1.648-.368ZM323.44 472.463l-4.448 10.432h-1.472l4.512-10.288h-6.176v-1.248h7.584v1.104Zm3.359 8.416-1.792 4.304h-.977l1.169-4.304h1.6Zm1.043-8.224v-1.328h3.008v11.568h-1.472v-10.24h-1.536Zm5.189 1.28c0-.726.219-1.302.656-1.728.438-.438.998-.656 1.68-.656.683 0 1.243.218 1.68.656.438.426.656 1.002.656 1.728 0 .736-.218 1.322-.656 1.76-.437.426-.997.64-1.68.64-.682 0-1.242-.214-1.68-.64-.437-.438-.656-1.024-.656-1.76Zm9.344-2.208-6.48 11.168h-1.44l6.48-11.168h1.44Zm-7.008.72c-.362 0-.65.128-.864.384-.202.245-.304.613-.304 1.104 0 .49.102.864.304 1.12.214.256.502.384.864.384.363 0 .651-.128.864-.384.214-.267.32-.64.32-1.12 0-.491-.106-.859-.32-1.104-.213-.256-.501-.384-.864-.384Zm3.792 8.24c0-.736.219-1.318.656-1.744.438-.438.998-.656 1.68-.656.683 0 1.238.218 1.664.656.438.426.656 1.008.656 1.744 0 .725-.218 1.306-.656 1.744-.426.437-.981.656-1.664.656-.682 0-1.242-.214-1.68-.64-.437-.438-.656-1.024-.656-1.76Zm2.32-1.488c-.362 0-.65.128-.864.384-.213.245-.32.613-.32 1.104 0 .48.107.848.32 1.104.214.245.502.368.864.368.363 0 .651-.123.864-.368.214-.256.32-.624.32-1.104 0-.491-.106-.859-.32-1.104-.213-.256-.501-.384-.864-.384Z"/>
    <rect width="20" height="20" x=".5" y="522.895" fill="#59A14F" rx="3"/>
    <path fill="#fff"
          d="M51.044 516.823v11.072h-1.456v-8.256l-3.68 8.256h-1.024l-3.696-8.272v8.272h-1.456v-11.072H41.3l4.096 9.152 4.096-9.152h1.552Zm1.925 6.656c0-.896.182-1.68.544-2.352a3.947 3.947 0 0 1 1.488-1.584 4.14 4.14 0 0 1 2.128-.56c.768 0 1.435.165 2 .496.566.33.987.746 1.264 1.248v-1.6h1.472v8.768h-1.472v-1.632c-.288.512-.72.938-1.296 1.28-.565.33-1.226.496-1.984.496a3.974 3.974 0 0 1-2.112-.576 4.041 4.041 0 0 1-1.488-1.616c-.362-.694-.544-1.483-.544-2.368Zm7.424.016c0-.662-.133-1.238-.4-1.728a2.752 2.752 0 0 0-1.088-1.12 2.851 2.851 0 0 0-1.488-.4c-.544 0-1.04.128-1.488.384a2.783 2.783 0 0 0-1.072 1.12c-.266.49-.4 1.066-.4 1.728 0 .672.134 1.258.4 1.76.267.49.624.869 1.072 1.136.448.256.944.384 1.488.384s1.04-.128 1.488-.384a2.87 2.87 0 0 0 1.088-1.136c.267-.502.4-1.083.4-1.744Zm4.685-5.792a.958.958 0 0 1-.704-.288.958.958 0 0 1-.288-.704c0-.278.096-.512.288-.704a.958.958 0 0 1 .704-.288c.266 0 .49.096.672.288a.957.957 0 0 1 .288.704.958.958 0 0 1-.288.704.888.888 0 0 1-.672.288Zm.704 1.424v8.768h-1.456v-8.768h1.456Zm6.753-.16c1.067 0 1.93.325 2.592.976.662.64.992 1.568.992 2.784v5.168h-1.44v-4.96c0-.875-.218-1.542-.656-2-.437-.47-1.034-.704-1.792-.704-.768 0-1.381.24-1.84.72-.448.48-.672 1.178-.672 2.096v4.848h-1.456v-8.768h1.456v1.248a2.9 2.9 0 0 1 1.168-1.04 3.689 3.689 0 0 1 1.648-.368Zm7.739 1.36v5.168c0 .426.09.73.272.912.181.17.496.256.944.256h1.072v1.232H81.25c-.811 0-1.419-.187-1.824-.56-.406-.374-.608-.987-.608-1.84v-5.168h-1.136v-1.2h1.136v-2.208h1.456v2.208h2.288v1.2h-2.288Zm12.052 2.848c0 .277-.016.57-.048.88H85.27c.053.864.346 1.541.88 2.032.544.48 1.2.72 1.968.72.63 0 1.152-.144 1.568-.432.426-.299.725-.694.896-1.184h1.568a3.813 3.813 0 0 1-1.408 2.064c-.704.522-1.579.784-2.624.784-.832 0-1.579-.187-2.24-.56a4.001 4.001 0 0 1-1.536-1.584c-.374-.694-.56-1.494-.56-2.4 0-.907.181-1.702.544-2.384a3.775 3.775 0 0 1 1.52-1.568c.661-.374 1.418-.56 2.272-.56.832 0 1.568.181 2.208.544.64.362 1.13.864 1.472 1.504.352.629.528 1.344.528 2.144Zm-1.504-.304c0-.555-.123-1.03-.368-1.424a2.309 2.309 0 0 0-1.008-.912 2.997 2.997 0 0 0-1.392-.32c-.736 0-1.366.234-1.888.704-.512.469-.806 1.12-.88 1.952h5.536Zm7.698-3.904c1.066 0 1.93.325 2.592.976.661.64.992 1.568.992 2.784v5.168h-1.44v-4.96c0-.875-.219-1.542-.656-2-.438-.47-1.035-.704-1.792-.704-.768 0-1.382.24-1.84.72-.448.48-.672 1.178-.672 2.096v4.848h-1.456v-8.768h1.456v1.248a2.9 2.9 0 0 1 1.168-1.04 3.69 3.69 0 0 1 1.648-.368Zm5.418 4.512c0-.896.181-1.68.544-2.352a3.952 3.952 0 0 1 1.488-1.584 4.139 4.139 0 0 1 2.128-.56c.768 0 1.435.165 2 .496.565.33.987.746 1.264 1.248v-1.6h1.472v8.768h-1.472v-1.632c-.288.512-.72.938-1.296 1.28-.565.33-1.227.496-1.984.496a3.973 3.973 0 0 1-2.112-.576 4.047 4.047 0 0 1-1.488-1.616c-.363-.694-.544-1.483-.544-2.368Zm7.424.016c0-.662-.133-1.238-.4-1.728a2.752 2.752 0 0 0-1.088-1.12 2.851 2.851 0 0 0-1.488-.4c-.544 0-1.04.128-1.488.384a2.786 2.786 0 0 0-1.072 1.12c-.267.49-.4 1.066-.4 1.728 0 .672.133 1.258.4 1.76.267.49.624.869 1.072 1.136.448.256.944.384 1.488.384s1.04-.128 1.488-.384a2.87 2.87 0 0 0 1.088-1.136c.267-.502.4-1.083.4-1.744Zm8.205-4.528c1.066 0 1.93.325 2.592.976.661.64.992 1.568.992 2.784v5.168h-1.44v-4.96c0-.875-.219-1.542-.656-2-.438-.47-1.035-.704-1.792-.704-.768 0-1.382.24-1.84.72-.448.48-.672 1.178-.672 2.096v4.848h-1.456v-8.768h1.456v1.248a2.898 2.898 0 0 1 1.168-1.04 3.686 3.686 0 0 1 1.648-.368Zm5.418 4.528c0-.907.181-1.696.544-2.368a3.916 3.916 0 0 1 1.504-1.584c.651-.374 1.392-.56 2.224-.56 1.077 0 1.963.261 2.656.784.704.522 1.168 1.248 1.392 2.176h-1.568a2.235 2.235 0 0 0-.88-1.264c-.427-.31-.96-.464-1.6-.464-.832 0-1.504.288-2.016.864-.512.565-.768 1.37-.768 2.416 0 1.056.256 1.872.768 2.448.512.576 1.184.864 2.016.864.64 0 1.173-.15 1.6-.448.427-.299.72-.726.88-1.28h1.568c-.235.896-.704 1.616-1.408 2.16-.704.533-1.584.8-2.64.8-.832 0-1.573-.187-2.224-.56a3.928 3.928 0 0 1-1.504-1.584c-.363-.683-.544-1.483-.544-2.4Zm18.263-.32c0 .277-.016.57-.048.88h-7.008c.053.864.346 1.541.88 2.032.544.48 1.2.72 1.968.72.629 0 1.152-.144 1.568-.432.426-.299.725-.694.896-1.184h1.568a3.814 3.814 0 0 1-1.408 2.064c-.704.522-1.579.784-2.624.784-.832 0-1.579-.187-2.24-.56a3.997 3.997 0 0 1-1.536-1.584c-.374-.694-.56-1.494-.56-2.4 0-.907.181-1.702.544-2.384a3.77 3.77 0 0 1 1.52-1.568c.661-.374 1.418-.56 2.272-.56.832 0 1.568.181 2.208.544a3.7 3.7 0 0 1 1.472 1.504c.352.629.528 1.344.528 2.144Zm-1.504-.304c0-.555-.123-1.03-.368-1.424a2.315 2.315 0 0 0-1.008-.912 2.997 2.997 0 0 0-1.392-.32c-.736 0-1.366.234-1.888.704-.512.469-.806 1.12-.88 1.952h5.536Zm16.011-.208h-3.408v3.456h-1.36v-3.456h-3.392v-1.232h3.392v-3.472h1.36v3.472h3.408v1.232Zm9.972 5.376c-.672 0-1.275-.112-1.808-.336-.534-.235-.955-.555-1.264-.96a2.59 2.59 0 0 1-.512-1.424h1.504c.042.437.245.794.608 1.072.373.277.858.416 1.456.416.554 0 .992-.123 1.312-.368.32-.246.48-.555.48-.928 0-.384-.171-.667-.512-.848-.342-.192-.87-.379-1.584-.56a13.192 13.192 0 0 1-1.6-.512 3.038 3.038 0 0 1-1.056-.784c-.288-.352-.432-.811-.432-1.376 0-.448.133-.859.4-1.232.266-.374.645-.667 1.136-.88.49-.224 1.05-.336 1.68-.336.97 0 1.754.245 2.352.736.597.49.917 1.162.96 2.016h-1.456a1.494 1.494 0 0 0-.56-1.104c-.331-.278-.779-.416-1.344-.416-.523 0-.939.112-1.248.336-.31.224-.464.517-.464.88 0 .288.09.528.272.72.192.181.426.33.704.448.288.106.682.229 1.184.368.629.17 1.141.341 1.536.512.394.16.73.405 1.008.736.288.33.437.762.448 1.296 0 .48-.134.912-.4 1.296-.267.384-.646.688-1.136.912-.48.213-1.035.32-1.664.32Zm6.711-7.296c.288-.502.715-.918 1.28-1.248.576-.342 1.243-.512 2-.512.779 0 1.483.186 2.112.56.64.373 1.141.901 1.504 1.584.363.672.544 1.456.544 2.352 0 .885-.181 1.674-.544 2.368a4.008 4.008 0 0 1-1.504 1.616 3.973 3.973 0 0 1-2.112.576c-.747 0-1.408-.166-1.984-.496-.565-.342-.997-.763-1.296-1.264v5.776h-1.456v-12.928h1.456v1.616Zm5.952 2.736c0-.662-.133-1.238-.4-1.728a2.752 2.752 0 0 0-1.088-1.12 2.946 2.946 0 0 0-1.488-.384c-.533 0-1.029.133-1.488.4-.448.256-.811.634-1.088 1.136-.267.49-.4 1.061-.4 1.712 0 .661.133 1.242.4 1.744.277.49.64.869 1.088 1.136.459.256.955.384 1.488.384.544 0 1.04-.128 1.488-.384a2.87 2.87 0 0 0 1.088-1.136c.267-.502.4-1.088.4-1.76Zm2.861 0c0-.896.181-1.68.544-2.352a3.938 3.938 0 0 1 1.488-1.584 4.139 4.139 0 0 1 2.128-.56c.768 0 1.434.165 2 .496.565.33.986.746 1.264 1.248v-1.6h1.472v8.768h-1.472v-1.632c-.288.512-.72.938-1.296 1.28-.566.33-1.227.496-1.984.496a3.973 3.973 0 0 1-2.112-.576 4.033 4.033 0 0 1-1.488-1.616c-.363-.694-.544-1.483-.544-2.368Zm7.424.016c0-.662-.134-1.238-.4-1.728a2.758 2.758 0 0 0-1.088-1.12 2.851 2.851 0 0 0-1.488-.4c-.544 0-1.04.128-1.488.384a2.78 2.78 0 0 0-1.072 1.12c-.267.49-.4 1.066-.4 1.728 0 .672.133 1.258.4 1.76.266.49.624.869 1.072 1.136.448.256.944.384 1.488.384s1.04-.128 1.488-.384a2.877 2.877 0 0 0 1.088-1.136c.266-.502.4-1.083.4-1.744Zm5.388-2.944a2.804 2.804 0 0 1 1.088-1.168c.48-.278 1.061-.416 1.744-.416v1.504h-.384c-1.632 0-2.448.885-2.448 2.656v4.768h-1.456v-8.768h1.456v1.424Zm12.513 2.624c0 .277-.016.57-.048.88h-7.008c.053.864.346 1.541.88 2.032.544.48 1.2.72 1.968.72.629 0 1.152-.144 1.568-.432.426-.299.725-.694.896-1.184h1.568a3.814 3.814 0 0 1-1.408 2.064c-.704.522-1.579.784-2.624.784-.832 0-1.579-.187-2.24-.56a3.997 3.997 0 0 1-1.536-1.584c-.374-.694-.56-1.494-.56-2.4 0-.907.181-1.702.544-2.384a3.77 3.77 0 0 1 1.52-1.568c.661-.374 1.418-.56 2.272-.56.832 0 1.568.181 2.208.544a3.7 3.7 0 0 1 1.472 1.504c.352.629.528 1.344.528 2.144Zm-1.504-.304c0-.555-.123-1.03-.368-1.424a2.315 2.315 0 0 0-1.008-.912 2.997 2.997 0 0 0-1.392-.32c-.736 0-1.366.234-1.888.704-.512.469-.806 1.12-.88 1.952h5.536Zm9.147-2.128c.288-.502.715-.918 1.28-1.248.576-.342 1.243-.512 2-.512.779 0 1.483.186 2.112.56.64.373 1.142.901 1.504 1.584.363.672.544 1.456.544 2.352 0 .885-.181 1.674-.544 2.368a4 4 0 0 1-1.504 1.616 3.973 3.973 0 0 1-2.112.576c-.746 0-1.408-.166-1.984-.496-.565-.342-.997-.763-1.296-1.264v5.776h-1.456v-12.928h1.456v1.616Zm5.952 2.736c0-.662-.133-1.238-.4-1.728a2.745 2.745 0 0 0-1.088-1.12 2.946 2.946 0 0 0-1.488-.384c-.533 0-1.029.133-1.488.4-.448.256-.81.634-1.088 1.136-.266.49-.4 1.061-.4 1.712 0 .661.134 1.242.4 1.744.278.49.64.869 1.088 1.136.459.256.955.384 1.488.384.544 0 1.04-.128 1.488-.384a2.863 2.863 0 0 0 1.088-1.136c.267-.502.4-1.088.4-1.76Zm2.861 0c0-.896.181-1.68.544-2.352a3.938 3.938 0 0 1 1.488-1.584 4.139 4.139 0 0 1 2.128-.56c.768 0 1.434.165 2 .496.565.33.986.746 1.264 1.248v-1.6h1.472v8.768h-1.472v-1.632c-.288.512-.72.938-1.296 1.28-.566.33-1.227.496-1.984.496a3.973 3.973 0 0 1-2.112-.576 4.033 4.033 0 0 1-1.488-1.616c-.363-.694-.544-1.483-.544-2.368Zm7.424.016c0-.662-.134-1.238-.4-1.728a2.758 2.758 0 0 0-1.088-1.12 2.851 2.851 0 0 0-1.488-.4c-.544 0-1.04.128-1.488.384a2.78 2.78 0 0 0-1.072 1.12c-.267.49-.4 1.066-.4 1.728 0 .672.133 1.258.4 1.76.266.49.624.869 1.072 1.136.448.256.944.384 1.488.384s1.04-.128 1.488-.384a2.877 2.877 0 0 0 1.088-1.136c.266-.502.4-1.083.4-1.744Zm5.388-2.944a2.804 2.804 0 0 1 1.088-1.168c.48-.278 1.062-.416 1.744-.416v1.504h-.384c-1.632 0-2.448.885-2.448 2.656v4.768h-1.456v-8.768h1.456v1.424Zm6.289-.224v5.168c0 .426.091.73.272.912.181.17.496.256.944.256h1.072v1.232h-1.312c-.811 0-1.419-.187-1.824-.56-.405-.374-.608-.987-.608-1.84v-5.168h-1.136v-1.2h1.136v-2.208h1.456v2.208h2.288v1.2h-2.288Zm7.156 7.712c-.672 0-1.275-.112-1.808-.336-.533-.235-.955-.555-1.264-.96a2.598 2.598 0 0 1-.512-1.424h1.504c.043.437.245.794.608 1.072.373.277.859.416 1.456.416.555 0 .992-.123 1.312-.368.32-.246.48-.555.48-.928 0-.384-.171-.667-.512-.848-.341-.192-.869-.379-1.584-.56a13.192 13.192 0 0 1-1.6-.512 3.057 3.057 0 0 1-1.056-.784c-.288-.352-.432-.811-.432-1.376 0-.448.133-.859.4-1.232.267-.374.645-.667 1.136-.88.491-.224 1.051-.336 1.68-.336.971 0 1.755.245 2.352.736.597.49.917 1.162.96 2.016h-1.456a1.494 1.494 0 0 0-.56-1.104c-.331-.278-.779-.416-1.344-.416-.523 0-.939.112-1.248.336-.309.224-.464.517-.464.88 0 .288.091.528.272.72.192.181.427.33.704.448.288.106.683.229 1.184.368.629.17 1.141.341 1.536.512.395.16.731.405 1.008.736.288.33.437.762.448 1.296 0 .48-.133.912-.4 1.296s-.645.688-1.136.912c-.48.213-1.035.32-1.664.32ZM51.412 543.127l-2.736 8.768h-1.504l-2.112-6.96-2.112 6.96h-1.504l-2.752-8.768h1.488l2.016 7.36 2.176-7.36h1.488l2.128 7.376 1.984-7.376h1.44Zm.901 4.352c0-.896.181-1.68.544-2.352a3.948 3.948 0 0 1 1.488-1.584 4.14 4.14 0 0 1 2.128-.56c.768 0 1.435.165 2 .496.565.33.987.746 1.264 1.248v-1.6h1.472v8.768h-1.472v-1.632c-.288.512-.72.938-1.296 1.28-.565.33-1.227.496-1.984.496a3.974 3.974 0 0 1-2.112-.576 4.043 4.043 0 0 1-1.488-1.616c-.363-.694-.544-1.483-.544-2.368Zm7.424.016c0-.662-.133-1.238-.4-1.728a2.752 2.752 0 0 0-1.088-1.12 2.851 2.851 0 0 0-1.488-.4c-.544 0-1.04.128-1.488.384a2.784 2.784 0 0 0-1.072 1.12c-.267.49-.4 1.066-.4 1.728 0 .672.133 1.258.4 1.76.267.49.624.869 1.072 1.136.448.256.944.384 1.488.384s1.04-.128 1.488-.384a2.87 2.87 0 0 0 1.088-1.136c.267-.502.4-1.083.4-1.744Zm7.036 4.544c-.671 0-1.274-.112-1.807-.336-.534-.235-.955-.555-1.264-.96a2.596 2.596 0 0 1-.512-1.424h1.504c.042.437.245.794.608 1.072.373.277.858.416 1.455.416.555 0 .992-.123 1.313-.368.32-.246.48-.555.48-.928a.898.898 0 0 0-.513-.848c-.34-.192-.869-.379-1.584-.56a13.209 13.209 0 0 1-1.6-.512 3.051 3.051 0 0 1-1.055-.784c-.288-.352-.433-.811-.433-1.376 0-.448.134-.859.4-1.232.267-.374.646-.667 1.136-.88.491-.224 1.051-.336 1.68-.336.971 0 1.755.245 2.352.736.598.49.918 1.162.96 2.016h-1.456a1.493 1.493 0 0 0-.56-1.104c-.33-.278-.778-.416-1.343-.416-.523 0-.94.112-1.249.336-.309.224-.463.517-.463.88 0 .288.09.528.272.72.192.181.426.33.704.448.287.106.682.229 1.183.368.63.17 1.142.341 1.537.512.394.16.73.405 1.007.736.288.33.438.762.448 1.296 0 .48-.133.912-.4 1.296-.266.384-.645.688-1.135.912-.48.213-1.035.32-1.665.32Zm7.032-7.712v5.168c0 .426.09.73.272.912.181.17.496.256.944.256h1.072v1.232H74.78c-.81 0-1.419-.187-1.824-.56-.405-.374-.608-.987-.608-1.84v-5.168h-1.136v-1.2h1.136v-2.208h1.456v2.208h2.288v1.2h-2.288Zm12.052 2.848c0 .277-.016.57-.048.88h-7.008c.053.864.347 1.541.88 2.032.544.48 1.2.72 1.968.72.63 0 1.152-.144 1.568-.432a2.36 2.36 0 0 0 .896-1.184h1.568a3.813 3.813 0 0 1-1.408 2.064c-.704.522-1.579.784-2.624.784-.832 0-1.579-.187-2.24-.56a4.001 4.001 0 0 1-1.536-1.584c-.373-.694-.56-1.494-.56-2.4 0-.907.181-1.702.544-2.384a3.775 3.775 0 0 1 1.52-1.568c.661-.374 1.419-.56 2.272-.56.832 0 1.568.181 2.208.544.64.362 1.13.864 1.472 1.504.352.629.528 1.344.528 2.144Zm-1.504-.304c0-.555-.123-1.03-.368-1.424a2.308 2.308 0 0 0-1.008-.912 2.997 2.997 0 0 0-1.392-.32c-.736 0-1.365.234-1.888.704-.512.469-.805 1.12-.88 1.952h5.536ZM316.424 530.079c-.234-1.184-.965-1.776-2.192-1.776-.949 0-1.658.368-2.128 1.104-.469.725-.698 1.925-.688 3.6.246-.555.651-.987 1.216-1.296a3.886 3.886 0 0 1 1.92-.48c1.099 0 1.974.341 2.624 1.024.662.682.992 1.626.992 2.832 0 .725-.144 1.376-.432 1.952a3.182 3.182 0 0 1-1.28 1.376c-.565.341-1.253.512-2.064.512-1.098 0-1.957-.246-2.576-.736-.618-.491-1.05-1.168-1.296-2.032-.245-.864-.368-1.931-.368-3.2 0-3.915 1.366-5.872 4.096-5.872 1.046 0 1.867.282 2.464.848.598.565.95 1.28 1.056 2.144h-1.344Zm-2.176 2.384c-.458 0-.89.096-1.296.288a2.308 2.308 0 0 0-.992.848c-.245.373-.368.832-.368 1.376 0 .81.235 1.472.704 1.984.47.501 1.142.752 2.016.752.747 0 1.339-.23 1.776-.688.448-.47.672-1.099.672-1.888 0-.832-.213-1.483-.64-1.952-.426-.48-1.05-.72-1.872-.72Zm7.629 4.416-1.792 4.304h-.976l1.168-4.304h1.6Zm1.428-3.888c0-1.835.298-3.264.896-4.288.597-1.035 1.642-1.552 3.136-1.552 1.482 0 2.522.517 3.12 1.552.597 1.024.895 2.453.895 4.288 0 1.866-.298 3.317-.895 4.352-.598 1.034-1.638 1.552-3.12 1.552-1.494 0-2.539-.518-3.136-1.552-.598-1.035-.896-2.486-.896-4.352Zm6.608 0c0-.928-.064-1.712-.192-2.352-.118-.651-.368-1.174-.752-1.568-.374-.395-.918-.592-1.632-.592-.726 0-1.28.197-1.664.592-.374.394-.624.917-.752 1.568-.118.64-.176 1.424-.176 2.352 0 .96.058 1.765.176 2.416.128.65.378 1.173.752 1.568.384.394.938.592 1.664.592.714 0 1.258-.198 1.632-.592.384-.395.634-.918.752-1.568.128-.651.192-1.456.192-2.416Zm3.118-3.056c0-.726.219-1.302.656-1.728.438-.438.998-.656 1.68-.656.683 0 1.243.218 1.68.656.438.426.656 1.002.656 1.728 0 .736-.218 1.322-.656 1.76-.437.426-.997.64-1.68.64-.682 0-1.242-.214-1.68-.64-.437-.438-.656-1.024-.656-1.76Zm9.344-2.208-6.48 11.168h-1.44l6.48-11.168h1.44Zm-7.008.72c-.362 0-.65.128-.864.384-.202.245-.304.613-.304 1.104 0 .49.102.864.304 1.12.214.256.502.384.864.384.363 0 .651-.128.864-.384.214-.267.32-.64.32-1.12 0-.491-.106-.859-.32-1.104-.213-.256-.501-.384-.864-.384Zm3.792 8.24c0-.736.219-1.318.656-1.744.438-.438.998-.656 1.68-.656.683 0 1.238.218 1.664.656.438.426.656 1.008.656 1.744 0 .725-.218 1.306-.656 1.744-.426.437-.981.656-1.664.656-.682 0-1.242-.214-1.68-.64-.437-.438-.656-1.024-.656-1.76Zm2.32-1.488c-.362 0-.65.128-.864.384-.213.245-.32.613-.32 1.104 0 .48.107.848.32 1.104.214.245.502.368.864.368.363 0 .651-.123.864-.368.214-.256.32-.624.32-1.104 0-.491-.106-.859-.32-1.104-.213-.256-.501-.384-.864-.384Z"/>
    <rect width="20" height="20" x=".5" y="578.895" fill="#4E79A7" rx="3"/>
    <path fill="#fff"
          d="M46.596 583.743v1.184h-3.04v9.968H42.1v-9.968h-3.056v-1.184h7.552Zm3.248 3.808a2.802 2.802 0 0 1 1.088-1.168c.48-.278 1.062-.416 1.744-.416v1.504h-.384c-1.632 0-2.448.885-2.448 2.656v4.768h-1.456v-8.768h1.456v1.424Zm3.969 2.928c0-.896.181-1.68.544-2.352a3.948 3.948 0 0 1 1.488-1.584 4.14 4.14 0 0 1 2.128-.56c.768 0 1.435.165 2 .496.565.33.987.746 1.264 1.248v-1.6h1.472v8.768h-1.472v-1.632c-.288.512-.72.938-1.296 1.28-.565.33-1.227.496-1.984.496a3.974 3.974 0 0 1-2.112-.576 4.043 4.043 0 0 1-1.488-1.616c-.363-.694-.544-1.483-.544-2.368Zm7.424.016c0-.662-.133-1.238-.4-1.728a2.752 2.752 0 0 0-1.088-1.12 2.851 2.851 0 0 0-1.488-.4c-.544 0-1.04.128-1.488.384a2.784 2.784 0 0 0-1.072 1.12c-.267.49-.4 1.066-.4 1.728 0 .672.133 1.258.4 1.76.267.49.624.869 1.072 1.136.448.256.944.384 1.488.384s1.04-.128 1.488-.384a2.87 2.87 0 0 0 1.088-1.136c.267-.502.4-1.083.4-1.744Zm14.476-4.528c.683 0 1.291.144 1.825.432.533.277.954.698 1.264 1.264.309.565.463 1.253.463 2.064v5.168h-1.44v-4.96c0-.875-.218-1.542-.656-2-.426-.47-1.007-.704-1.743-.704-.758 0-1.36.245-1.808.736-.448.48-.672 1.178-.672 2.096v4.832h-1.44v-4.96c0-.875-.22-1.542-.656-2-.427-.47-1.008-.704-1.744-.704-.758 0-1.36.245-1.808.736-.448.48-.672 1.178-.672 2.096v4.832h-1.457v-8.768h1.457v1.264a2.886 2.886 0 0 1 1.151-1.056 3.554 3.554 0 0 1 1.617-.368c.735 0 1.386.165 1.951.496.566.33.987.816 1.264 1.456a2.873 2.873 0 0 1 1.217-1.44 3.576 3.576 0 0 1 1.888-.512Zm16.485 0c.683 0 1.29.144 1.824.432.533.277.954.698 1.264 1.264.31.565.464 1.253.464 2.064v5.168h-1.44v-4.96c0-.875-.219-1.542-.656-2-.427-.47-1.008-.704-1.744-.704-.757 0-1.36.245-1.808.736-.448.48-.672 1.178-.672 2.096v4.832h-1.44v-4.96c0-.875-.219-1.542-.656-2-.427-.47-1.008-.704-1.744-.704-.758 0-1.36.245-1.808.736-.448.48-.672 1.178-.672 2.096v4.832h-1.456v-8.768h1.456v1.264a2.886 2.886 0 0 1 1.152-1.056 3.553 3.553 0 0 1 1.616-.368c.736 0 1.386.165 1.952.496.565.33.987.816 1.264 1.456a2.873 2.873 0 0 1 1.216-1.44 3.576 3.576 0 0 1 1.888-.512Zm6.692-1.264a.958.958 0 0 1-.704-.288.958.958 0 0 1-.288-.704c0-.278.096-.512.288-.704a.958.958 0 0 1 .704-.288c.267 0 .49.096.672.288a.957.957 0 0 1 .288.704.958.958 0 0 1-.288.704.888.888 0 0 1-.672.288Zm.704 1.424v8.768h-1.456v-8.768h1.456Zm6.754-.16c1.066 0 1.93.325 2.592.976.661.64.992 1.568.992 2.784v5.168h-1.44v-4.96c0-.875-.219-1.542-.656-2-.438-.47-1.035-.704-1.792-.704-.768 0-1.382.24-1.84.72-.448.48-.672 1.178-.672 2.096v4.848h-1.456v-8.768h1.456v1.248a2.898 2.898 0 0 1 1.168-1.04 3.686 3.686 0 0 1 1.648-.368Zm9.578.016c.757 0 1.419.165 1.984.496.576.33 1.003.746 1.28 1.248v-1.6h1.472v8.96c0 .8-.171 1.509-.512 2.128a3.623 3.623 0 0 1-1.472 1.472c-.629.352-1.365.528-2.208.528-1.152 0-2.112-.272-2.88-.816-.768-.544-1.221-1.286-1.36-2.224h1.44c.16.533.491.96.992 1.28.501.33 1.104.496 1.808.496.8 0 1.451-.251 1.952-.752.512-.502.768-1.206.768-2.112v-1.84c-.288.512-.715.938-1.28 1.28-.565.341-1.227.512-1.984.512a4.056 4.056 0 0 1-2.128-.576 4.047 4.047 0 0 1-1.488-1.616c-.363-.694-.544-1.483-.544-2.368 0-.896.181-1.68.544-2.352a3.952 3.952 0 0 1 1.488-1.584 4.139 4.139 0 0 1 2.128-.56Zm3.264 4.512c0-.662-.133-1.238-.4-1.728a2.752 2.752 0 0 0-1.088-1.12 2.851 2.851 0 0 0-1.488-.4c-.544 0-1.04.128-1.488.384a2.786 2.786 0 0 0-1.072 1.12c-.267.49-.4 1.066-.4 1.728 0 .672.133 1.258.4 1.76.267.49.624.869 1.072 1.136.448.256.944.384 1.488.384s1.04-.128 1.488-.384a2.87 2.87 0 0 0 1.088-1.136c.267-.502.4-1.083.4-1.744ZM318.444 586.239c.075-.982.454-1.75 1.136-2.304.683-.555 1.568-.832 2.656-.832.726 0 1.35.133 1.872.4.534.256.934.608 1.2 1.056.278.448.416.954.416 1.52 0 .661-.192 1.232-.576 1.712-.373.48-.864.789-1.472.928v.08c.694.17 1.243.506 1.648 1.008.406.501.608 1.157.608 1.968 0 .608-.138 1.157-.416 1.648-.277.48-.693.858-1.248 1.136-.554.277-1.221.416-2 .416-1.13 0-2.058-.294-2.784-.88-.725-.598-1.13-1.44-1.216-2.528h1.408c.075.64.336 1.162.784 1.568.448.405 1.046.608 1.792.608.747 0 1.312-.192 1.696-.576.395-.395.592-.902.592-1.52 0-.8-.266-1.376-.8-1.728-.533-.352-1.338-.528-2.416-.528h-.368v-1.216h.384c.982-.011 1.723-.171 2.224-.48.502-.32.752-.811.752-1.472 0-.566-.186-1.019-.56-1.36-.362-.342-.885-.512-1.568-.512-.661 0-1.194.17-1.6.512-.405.341-.645.8-.72 1.376h-1.424Zm10.158 8.752a.958.958 0 0 1-.704-.288.958.958 0 0 1-.288-.704c0-.278.096-.512.288-.704a.958.958 0 0 1 .704-.288c.267 0 .491.096.672.288a.957.957 0 0 1 .288.704.958.958 0 0 1-.288.704.886.886 0 0 1-.672.288Zm4.768-6.112c-.598-.235-1.056-.576-1.376-1.024-.32-.448-.48-.992-.48-1.632 0-.576.144-1.094.432-1.552.288-.47.714-.838 1.28-1.104.576-.278 1.269-.416 2.08-.416.81 0 1.498.138 2.064.416.576.266 1.008.634 1.296 1.104.298.458.448.976.448 1.552 0 .618-.166 1.162-.496 1.632-.331.458-.784.8-1.36 1.024.661.202 1.184.56 1.568 1.072.394.501.592 1.109.592 1.824 0 .693-.171 1.301-.512 1.824-.342.512-.827.912-1.456 1.2-.619.277-1.334.416-2.144.416-.811 0-1.526-.139-2.144-.416-.608-.288-1.083-.688-1.424-1.2-.342-.523-.512-1.131-.512-1.824 0-.715.192-1.328.576-1.84.384-.512.906-.864 1.568-1.056Zm4.336-2.48c0-.651-.214-1.152-.64-1.504-.427-.352-1.014-.528-1.76-.528-.736 0-1.318.176-1.744.528-.427.352-.64.858-.64 1.52 0 .597.218 1.077.656 1.44.448.362 1.024.544 1.728.544.714 0 1.29-.182 1.728-.544.448-.374.672-.859.672-1.456Zm-2.4 3.12c-.79 0-1.435.186-1.936.56-.502.362-.752.912-.752 1.648 0 .682.24 1.232.72 1.648.49.416 1.146.624 1.968.624.821 0 1.472-.208 1.952-.624.48-.416.72-.966.72-1.648 0-.715-.246-1.259-.736-1.632-.491-.384-1.136-.576-1.936-.576Zm5.725-3.584c0-.726.219-1.302.656-1.728.438-.438.998-.656 1.68-.656.683 0 1.243.218 1.68.656.438.426.656 1.002.656 1.728 0 .736-.218 1.322-.656 1.76-.437.426-.997.64-1.68.64-.682 0-1.242-.214-1.68-.64-.437-.438-.656-1.024-.656-1.76Zm9.344-2.208-6.48 11.168h-1.44l6.48-11.168h1.44Zm-7.008.72c-.362 0-.65.128-.864.384-.202.245-.304.613-.304 1.104 0 .49.102.864.304 1.12.214.256.502.384.864.384.363 0 .651-.128.864-.384.214-.267.32-.64.32-1.12 0-.491-.106-.859-.32-1.104-.213-.256-.501-.384-.864-.384Zm3.792 8.24c0-.736.219-1.318.656-1.744.438-.438.998-.656 1.68-.656.683 0 1.238.218 1.664.656.438.426.656 1.008.656 1.744 0 .725-.218 1.306-.656 1.744-.426.437-.981.656-1.664.656-.682 0-1.242-.214-1.68-.64-.437-.438-.656-1.024-.656-1.76Zm2.32-1.488c-.362 0-.65.128-.864.384-.213.245-.32.613-.32 1.104 0 .48.107.848.32 1.104.214.245.502.368.864.368.363 0 .651-.123.864-.368.214-.256.32-.624.32-1.104 0-.491-.106-.859-.32-1.104-.213-.256-.501-.384-.864-.384Z"/>
    <rect width="20" height="20" x=".5" y="647.895" fill="#F28E2C" rx="3"/>
    <path fill="#fff"
          d="M46.596 628.743v1.184h-3.04v9.968H42.1v-9.968h-3.056v-1.184h7.552Zm3.248 3.808a2.802 2.802 0 0 1 1.088-1.168c.48-.278 1.062-.416 1.744-.416v1.504h-.384c-1.632 0-2.448.885-2.448 2.656v4.768h-1.456v-8.768h1.456v1.424Zm3.969 2.928c0-.896.181-1.68.544-2.352a3.948 3.948 0 0 1 1.488-1.584 4.14 4.14 0 0 1 2.128-.56c.768 0 1.435.165 2 .496.565.33.987.746 1.264 1.248v-1.6h1.472v8.768h-1.472v-1.632c-.288.512-.72.938-1.296 1.28-.565.33-1.227.496-1.984.496a3.974 3.974 0 0 1-2.112-.576 4.043 4.043 0 0 1-1.488-1.616c-.363-.694-.544-1.483-.544-2.368Zm7.424.016c0-.662-.133-1.238-.4-1.728a2.752 2.752 0 0 0-1.088-1.12 2.851 2.851 0 0 0-1.488-.4c-.544 0-1.04.128-1.488.384a2.784 2.784 0 0 0-1.072 1.12c-.267.49-.4 1.066-.4 1.728 0 .672.133 1.258.4 1.76.267.49.624.869 1.072 1.136.448.256.944.384 1.488.384s1.04-.128 1.488-.384a2.87 2.87 0 0 0 1.088-1.136c.267-.502.4-1.083.4-1.744Zm8.205-4.528c1.066 0 1.93.325 2.592.976.66.64.991 1.568.991 2.784v5.168h-1.44v-4.96c0-.875-.218-1.542-.655-2-.438-.47-1.035-.704-1.793-.704-.767 0-1.38.24-1.84.72-.447.48-.671 1.178-.671 2.096v4.848h-1.457v-8.768h1.457v1.248a2.9 2.9 0 0 1 1.167-1.04 3.69 3.69 0 0 1 1.648-.368Zm9.066 9.072c-.672 0-1.275-.112-1.808-.336-.534-.235-.955-.555-1.264-.96a2.595 2.595 0 0 1-.512-1.424h1.504c.043.437.245.794.608 1.072.373.277.858.416 1.456.416.554 0 .992-.123 1.312-.368.32-.246.48-.555.48-.928a.898.898 0 0 0-.512-.848c-.342-.192-.87-.379-1.584-.56a13.209 13.209 0 0 1-1.6-.512 3.05 3.05 0 0 1-1.056-.784c-.288-.352-.432-.811-.432-1.376 0-.448.133-.859.4-1.232.266-.374.645-.667 1.136-.88.49-.224 1.05-.336 1.68-.336.97 0 1.754.245 2.352.736.597.49.917 1.162.96 2.016h-1.456a1.493 1.493 0 0 0-.56-1.104c-.33-.278-.779-.416-1.344-.416-.523 0-.939.112-1.248.336-.31.224-.464.517-.464.88 0 .288.09.528.272.72.192.181.426.33.704.448.288.106.683.229 1.184.368.63.17 1.141.341 1.536.512.395.16.73.405 1.008.736.288.33.437.762.448 1.296 0 .48-.133.912-.4 1.296s-.646.688-1.136.912c-.48.213-1.035.32-1.664.32Zm6.711-7.296c.288-.502.715-.918 1.28-1.248.576-.342 1.243-.512 2-.512.779 0 1.483.186 2.112.56.64.373 1.142.901 1.504 1.584.363.672.544 1.456.544 2.352 0 .885-.181 1.674-.544 2.368a4.006 4.006 0 0 1-1.504 1.616 3.974 3.974 0 0 1-2.112.576c-.746 0-1.408-.166-1.984-.496-.565-.342-.997-.763-1.296-1.264v5.776h-1.456v-12.928h1.456v1.616Zm5.952 2.736c0-.662-.133-1.238-.4-1.728a2.752 2.752 0 0 0-1.088-1.12 2.946 2.946 0 0 0-1.488-.384c-.533 0-1.03.133-1.488.4-.448.256-.81.634-1.088 1.136-.266.49-.4 1.061-.4 1.712 0 .661.134 1.242.4 1.744.278.49.64.869 1.088 1.136.459.256.955.384 1.488.384.544 0 1.04-.128 1.488-.384a2.87 2.87 0 0 0 1.088-1.136c.267-.502.4-1.088.4-1.76Zm7.229 4.56a4.537 4.537 0 0 1-2.24-.56 4.079 4.079 0 0 1-1.568-1.584c-.374-.694-.56-1.494-.56-2.4 0-.896.192-1.686.576-2.368a4 4 0 0 1 1.6-1.584c.672-.374 1.424-.56 2.256-.56.832 0 1.584.186 2.256.56.672.362 1.2.885 1.584 1.568.394.682.592 1.477.592 2.384 0 .906-.203 1.706-.608 2.4a4.134 4.134 0 0 1-1.616 1.584c-.683.373-1.44.56-2.272.56Zm0-1.28c.522 0 1.013-.123 1.472-.368a2.764 2.764 0 0 0 1.104-1.104c.288-.491.432-1.088.432-1.792s-.139-1.302-.416-1.792c-.278-.491-.64-.854-1.088-1.088a2.976 2.976 0 0 0-1.456-.368c-.534 0-1.024.122-1.472.368-.438.234-.79.597-1.056 1.088-.267.49-.4 1.088-.4 1.792 0 .714.128 1.317.384 1.808.266.49.618.858 1.056 1.104.437.234.917.352 1.44.352Zm7.866-6.208a2.804 2.804 0 0 1 1.088-1.168c.48-.278 1.061-.416 1.744-.416v1.504h-.384c-1.632 0-2.448.885-2.448 2.656v4.768h-1.456v-8.768h1.456v1.424Zm6.289-.224v5.168c0 .426.091.73.272.912.181.17.496.256.944.256h1.072v1.232h-1.312c-.811 0-1.419-.187-1.824-.56-.405-.374-.608-.987-.608-1.84v-5.168h-1.136v-1.2h1.136v-2.208h1.456v2.208h2.288v1.2h-2.288Zm3.508 3.152c0-.896.181-1.68.544-2.352a3.952 3.952 0 0 1 1.488-1.584 4.139 4.139 0 0 1 2.128-.56c.768 0 1.435.165 2 .496.565.33.987.746 1.264 1.248v-1.6h1.472v8.768h-1.472v-1.632c-.288.512-.72.938-1.296 1.28-.565.33-1.227.496-1.984.496a3.973 3.973 0 0 1-2.112-.576 4.047 4.047 0 0 1-1.488-1.616c-.363-.694-.544-1.483-.544-2.368Zm7.424.016c0-.662-.133-1.238-.4-1.728a2.752 2.752 0 0 0-1.088-1.12 2.851 2.851 0 0 0-1.488-.4c-.544 0-1.04.128-1.488.384a2.786 2.786 0 0 0-1.072 1.12c-.267.49-.4 1.066-.4 1.728 0 .672.133 1.258.4 1.76.267.49.624.869 1.072 1.136.448.256.944.384 1.488.384s1.04-.128 1.488-.384a2.87 2.87 0 0 0 1.088-1.136c.267-.502.4-1.083.4-1.744Zm5.709-3.168v5.168c0 .426.09.73.272.912.181.17.496.256.943.256h1.073v1.232h-1.312c-.811 0-1.419-.187-1.824-.56-.406-.374-.608-.987-.608-1.84v-5.168h-1.136v-1.2h1.136v-2.208h1.456v2.208h2.288v1.2h-2.288Zm4.804-2.624a.957.957 0 0 1-.704-.288.958.958 0 0 1-.288-.704c0-.278.096-.512.288-.704a.957.957 0 0 1 .704-.288.89.89 0 0 1 .672.288.957.957 0 0 1 .288.704.958.958 0 0 1-.288.704.89.89 0 0 1-.672.288Zm.704 1.424v8.768h-1.456v-8.768h1.456Zm6.305 8.912a4.538 4.538 0 0 1-2.24-.56 4.081 4.081 0 0 1-1.568-1.584c-.373-.694-.56-1.494-.56-2.4 0-.896.192-1.686.576-2.368a4.002 4.002 0 0 1 1.6-1.584c.672-.374 1.424-.56 2.256-.56.832 0 1.584.186 2.256.56.672.362 1.2.885 1.584 1.568.395.682.592 1.477.592 2.384 0 .906-.203 1.706-.608 2.4a4.128 4.128 0 0 1-1.616 1.584c-.683.373-1.44.56-2.272.56Zm0-1.28c.523 0 1.013-.123 1.472-.368a2.753 2.753 0 0 0 1.104-1.104c.288-.491.432-1.088.432-1.792s-.139-1.302-.416-1.792c-.277-.491-.64-.854-1.088-1.088a2.975 2.975 0 0 0-1.456-.368c-.533 0-1.024.122-1.472.368-.437.234-.789.597-1.056 1.088-.267.49-.4 1.088-.4 1.792 0 .714.128 1.317.384 1.808.267.49.619.858 1.056 1.104.437.234.917.352 1.44.352Zm10.683-7.792c1.066 0 1.93.325 2.592.976.661.64.992 1.568.992 2.784v5.168h-1.44v-4.96c0-.875-.219-1.542-.656-2-.438-.47-1.035-.704-1.792-.704-.768 0-1.382.24-1.84.72-.448.48-.672 1.178-.672 2.096v4.848h-1.456v-8.768h1.456v1.248a2.898 2.898 0 0 1 1.168-1.04 3.686 3.686 0 0 1 1.648-.368Zm7.466 6.912-1.792 4.304h-.976l1.168-4.304h1.6Zm17.245-9.056v11.072h-1.456v-8.256l-3.68 8.256h-1.024l-3.696-8.272v8.272h-1.456v-11.072h1.568l4.096 9.152 4.096-9.152h1.552Zm1.926 6.656c0-.896.181-1.68.544-2.352a3.938 3.938 0 0 1 1.488-1.584 4.139 4.139 0 0 1 2.128-.56c.768 0 1.434.165 2 .496.565.33.986.746 1.264 1.248v-1.6h1.472v8.768h-1.472v-1.632c-.288.512-.72.938-1.296 1.28-.566.33-1.227.496-1.984.496a3.973 3.973 0 0 1-2.112-.576 4.033 4.033 0 0 1-1.488-1.616c-.363-.694-.544-1.483-.544-2.368Zm7.424.016c0-.662-.134-1.238-.4-1.728a2.758 2.758 0 0 0-1.088-1.12 2.851 2.851 0 0 0-1.488-.4c-.544 0-1.04.128-1.488.384a2.78 2.78 0 0 0-1.072 1.12c-.267.49-.4 1.066-.4 1.728 0 .672.133 1.258.4 1.76.266.49.624.869 1.072 1.136.448.256.944.384 1.488.384s1.04-.128 1.488-.384a2.877 2.877 0 0 0 1.088-1.136c.266-.502.4-1.083.4-1.744Zm4.684-5.792a.958.958 0 0 1-.704-.288.958.958 0 0 1-.288-.704c0-.278.096-.512.288-.704a.958.958 0 0 1 .704-.288c.267 0 .491.096.672.288a.957.957 0 0 1 .288.704.958.958 0 0 1-.288.704.886.886 0 0 1-.672.288Zm.704 1.424v8.768h-1.456v-8.768h1.456Zm6.754-.16c1.066 0 1.93.325 2.592.976.661.64.992 1.568.992 2.784v5.168h-1.44v-4.96c0-.875-.219-1.542-.656-2-.438-.47-1.035-.704-1.792-.704-.768 0-1.382.24-1.84.72-.448.48-.672 1.178-.672 2.096v4.848h-1.456v-8.768h1.456v1.248a2.898 2.898 0 0 1 1.168-1.04 3.686 3.686 0 0 1 1.648-.368Zm7.738 1.36v5.168c0 .426.091.73.272.912.181.17.496.256.944.256h1.072v1.232h-1.312c-.811 0-1.419-.187-1.824-.56-.405-.374-.608-.987-.608-1.84v-5.168h-1.136v-1.2h1.136v-2.208h1.456v2.208h2.288v1.2h-2.288Zm12.052 2.848c0 .277-.016.57-.048.88h-7.008c.053.864.347 1.541.88 2.032.544.48 1.2.72 1.968.72.629 0 1.152-.144 1.568-.432a2.36 2.36 0 0 0 .896-1.184h1.568a3.814 3.814 0 0 1-1.408 2.064c-.704.522-1.579.784-2.624.784-.832 0-1.579-.187-2.24-.56a3.997 3.997 0 0 1-1.536-1.584c-.373-.694-.56-1.494-.56-2.4 0-.907.181-1.702.544-2.384a3.775 3.775 0 0 1 1.52-1.568c.661-.374 1.419-.56 2.272-.56.832 0 1.568.181 2.208.544.64.362 1.131.864 1.472 1.504.352.629.528 1.344.528 2.144Zm-1.504-.304c0-.555-.123-1.03-.368-1.424a2.304 2.304 0 0 0-1.008-.912 2.997 2.997 0 0 0-1.392-.32c-.736 0-1.365.234-1.888.704-.512.469-.805 1.12-.88 1.952h5.536Zm7.698-3.904c1.067 0 1.931.325 2.592.976.661.64.992 1.568.992 2.784v5.168h-1.44v-4.96c0-.875-.219-1.542-.656-2-.437-.47-1.035-.704-1.792-.704-.768 0-1.381.24-1.84.72-.448.48-.672 1.178-.672 2.096v4.848h-1.456v-8.768h1.456v1.248a2.898 2.898 0 0 1 1.168-1.04 3.69 3.69 0 0 1 1.648-.368Zm5.418 4.512c0-.896.182-1.68.544-2.352a3.952 3.952 0 0 1 1.488-1.584c.64-.374 1.35-.56 2.128-.56.768 0 1.435.165 2 .496.566.33.987.746 1.264 1.248v-1.6h1.472v8.768h-1.472v-1.632c-.288.512-.72.938-1.296 1.28-.565.33-1.226.496-1.984.496a3.978 3.978 0 0 1-2.112-.576 4.047 4.047 0 0 1-1.488-1.616c-.362-.694-.544-1.483-.544-2.368Zm7.424.016c0-.662-.133-1.238-.4-1.728a2.745 2.745 0 0 0-1.088-1.12 2.851 2.851 0 0 0-1.488-.4c-.544 0-1.04.128-1.488.384a2.786 2.786 0 0 0-1.072 1.12c-.266.49-.4 1.066-.4 1.728 0 .672.134 1.258.4 1.76.267.49.624.869 1.072 1.136.448.256.944.384 1.488.384s1.04-.128 1.488-.384a2.863 2.863 0 0 0 1.088-1.136c.267-.502.4-1.083.4-1.744Zm8.205-4.528c1.067 0 1.931.325 2.592.976.661.64.992 1.568.992 2.784v5.168h-1.44v-4.96c0-.875-.219-1.542-.656-2-.437-.47-1.035-.704-1.792-.704-.768 0-1.381.24-1.84.72-.448.48-.672 1.178-.672 2.096v4.848h-1.456v-8.768h1.456v1.248a2.898 2.898 0 0 1 1.168-1.04 3.69 3.69 0 0 1 1.648-.368Zm5.418 4.528c0-.907.182-1.696.544-2.368a3.916 3.916 0 0 1 1.504-1.584c.651-.374 1.392-.56 2.224-.56 1.078 0 1.963.261 2.656.784.704.522 1.168 1.248 1.392 2.176h-1.568a2.23 2.23 0 0 0-.88-1.264c-.426-.31-.96-.464-1.6-.464-.832 0-1.504.288-2.016.864-.512.565-.768 1.37-.768 2.416 0 1.056.256 1.872.768 2.448.512.576 1.184.864 2.016.864.64 0 1.174-.15 1.6-.448.427-.299.72-.726.88-1.28h1.568c-.234.896-.704 1.616-1.408 2.16-.704.533-1.584.8-2.64.8-.832 0-1.573-.187-2.224-.56a3.928 3.928 0 0 1-1.504-1.584c-.362-.683-.544-1.483-.544-2.4Zm18.263-.32c0 .277-.016.57-.048.88h-7.008c.053.864.347 1.541.88 2.032.544.48 1.2.72 1.968.72.629 0 1.152-.144 1.568-.432a2.36 2.36 0 0 0 .896-1.184h1.568a3.814 3.814 0 0 1-1.408 2.064c-.704.522-1.579.784-2.624.784-.832 0-1.579-.187-2.24-.56a3.997 3.997 0 0 1-1.536-1.584c-.373-.694-.56-1.494-.56-2.4 0-.907.181-1.702.544-2.384a3.775 3.775 0 0 1 1.52-1.568c.661-.374 1.419-.56 2.272-.56.832 0 1.568.181 2.208.544.64.362 1.131.864 1.472 1.504.352.629.528 1.344.528 2.144Zm-1.504-.304c0-.555-.123-1.03-.368-1.424a2.304 2.304 0 0 0-1.008-.912 2.997 2.997 0 0 0-1.392-.32c-.736 0-1.365.234-1.888.704-.512.469-.805 1.12-.88 1.952h5.536Zm6.53 5.168c-.672 0-1.275-.112-1.808-.336-.533-.235-.955-.555-1.264-.96a2.598 2.598 0 0 1-.512-1.424h1.504c.043.437.245.794.608 1.072.373.277.859.416 1.456.416.555 0 .992-.123 1.312-.368.32-.246.48-.555.48-.928 0-.384-.171-.667-.512-.848-.341-.192-.869-.379-1.584-.56a13.192 13.192 0 0 1-1.6-.512 3.057 3.057 0 0 1-1.056-.784c-.288-.352-.432-.811-.432-1.376 0-.448.133-.859.4-1.232.267-.374.645-.667 1.136-.88.491-.224 1.051-.336 1.68-.336.971 0 1.755.245 2.352.736.597.49.917 1.162.96 2.016h-1.456a1.494 1.494 0 0 0-.56-1.104c-.331-.278-.779-.416-1.344-.416-.523 0-.939.112-1.248.336-.309.224-.464.517-.464.88 0 .288.091.528.272.72.192.181.427.33.704.448.288.106.683.229 1.184.368.629.17 1.141.341 1.536.512.395.16.731.405 1.008.736.288.33.437.762.448 1.296 0 .48-.133.912-.4 1.296s-.645.688-1.136.912c-.48.213-1.035.32-1.664.32ZM43.476 666.871c-1.024-1.003-1.824-2.278-2.4-3.824-.565-1.547-.848-3.216-.848-5.008 0-1.835.299-3.547.896-5.136.608-1.6 1.472-2.918 2.592-3.952h1.52v.144a10.773 10.773 0 0 0-2.704 4.048 13.639 13.639 0 0 0-.896 4.896c0 1.653.283 3.232.848 4.736a11.52 11.52 0 0 0 2.512 3.952v.144h-1.52Zm7.09-10.544h-1.84v7.568H47.27v-7.568h-1.136v-1.2h1.136v-.624c0-.982.25-1.696.752-2.144.512-.459 1.328-.688 2.448-.688v1.216c-.64 0-1.094.128-1.36.384-.256.245-.384.656-.384 1.232v.624h1.84v1.2Zm1.153 3.152c0-.896.182-1.68.544-2.352a3.947 3.947 0 0 1 1.488-1.584 4.14 4.14 0 0 1 2.128-.56c.768 0 1.435.165 2 .496.566.33.987.746 1.264 1.248v-1.6h1.472v8.768h-1.472v-1.632c-.288.512-.72.938-1.296 1.28-.565.33-1.226.496-1.984.496a3.974 3.974 0 0 1-2.112-.576 4.041 4.041 0 0 1-1.488-1.616c-.362-.694-.544-1.483-.544-2.368Zm7.424.016c0-.662-.133-1.238-.4-1.728a2.752 2.752 0 0 0-1.088-1.12 2.851 2.851 0 0 0-1.488-.4c-.544 0-1.04.128-1.488.384a2.783 2.783 0 0 0-1.072 1.12c-.266.49-.4 1.066-.4 1.728 0 .672.134 1.258.4 1.76.267.49.624.869 1.072 1.136.448.256.944.384 1.488.384s1.04-.128 1.488-.384a2.87 2.87 0 0 0 1.088-1.136c.267-.502.4-1.083.4-1.744Zm3.389 0c0-.907.181-1.696.544-2.368a3.913 3.913 0 0 1 1.504-1.584c.65-.374 1.392-.56 2.224-.56 1.077 0 1.962.261 2.656.784.704.522 1.168 1.248 1.392 2.176h-1.568a2.235 2.235 0 0 0-.88-1.264c-.427-.31-.96-.464-1.6-.464-.832 0-1.504.288-2.016.864-.512.565-.768 1.37-.768 2.416 0 1.056.256 1.872.768 2.448.512.576 1.184.864 2.016.864.64 0 1.173-.15 1.6-.448.426-.299.72-.726.88-1.28h1.568c-.235.896-.704 1.616-1.408 2.16-.704.533-1.584.8-2.64.8-.832 0-1.574-.187-2.224-.56a3.926 3.926 0 0 1-1.504-1.584c-.363-.683-.544-1.483-.544-2.4Zm12.038-3.168v5.168c0 .426.091.73.273.912.18.17.495.256.944.256h1.072v1.232h-1.313c-.81 0-1.418-.187-1.824-.56-.405-.374-.607-.987-.607-1.84v-5.168h-1.136v-1.2h1.136v-2.208h1.456v2.208h2.288v1.2H74.57Zm7.877 7.712a4.537 4.537 0 0 1-2.24-.56 4.08 4.08 0 0 1-1.568-1.584c-.374-.694-.56-1.494-.56-2.4 0-.896.192-1.686.576-2.368a4 4 0 0 1 1.6-1.584c.672-.374 1.424-.56 2.256-.56.832 0 1.584.186 2.256.56.672.362 1.2.885 1.584 1.568.394.682.592 1.477.592 2.384 0 .906-.203 1.706-.608 2.4a4.127 4.127 0 0 1-1.616 1.584 4.66 4.66 0 0 1-2.272.56Zm0-1.28c.522 0 1.013-.123 1.472-.368a2.756 2.756 0 0 0 1.104-1.104c.288-.491.432-1.088.432-1.792s-.139-1.302-.416-1.792c-.278-.491-.64-.854-1.088-1.088a2.976 2.976 0 0 0-1.456-.368c-.534 0-1.024.122-1.472.368-.438.234-.79.597-1.056 1.088-.267.49-.4 1.088-.4 1.792 0 .714.128 1.317.384 1.808.266.49.618.858 1.056 1.104.437.234.917.352 1.44.352Zm7.866-6.208a2.803 2.803 0 0 1 1.088-1.168c.48-.278 1.061-.416 1.744-.416v1.504h-.384c-1.632 0-2.448.885-2.448 2.656v4.768h-1.456v-8.768h1.456v1.424Zm12.065-1.424-5.28 12.896h-1.504l1.728-4.224-3.536-8.672h1.616l2.752 7.104 2.72-7.104h1.504Zm.999 11.744v-.144a11.314 11.314 0 0 0 2.496-3.952 13.13 13.13 0 0 0 .864-4.736c0-1.696-.304-3.328-.912-4.896a10.605 10.605 0 0 0-2.688-4.048v-.144h1.52c1.12 1.034 1.979 2.352 2.576 3.952.608 1.589.912 3.301.912 5.136 0 1.792-.288 3.461-.864 5.008-.565 1.546-1.36 2.821-2.384 3.824h-1.52Zm9.234-4.992-1.792 4.304h-.976l1.168-4.304h1.6Zm7.358-9.136v7.056c0 .992.24 1.728.72 2.208.49.48 1.168.72 2.032.72.853 0 1.52-.24 2-.72.49-.48.736-1.216.736-2.208v-7.056h1.456v7.04c0 .928-.187 1.712-.561 2.352a3.52 3.52 0 0 1-1.519 1.408c-.63.309-1.339.464-2.128.464-.79 0-1.504-.155-2.144-.464a3.54 3.54 0 0 1-1.504-1.408c-.363-.64-.544-1.424-.544-2.352v-7.04h1.456Zm10.828 4c.288-.502.715-.918 1.28-1.248.576-.342 1.243-.512 2-.512.779 0 1.483.186 2.112.56.64.373 1.142.901 1.504 1.584.363.672.544 1.456.544 2.352 0 .885-.181 1.674-.544 2.368a4 4 0 0 1-1.504 1.616 3.973 3.973 0 0 1-2.112.576c-.746 0-1.408-.166-1.984-.496-.565-.342-.997-.763-1.296-1.264v5.776h-1.456v-12.928h1.456v1.616Zm5.952 2.736c0-.662-.133-1.238-.4-1.728a2.745 2.745 0 0 0-1.088-1.12 2.946 2.946 0 0 0-1.488-.384c-.533 0-1.029.133-1.488.4-.448.256-.81.634-1.088 1.136-.266.49-.4 1.061-.4 1.712 0 .661.134 1.242.4 1.744.278.49.64.869 1.088 1.136.459.256.955.384 1.488.384.544 0 1.04-.128 1.488-.384a2.863 2.863 0 0 0 1.088-1.136c.267-.502.4-1.088.4-1.76Zm6.509 4.56c-.672 0-1.275-.112-1.808-.336-.533-.235-.955-.555-1.264-.96a2.598 2.598 0 0 1-.512-1.424h1.504c.043.437.245.794.608 1.072.373.277.859.416 1.456.416.555 0 .992-.123 1.312-.368.32-.246.48-.555.48-.928 0-.384-.171-.667-.512-.848-.341-.192-.869-.379-1.584-.56a13.192 13.192 0 0 1-1.6-.512 3.057 3.057 0 0 1-1.056-.784c-.288-.352-.432-.811-.432-1.376 0-.448.133-.859.4-1.232.267-.374.645-.667 1.136-.88.491-.224 1.051-.336 1.68-.336.971 0 1.755.245 2.352.736.597.49.917 1.162.96 2.016h-1.456a1.494 1.494 0 0 0-.56-1.104c-.331-.278-.779-.416-1.344-.416-.523 0-.939.112-1.248.336-.309.224-.464.517-.464.88 0 .288.091.528.272.72.192.181.427.33.704.448.288.106.683.229 1.184.368.629.17 1.141.341 1.536.512.395.16.731.405 1.008.736.288.33.437.762.448 1.296 0 .48-.133.912-.4 1.296s-.645.688-1.136.912c-.48.213-1.035.32-1.664.32Zm7.031-7.712v5.168c0 .426.091.73.272.912.182.17.496.256.944.256h1.072v1.232h-1.312c-.81 0-1.418-.187-1.824-.56-.405-.374-.608-.987-.608-1.84v-5.168h-1.136v-1.2h1.136v-2.208h1.456v2.208h2.288v1.2h-2.288Zm5.508.224a2.804 2.804 0 0 1 1.088-1.168c.48-.278 1.062-.416 1.744-.416v1.504h-.384c-1.632 0-2.448.885-2.448 2.656v4.768h-1.456v-8.768h1.456v1.424Zm12.513 2.624c0 .277-.016.57-.048.88h-7.008c.053.864.347 1.541.88 2.032.544.48 1.2.72 1.968.72.629 0 1.152-.144 1.568-.432a2.36 2.36 0 0 0 .896-1.184h1.568a3.814 3.814 0 0 1-1.408 2.064c-.704.522-1.579.784-2.624.784-.832 0-1.579-.187-2.24-.56a3.997 3.997 0 0 1-1.536-1.584c-.373-.694-.56-1.494-.56-2.4 0-.907.181-1.702.544-2.384a3.775 3.775 0 0 1 1.52-1.568c.661-.374 1.419-.56 2.272-.56.832 0 1.568.181 2.208.544.64.362 1.131.864 1.472 1.504.352.629.528 1.344.528 2.144Zm-1.504-.304c0-.555-.123-1.03-.368-1.424a2.304 2.304 0 0 0-1.008-.912 2.997 2.997 0 0 0-1.392-.32c-.736 0-1.365.234-1.888.704-.512.469-.805 1.12-.88 1.952h5.536Zm2.882.608c0-.896.181-1.68.544-2.352a3.952 3.952 0 0 1 1.488-1.584 4.139 4.139 0 0 1 2.128-.56c.768 0 1.435.165 2 .496.565.33.987.746 1.264 1.248v-1.6h1.472v8.768h-1.472v-1.632c-.288.512-.72.938-1.296 1.28-.565.33-1.227.496-1.984.496a3.973 3.973 0 0 1-2.112-.576 4.047 4.047 0 0 1-1.488-1.616c-.363-.694-.544-1.483-.544-2.368Zm7.424.016c0-.662-.133-1.238-.4-1.728a2.752 2.752 0 0 0-1.088-1.12 2.851 2.851 0 0 0-1.488-.4c-.544 0-1.04.128-1.488.384a2.786 2.786 0 0 0-1.072 1.12c-.267.49-.4 1.066-.4 1.728 0 .672.133 1.258.4 1.76.267.49.624.869 1.072 1.136.448.256.944.384 1.488.384s1.04-.128 1.488-.384a2.87 2.87 0 0 0 1.088-1.136c.267-.502.4-1.083.4-1.744Zm14.477-4.528c.682 0 1.29.144 1.824.432.533.277.954.698 1.264 1.264.309.565.464 1.253.464 2.064v5.168h-1.44v-4.96c0-.875-.219-1.542-.656-2-.427-.47-1.008-.704-1.744-.704-.758 0-1.36.245-1.808.736-.448.48-.672 1.178-.672 2.096v4.832h-1.44v-4.96c0-.875-.219-1.542-.656-2-.427-.47-1.008-.704-1.744-.704-.758 0-1.36.245-1.808.736-.448.48-.672 1.178-.672 2.096v4.832h-1.456v-8.768h1.456v1.264a2.886 2.886 0 0 1 1.152-1.056 3.55 3.55 0 0 1 1.616-.368c.736 0 1.386.165 1.952.496.565.33.986.816 1.264 1.456a2.868 2.868 0 0 1 1.216-1.44 3.573 3.573 0 0 1 1.888-.512Zm11.662 1.776c.288-.502.714-.918 1.28-1.248.576-.342 1.242-.512 2-.512.778 0 1.482.186 2.111.56.64.373 1.142.901 1.505 1.584.362.672.544 1.456.544 2.352 0 .885-.182 1.674-.544 2.368a4.01 4.01 0 0 1-1.505 1.616 3.972 3.972 0 0 1-2.111.576c-.747 0-1.408-.166-1.984-.496-.566-.342-.998-.763-1.296-1.264v5.776h-1.456v-12.928h1.456v1.616Zm5.952 2.736c0-.662-.134-1.238-.4-1.728a2.758 2.758 0 0 0-1.088-1.12 2.946 2.946 0 0 0-1.488-.384c-.534 0-1.03.133-1.488.4-.448.256-.811.634-1.088 1.136-.267.49-.4 1.061-.4 1.712 0 .661.133 1.242.4 1.744.277.49.64.869 1.088 1.136a3 3 0 0 0 1.488.384c.544 0 1.04-.128 1.488-.384a2.877 2.877 0 0 0 1.088-1.136c.266-.502.4-1.088.4-1.76Zm2.86 0c0-.896.181-1.68.544-2.352a3.952 3.952 0 0 1 1.488-1.584 4.139 4.139 0 0 1 2.128-.56c.768 0 1.435.165 2 .496.565.33.987.746 1.264 1.248v-1.6h1.472v8.768h-1.472v-1.632c-.288.512-.72.938-1.296 1.28-.565.33-1.227.496-1.984.496a3.973 3.973 0 0 1-2.112-.576 4.047 4.047 0 0 1-1.488-1.616c-.363-.694-.544-1.483-.544-2.368Zm7.424.016c0-.662-.133-1.238-.4-1.728a2.752 2.752 0 0 0-1.088-1.12 2.851 2.851 0 0 0-1.488-.4c-.544 0-1.04.128-1.488.384a2.786 2.786 0 0 0-1.072 1.12c-.267.49-.4 1.066-.4 1.728 0 .672.133 1.258.4 1.76.267.49.624.869 1.072 1.136.448.256.944.384 1.488.384s1.04-.128 1.488-.384a2.87 2.87 0 0 0 1.088-1.136c.267-.502.4-1.083.4-1.744Zm3.389 0c0-.907.181-1.696.544-2.368a3.909 3.909 0 0 1 1.504-1.584c.65-.374 1.392-.56 2.224-.56 1.077 0 1.962.261 2.656.784.704.522 1.168 1.248 1.392 2.176h-1.568a2.24 2.24 0 0 0-.88-1.264c-.427-.31-.96-.464-1.6-.464-.832 0-1.504.288-2.016.864-.512.565-.768 1.37-.768 2.416 0 1.056.256 1.872.768 2.448.512.576 1.184.864 2.016.864.64 0 1.173-.15 1.6-.448.426-.299.72-.726.88-1.28h1.568c-.235.896-.704 1.616-1.408 2.16-.704.533-1.584.8-2.64.8-.832 0-1.574-.187-2.224-.56a3.922 3.922 0 0 1-1.504-1.584c-.363-.683-.544-1.483-.544-2.4Zm15.158 4.4-3.44-3.872v3.872h-1.456v-11.84h1.456v6.96l3.376-3.888h2.032l-4.128 4.368 4.144 4.4h-1.984Zm2.795-4.416c0-.896.181-1.68.544-2.352a3.938 3.938 0 0 1 1.488-1.584 4.139 4.139 0 0 1 2.128-.56c.768 0 1.434.165 2 .496.565.33.986.746 1.264 1.248v-1.6h1.472v8.768h-1.472v-1.632c-.288.512-.72.938-1.296 1.28-.566.33-1.227.496-1.984.496a3.973 3.973 0 0 1-2.112-.576 4.033 4.033 0 0 1-1.488-1.616c-.363-.694-.544-1.483-.544-2.368Zm7.424.016c0-.662-.134-1.238-.4-1.728a2.758 2.758 0 0 0-1.088-1.12 2.851 2.851 0 0 0-1.488-.4c-.544 0-1.04.128-1.488.384a2.78 2.78 0 0 0-1.072 1.12c-.267.49-.4 1.066-.4 1.728 0 .672.133 1.258.4 1.76.266.49.624.869 1.072 1.136.448.256.944.384 1.488.384s1.04-.128 1.488-.384a2.877 2.877 0 0 0 1.088-1.136c.266-.502.4-1.083.4-1.744Zm7.548-4.512c.757 0 1.419.165 1.984.496.576.33 1.003.746 1.28 1.248v-1.6h1.472v8.96c0 .8-.171 1.509-.512 2.128a3.623 3.623 0 0 1-1.472 1.472c-.629.352-1.365.528-2.208.528-1.152 0-2.112-.272-2.88-.816-.768-.544-1.221-1.286-1.36-2.224h1.44c.16.533.491.96.992 1.28.501.33 1.104.496 1.808.496.8 0 1.451-.251 1.952-.752.512-.502.768-1.206.768-2.112v-1.84c-.288.512-.715.938-1.28 1.28-.565.341-1.227.512-1.984.512a4.056 4.056 0 0 1-2.128-.576 4.047 4.047 0 0 1-1.488-1.616c-.363-.694-.544-1.483-.544-2.368 0-.896.181-1.68.544-2.352a3.952 3.952 0 0 1 1.488-1.584 4.139 4.139 0 0 1 2.128-.56Zm3.264 4.512c0-.662-.133-1.238-.4-1.728a2.752 2.752 0 0 0-1.088-1.12 2.851 2.851 0 0 0-1.488-.4c-.544 0-1.04.128-1.488.384a2.786 2.786 0 0 0-1.072 1.12c-.267.49-.4 1.066-.4 1.728 0 .672.133 1.258.4 1.76.267.49.624.869 1.072 1.136.448.256.944.384 1.488.384s1.04-.128 1.488-.384a2.87 2.87 0 0 0 1.088-1.136c.267-.502.4-1.083.4-1.744Zm4.685-5.792a.957.957 0 0 1-.704-.288.958.958 0 0 1-.288-.704c0-.278.096-.512.288-.704a.957.957 0 0 1 .704-.288.89.89 0 0 1 .672.288.957.957 0 0 1 .288.704.958.958 0 0 1-.288.704.89.89 0 0 1-.672.288Zm.704 1.424v8.768h-1.456v-8.768h1.456Zm6.753-.16c1.067 0 1.931.325 2.592.976.661.64.992 1.568.992 2.784v5.168h-1.44v-4.96c0-.875-.219-1.542-.656-2-.437-.47-1.035-.704-1.792-.704-.768 0-1.381.24-1.84.72-.448.48-.672 1.178-.672 2.096v4.848h-1.456v-8.768h1.456v1.248a2.898 2.898 0 0 1 1.168-1.04 3.69 3.69 0 0 1 1.648-.368Zm9.579.016c.757 0 1.418.165 1.984.496.576.33 1.002.746 1.28 1.248v-1.6h1.472v8.96c0 .8-.171 1.509-.512 2.128a3.629 3.629 0 0 1-1.472 1.472c-.63.352-1.366.528-2.208.528-1.152 0-2.112-.272-2.88-.816-.768-.544-1.222-1.286-1.36-2.224h1.44c.16.533.49.96.992 1.28.501.33 1.104.496 1.808.496.8 0 1.45-.251 1.952-.752.512-.502.768-1.206.768-2.112v-1.84c-.288.512-.715.938-1.28 1.28-.566.341-1.227.512-1.984.512a4.056 4.056 0 0 1-2.128-.576 4.033 4.033 0 0 1-1.488-1.616c-.363-.694-.544-1.483-.544-2.368 0-.896.181-1.68.544-2.352a3.938 3.938 0 0 1 1.488-1.584 4.139 4.139 0 0 1 2.128-.56Zm3.264 4.512c0-.662-.134-1.238-.4-1.728a2.758 2.758 0 0 0-1.088-1.12 2.851 2.851 0 0 0-1.488-.4c-.544 0-1.04.128-1.488.384a2.78 2.78 0 0 0-1.072 1.12c-.267.49-.4 1.066-.4 1.728 0 .672.133 1.258.4 1.76.266.49.624.869 1.072 1.136.448.256.944.384 1.488.384s1.04-.128 1.488-.384a2.877 2.877 0 0 0 1.088-1.136c.266-.502.4-1.083.4-1.744ZM41.188 680.743c.288-.502.715-.918 1.28-1.248.576-.342 1.243-.512 2-.512.779 0 1.483.186 2.112.56.64.373 1.141.901 1.504 1.584.363.672.544 1.456.544 2.352 0 .885-.181 1.674-.544 2.368a4.006 4.006 0 0 1-1.504 1.616 3.974 3.974 0 0 1-2.112.576c-.747 0-1.408-.166-1.984-.496-.565-.342-.997-.763-1.296-1.264v5.776h-1.456v-12.928h1.456v1.616Zm5.952 2.736c0-.662-.133-1.238-.4-1.728a2.752 2.752 0 0 0-1.088-1.12 2.946 2.946 0 0 0-1.488-.384c-.533 0-1.03.133-1.488.4-.448.256-.81.634-1.088 1.136-.267.49-.4 1.061-.4 1.712 0 .661.133 1.242.4 1.744.277.49.64.869 1.088 1.136.459.256.955.384 1.488.384.544 0 1.04-.128 1.488-.384a2.87 2.87 0 0 0 1.088-1.136c.267-.502.4-1.088.4-1.76Zm4.86-2.928a2.803 2.803 0 0 1 1.089-1.168c.48-.278 1.06-.416 1.744-.416v1.504h-.384c-1.633 0-2.448.885-2.448 2.656v4.768h-1.456v-8.768H52v1.424Zm8.337 7.488a4.537 4.537 0 0 1-2.24-.56 4.079 4.079 0 0 1-1.568-1.584c-.373-.694-.56-1.494-.56-2.4 0-.896.192-1.686.576-2.368a4 4 0 0 1 1.6-1.584c.672-.374 1.424-.56 2.256-.56.832 0 1.584.186 2.256.56.672.362 1.2.885 1.584 1.568.395.682.592 1.477.592 2.384 0 .906-.202 1.706-.608 2.4a4.129 4.129 0 0 1-1.616 1.584 4.66 4.66 0 0 1-2.272.56Zm0-1.28c.523 0 1.014-.123 1.472-.368a2.758 2.758 0 0 0 1.104-1.104c.288-.491.432-1.088.432-1.792s-.138-1.302-.416-1.792c-.277-.491-.64-.854-1.088-1.088a2.976 2.976 0 0 0-1.456-.368c-.533 0-1.024.122-1.472.368-.437.234-.79.597-1.056 1.088-.266.49-.4 1.088-.4 1.792 0 .714.128 1.317.384 1.808.267.49.619.858 1.056 1.104.438.234.918.352 1.44.352Zm5.867-3.28c0-.896.181-1.68.544-2.352a3.948 3.948 0 0 1 1.488-1.584 4.17 4.17 0 0 1 2.144-.56c.682 0 1.317.16 1.904.48.586.309 1.034.72 1.344 1.232v-4.64H75.1v11.84h-1.472v-1.648c-.288.522-.715.954-1.28 1.296-.566.33-1.227.496-1.984.496a4.057 4.057 0 0 1-2.128-.576 4.043 4.043 0 0 1-1.488-1.616c-.363-.694-.544-1.483-.544-2.368Zm7.424.016c0-.662-.134-1.238-.4-1.728a2.751 2.751 0 0 0-1.088-1.12 2.851 2.851 0 0 0-1.488-.4c-.544 0-1.04.128-1.488.384a2.784 2.784 0 0 0-1.072 1.12c-.267.49-.4 1.066-.4 1.728 0 .672.133 1.258.4 1.76.266.49.624.869 1.072 1.136.448.256.944.384 1.488.384s1.04-.128 1.488-.384a2.87 2.87 0 0 0 1.088-1.136c.266-.502.4-1.083.4-1.744Zm11.708-4.368v8.768H83.88v-1.296c-.277.448-.666.8-1.168 1.056a3.602 3.602 0 0 1-1.632.368c-.683 0-1.296-.139-1.84-.416a3.186 3.186 0 0 1-1.296-1.28c-.31-.566-.464-1.254-.464-2.064v-5.136h1.44v4.944c0 .864.219 1.53.656 2 .438.458 1.035.688 1.792.688.779 0 1.392-.24 1.84-.72.448-.48.672-1.179.672-2.096v-4.816h1.456Zm1.915 4.368c0-.907.18-1.696.543-2.368a3.914 3.914 0 0 1 1.505-1.584c.65-.374 1.391-.56 2.223-.56 1.078 0 1.963.261 2.656.784.704.522 1.169 1.248 1.392 2.176h-1.567a2.235 2.235 0 0 0-.88-1.264c-.427-.31-.96-.464-1.6-.464-.832 0-1.504.288-2.016.864-.513.565-.769 1.37-.769 2.416 0 1.056.257 1.872.769 2.448.511.576 1.183.864 2.015.864.64 0 1.174-.15 1.6-.448.427-.299.72-.726.88-1.28h1.569c-.235.896-.704 1.616-1.409 2.16-.704.533-1.584.8-2.64.8-.832 0-1.573-.187-2.224-.56a3.926 3.926 0 0 1-1.504-1.584c-.362-.683-.543-1.483-.543-2.4Zm12.038-3.168v5.168c0 .426.09.73.272.912.182.17.496.256.944.256h1.072v1.232h-1.312c-.81 0-1.418-.187-1.824-.56-.405-.374-.608-.987-.608-1.84v-5.168h-1.136v-1.2h1.136v-2.208h1.456v2.208h2.288v1.2h-2.288Zm4.804-2.624a.958.958 0 0 1-.704-.288.958.958 0 0 1-.288-.704c0-.278.096-.512.288-.704a.958.958 0 0 1 .704-.288c.267 0 .491.096.672.288a.957.957 0 0 1 .288.704.958.958 0 0 1-.288.704.886.886 0 0 1-.672.288Zm.704 1.424v8.768h-1.456v-8.768h1.456Zm6.306 8.912a4.538 4.538 0 0 1-2.24-.56 4.081 4.081 0 0 1-1.568-1.584c-.373-.694-.56-1.494-.56-2.4 0-.896.192-1.686.576-2.368a4.002 4.002 0 0 1 1.6-1.584c.672-.374 1.424-.56 2.256-.56.832 0 1.584.186 2.256.56.672.362 1.2.885 1.584 1.568.395.682.592 1.477.592 2.384 0 .906-.203 1.706-.608 2.4a4.128 4.128 0 0 1-1.616 1.584c-.683.373-1.44.56-2.272.56Zm0-1.28c.523 0 1.013-.123 1.472-.368a2.753 2.753 0 0 0 1.104-1.104c.288-.491.432-1.088.432-1.792s-.139-1.302-.416-1.792c-.277-.491-.64-.854-1.088-1.088a2.975 2.975 0 0 0-1.456-.368c-.533 0-1.024.122-1.472.368-.437.234-.789.597-1.056 1.088-.267.49-.4 1.088-.4 1.792 0 .714.128 1.317.384 1.808.267.49.619.858 1.056 1.104.437.234.917.352 1.44.352Zm10.682-7.792c1.067 0 1.931.325 2.592.976.662.64.992 1.568.992 2.784v5.168h-1.44v-4.96c0-.875-.218-1.542-.656-2-.437-.47-1.034-.704-1.792-.704-.768 0-1.381.24-1.84.72-.448.48-.672 1.178-.672 2.096v4.848h-1.456v-8.768h1.456v1.248a2.905 2.905 0 0 1 1.168-1.04 3.692 3.692 0 0 1 1.648-.368Zm7.467 6.912-1.792 4.304h-.976l1.168-4.304h1.6Zm19.949-9.136-3.232 11.152h-1.632l-2.592-8.976-2.688 8.976-1.616.016-3.12-11.168h1.552l2.432 9.456 2.688-9.456h1.632l2.56 9.424 2.448-9.424h1.568Zm1.05 6.736c0-.896.181-1.68.544-2.352a3.938 3.938 0 0 1 1.488-1.584 4.139 4.139 0 0 1 2.128-.56c.768 0 1.434.165 2 .496.565.33.986.746 1.264 1.248v-1.6h1.472v8.768h-1.472v-1.632c-.288.512-.72.938-1.296 1.28-.566.33-1.227.496-1.984.496a3.973 3.973 0 0 1-2.112-.576 4.033 4.033 0 0 1-1.488-1.616c-.363-.694-.544-1.483-.544-2.368Zm7.424.016c0-.662-.134-1.238-.4-1.728a2.758 2.758 0 0 0-1.088-1.12 2.851 2.851 0 0 0-1.488-.4c-.544 0-1.04.128-1.488.384a2.78 2.78 0 0 0-1.072 1.12c-.267.49-.4 1.066-.4 1.728 0 .672.133 1.258.4 1.76.266.49.624.869 1.072 1.136.448.256.944.384 1.488.384s1.04-.128 1.488-.384a2.877 2.877 0 0 0 1.088-1.136c.266-.502.4-1.083.4-1.744Zm7.036 4.544c-.672 0-1.275-.112-1.808-.336-.533-.235-.955-.555-1.264-.96a2.598 2.598 0 0 1-.512-1.424h1.504c.043.437.245.794.608 1.072.373.277.859.416 1.456.416.555 0 .992-.123 1.312-.368.32-.246.48-.555.48-.928 0-.384-.171-.667-.512-.848-.341-.192-.869-.379-1.584-.56a13.192 13.192 0 0 1-1.6-.512 3.057 3.057 0 0 1-1.056-.784c-.288-.352-.432-.811-.432-1.376 0-.448.133-.859.4-1.232.267-.374.645-.667 1.136-.88.491-.224 1.051-.336 1.68-.336.971 0 1.755.245 2.352.736.597.49.917 1.162.96 2.016h-1.456a1.494 1.494 0 0 0-.56-1.104c-.331-.278-.779-.416-1.344-.416-.523 0-.939.112-1.248.336-.309.224-.464.517-.464.88 0 .288.091.528.272.72.192.181.427.33.704.448.288.106.683.229 1.184.368.629.17 1.141.341 1.536.512.395.16.731.405 1.008.736.288.33.437.762.448 1.296 0 .48-.133.912-.4 1.296s-.645.688-1.136.912c-.48.213-1.035.32-1.664.32Zm7.031-7.712v5.168c0 .426.091.73.272.912.182.17.496.256.944.256h1.072v1.232h-1.312c-.81 0-1.418-.187-1.824-.56-.405-.374-.608-.987-.608-1.84v-5.168h-1.136v-1.2h1.136v-2.208h1.456v2.208h2.288v1.2h-2.288Zm12.053 2.848c0 .277-.016.57-.048.88h-7.008c.053.864.346 1.541.88 2.032.544.48 1.2.72 1.968.72.629 0 1.152-.144 1.568-.432.426-.299.725-.694.896-1.184h1.568a3.814 3.814 0 0 1-1.408 2.064c-.704.522-1.579.784-2.624.784-.832 0-1.579-.187-2.24-.56a3.997 3.997 0 0 1-1.536-1.584c-.374-.694-.56-1.494-.56-2.4 0-.907.181-1.702.544-2.384a3.77 3.77 0 0 1 1.52-1.568c.661-.374 1.418-.56 2.272-.56.832 0 1.568.181 2.208.544a3.7 3.7 0 0 1 1.472 1.504c.352.629.528 1.344.528 2.144Zm-1.504-.304c0-.555-.123-1.03-.368-1.424a2.315 2.315 0 0 0-1.008-.912 2.997 2.997 0 0 0-1.392-.32c-.736 0-1.366.234-1.888.704-.512.469-.806 1.12-.88 1.952h5.536Zm9.467-2.544v5.168c0 .426.091.73.272.912.181.17.496.256.944.256h1.072v1.232h-1.312c-.811 0-1.419-.187-1.824-.56-.405-.374-.608-.987-.608-1.84v-5.168h-1.136v-1.2h1.136v-2.208h1.456v2.208h2.288v1.2h-2.288Zm5.508.224a2.804 2.804 0 0 1 1.088-1.168c.48-.278 1.061-.416 1.744-.416v1.504h-.384c-1.632 0-2.448.885-2.448 2.656v4.768h-1.456v-8.768h1.456v1.424Zm12.513 2.624c0 .277-.016.57-.048.88h-7.008c.053.864.347 1.541.88 2.032.544.48 1.2.72 1.968.72.629 0 1.152-.144 1.568-.432a2.36 2.36 0 0 0 .896-1.184h1.568a3.814 3.814 0 0 1-1.408 2.064c-.704.522-1.579.784-2.624.784-.832 0-1.579-.187-2.24-.56a3.997 3.997 0 0 1-1.536-1.584c-.373-.694-.56-1.494-.56-2.4 0-.907.181-1.702.544-2.384a3.775 3.775 0 0 1 1.52-1.568c.661-.374 1.419-.56 2.272-.56.832 0 1.568.181 2.208.544.64.362 1.131.864 1.472 1.504.352.629.528 1.344.528 2.144Zm-1.504-.304c0-.555-.123-1.03-.368-1.424a2.304 2.304 0 0 0-1.008-.912 2.997 2.997 0 0 0-1.392-.32c-.736 0-1.365.234-1.888.704-.512.469-.805 1.12-.88 1.952h5.536Zm2.882.608c0-.896.181-1.68.544-2.352a3.938 3.938 0 0 1 1.488-1.584 4.139 4.139 0 0 1 2.128-.56c.768 0 1.434.165 2 .496.565.33.986.746 1.264 1.248v-1.6h1.472v8.768h-1.472v-1.632c-.288.512-.72.938-1.296 1.28-.566.33-1.227.496-1.984.496a3.973 3.973 0 0 1-2.112-.576 4.033 4.033 0 0 1-1.488-1.616c-.363-.694-.544-1.483-.544-2.368Zm7.424.016c0-.662-.134-1.238-.4-1.728a2.758 2.758 0 0 0-1.088-1.12 2.851 2.851 0 0 0-1.488-.4c-.544 0-1.04.128-1.488.384a2.78 2.78 0 0 0-1.072 1.12c-.267.49-.4 1.066-.4 1.728 0 .672.133 1.258.4 1.76.266.49.624.869 1.072 1.136.448.256.944.384 1.488.384s1.04-.128 1.488-.384a2.877 2.877 0 0 0 1.088-1.136c.266-.502.4-1.083.4-1.744Zm5.708-3.168v5.168c0 .426.091.73.272.912.182.17.496.256.944.256h1.072v1.232h-1.312c-.81 0-1.418-.187-1.824-.56-.405-.374-.608-.987-.608-1.84v-5.168h-1.136v-1.2h1.136v-2.208h1.456v2.208h2.288v1.2h-2.288Zm14.596-1.36c.683 0 1.291.144 1.824.432.534.277.955.698 1.264 1.264.31.565.464 1.253.464 2.064v5.168h-1.44v-4.96c0-.875-.218-1.542-.656-2-.426-.47-1.008-.704-1.744-.704-.757 0-1.36.245-1.808.736-.448.48-.672 1.178-.672 2.096v4.832h-1.44v-4.96c0-.875-.218-1.542-.656-2-.426-.47-1.008-.704-1.744-.704-.757 0-1.36.245-1.808.736-.448.48-.672 1.178-.672 2.096v4.832h-1.456v-8.768h1.456v1.264a2.886 2.886 0 0 1 1.152-1.056 3.557 3.557 0 0 1 1.616-.368c.736 0 1.387.165 1.952.496.566.33.987.816 1.264 1.456a2.878 2.878 0 0 1 1.216-1.44 3.578 3.578 0 0 1 1.888-.512Zm13.941 4.208c0 .277-.016.57-.048.88h-7.008c.053.864.346 1.541.88 2.032.544.48 1.2.72 1.968.72.629 0 1.152-.144 1.568-.432.426-.299.725-.694.896-1.184h1.568a3.814 3.814 0 0 1-1.408 2.064c-.704.522-1.579.784-2.624.784-.832 0-1.579-.187-2.24-.56a3.997 3.997 0 0 1-1.536-1.584c-.374-.694-.56-1.494-.56-2.4 0-.907.181-1.702.544-2.384a3.77 3.77 0 0 1 1.52-1.568c.661-.374 1.418-.56 2.272-.56.832 0 1.568.181 2.208.544a3.7 3.7 0 0 1 1.472 1.504c.352.629.528 1.344.528 2.144Zm-1.504-.304c0-.555-.123-1.03-.368-1.424a2.315 2.315 0 0 0-1.008-.912 2.997 2.997 0 0 0-1.392-.32c-.736 0-1.366.234-1.888.704-.512.469-.806 1.12-.88 1.952h5.536Zm7.698-3.904c1.066 0 1.93.325 2.592.976.661.64.992 1.568.992 2.784v5.168h-1.44v-4.96c0-.875-.219-1.542-.656-2-.438-.47-1.035-.704-1.792-.704-.768 0-1.382.24-1.84.72-.448.48-.672 1.178-.672 2.096v4.848h-1.456v-8.768h1.456v1.248a2.898 2.898 0 0 1 1.168-1.04 3.686 3.686 0 0 1 1.648-.368Zm7.738 1.36v5.168c0 .426.091.73.272.912.181.17.496.256.944.256h1.072v1.232h-1.312c-.811 0-1.419-.187-1.824-.56-.405-.374-.608-.987-.608-1.84v-5.168h-1.136v-1.2h1.136v-2.208h1.456v2.208h2.288v1.2h-2.288ZM319.546 653.655v-1.328h3.008v11.568h-1.472v-10.24h-1.536Zm7.253 8.224-1.792 4.304h-.977l1.169-4.304h1.6Zm1.043-8.224v-1.328h3.008v11.568h-1.472v-10.24h-1.536Zm5.189 1.28c0-.726.219-1.302.656-1.728.438-.438.998-.656 1.68-.656.683 0 1.243.218 1.68.656.438.426.656 1.002.656 1.728 0 .736-.218 1.322-.656 1.76-.437.426-.997.64-1.68.64-.682 0-1.242-.214-1.68-.64-.437-.438-.656-1.024-.656-1.76Zm9.344-2.208-6.48 11.168h-1.44l6.48-11.168h1.44Zm-7.008.72c-.362 0-.65.128-.864.384-.202.245-.304.613-.304 1.104 0 .49.102.864.304 1.12.214.256.502.384.864.384.363 0 .651-.128.864-.384.214-.267.32-.64.32-1.12 0-.491-.106-.859-.32-1.104-.213-.256-.501-.384-.864-.384Zm3.792 8.24c0-.736.219-1.318.656-1.744.438-.438.998-.656 1.68-.656.683 0 1.238.218 1.664.656.438.426.656 1.008.656 1.744 0 .725-.218 1.306-.656 1.744-.426.437-.981.656-1.664.656-.682 0-1.242-.214-1.68-.64-.437-.438-.656-1.024-.656-1.76Zm2.32-1.488c-.362 0-.65.128-.864.384-.213.245-.32.613-.32 1.104 0 .48.107.848.32 1.104.214.245.502.368.864.368.363 0 .651-.123.864-.368.214-.256.32-.624.32-1.104 0-.491-.106-.859-.32-1.104-.213-.256-.501-.384-.864-.384Z"/>
</svg>
