<svg width="24" height="24" viewBox="0 0 24 24" fill="none" xmlns="http://www.w3.org/2000/svg">
<path d="M20.511 5.25H17.2905L16.9155 4.125C16.7348 3.57875 16.3863 3.10345 15.9197 2.7668C15.4531 2.43014 14.8921 2.24929 14.3168 2.25H9.68325C9.10803 2.24956 8.54732 2.43053 8.08088 2.76716C7.61445 3.10379 7.26605 3.57893 7.08525 4.125L6.7095 5.25H3.489C2.76282 5.2508 2.0666 5.53962 1.55311 6.05311C1.03962 6.5666 0.750794 7.26282 0.75 7.989V19.014C0.751587 19.7397 1.04077 20.4351 1.55417 20.948C2.06757 21.4608 2.76333 21.7492 3.489 21.75H20.514C21.2397 21.7484 21.9351 21.4592 22.448 20.9458C22.9608 20.4324 23.2492 19.7367 23.25 19.011V7.986C23.2484 7.26034 22.9592 6.56489 22.4458 6.05205C21.9324 5.53921 21.2367 5.25079 20.511 5.25ZM21.75 19.011C21.7496 19.3395 21.6189 19.6544 21.3867 19.8867C21.1544 20.1189 20.8395 20.2496 20.511 20.25H3.489C3.16052 20.2496 2.8456 20.1189 2.61333 19.8867C2.38106 19.6544 2.2504 19.3395 2.25 19.011V7.986C2.25119 7.65804 2.3822 7.3439 2.61439 7.11227C2.84658 6.88065 3.16104 6.7504 3.489 6.75H7.25025C7.4076 6.74988 7.56092 6.70028 7.68852 6.60821C7.81612 6.51615 7.91153 6.38628 7.96125 6.237L8.508 4.59675C8.5901 4.35004 8.74783 4.13545 8.95879 3.98346C9.16975 3.83146 9.42323 3.74978 9.68325 3.75H14.3168C14.5769 3.74972 14.8305 3.83147 15.0415 3.98362C15.2525 4.13578 15.4101 4.35059 15.492 4.5975L16.0387 6.237C16.0885 6.38628 16.1839 6.51615 16.3115 6.60821C16.4391 6.70028 16.5924 6.74988 16.7498 6.75H20.511C20.8395 6.7504 21.1544 6.88106 21.3867 7.11334C21.6189 7.34561 21.7496 7.66052 21.75 7.989V19.011Z" fill="white"/>
<path d="M12 7.5C10.8875 7.5 9.79995 7.8299 8.87492 8.44798C7.94989 9.06607 7.22892 9.94457 6.80318 10.9724C6.37744 12.0002 6.26604 13.1312 6.48309 14.2224C6.70013 15.3135 7.23586 16.3158 8.02253 17.1025C8.8092 17.8891 9.81148 18.4249 10.9026 18.6419C11.9938 18.859 13.1248 18.7476 14.1526 18.3218C15.1804 17.8961 16.0589 17.1751 16.677 16.2501C17.2951 15.3251 17.625 14.2375 17.625 13.125C17.6234 11.6336 17.0303 10.2038 15.9757 9.14928C14.9212 8.09473 13.4914 7.50159 12 7.5ZM12 17.25C11.1842 17.25 10.3866 17.0081 9.70827 16.5548C9.02992 16.1016 8.50121 15.4573 8.189 14.7036C7.87679 13.9498 7.7951 13.1204 7.95426 12.3203C8.11343 11.5201 8.50629 10.7851 9.08319 10.2082C9.66008 9.63129 10.3951 9.23843 11.1953 9.07926C11.9954 8.9201 12.8248 9.00179 13.5786 9.314C14.3323 9.62621 14.9766 10.1549 15.4298 10.8333C15.8831 11.5116 16.125 12.3092 16.125 13.125C16.1238 14.2187 15.6888 15.2672 14.9155 16.0405C14.1422 16.8138 13.0937 17.2488 12 17.25Z" fill="white"/>
<path d="M19.5 9.75C19.9142 9.75 20.25 9.41421 20.25 9C20.25 8.58579 19.9142 8.25 19.5 8.25C19.0858 8.25 18.75 8.58579 18.75 9C18.75 9.41421 19.0858 9.75 19.5 9.75Z" fill="white"/>
</svg>
