<svg width="81" height="80" viewBox="0 0 81 80" fill="none" xmlns="http://www.w3.org/2000/svg">
<path d="M49.1333 26.667L40.5 35.3003L31.8667 26.667L27.1667 31.367L35.8 40.0003L27.1667 48.6337L31.8667 53.3337L40.5 44.7003L49.1333 53.3337L53.8333 48.6337L45.2 40.0003L53.8333 31.367L49.1333 26.667ZM40.5 6.66699C22.0667 6.66699 7.16666 21.567 7.16666 40.0003C7.16666 58.4337 22.0667 73.3337 40.5 73.3337C58.9333 73.3337 73.8333 58.4337 73.8333 40.0003C73.8333 21.567 58.9333 6.66699 40.5 6.66699ZM40.5 66.667C25.8 66.667 13.8333 54.7003 13.8333 40.0003C13.8333 25.3003 25.8 13.3337 40.5 13.3337C55.2 13.3337 67.1667 25.3003 67.1667 40.0003C67.1667 54.7003 55.2 66.667 40.5 66.667Z" fill="#DD596A"/>
</svg>
