<svg xmlns="http://www.w3.org/2000/svg" fill="none" viewBox="0 0 25 25">
  <g fill="#fff" clip-path="url(#a)">
    <path d="M2.001 7.668a1.834 1.834 0 1 0 3.668 0C5.669 6.655 3.835 4 3.835 4S2.001 6.655 2.001 7.668ZM17.262 20.22l-1.548-2.68-.961.169 1.715 2.97a3.21 3.21 0 0 0 3.97 1.373l-.464-.802a2.297 2.297 0 0 1-2.712-1.03Z"/>
    <path d="m11.865 13.807 1.038 3.298 4.889-.864a.458.458 0 0 1 .477.222l4.356 7.544 1.588-.917-4.355-7.544a.458.458 0 0 1 .078-.559l1.102-1.065-1.789-3.097-1.513-.407-5.871 3.39Z"/>
    <path d="M18.056 19.763a1.376 1.376 0 0 0 1.44.66l-1.86-3.223-.961.17 1.381 2.393ZM13.278 11.932l2.575-1.486-1.146-1.986-1.724.995.295 2.477ZM11.453 5.575l1.604 2.78.795-.46-1.605-2.779a5.05 5.05 0 0 0-6.482-2.057l.46.798a4.132 4.132 0 0 1 5.228 1.718Z"/>
  </g>
  <defs>
    <clipPath id="a">
      <path fill="#fff" d="M0 0h25v25H0z"/>
    </clipPath>
  </defs>
</svg>
