<svg xmlns="http://www.w3.org/2000/svg" fill="none" viewBox="0 0 25 25">
  <g fill="#fff" clip-path="url(#a)">
    <path d="M18.304 16.566v-6.25h.893v6.25h-.893ZM21.875 16.566v-6.25h.893v6.25h-.893ZM.759 12.101H0v2.679h.893v-2.33a5.45 5.45 0 0 1-.134-.349ZM8.483 16.566v-1.618a5.311 5.311 0 0 1-.893.413v1.205h.893ZM5.804 9.87V8.747l-.98 1.568h.534a.446.446 0 0 1 .446.446v1.123l.982-1.57h-.535a.447.447 0 0 1-.447-.446Z"/>
    <path d="M12.5 9.423a.446.446 0 0 1 .446.446v7.143a.446.446 0 0 1-.447.447h-1.785a.446.446 0 0 1-.447-.447v-3.741a5.397 5.397 0 0 1-.893 1.026v2.715a.446.446 0 0 1-.446.447H7.142a.446.446 0 0 1-.446-.447v-1.42a5.346 5.346 0 0 1-.893.081v1.34a.446.446 0 0 1-.446.446H3.57a.446.446 0 0 1-.447-.447v-2.064a5.387 5.387 0 0 1-1.339-1.1v3.61a.893.893 0 0 0 .893.894h21.429a.893.893 0 0 0 .892-.893V9.423a.893.893 0 0 0-.892-.893h-13.26c.104.29.181.59.232.893h1.42Zm10.714 0a.446.446 0 0 1 .446.446v7.143a.446.446 0 0 1-.446.447h-1.786a.446.446 0 0 1-.446-.447V9.87a.446.446 0 0 1 .446-.446h1.786Zm-3.572 0a.446.446 0 0 1 .447.446v7.143a.446.446 0 0 1-.447.447h-1.785a.446.446 0 0 1-.447-.447V9.87a.446.446 0 0 1 .447-.446h1.785Zm-3.571 0a.446.446 0 0 1 .446.446v7.143a.446.446 0 0 1-.446.447h-1.786a.446.446 0 0 1-.446-.447V9.87a.447.447 0 0 1 .446-.446h1.786Z"/>
    <path d="M11.16 16.566v-6.25h.893v6.25h-.893ZM5.804 5.852a4.464 4.464 0 1 0 0 8.928 4.464 4.464 0 0 0 0-8.928Zm2.164 4.254-2.232 3.572a.446.446 0 0 1-.825-.237v-2.232h-.893a.446.446 0 0 1-.378-.683l2.232-3.572a.446.446 0 0 1 .825.237v2.232h.893a.446.446 0 0 1 .378.683ZM4.019 16.566h.892v-.974a5.289 5.289 0 0 1-.892-.231v1.205ZM14.731 16.566v-6.25h.893v6.25h-.893Z"/>
  </g>
  <defs>
    <clipPath id="a">
      <path fill="#fff" d="M0 0h25v25H0z"/>
    </clipPath>
  </defs>
</svg>
