<svg xmlns="http://www.w3.org/2000/svg" fill="none" viewBox="0 0 25 25">
  <path fill="#fff" d="M0 4.824a1.706 1.706 0 1 0 3.411 0c0-.942-1.705-3.411-1.705-3.411S0 3.882 0 4.823ZM5.066 19.322v-2.88l-.853-.31v3.19a2.985 2.985 0 0 0 2.558 2.95v-.86a2.136 2.136 0 0 1-1.705-2.09ZM13.594 18.47h5.97v.852h-5.97v-.853Z"/>
  <path fill="#fff" d="m3.701 11.646-.697 3.139 4.339 1.578a.427.427 0 0 1 .281.4v8.102H9.33v-8.101a.427.427 0 0 1 .323-.414l1.383-.346v-3.326l-1.03-1.032H3.701Z"/>
  <path fill="#fff" d="M5.919 19.322a1.28 1.28 0 0 0 .853 1.2v-3.46l-.853-.31v2.57ZM13.594 21.88h5.97v.853h-5.97v-.853ZM5.712 10.794h2.765V8.662H6.626l-.914 2.132ZM17.858 1.71V.987H15.3v.853h2.225c.109-.048.22-.088.333-.128ZM7.197 4.824v2.985h.853V4.824A4.697 4.697 0 0 0 3.786.152v.857a3.843 3.843 0 0 1 3.411 3.815ZM13.594 9.088h1.545a5.06 5.06 0 0 1-.394-.853h-1.151v.853ZM19.564 6.103V5.032l-.936 1.498h.51a.426.426 0 0 1 .426.426v1.072l.938-1.498h-.512a.426.426 0 0 1-.426-.427Z"/>
  <path fill="#fff" d="M20.417 12.926a.426.426 0 0 1-.426.426h-6.823a.426.426 0 0 1-.426-.426V11.22a.426.426 0 0 1 .426-.426h3.574a5.154 5.154 0 0 1-.981-.853h-2.593a.426.426 0 0 1-.426-.426V7.809a.426.426 0 0 1 .426-.427h1.356a5.112 5.112 0 0 1-.077-.852h-1.28a.426.426 0 0 1-.425-.427V4.398a.426.426 0 0 1 .426-.427h1.972c.279-.48.634-.912 1.05-1.28h-3.449a.853.853 0 0 0-.852.854v20.468a.852.852 0 0 0 .853.852h7.675a.852.852 0 0 0 .853-.852V11.348a5.027 5.027 0 0 1-.853.221v1.357Zm0 10.234a.426.426 0 0 1-.426.426h-6.823a.426.426 0 0 1-.426-.426v-1.706a.426.426 0 0 1 .426-.426h6.823a.426.426 0 0 1 .426.426v1.706Zm0-3.412a.427.427 0 0 1-.426.427h-6.823a.427.427 0 0 1-.426-.427v-1.705a.427.427 0 0 1 .426-.427h6.823a.427.427 0 0 1 .426.427v1.706Zm0-3.41a.426.426 0 0 1-.426.426h-6.823a.426.426 0 0 1-.426-.427v-1.705a.426.426 0 0 1 .426-.427h6.823a.427.427 0 0 1 .426.427v1.705Z"/>
  <path fill="#fff" d="M13.594 11.646h5.97v.853h-5.97v-.853ZM19.564 2.265a4.264 4.264 0 1 0 0 8.529 4.264 4.264 0 0 0 0-8.529Zm2.067 4.064L19.5 9.74a.426.426 0 0 1-.788-.226V7.382h-.853a.426.426 0 0 1-.361-.652l2.132-3.412a.427.427 0 0 1 .788.226v2.132h.853a.427.427 0 0 1 .361.653ZM13.594 4.824v.853h.93a5.03 5.03 0 0 1 .221-.853h-1.151ZM13.594 15.058h5.97v.852h-5.97v-.852Z"/>
</svg>
