<svg width="1044" height="186" viewBox="0 0 1044 186" fill="none" xmlns="http://www.w3.org/2000/svg">
<rect width="254.772" height="185.47" transform="matrix(-1 0 0 1 506.755 0)" fill="url(#paint0_linear_565_1001)"/>
<rect x="506.755" width="254.772" height="185.47" fill="url(#paint1_linear_565_1001)"/>
<rect x="398.065" width="217.379" height="185.47" fill="#1B2935"/>
<path d="M403.073 0H360.27L494.817 91.6677L357.182 185.47H399.948L516.2 106.266L537.583 91.6677L516.2 77.1076L403.073 0Z" fill="white"/>
<path fill-rule="evenodd" clip-rule="evenodd" d="M628.527 0H671.14L564.378 72.7624L543.072 58.2404L628.527 0ZM631.652 185.47L543.072 125.133L564.378 110.611L674.227 185.47H631.652Z" fill="white"/>
<rect width="75" height="186" fill="url(#paint2_linear_565_1001)"/>
<rect width="75" height="186" transform="matrix(-1 0 0 1 1044 0)" fill="url(#paint3_linear_565_1001)"/>
<defs>
<linearGradient id="paint0_linear_565_1001" x1="122.65" y1="92.735" x2="259.214" y2="93.6127" gradientUnits="userSpaceOnUse">
<stop stop-color="#1B2935"/>
<stop offset="1" stop-color="#111A21" stop-opacity="0"/>
</linearGradient>
<linearGradient id="paint1_linear_565_1001" x1="629.404" y1="92.735" x2="765.969" y2="93.6127" gradientUnits="userSpaceOnUse">
<stop stop-color="#1B2935"/>
<stop offset="1" stop-color="#111A21" stop-opacity="0"/>
</linearGradient>
<linearGradient id="paint2_linear_565_1001" x1="-1.11759e-06" y1="93" x2="75" y2="93" gradientUnits="userSpaceOnUse">
<stop stop-color="#1B2935"/>
<stop offset="1" stop-color="#101920" stop-opacity="0"/>
</linearGradient>
<linearGradient id="paint3_linear_565_1001" x1="-1.11759e-06" y1="93" x2="75" y2="93" gradientUnits="userSpaceOnUse">
<stop stop-color="#1B2935"/>
<stop offset="1" stop-color="#101920" stop-opacity="0"/>
</linearGradient>
</defs>
</svg>
