<svg width="24" height="24" viewBox="0 0 24 24" fill="none" xmlns="http://www.w3.org/2000/svg">
<g clip-path="url(#clip0_842_1689)">
<path d="M7.48447 10.8745H2.03596C1.85271 10.8745 1.7041 11.0231 1.7041 11.2064V13.684C1.7041 13.8673 1.85271 14.016 2.03596 14.016H7.48447C7.66777 14.016 7.81637 13.8673 7.81637 13.684V11.2064C7.81637 11.0231 7.66777 10.8745 7.48447 10.8745Z" fill="white"/>
<path d="M18.1907 11.8003H16.2257C16.1472 11.8003 16.0835 11.864 16.0835 11.9426V13.9075C16.0835 13.986 16.1472 14.0497 16.2257 14.0497H18.1907C18.2692 14.0497 18.3328 13.986 18.3328 13.9075V11.9426C18.3328 11.864 18.2692 11.8003 18.1907 11.8003Z" fill="white"/>
<path d="M15.0383 11.8003H13.0734C12.9947 11.8003 12.9312 11.864 12.9312 11.9426V13.9075C12.9312 13.986 12.9947 14.0497 13.0734 14.0497H15.0383C15.117 14.0497 15.1806 13.986 15.1806 13.9075V11.9426C15.1806 11.864 15.1169 11.8003 15.0383 11.8003Z" fill="white"/>
<path d="M11.8864 11.8003H9.92157C9.84295 11.8003 9.7793 11.864 9.7793 11.9426V13.9075C9.7793 13.986 9.84295 14.0497 9.92157 14.0497H11.8864C11.965 14.0497 12.0286 13.986 12.0286 13.9075V11.9426C12.0286 11.864 11.965 11.8003 11.8864 11.8003Z" fill="white"/>
<path d="M15.0383 8.85303H13.0734C12.9947 8.85303 12.9312 8.91672 12.9312 8.99525V10.9602C12.9312 11.0387 12.9947 11.1024 13.0734 11.1024H15.0383C15.117 11.1024 15.1806 11.0387 15.1806 10.9602V8.99525C15.1806 8.91672 15.1169 8.85303 15.0383 8.85303Z" fill="white"/>
<path d="M11.8864 8.85303H9.92157C9.84295 8.85303 9.7793 8.91672 9.7793 8.99525V10.9602C9.7793 11.0387 9.84295 11.1024 9.92157 11.1024H11.8864C11.965 11.1024 12.0286 11.0387 12.0286 10.9602V8.99525C12.0286 8.91672 11.965 8.85303 11.8864 8.85303Z" fill="white"/>
<path d="M5.64569 7.5791H3.87469C3.76997 7.5791 3.68506 7.66406 3.68506 7.76878V10.015C3.68506 10.1197 3.76997 10.2047 3.87469 10.2047H5.64569C5.75046 10.2047 5.83532 10.1198 5.83532 10.015V7.76878C5.83532 7.66406 5.75041 7.5791 5.64569 7.5791Z" fill="white"/>
<path d="M5.64569 6.03267H5.04464V3.97244C5.04464 3.81533 4.91725 3.68799 4.76014 3.68799C4.60299 3.68799 4.47565 3.81533 4.47565 3.97244V6.03267H3.87469C3.76997 6.03267 3.68506 6.11759 3.68506 6.22235V6.7199C3.68506 6.82458 3.76997 6.90954 3.87469 6.90954H5.64569C5.75046 6.90954 5.83532 6.82458 5.83532 6.7199V6.22235C5.83532 6.11759 5.75041 6.03267 5.64569 6.03267Z" fill="white"/>
<path d="M23.4851 14.1609C23.4643 14.1234 23.4247 14.1001 23.3816 14.1001H19.6016C19.5652 14.1001 19.5307 14.1169 19.5083 14.1456L19.0071 14.7869H0.618565C0.579136 14.7869 0.542383 14.8065 0.520275 14.8392C0.498261 14.8719 0.493848 14.9135 0.508634 14.95C0.508634 14.95 2.11427 18.9166 2.65045 20.2385C2.66862 20.2832 2.71208 20.3124 2.76033 20.3124H19.6741C19.7152 20.3124 19.757 20.2982 19.7827 20.2564C20.7046 18.7606 23.4823 14.281 23.4823 14.281C23.5049 14.2445 23.506 14.1985 23.4851 14.1609ZM15.9345 17.1282C15.6776 17.1282 15.4691 16.9198 15.4691 16.6628C15.4691 16.4057 15.6776 16.1974 15.9345 16.1974C16.1916 16.1974 16.3999 16.4057 16.3999 16.6628C16.3999 16.9198 16.1916 17.1282 15.9345 17.1282ZM18.1905 17.1282C17.9333 17.1282 17.725 16.9198 17.725 16.6628C17.725 16.4057 17.9333 16.1974 18.1905 16.1974C18.4474 16.1974 18.6557 16.4057 18.6557 16.6628C18.6557 16.9198 18.4474 17.1282 18.1905 17.1282Z" fill="white"/>
</g>
<defs>
<clipPath id="clip0_842_1689">
<rect width="23" height="23" fill="white" transform="translate(0.5 0.5)"/>
</clipPath>
</defs>
</svg>
