<svg width="319" height="319" viewBox="0 0 319 319" fill="none" xmlns="http://www.w3.org/2000/svg">
<path fill-rule="evenodd" clip-rule="evenodd" d="M269.5 318C269.5 318.552 269.948 319 270.5 319H299C310.046 319 319 310.046 319 299V271C319 270.448 318.552 270 318 270C317.448 270 317 270.448 317 271V299C317 308.941 308.941 317 299 317H270.5C269.948 317 269.5 317.448 269.5 318ZM269.5 1C269.5 1.55228 269.948 2 270.5 2H299C308.941 2 317 10.0589 317 20V49C317 49.5523 317.448 50 318 50C318.552 50 319 49.5523 319 49V20C319 8.95431 310.046 0 299 0H270.5C269.948 0 269.5 0.447715 269.5 1ZM48.5 0C49.0523 0 49.5 0.447715 49.5 1C49.5 1.55228 49.0523 2 48.5 2H20C10.0589 2 2 10.0589 2 20V49C2 49.5523 1.55228 50 1 50C0.447715 50 0 49.5523 0 49V20C0 8.9543 8.95431 0 20 0H48.5ZM48.5 317C49.0523 317 49.5 317.448 49.5 318C49.5 318.552 49.0523 319 48.5 319H20C8.9543 319 0 310.046 0 299V271C0 270.448 0.447715 270 1 270C1.55228 270 2 270.448 2 271V299C2 308.941 10.0589 317 20 317H48.5Z" fill="url(#paint0_linear_479_1235)"/>
<defs>
<linearGradient id="paint0_linear_479_1235" x1="-0.00496778" y1="318.998" x2="318.996" y2="-0.00388398" gradientUnits="userSpaceOnUse">
<stop stop-color="#9A75E9"/>
<stop offset="1" stop-color="#85FBC2"/>
</linearGradient>
</defs>
</svg>
