<svg xmlns="http://www.w3.org/2000/svg" fill="none" viewBox="0 0 308 56">
    <path fill="#101010"
          d="M47.477 47.8a28.03 28.03 0 0 0 6.315-9.808 28.16 28.16 0 0 0 1.788-11.549L40.92 41.201 26.263 55.96a27.66 27.66 0 0 0 11.471-1.8 27.786 27.786 0 0 0 9.741-6.357l.002-.002ZM33.138 33.364l2.831-8.274a13.992 13.992 0 0 1 3.315-5.338l9.764-9.83a28.056 28.056 0 0 1 5.627 10.834l-7.197 7.246a13.89 13.89 0 0 1-5.303 3.338l-8.217 2.85-2.832 8.274a13.99 13.99 0 0 1-3.315 5.338l-7.197 7.246a27.764 27.764 0 0 1-10.761-5.665l9.763-9.83a13.907 13.907 0 0 1 5.303-3.337l8.217-2.85.002-.002ZM22.485 22.637l8.218-2.85a13.87 13.87 0 0 0 5.302-3.338l9.764-9.83A27.739 27.739 0 0 0 35.008.954L27.81 8.201a14.015 14.015 0 0 0-3.315 5.338l-2.831 8.273-8.217 2.85A13.87 13.87 0 0 0 8.144 28L.948 35.247A28.083 28.083 0 0 0 6.575 46.08l9.764-9.83a14.029 14.029 0 0 0 3.315-5.339l2.831-8.273v-.002ZM8.145 8.2a27.802 27.802 0 0 1 9.742-6.357A27.663 27.663 0 0 1 29.36.043L14.7 14.801.043 29.559a28.19 28.19 0 0 1 1.787-11.55 28.012 28.012 0 0 1 6.315-9.807V8.2ZM273.423 46.67h7.785V29.596l15.936 17.037H308l-18.97-19.87 17.581-17.48h-11.33l-14.073 15.124V9.319h-7.785V46.67ZM266.991 9.318h-7.785V46.67h7.785V9.319ZM219.951 9.318l12.244 37.35h11.952l12.244-37.35h-8.26l-9.941 30.985-9.979-30.985h-8.26ZM203.978 9.318h-16.376V46.67h16.302c11.148 0 16.191-6.735 16.191-18.547 0-11.812-4.97-18.805-16.119-18.805h.002Zm0 31.022h-8.59V15.61h8.59c5.994 0 8.26 4.16 8.26 12.513s-2.303 12.217-8.26 12.217ZM148.494 46.67h7.602V15.243l14.363 31.425h10.893V9.318h-7.602V37.58L160.994 9.318h-12.5V46.67ZM74.076 33.238C73.784 43.615 80.4 47.296 91.33 47.296c9.248 0 16.301-3.386 16.301-12.438 0-8.096-6.031-9.604-12.719-10.266l-6.799-.626c-4.094-.368-5.555-1.618-5.555-4.71 0-3.679 2.559-5.409 7.932-5.409s8.59 1.876 8.662 7.213h8.151c0-8.648-4.02-12.77-16.96-12.77-10.38 0-16.154 3.937-16.154 11.555 0 7.102 4.787 9.604 11.367 10.266l7.493.736c5.336.552 6.433 2.023 6.433 4.747 0 4.526-2.558 5.887-8.15 5.887-7.567 0-8.772-3.79-8.7-8.243H74.076ZM133.288 9.318h-12.572l-12.684 37.35h8.004l2.924-8.61h16.155l2.887 8.61h8.041l-12.756-37.35h.001Zm-12.097 22.227 5.884-17.222 5.811 17.222h-11.695Z"/>
</svg>
