<svg width="23" height="23" viewBox="0 0 23 23" fill="none" xmlns="http://www.w3.org/2000/svg">
<g clip-path="url(#clip0_842_1631)">
<path d="M18.3135 14.6675C17.3012 14.6675 16.4775 15.4913 16.4775 16.5035C16.4775 17.5159 17.3012 18.3395 18.3135 18.3395C19.3257 18.3395 20.1495 17.5159 20.1495 16.5035C20.1495 15.4913 19.3257 14.6675 18.3135 14.6675ZM18.3135 17.0435C18.0157 17.0435 17.7735 16.8013 17.7735 16.5035C17.7735 16.2056 18.0157 15.9635 18.3135 15.9635C18.6114 15.9635 18.8535 16.2056 18.8535 16.5035C18.8535 16.8013 18.6114 17.0435 18.3135 17.0435Z" fill="white"/>
<path d="M18.1379 7.03564H14.9657C14.727 7.03564 14.5337 7.2292 14.5337 7.46764V15.8916C14.5337 16.1301 14.727 16.3236 14.9657 16.3236H15.4238C15.6377 16.3236 15.8271 16.1696 15.8548 15.9575C16.0243 14.6585 17.0605 13.8528 18.3139 13.8528C19.5673 13.8528 20.6035 14.6585 20.7731 15.9575C20.8007 16.1697 20.9899 16.3236 21.204 16.3236H21.6617C21.9001 16.3236 22.0937 16.1301 22.0937 15.8916V11.6796C22.0937 11.5781 22.058 11.4801 21.993 11.4025L18.4692 7.19052C18.3871 7.09247 18.2657 7.03564 18.1379 7.03564ZM15.3977 10.4916V8.33164C15.3977 8.0932 15.591 7.89964 15.8297 7.89964H17.7326C17.8607 7.89964 17.9824 7.95668 18.0644 8.05515L19.8643 10.2152C20.0987 10.4966 19.8987 10.9236 19.5324 10.9236H15.8297C15.591 10.9236 15.3977 10.7303 15.3977 10.4916Z" fill="white"/>
<path d="M0.925652 16.3242H2.03181C2.24565 16.3242 2.43508 16.1701 2.46271 15.9581C2.63226 14.659 3.66843 13.8534 4.92186 13.8534C6.1753 13.8534 7.21146 14.6591 7.38102 15.9581C7.40865 16.1702 7.59786 16.3242 7.81192 16.3242H13.2377C13.4761 16.3242 13.6697 16.1306 13.6697 15.8922V5.09216C13.6697 4.85371 13.4761 4.66016 13.2377 4.66016H0.925652C0.686958 4.66016 0.493652 4.85371 0.493652 5.09216V15.8922C0.493652 16.1306 0.686958 16.3242 0.925652 16.3242Z" fill="white"/>
<path d="M4.92145 14.6675C3.90907 14.6675 3.08545 15.4913 3.08545 16.5035C3.08545 17.5159 3.90907 18.3395 4.92145 18.3395C5.93361 18.3395 6.75745 17.5159 6.75745 16.5035C6.75745 15.4913 5.93361 14.6675 4.92145 14.6675ZM4.92145 17.0435C4.6236 17.0435 4.38145 16.8013 4.38145 16.5035C4.38145 16.2056 4.6236 15.9635 4.92145 15.9635C5.2193 15.9635 5.46145 16.2056 5.46145 16.5035C5.46145 16.8013 5.2193 17.0435 4.92145 17.0435Z" fill="white"/>
</g>
<defs>
<clipPath id="clip0_842_1631">
<rect width="21.6" height="21.6" fill="white" transform="translate(0.493652 0.700195)"/>
</clipPath>
</defs>
</svg>
