<svg width="13" height="14" viewBox="0 0 13 14" fill="none" xmlns="http://www.w3.org/2000/svg">
<path d="M7.90296 4.83301L6.50004 6.23592L5.09712 4.83301L4.33337 5.59676L5.73629 6.99967L4.33337 8.40259L5.09712 9.16634L6.50004 7.76342L7.90296 9.16634L8.66671 8.40259L7.26379 6.99967L8.66671 5.59676L7.90296 4.83301ZM6.50004 1.58301C3.50462 1.58301 1.08337 4.00426 1.08337 6.99967C1.08337 9.99509 3.50462 12.4163 6.50004 12.4163C9.49546 12.4163 11.9167 9.99509 11.9167 6.99967C11.9167 4.00426 9.49546 1.58301 6.50004 1.58301ZM6.50004 11.333C4.11129 11.333 2.16671 9.38842 2.16671 6.99967C2.16671 4.61092 4.11129 2.66634 6.50004 2.66634C8.88879 2.66634 10.8334 4.61092 10.8334 6.99967C10.8334 9.38842 8.88879 11.333 6.50004 11.333Z" fill="#DD596A"/>
</svg>
