<svg width="884" height="977" viewBox="0 0 884 977" fill="none" xmlns="http://www.w3.org/2000/svg">
<path fill-rule="evenodd" clip-rule="evenodd" d="M5.89028 5.0234H878.108C878.529 5.0234 878.871 5.36571 878.871 5.78795V898.12C878.871 898.542 878.529 898.885 878.108 898.885H643.533V903.472H878.108C881.06 903.472 883.454 901.076 883.454 898.12V5.78795C883.454 2.8322 881.06 0.436096 878.108 0.436096H5.89028C2.93758 0.436096 0.543945 2.83218 0.543945 5.78793V898.12C0.543945 901.076 2.93758 903.472 5.89028 903.472H230.868V898.885H5.89028C5.46846 898.885 5.12652 898.542 5.12652 898.12V5.78793C5.12652 5.36571 5.46844 5.0234 5.89028 5.0234Z" fill="#101920"/>
<g clip-path="url(#clip0_630_5)">
<path d="M266.002 847.412H258.195V909.141H266.002V847.412Z" fill="#101920"/>
<path d="M332.472 844.537C325.982 844.537 319.638 846.482 314.242 850.128C308.845 853.773 304.64 858.954 302.156 865.016C299.672 871.078 299.023 877.748 300.289 884.183C301.555 890.618 304.68 896.529 309.269 901.169C313.858 905.808 319.705 908.968 326.07 910.248C332.436 911.528 339.033 910.871 345.029 908.36C351.025 905.849 356.15 901.597 359.756 896.142C363.361 890.686 365.286 884.272 365.286 877.711C365.279 868.915 361.82 860.481 355.667 854.261C349.515 848.041 341.173 844.544 332.472 844.537ZM332.472 902.8C327.561 902.8 322.76 901.328 318.676 898.569C314.593 895.81 311.41 891.889 309.531 887.301C307.653 882.714 307.162 877.666 308.121 872.796C309.08 867.927 311.446 863.454 314.92 859.944C318.393 856.434 322.819 854.044 327.636 853.077C332.453 852.11 337.446 852.609 341.983 854.511C346.519 856.412 350.396 859.632 353.123 863.762C355.85 867.891 357.304 872.746 357.301 877.711C357.295 884.365 354.676 890.745 350.021 895.449C345.365 900.153 339.054 902.797 332.472 902.8Z" fill="#101920"/>
<path d="M525.123 847.412H517.316V909.141H525.123V847.412Z" fill="#101920"/>
<path d="M591.904 844.537C585.414 844.537 579.069 846.482 573.673 850.128C568.277 853.773 564.071 858.954 561.588 865.016C559.104 871.078 558.454 877.748 559.72 884.183C560.986 890.618 564.112 896.529 568.701 901.169C573.29 905.808 579.137 908.968 585.502 910.248C591.867 911.528 598.465 910.871 604.461 908.36C610.457 905.849 615.582 901.597 619.187 896.142C622.793 890.686 624.717 884.272 624.717 877.711C624.707 868.916 621.247 860.484 615.095 854.265C608.944 848.045 600.603 844.547 591.904 844.537ZM591.904 902.8C586.992 902.8 582.191 901.328 578.108 898.569C574.024 895.81 570.842 891.889 568.963 887.301C567.084 882.714 566.593 877.666 567.552 872.796C568.511 867.927 570.877 863.454 574.351 859.944C577.825 856.434 582.25 854.044 587.067 853.077C591.885 852.11 596.877 852.609 601.414 854.511C605.951 856.412 609.828 859.632 612.555 863.762C615.281 867.891 616.735 872.746 616.733 877.711C616.726 884.365 614.108 890.745 609.452 895.449C604.797 900.153 598.485 902.797 591.904 902.8Z" fill="#101920"/>
<path d="M396.729 846.693H382.474L427.283 877.558L381.445 909.141H395.688L434.404 882.473L441.526 877.558L434.404 872.655L396.729 846.693Z" fill="#101920"/>
<path d="M443.354 888.824L472.854 909.139H487.033L450.449 883.935L443.354 888.824Z" fill="#101920"/>
<path d="M486.005 846.693H471.813L443.354 866.303L450.449 871.192L486.005 846.693Z" fill="#101920"/>
</g>
<path d="M388.529 975.497V942.581H378.717V938.401H402.83V942.581H393.018V975.497H388.529Z" fill="#101920"/>
<path d="M432.054 938.401H436.543L451.261 975.497H446.407L443.067 966.928H425.53L422.189 975.497H417.336L432.054 938.401ZM427.148 962.748H441.449L434.298 944.201L427.148 962.748Z" fill="#101920"/>
<path d="M488 976.019C477.77 976.019 469.211 968.287 469.211 956.949C469.211 945.611 477.77 937.879 488.104 937.879C492.645 937.879 498.543 939.394 502.562 945.141L499.326 947.544C496.246 943.417 491.862 942.215 488.209 942.215C480.223 942.215 473.803 948.015 473.803 956.949C473.803 965.883 480.275 971.839 488.209 971.839C494.315 971.839 499.796 968.339 500.683 960.449H490.192V956.635H505.067C506.007 968.757 497.812 976.019 488 976.019Z" fill="#101920"/>
<path d="M293.518 30.1138V33.6809H278.85V30.1138H293.518ZM283.125 23.5505H287.474V49.6611C287.474 50.8501 287.652 51.7419 288.008 52.3364C288.377 52.919 288.843 53.3114 289.408 53.5135C289.986 53.7038 290.594 53.7989 291.233 53.7989C291.712 53.7989 292.105 53.7751 292.412 53.7276C292.719 53.6681 292.965 53.6205 293.149 53.5849L294.034 57.3659C293.739 57.4729 293.327 57.5799 292.799 57.6869C292.271 57.8058 291.601 57.8653 290.791 57.8653C289.562 57.8653 288.358 57.6097 287.179 57.0984C286.012 56.5871 285.041 55.8083 284.267 54.762C283.506 53.7157 283.125 52.3959 283.125 50.8026V23.5505Z" fill="#101920"/>
<path d="M308.389 58.1507C306.595 58.1507 304.967 57.8237 303.505 57.1697C302.044 56.5039 300.883 55.5467 300.023 54.2983C299.163 53.0379 298.733 51.516 298.733 49.7325C298.733 48.163 299.052 46.8908 299.691 45.9158C300.33 44.9289 301.184 44.156 302.252 43.5972C303.321 43.0384 304.501 42.6222 305.79 42.3487C307.093 42.0634 308.401 41.8375 309.715 41.671C311.435 41.457 312.83 41.2965 313.898 41.1895C314.98 41.0706 315.766 40.8744 316.257 40.6009C316.761 40.3274 317.013 39.8518 317.013 39.1741V39.0314C317.013 37.2717 316.515 35.9043 315.52 34.9293C314.537 33.9543 313.045 33.4669 311.042 33.4669C308.966 33.4669 307.338 33.9068 306.159 34.7867C304.98 35.6665 304.15 36.6058 303.671 37.6046L299.544 36.1778C300.281 34.5132 301.263 33.2172 302.492 32.2897C303.733 31.3504 305.084 30.6965 306.546 30.3279C308.02 29.9474 309.47 29.7571 310.895 29.7571C311.804 29.7571 312.848 29.8642 314.027 30.0782C315.219 30.2803 316.368 30.7024 317.473 31.3445C318.591 31.9865 319.519 32.9556 320.256 34.2516C320.993 35.5476 321.362 37.2836 321.362 39.4595V57.5086H317.013V53.7989H316.792C316.497 54.3934 316.005 55.0295 315.317 55.7072C314.629 56.385 313.714 56.9617 312.572 57.4373C311.429 57.9129 310.035 58.1507 308.389 58.1507ZM309.052 54.3696C310.772 54.3696 312.222 54.0426 313.401 53.3887C314.593 52.7347 315.489 51.8905 316.091 50.8561C316.706 49.8217 317.013 48.7337 317.013 47.5923V43.7399C316.828 43.9539 316.423 44.1501 315.796 44.3284C315.182 44.4949 314.47 44.6435 313.659 44.7743C312.86 44.8932 312.08 45.0002 311.319 45.0954C310.569 45.1786 309.961 45.2499 309.494 45.3094C308.364 45.4521 307.308 45.6839 306.325 46.0049C305.354 46.3141 304.568 46.7837 303.966 47.4139C303.376 48.0322 303.082 48.8764 303.082 49.9465C303.082 51.409 303.641 52.5148 304.758 53.2638C305.889 54.001 307.32 54.3696 309.052 54.3696Z" fill="#101920"/>
<path d="M340.724 68.3524C338.623 68.3524 336.818 68.0908 335.306 67.5676C333.795 67.0563 332.536 66.3786 331.529 65.5344C330.534 64.7021 329.741 63.8103 329.152 62.8591L332.616 60.5049C333.009 61.0043 333.507 61.575 334.109 62.2171C334.711 62.871 335.534 63.4358 336.578 63.9114C337.634 64.3989 339.017 64.6426 340.724 64.6426C343.009 64.6426 344.895 64.1076 346.381 63.0375C347.868 61.9674 348.611 60.2909 348.611 58.008V52.4434H348.243C347.923 52.9428 347.469 53.5611 346.879 54.2983C346.301 55.0236 345.466 55.6716 344.373 56.2423C343.292 56.8011 341.83 57.0806 339.987 57.0806C337.702 57.0806 335.65 56.5574 333.832 55.5111C332.026 54.4647 330.595 52.9428 329.539 50.9453C328.494 48.9477 327.972 46.5222 327.972 43.6685C327.972 40.8625 328.482 38.4191 329.502 36.3383C330.522 34.2457 331.94 32.6286 333.759 31.4872C335.577 30.3338 337.677 29.7571 340.061 29.7571C341.903 29.7571 343.365 30.0544 344.446 30.6489C345.54 31.2315 346.375 31.8974 346.953 32.6464C347.542 33.3836 347.997 33.99 348.316 34.4656H348.758V30.1138H352.96V58.2933C352.96 60.6476 352.407 62.5619 351.301 64.0362C350.208 65.5225 348.734 66.6104 346.879 67.3001C345.036 68.0016 342.985 68.3524 340.724 68.3524ZM340.577 53.2995C342.321 53.2995 343.795 52.9131 344.999 52.1402C346.203 51.3674 347.118 50.2556 347.745 48.8051C348.371 47.3545 348.685 45.6185 348.685 43.5972C348.685 41.6234 348.378 39.8815 347.763 38.3715C347.149 36.8615 346.24 35.6784 345.036 34.8223C343.832 33.9662 342.346 33.5382 340.577 33.5382C338.734 33.5382 337.198 33.99 335.97 34.8937C334.754 35.7973 333.838 37.0101 333.224 38.532C332.622 40.054 332.321 41.7423 332.321 43.5972C332.321 45.4996 332.628 47.1821 333.243 48.6445C333.869 50.0951 334.791 51.2366 336.007 52.0689C337.235 52.8893 338.759 53.2995 340.577 53.2995Z" fill="#101920"/>
<path d="M380.97 36.2491L377.063 37.3192C376.817 36.6891 376.455 36.0767 375.976 35.4822C375.509 34.8758 374.87 34.3764 374.059 33.9841C373.248 33.5917 372.21 33.3955 370.945 33.3955C369.213 33.3955 367.769 33.7819 366.615 34.5548C365.472 35.3158 364.901 36.2848 364.901 37.4619C364.901 38.5082 365.294 39.3346 366.08 39.941C366.866 40.5474 368.095 41.0527 369.766 41.457L373.967 42.4558C376.498 43.0503 378.384 43.9598 379.624 45.1845C380.865 46.3973 381.485 47.9609 381.485 49.8752C381.485 51.4447 381.019 52.8477 380.085 54.0843C379.164 55.3208 377.874 56.2958 376.215 57.0092C374.557 57.7226 372.628 58.0793 370.429 58.0793C367.542 58.0793 365.153 57.4729 363.261 56.2601C361.369 55.0473 360.171 53.2757 359.667 50.9453L363.795 49.9465C364.188 51.4209 364.932 52.5266 366.025 53.2638C367.131 54.001 368.574 54.3696 370.355 54.3696C372.382 54.3696 373.992 53.9535 375.183 53.1212C376.387 52.277 376.989 51.2663 376.989 50.0892C376.989 49.138 376.645 48.3413 375.957 47.6993C375.269 47.0453 374.213 46.5578 372.788 46.2368L368.07 45.1667C365.478 44.5722 363.574 43.6507 362.358 42.4022C361.154 41.1419 360.552 39.5665 360.552 37.6759C360.552 36.1302 361 34.7629 361.897 33.5739C362.806 32.3849 364.041 31.4515 365.601 30.7737C367.174 30.096 368.955 29.7571 370.945 29.7571C373.746 29.7571 375.945 30.3517 377.542 31.5407C379.151 32.7297 380.294 34.2992 380.97 36.2491Z" fill="#101920"/>
<path d="M391.201 57.794C390.292 57.794 389.512 57.4789 388.861 56.8487C388.21 56.2185 387.884 55.4635 387.884 54.5836C387.884 53.7038 388.21 52.9487 388.861 52.3186C389.512 51.6884 390.292 51.3733 391.201 51.3733C392.11 51.3733 392.89 51.6884 393.542 52.3186C394.193 52.9487 394.518 53.7038 394.518 54.5836C394.518 55.1662 394.365 55.7013 394.058 56.1888C393.763 56.6763 393.363 57.0687 392.86 57.3659C392.368 57.6513 391.816 57.794 391.201 57.794Z" fill="#101920"/>
<path d="M402.322 57.5086V30.1138H406.671V57.5086H402.322ZM404.534 25.5481C403.686 25.5481 402.955 25.2686 402.341 24.7098C401.739 24.151 401.438 23.4792 401.438 22.6944C401.438 21.9097 401.739 21.2379 402.341 20.6791C402.955 20.1202 403.686 19.8408 404.534 19.8408C405.381 19.8408 406.106 20.1202 406.708 20.6791C407.322 21.2379 407.629 21.9097 407.629 22.6944C407.629 23.4792 407.322 24.151 406.708 24.7098C406.106 25.2686 405.381 25.5481 404.534 25.5481Z" fill="#101920"/>
<path d="M426.135 58.0793C423.58 58.0793 421.338 57.4908 419.409 56.3136C417.493 55.1365 415.994 53.4897 414.913 51.3733C413.844 49.2569 413.31 46.7837 413.31 43.9539C413.31 41.1003 413.844 38.6093 414.913 36.481C415.994 34.3527 417.493 32.6999 419.409 31.5228C421.338 30.3457 423.58 29.7571 426.135 29.7571C428.69 29.7571 430.926 30.3457 432.843 31.5228C434.771 32.6999 436.27 34.3527 437.339 36.481C438.42 38.6093 438.96 41.1003 438.96 43.9539C438.96 46.7837 438.42 49.2569 437.339 51.3733C436.27 53.4897 434.771 55.1365 432.843 56.3136C430.926 57.4908 428.69 58.0793 426.135 58.0793ZM426.135 54.2983C428.076 54.2983 429.673 53.8167 430.926 52.8536C432.179 51.8905 433.107 50.6242 433.709 49.0547C434.311 47.4853 434.612 45.785 434.612 43.9539C434.612 42.1228 434.311 40.4166 433.709 38.8352C433.107 37.2538 432.179 35.9757 430.926 35.0007C429.673 34.0257 428.076 33.5382 426.135 33.5382C424.194 33.5382 422.597 34.0257 421.344 35.0007C420.091 35.9757 419.163 37.2538 418.561 38.8352C417.959 40.4166 417.658 42.1228 417.658 43.9539C417.658 45.785 417.959 47.4853 418.561 49.0547C419.163 50.6242 420.091 51.8905 421.344 52.8536C422.597 53.8167 424.194 54.2983 426.135 54.2983Z" fill="#101920"/>
<path d="M447.677 30.1138L454.458 41.3143L461.239 30.1138H466.251L457.111 43.8112L466.251 57.5086H461.239L454.458 46.8789L447.677 57.5086H442.664L451.657 43.8112L442.664 30.1138H447.677Z" fill="#101920"/>
<path d="M472.457 57.5086V30.1138H476.806V57.5086H472.457ZM474.668 25.5481C473.82 25.5481 473.089 25.2686 472.475 24.7098C471.873 24.151 471.572 23.4792 471.572 22.6944C471.572 21.9097 471.873 21.2379 472.475 20.6791C473.089 20.1202 473.82 19.8408 474.668 19.8408C475.516 19.8408 476.241 20.1202 476.843 20.6791C477.457 21.2379 477.764 21.9097 477.764 22.6944C477.764 23.4792 477.457 24.151 476.843 24.7098C476.241 25.2686 475.516 25.5481 474.668 25.5481Z" fill="#101920"/>
<path d="M496.27 58.0793C493.714 58.0793 491.472 57.4908 489.544 56.3136C487.627 55.1365 486.128 53.4897 485.047 51.3733C483.979 49.2569 483.444 46.7837 483.444 43.9539C483.444 41.1003 483.979 38.6093 485.047 36.481C486.128 34.3527 487.627 32.6999 489.544 31.5228C491.472 30.3457 493.714 29.7571 496.27 29.7571C498.825 29.7571 501.061 30.3457 502.977 31.5228C504.906 32.6999 506.405 34.3527 507.473 36.481C508.555 38.6093 509.095 41.1003 509.095 43.9539C509.095 46.7837 508.555 49.2569 507.473 51.3733C506.405 53.4897 504.906 55.1365 502.977 56.3136C501.061 57.4908 498.825 58.0793 496.27 58.0793ZM496.27 54.2983C498.211 54.2983 499.808 53.8167 501.061 52.8536C502.314 51.8905 503.241 50.6242 503.843 49.0547C504.445 47.4853 504.746 45.785 504.746 43.9539C504.746 42.1228 504.445 40.4166 503.843 38.8352C503.241 37.2538 502.314 35.9757 501.061 35.0007C499.808 34.0257 498.211 33.5382 496.27 33.5382C494.329 33.5382 492.732 34.0257 491.478 35.0007C490.225 35.9757 489.298 37.2538 488.696 38.8352C488.094 40.4166 487.793 42.1228 487.793 43.9539C487.793 45.785 488.094 47.4853 488.696 49.0547C489.298 50.6242 490.225 51.8905 491.478 52.8536C492.732 53.8167 494.329 54.2983 496.27 54.2983Z" fill="#101920"/>
<path d="M518.903 57.794C517.994 57.794 517.214 57.4789 516.563 56.8487C515.912 56.2185 515.586 55.4635 515.586 54.5836C515.586 53.7038 515.912 52.9487 516.563 52.3186C517.214 51.6884 517.994 51.3733 518.903 51.3733C519.812 51.3733 520.592 51.6884 521.243 52.3186C521.894 52.9487 522.22 53.7038 522.22 54.5836C522.22 55.1662 522.066 55.7013 521.759 56.1888C521.464 56.6763 521.065 57.0687 520.561 57.3659C520.07 57.6513 519.517 57.794 518.903 57.794Z" fill="#101920"/>
<path d="M540.712 58.0793C538.353 58.0793 536.271 57.5027 534.465 56.3493C532.659 55.1841 531.246 53.5433 530.227 51.4268C529.207 49.2985 528.697 46.7837 528.697 43.8826C528.697 41.0052 529.207 38.5082 530.227 36.3918C531.246 34.2754 532.665 32.6405 534.483 31.4872C536.302 30.3338 538.402 29.7571 540.786 29.7571C542.628 29.7571 544.084 30.0544 545.153 30.6489C546.234 31.2315 547.057 31.8974 547.622 32.6464C548.199 33.3836 548.648 33.99 548.967 34.4656H549.336V20.9823H553.685V57.5086H549.483V53.2995H548.967C548.648 53.7989 548.193 54.4291 547.604 55.19C547.014 55.9391 546.172 56.6109 545.079 57.2054C543.986 57.788 542.53 58.0793 540.712 58.0793ZM541.302 54.2983C543.046 54.2983 544.52 53.8583 545.724 52.9785C546.928 52.0867 547.843 50.8561 548.47 49.2866C549.096 47.7052 549.41 45.8801 549.41 43.8112C549.41 41.7661 549.102 39.9767 548.488 38.4429C547.874 36.8971 546.965 35.6962 545.761 34.8402C544.557 33.9722 543.071 33.5382 541.302 33.5382C539.459 33.5382 537.923 33.996 536.695 34.9115C535.478 35.8151 534.563 37.0458 533.949 38.6034C533.347 40.1491 533.046 41.885 533.046 43.8112C533.046 45.7612 533.353 47.5328 533.967 49.1261C534.594 50.7075 535.515 51.9678 536.732 52.9071C537.96 53.8346 539.483 54.2983 541.302 54.2983Z" fill="#101920"/>
<path d="M574.121 58.0793C571.393 58.0793 569.041 57.4967 567.063 56.3315C565.097 55.1544 563.58 53.5135 562.511 51.409C561.455 49.2925 560.927 46.8313 560.927 44.0252C560.927 41.2192 561.455 38.746 562.511 36.6058C563.58 34.4537 565.067 32.7772 566.971 31.5763C568.887 30.3635 571.123 29.7571 573.678 29.7571C575.153 29.7571 576.608 29.9949 578.046 30.4705C579.483 30.9462 580.791 31.719 581.971 32.7891C583.15 33.8473 584.09 35.2504 584.79 36.9982C585.49 38.746 585.84 40.8982 585.84 43.4545V45.238H564.022V41.5997H581.418C581.418 40.054 581.098 38.6747 580.46 37.4619C579.833 36.2491 578.936 35.292 577.769 34.5905C576.614 33.8889 575.251 33.5382 573.678 33.5382C571.946 33.5382 570.447 33.9543 569.182 34.7867C567.929 35.6071 566.965 36.6772 566.289 37.997C565.613 39.3168 565.276 40.7317 565.276 42.2417V44.6673C565.276 46.7362 565.644 48.49 566.381 49.9287C567.131 51.3555 568.169 52.4434 569.495 53.1925C570.822 53.9297 572.364 54.2983 574.121 54.2983C575.263 54.2983 576.295 54.1437 577.216 53.8346C578.15 53.5135 578.955 53.0379 579.63 52.4077C580.306 51.7657 580.828 50.9691 581.197 50.0178L585.398 51.1593C584.956 52.5385 584.213 53.7513 583.168 54.7977C582.124 55.8321 580.834 56.6406 579.299 57.2232C577.763 57.794 576.037 58.0793 574.121 58.0793Z" fill="#101920"/>
<path d="M614.739 30.1138L604.272 57.5086H599.85L589.383 30.1138H594.101L601.914 51.944H602.209L610.022 30.1138H614.739Z" fill="#101920"/>
<defs>
<clipPath id="clip0_630_5">
<rect width="366.536" height="65.6826" fill="white" transform="translate(258.205 845.831)"/>
</clipPath>
</defs>
</svg>
