<svg width="1520" height="1520" viewBox="0 0 1520 1520" fill="none" xmlns="http://www.w3.org/2000/svg">
<rect width="1308" height="1431" transform="translate(106 48)" fill="white"/>
<rect width="1308" height="89" transform="translate(106 48)" fill="white"/>
<path d="M550.067 73.5529V78.2588H530V73.5529H550.067ZM535.849 64.8941H541.798V99.3412C541.798 100.91 542.042 102.086 542.529 102.871C543.034 103.639 543.672 104.157 544.445 104.424C545.235 104.675 546.067 104.8 546.941 104.8C547.597 104.8 548.134 104.769 548.555 104.706C548.975 104.627 549.311 104.565 549.563 104.518L550.773 109.506C550.37 109.647 549.807 109.788 549.084 109.929C548.361 110.086 547.445 110.165 546.336 110.165C544.655 110.165 543.008 109.827 541.395 109.153C539.798 108.478 538.471 107.451 537.412 106.071C536.37 104.69 535.849 102.949 535.849 100.847V64.8941Z" fill="#101920"/>
<path d="M570.412 110.541C567.958 110.541 565.731 110.11 563.731 109.247C561.731 108.369 560.143 107.106 558.966 105.459C557.79 103.796 557.202 101.788 557.202 99.4353C557.202 97.3647 557.639 95.6863 558.513 94.4C559.387 93.098 560.555 92.0784 562.017 91.3412C563.479 90.6039 565.092 90.0549 566.857 89.6941C568.639 89.3176 570.429 89.0196 572.227 88.8C574.58 88.5176 576.487 88.3059 577.95 88.1647C579.429 88.0078 580.504 87.749 581.177 87.3882C581.866 87.0275 582.21 86.4 582.21 85.5059V85.3176C582.21 82.9961 581.529 81.1922 580.168 79.9059C578.824 78.6196 576.782 77.9765 574.042 77.9765C571.202 77.9765 568.975 78.5569 567.361 79.7176C565.748 80.8784 564.613 82.1176 563.958 83.4353L558.311 81.5529C559.319 79.3569 560.664 77.6471 562.345 76.4235C564.042 75.1843 565.891 74.3216 567.891 73.8353C569.908 73.3333 571.891 73.0824 573.84 73.0824C575.084 73.0824 576.513 73.2235 578.126 73.5059C579.756 73.7725 581.328 74.3294 582.84 75.1765C584.37 76.0235 585.639 77.302 586.647 79.0118C587.656 80.7216 588.16 83.0118 588.16 85.8824V109.694H582.21V104.8H581.908C581.504 105.584 580.832 106.424 579.891 107.318C578.95 108.212 577.698 108.973 576.135 109.6C574.571 110.227 572.664 110.541 570.412 110.541ZM571.319 105.553C573.672 105.553 575.656 105.122 577.269 104.259C578.899 103.396 580.126 102.282 580.95 100.918C581.79 99.5529 582.21 98.1176 582.21 96.6118V91.5294C581.958 91.8118 581.403 92.0706 580.546 92.3059C579.706 92.5255 578.731 92.7216 577.622 92.8941C576.529 93.051 575.462 93.1922 574.42 93.3176C573.395 93.4275 572.563 93.5216 571.924 93.6C570.378 93.7882 568.933 94.0941 567.588 94.5176C566.261 94.9255 565.185 95.5451 564.361 96.3765C563.555 97.1922 563.151 98.3059 563.151 99.7176C563.151 101.647 563.916 103.106 565.445 104.094C566.992 105.067 568.95 105.553 571.319 105.553Z" fill="#101920"/>
<path d="M614.649 124C611.775 124 609.305 123.655 607.237 122.965C605.17 122.29 603.448 121.396 602.069 120.282C600.708 119.184 599.624 118.008 598.817 116.753L603.557 113.647C604.095 114.306 604.775 115.059 605.599 115.906C606.422 116.769 607.548 117.514 608.977 118.141C610.422 118.784 612.313 119.106 614.649 119.106C617.775 119.106 620.355 118.4 622.389 116.988C624.422 115.576 625.439 113.365 625.439 110.353V103.012H624.935C624.498 103.671 623.876 104.486 623.069 105.459C622.28 106.416 621.137 107.271 619.641 108.024C618.162 108.761 616.162 109.129 613.641 109.129C610.515 109.129 607.708 108.439 605.221 107.059C602.75 105.678 600.792 103.671 599.347 101.035C597.918 98.4 597.204 95.2 597.204 91.4353C597.204 87.7333 597.901 84.5098 599.296 81.7647C600.691 79.0039 602.632 76.8706 605.12 75.3647C607.607 73.8431 610.481 73.0824 613.742 73.0824C616.263 73.0824 618.263 73.4745 619.742 74.2588C621.238 75.0274 622.38 75.9059 623.17 76.8941C623.977 77.8667 624.599 78.6667 625.036 79.2941H625.641V73.5529H631.389V110.729C631.389 113.835 630.632 116.361 629.12 118.306C627.624 120.267 625.607 121.702 623.069 122.612C620.548 123.537 617.742 124 614.649 124ZM614.448 104.141C616.834 104.141 618.851 103.631 620.498 102.612C622.145 101.592 623.397 100.125 624.254 98.2118C625.111 96.298 625.54 94.0078 625.54 91.3412C625.54 88.7373 625.12 86.4392 624.28 84.4471C623.439 82.4549 622.196 80.8941 620.548 79.7647C618.901 78.6353 616.868 78.0706 614.448 78.0706C611.927 78.0706 609.826 78.6667 608.145 79.8588C606.481 81.051 605.229 82.651 604.389 84.6588C603.565 86.6667 603.153 88.8941 603.153 91.3412C603.153 93.851 603.574 96.0706 604.414 98C605.271 99.9137 606.532 101.42 608.195 102.518C609.876 103.6 611.96 104.141 614.448 104.141Z" fill="#101920"/>
<path d="M669.708 81.6471L664.364 83.0588C664.027 82.2274 663.532 81.4196 662.876 80.6353C662.238 79.8353 661.364 79.1765 660.254 78.6588C659.145 78.1412 657.725 77.8824 655.994 77.8824C653.624 77.8824 651.649 78.3922 650.069 79.4118C648.506 80.4157 647.725 81.6941 647.725 83.2471C647.725 84.6275 648.263 85.7176 649.338 86.5176C650.414 87.3176 652.095 87.9843 654.38 88.5176L660.128 89.8353C663.591 90.6196 666.17 91.8196 667.868 93.4353C669.565 95.0353 670.414 97.098 670.414 99.6235C670.414 101.694 669.775 103.545 668.498 105.176C667.238 106.808 665.473 108.094 663.204 109.035C660.935 109.976 658.296 110.447 655.288 110.447C651.338 110.447 648.069 109.647 645.481 108.047C642.893 106.447 641.254 104.11 640.565 101.035L646.212 99.7176C646.75 101.663 647.767 103.122 649.263 104.094C650.775 105.067 652.75 105.553 655.187 105.553C657.96 105.553 660.162 105.004 661.792 103.906C663.439 102.792 664.263 101.459 664.263 99.9059C664.263 98.651 663.792 97.6 662.851 96.7529C661.91 95.8902 660.464 95.2471 658.515 94.8235L652.061 93.4118C648.515 92.6274 645.91 91.4118 644.246 89.7647C642.599 88.102 641.775 86.0235 641.775 83.5294C641.775 81.4902 642.389 79.6863 643.616 78.1176C644.859 76.549 646.548 75.3176 648.683 74.4235C650.834 73.5294 653.271 73.0824 655.994 73.0824C659.826 73.0824 662.834 73.8667 665.019 75.4353C667.221 77.0039 668.784 79.0745 669.708 81.6471Z" fill="#101920"/>
<path d="M683.706 110.071C682.462 110.071 681.395 109.655 680.504 108.824C679.614 107.992 679.168 106.996 679.168 105.835C679.168 104.675 679.614 103.678 680.504 102.847C681.395 102.016 682.462 101.6 683.706 101.6C684.95 101.6 686.017 102.016 686.908 102.847C687.799 103.678 688.244 104.675 688.244 105.835C688.244 106.604 688.034 107.31 687.614 107.953C687.21 108.596 686.664 109.114 685.975 109.506C685.303 109.882 684.546 110.071 683.706 110.071Z" fill="#101920"/>
<path d="M698.92 109.694V73.5529H704.87V109.694H698.92ZM701.946 67.5294C700.786 67.5294 699.786 67.1608 698.946 66.4235C698.122 65.6863 697.71 64.8 697.71 63.7647C697.71 62.7294 698.122 61.8431 698.946 61.1059C699.786 60.3686 700.786 60 701.946 60C703.105 60 704.097 60.3686 704.92 61.1059C705.761 61.8431 706.181 62.7294 706.181 63.7647C706.181 64.8 705.761 65.6863 704.92 66.4235C704.097 67.1608 703.105 67.5294 701.946 67.5294Z" fill="#101920"/>
<path d="M731.498 110.447C728.002 110.447 724.935 109.671 722.296 108.118C719.675 106.565 717.624 104.392 716.145 101.6C714.683 98.8078 713.952 95.5451 713.952 91.8118C713.952 88.0471 714.683 84.7608 716.145 81.9529C717.624 79.1451 719.675 76.9647 722.296 75.4118C724.935 73.8588 728.002 73.0824 731.498 73.0824C734.994 73.0824 738.053 73.8588 740.675 75.4118C743.313 76.9647 745.364 79.1451 746.826 81.9529C748.305 84.7608 749.044 88.0471 749.044 91.8118C749.044 95.5451 748.305 98.8078 746.826 101.6C745.364 104.392 743.313 106.565 740.675 108.118C738.053 109.671 734.994 110.447 731.498 110.447ZM731.498 105.459C734.154 105.459 736.339 104.824 738.053 103.553C739.767 102.282 741.036 100.612 741.86 98.5412C742.683 96.4706 743.095 94.2275 743.095 91.8118C743.095 89.3961 742.683 87.1451 741.86 85.0588C741.036 82.9726 739.767 81.2863 738.053 80C736.339 78.7137 734.154 78.0706 731.498 78.0706C728.843 78.0706 726.658 78.7137 724.944 80C723.229 81.2863 721.96 82.9726 721.137 85.0588C720.313 87.1451 719.902 89.3961 719.902 91.8118C719.902 94.2275 720.313 96.4706 721.137 98.5412C721.96 100.612 723.229 102.282 724.944 103.553C726.658 104.824 728.843 105.459 731.498 105.459Z" fill="#101920"/>
<path d="M760.969 73.5529L770.246 88.3294L779.523 73.5529H786.381L773.876 91.6235L786.381 109.694H779.523L770.246 95.6706L760.969 109.694H754.112L766.414 91.6235L754.112 73.5529H760.969Z" fill="#101920"/>
<path d="M794.87 109.694V73.5529H800.82V109.694H794.87ZM797.895 67.5294C796.736 67.5294 795.736 67.1608 794.895 66.4235C794.072 65.6863 793.66 64.8 793.66 63.7647C793.66 62.7294 794.072 61.8431 794.895 61.1059C795.736 60.3686 796.736 60 797.895 60C799.055 60 800.047 60.3686 800.87 61.1059C801.71 61.8431 802.131 62.7294 802.131 63.7647C802.131 64.8 801.71 65.6863 800.87 66.4235C800.047 67.1608 799.055 67.5294 797.895 67.5294Z" fill="#101920"/>
<path d="M827.448 110.447C823.952 110.447 820.885 109.671 818.246 108.118C815.624 106.565 813.574 104.392 812.095 101.6C810.633 98.8078 809.902 95.5451 809.902 91.8118C809.902 88.0471 810.633 84.7608 812.095 81.9529C813.574 79.1451 815.624 76.9647 818.246 75.4118C820.885 73.8588 823.952 73.0824 827.448 73.0824C830.944 73.0824 834.003 73.8588 836.624 75.4118C839.263 76.9647 841.313 79.1451 842.776 81.9529C844.255 84.7608 844.994 88.0471 844.994 91.8118C844.994 95.5451 844.255 98.8078 842.776 101.6C841.313 104.392 839.263 106.565 836.624 108.118C834.003 109.671 830.944 110.447 827.448 110.447ZM827.448 105.459C830.103 105.459 832.288 104.824 834.003 103.553C835.717 102.282 836.986 100.612 837.809 98.5412C838.633 96.4706 839.045 94.2275 839.045 91.8118C839.045 89.3961 838.633 87.1451 837.809 85.0588C836.986 82.9726 835.717 81.2863 834.003 80C832.288 78.7137 830.103 78.0706 827.448 78.0706C824.792 78.0706 822.608 78.7137 820.893 80C819.179 81.2863 817.91 82.9726 817.087 85.0588C816.263 87.1451 815.851 89.3961 815.851 91.8118C815.851 94.2275 816.263 96.4706 817.087 98.5412C817.91 100.612 819.179 102.282 820.893 103.553C822.608 104.824 824.792 105.459 827.448 105.459Z" fill="#101920"/>
<path d="M858.412 110.071C857.168 110.071 856.101 109.655 855.211 108.824C854.32 107.992 853.874 106.996 853.874 105.835C853.874 104.675 854.32 103.678 855.211 102.847C856.101 102.016 857.168 101.6 858.412 101.6C859.656 101.6 860.723 102.016 861.614 102.847C862.505 103.678 862.95 104.675 862.95 105.835C862.95 106.604 862.74 107.31 862.32 107.953C861.916 108.596 861.37 109.114 860.681 109.506C860.009 109.882 859.253 110.071 858.412 110.071Z" fill="#101920"/>
<path d="M888.248 110.447C885.021 110.447 882.173 109.686 879.702 108.165C877.232 106.627 875.299 104.463 873.904 101.671C872.509 98.8627 871.811 95.5451 871.811 91.7176C871.811 87.9216 872.509 84.6274 873.904 81.8353C875.299 79.0431 877.24 76.8863 879.727 75.3647C882.215 73.8431 885.089 73.0824 888.349 73.0824C890.87 73.0824 892.862 73.4745 894.324 74.2588C895.803 75.0274 896.929 75.9059 897.702 76.8941C898.492 77.8667 899.106 78.6667 899.543 79.2941H900.047V61.5059H905.996V109.694H900.248V104.141H899.543C899.106 104.8 898.484 105.631 897.677 106.635C896.87 107.624 895.719 108.51 894.223 109.294C892.727 110.063 890.736 110.447 888.248 110.447ZM889.055 105.459C891.442 105.459 893.458 104.878 895.106 103.718C896.753 102.541 898.005 100.918 898.862 98.8471C899.719 96.7608 900.148 94.3529 900.148 91.6235C900.148 88.9255 899.727 86.5647 898.887 84.5412C898.047 82.502 896.803 80.9176 895.156 79.7882C893.509 78.6431 891.475 78.0706 889.055 78.0706C886.534 78.0706 884.433 78.6745 882.753 79.8824C881.089 81.0745 879.837 82.698 878.996 84.7529C878.173 86.7922 877.761 89.0823 877.761 91.6235C877.761 94.1961 878.181 96.5333 879.021 98.6353C879.879 100.722 881.139 102.384 882.803 103.624C884.484 104.847 886.568 105.459 889.055 105.459Z" fill="#101920"/>
<path d="M933.954 110.447C930.223 110.447 927.005 109.678 924.299 108.141C921.61 106.588 919.534 104.424 918.072 101.647C916.627 98.8549 915.904 95.6078 915.904 91.9059C915.904 88.2039 916.627 84.9412 918.072 82.1176C919.534 79.2784 921.568 77.0667 924.173 75.4824C926.795 73.8824 929.853 73.0824 933.349 73.0824C935.366 73.0824 937.358 73.3961 939.324 74.0235C941.29 74.651 943.08 75.6706 944.694 77.0824C946.307 78.4784 947.593 80.3294 948.551 82.6353C949.509 84.9412 949.988 87.7804 949.988 91.1529V93.5059H920.139V88.7059H943.938C943.938 86.6667 943.501 84.8471 942.627 83.2471C941.769 81.6471 940.543 80.3843 938.946 79.4588C937.366 78.5333 935.501 78.0706 933.349 78.0706C930.98 78.0706 928.929 78.6196 927.198 79.7176C925.484 80.8 924.164 82.2118 923.24 83.9529C922.316 85.6941 921.853 87.5608 921.853 89.5529V92.7529C921.853 95.4824 922.358 97.7961 923.366 99.6941C924.391 101.576 925.811 103.012 927.627 104C929.442 104.973 931.551 105.459 933.954 105.459C935.517 105.459 936.929 105.255 938.19 104.847C939.467 104.424 940.568 103.796 941.492 102.965C942.417 102.118 943.131 101.067 943.635 99.8118L949.383 101.318C948.778 103.137 947.761 104.737 946.332 106.118C944.904 107.482 943.139 108.549 941.038 109.318C938.938 110.071 936.576 110.447 933.954 110.447Z" fill="#101920"/>
<path d="M989.524 73.5529L975.204 109.694H969.154L954.835 73.5529H961.288L971.977 102.353H972.381L983.07 73.5529H989.524Z" fill="#101920"/>
<rect width="1308" height="212" transform="translate(106 1267)" fill="white"/>
<path fill-rule="evenodd" clip-rule="evenodd" d="M575.472 1286.7C583.3 1281.47 592.502 1278.68 601.916 1278.68C614.537 1278.69 626.638 1283.7 635.562 1292.63C644.487 1301.55 649.505 1313.65 649.514 1326.27C649.514 1335.69 646.723 1344.89 641.493 1352.72C636.262 1360.54 628.829 1366.65 620.131 1370.25C611.434 1373.85 601.864 1374.79 592.63 1372.96C583.397 1371.12 574.916 1366.59 568.259 1359.93C561.603 1353.27 557.07 1344.79 555.233 1335.56C553.396 1326.33 554.339 1316.76 557.942 1308.06C561.544 1299.36 567.645 1291.93 575.472 1286.7ZM581.905 1356.2C587.828 1360.16 594.792 1362.27 601.916 1362.27C611.464 1362.27 620.619 1358.47 627.372 1351.72C634.124 1344.97 637.923 1335.82 637.932 1326.27C637.936 1319.15 635.827 1312.18 631.872 1306.26C627.916 1300.33 622.293 1295.71 615.712 1292.99C609.131 1290.26 601.889 1289.54 594.901 1290.93C587.914 1292.32 581.494 1295.75 576.456 1300.78C571.417 1305.82 567.985 1312.23 566.594 1319.22C565.202 1326.21 565.915 1333.45 568.64 1340.03C571.365 1346.62 575.982 1352.24 581.905 1356.2ZM494.172 1282.8H505.496V1371.37H494.172V1282.8ZM881.365 1282.8H870.041V1371.37H881.365V1282.8ZM951.787 1286.7C959.614 1281.47 968.817 1278.68 978.231 1278.68C990.85 1278.69 1002.95 1283.71 1011.87 1292.63C1020.79 1301.56 1025.81 1313.65 1025.83 1326.27C1025.83 1335.69 1023.04 1344.89 1017.81 1352.72C1012.58 1360.54 1005.14 1366.65 996.446 1370.25C987.748 1373.85 978.178 1374.79 968.945 1372.96C959.712 1371.12 951.231 1366.59 944.574 1359.93C937.917 1353.27 933.384 1344.79 931.547 1335.56C929.711 1326.33 930.653 1316.76 934.256 1308.06C937.859 1299.36 943.959 1291.93 951.787 1286.7ZM958.219 1356.2C964.143 1360.16 971.107 1362.27 978.231 1362.27C987.778 1362.27 996.933 1358.47 1003.69 1351.72C1010.44 1344.97 1014.24 1335.82 1014.25 1326.27C1014.25 1319.15 1012.14 1312.18 1008.19 1306.26C1004.23 1300.33 998.607 1295.71 992.026 1292.99C985.446 1290.26 978.203 1289.54 971.216 1290.93C964.228 1292.32 957.809 1295.75 952.77 1300.78C947.731 1305.82 944.299 1312.23 942.908 1319.22C941.517 1326.21 942.229 1333.45 944.954 1340.03C947.68 1346.62 952.296 1352.24 958.219 1356.2ZM695.123 1281.77H674.445L739.443 1326.05L672.953 1371.37H693.613L749.773 1333.11L760.102 1326.05L749.773 1319.02L695.123 1281.77ZM805.548 1371.37L762.756 1342.22L773.049 1335.2L826.115 1371.37H805.548ZM824.624 1281.77H804.038L762.756 1309.91L773.049 1316.92L824.624 1281.77ZM800.258 1439.69C800.258 1456.12 812.674 1467.32 827.513 1467.32C841.746 1467.32 853.632 1456.8 852.27 1439.24H830.693V1444.76H845.91C844.623 1456.2 836.674 1461.27 827.816 1461.27C816.308 1461.27 806.92 1452.64 806.92 1439.69C806.92 1426.74 816.232 1418.34 827.816 1418.34C833.115 1418.34 839.475 1420.08 843.942 1426.06L848.636 1422.58C842.806 1414.25 834.251 1412.06 827.664 1412.06C812.674 1412.06 800.258 1423.26 800.258 1439.69ZM683.225 1466.57V1418.87H668.992V1412.81H703.97V1418.87H689.736V1466.57H683.225ZM746.36 1412.81H752.871L774.221 1466.57H767.18L762.335 1454.15H736.897L732.051 1466.57H725.011L746.36 1412.81ZM759.988 1448.09L749.616 1421.22L739.244 1448.09H759.988Z" fill="#101920"/>
<rect x="102.5" y="44.5" width="1315" height="1438" stroke="white" stroke-width="7"/>
<rect width="1130" height="88.9999" transform="matrix(4.37114e-08 1 1 -4.37114e-08 106 137)" fill="white"/>
<path d="M134.864 887.742C131.793 888.122 129.409 889.664 127.712 892.366C126.015 895.069 125.167 898.384 125.167 902.311C125.167 905.182 125.611 907.695 126.5 909.848C127.389 911.981 128.611 913.649 130.167 914.852C131.722 916.034 133.49 916.626 135.47 916.626C137.126 916.626 138.551 916.214 139.742 915.39C140.914 914.546 141.894 913.469 142.682 912.16C143.449 910.851 144.086 909.479 144.591 908.043C145.076 906.607 145.47 905.288 145.773 904.084L147.47 897.497C147.894 895.808 148.48 893.929 149.227 891.859C149.975 889.769 150.995 887.774 152.288 885.874C153.561 883.953 155.197 882.369 157.197 881.123C159.197 879.878 161.652 879.255 164.561 879.255C167.914 879.255 170.944 880.173 173.652 882.01C176.359 883.826 178.51 886.486 180.106 889.991C181.702 893.475 182.5 897.708 182.5 902.691C182.5 907.336 181.783 911.358 180.348 914.757C178.914 918.135 176.914 920.795 174.348 922.738C171.783 924.659 168.803 925.747 165.409 926L165.409 917.892C167.753 917.681 169.692 916.858 171.227 915.422C172.742 913.965 173.874 912.128 174.621 909.911C175.348 907.673 175.712 905.267 175.712 902.691C175.712 899.693 175.247 897.001 174.318 894.615C173.369 892.229 172.056 890.339 170.379 888.946C168.682 887.552 166.702 886.856 164.439 886.856C162.379 886.856 160.702 887.457 159.409 888.661C158.116 889.864 157.066 891.448 156.258 893.411C155.449 895.375 154.742 897.497 154.136 899.777L151.955 907.758C150.561 912.825 148.571 916.837 145.985 919.793C143.399 922.748 140.015 924.226 135.833 924.226C132.359 924.226 129.328 923.245 126.742 921.281C124.136 919.296 122.116 916.636 120.682 913.3C119.227 909.943 118.5 906.196 118.5 902.057C118.5 897.877 119.217 894.161 120.652 890.909C122.066 887.658 124.005 885.082 126.47 883.182C128.934 881.261 131.732 880.247 134.864 880.142L134.864 887.742Z" fill="#101920"/>
<path d="M119.348 833.07L181.409 833.07L181.409 840.924L119.348 840.924L119.348 833.07Z" fill="#101920"/>
<path d="M138.742 747.566C136.702 748.263 134.874 749.182 133.258 750.322C131.621 751.441 130.227 752.781 129.076 754.344C127.924 755.885 127.045 757.638 126.439 759.601C125.833 761.565 125.53 763.718 125.53 766.062C125.53 769.904 126.48 773.399 128.379 776.545C130.278 779.691 133.076 782.192 136.773 784.05C140.47 785.908 145.005 786.837 150.379 786.837C155.753 786.837 160.288 785.898 163.985 784.019C167.682 782.14 170.48 779.596 172.379 776.386C174.278 773.177 175.227 769.567 175.227 765.555C175.227 761.839 174.47 758.567 172.955 755.737C171.419 752.887 169.258 750.67 166.47 749.087C163.662 747.482 160.359 746.68 156.561 746.68L157.045 744.273L157.045 763.782L150.379 763.782L150.379 739.079L157.045 739.079C162.157 739.079 166.601 740.219 170.379 742.499C174.157 744.758 177.086 747.883 179.167 751.874C181.227 755.843 182.258 760.403 182.258 765.555C182.258 771.298 180.965 776.344 178.379 780.693C175.793 785.022 172.116 788.4 167.348 790.828C162.581 793.235 156.924 794.438 150.379 794.438C145.47 794.438 141.056 793.752 137.136 792.38C133.197 790.986 129.843 789.023 127.076 786.489C124.308 783.955 122.187 780.957 120.712 777.495C119.237 774.032 118.5 770.221 118.5 766.062C118.5 762.641 118.995 759.453 119.985 756.497C120.955 753.52 122.338 750.871 124.136 748.548C125.914 746.205 128.045 744.252 130.53 742.689C132.995 741.127 135.732 740.05 138.742 739.459L138.742 747.566Z" fill="#101920"/>
<path d="M119.348 648.777L181.409 648.777L181.409 656.378L132.682 691.722L132.682 692.355L181.409 692.355L181.409 700.21L119.348 700.21L119.348 692.609L168.197 657.138L168.197 656.505L119.348 656.505L119.348 648.777Z" fill="#101920"/>
<path d="M181.409 607.644L119.348 607.644L119.348 568.499L126.015 568.499L126.015 599.79L146.985 599.79L146.985 570.526L153.652 570.526L153.652 599.79L174.742 599.79L174.742 567.993L181.409 567.993L181.409 607.644Z" fill="#101920"/>
<path d="M181.409 508.91L181.409 528.926L119.348 528.926L119.348 508.023C119.348 501.732 120.591 496.348 123.076 491.872C125.54 487.396 129.086 483.965 133.712 481.579C138.318 479.193 143.833 478 150.258 478C156.722 478 162.288 479.204 166.955 481.61C171.601 484.017 175.177 487.522 177.682 492.125C180.167 496.728 181.409 502.323 181.409 508.91ZM174.742 521.072L174.742 509.417C174.742 504.054 173.753 499.61 171.773 496.084C169.793 492.558 166.975 489.929 163.318 488.198C159.662 486.467 155.308 485.601 150.258 485.601C145.247 485.601 140.934 486.456 137.318 488.166C133.682 489.876 130.894 492.431 128.955 495.83C126.995 499.23 126.015 503.463 126.015 508.53L126.015 521.072L174.742 521.072Z" fill="#101920"/>
<rect width="1130" height="88.9999" transform="translate(1414 137) rotate(90)" fill="white"/>
<path d="M1385.14 516.258C1388.21 515.878 1390.59 514.336 1392.29 511.634C1393.98 508.931 1394.83 505.616 1394.83 501.689C1394.83 498.818 1394.39 496.305 1393.5 494.152C1392.61 492.019 1391.39 490.351 1389.83 489.148C1388.28 487.966 1386.51 487.374 1384.53 487.374C1382.87 487.374 1381.45 487.786 1380.26 488.61C1379.09 489.454 1378.11 490.531 1377.32 491.84C1376.55 493.149 1375.91 494.521 1375.41 495.957C1374.92 497.393 1374.53 498.712 1374.23 499.916L1372.53 506.503C1372.11 508.192 1371.52 510.071 1370.77 512.141C1370.03 514.231 1369.01 516.226 1367.71 518.126C1366.44 520.047 1364.8 521.631 1362.8 522.877C1360.8 524.122 1358.35 524.745 1355.44 524.745C1352.09 524.745 1349.06 523.827 1346.35 521.99C1343.64 520.174 1341.49 517.514 1339.89 514.009C1338.3 510.525 1337.5 506.292 1337.5 501.309C1337.5 496.664 1338.22 492.642 1339.65 489.243C1341.09 485.865 1343.09 483.205 1345.65 481.262C1348.22 479.341 1351.2 478.253 1354.59 478L1354.59 486.108C1352.25 486.319 1350.31 487.142 1348.77 488.578C1347.26 490.035 1346.13 491.872 1345.38 494.089C1344.65 496.327 1344.29 498.733 1344.29 501.309C1344.29 504.307 1344.75 506.999 1345.68 509.385C1346.63 511.771 1347.94 513.661 1349.62 515.054C1351.32 516.448 1353.3 517.144 1355.56 517.144C1357.62 517.144 1359.3 516.543 1360.59 515.339C1361.88 514.136 1362.93 512.552 1363.74 510.589C1364.55 508.625 1365.26 506.503 1365.86 504.223L1368.05 496.242C1369.44 491.175 1371.43 487.163 1374.02 484.207C1376.6 481.252 1379.98 479.774 1384.17 479.774C1387.64 479.774 1390.67 480.755 1393.26 482.719C1395.86 484.704 1397.88 487.364 1399.32 490.7C1400.77 494.057 1401.5 497.804 1401.5 501.943C1401.5 506.123 1400.78 509.839 1399.35 513.091C1397.93 516.342 1395.99 518.918 1393.53 520.818C1391.07 522.739 1388.27 523.753 1385.14 523.858L1385.14 516.258Z" fill="#101920"/>
<path d="M1400.65 570.93L1338.59 570.93L1338.59 563.076L1400.65 563.076L1400.65 570.93Z" fill="#101920"/>
<path d="M1381.26 656.434C1383.3 655.737 1385.13 654.818 1386.74 653.678C1388.38 652.559 1389.77 651.219 1390.92 649.656C1392.08 648.115 1392.95 646.362 1393.56 644.399C1394.17 642.435 1394.47 640.282 1394.47 637.938C1394.47 634.096 1393.52 630.601 1391.62 627.455C1389.72 624.309 1386.92 621.808 1383.23 619.95C1379.53 618.092 1374.99 617.163 1369.62 617.163C1364.25 617.163 1359.71 618.102 1356.02 619.981C1352.32 621.86 1349.52 624.404 1347.62 627.614C1345.72 630.823 1344.77 634.433 1344.77 638.445C1344.77 642.161 1345.53 645.433 1347.05 648.263C1348.58 651.113 1350.74 653.33 1353.53 654.913C1356.34 656.518 1359.64 657.32 1363.44 657.32L1362.95 659.727L1362.95 640.218L1369.62 640.218L1369.62 664.921L1362.95 664.921C1357.84 664.921 1353.4 663.781 1349.62 661.501C1345.84 659.242 1342.91 656.117 1340.83 652.126C1338.77 648.157 1337.74 643.597 1337.74 638.445C1337.74 632.702 1339.04 627.656 1341.62 623.307C1344.21 618.978 1347.88 615.6 1352.65 613.172C1357.42 610.765 1363.08 609.562 1369.62 609.562C1374.53 609.562 1378.94 610.248 1382.86 611.62C1386.8 613.014 1390.16 614.977 1392.92 617.511C1395.69 620.045 1397.81 623.043 1399.29 626.505C1400.76 629.968 1401.5 633.779 1401.5 637.938C1401.5 641.359 1401.01 644.547 1400.02 647.503C1399.05 650.48 1397.66 653.129 1395.86 655.452C1394.09 657.795 1391.95 659.748 1389.47 661.311C1387.01 662.873 1384.27 663.95 1381.26 664.541L1381.26 656.434Z" fill="#101920"/>
<path d="M1400.65 755.223L1338.59 755.223L1338.59 747.622L1387.32 712.278L1387.32 711.645L1338.59 711.645L1338.59 703.79L1400.65 703.79L1400.65 711.391L1351.8 746.862L1351.8 747.495L1400.65 747.495L1400.65 755.223Z" fill="#101920"/>
<path d="M1338.59 796.356L1400.65 796.356L1400.65 835.501L1393.98 835.501L1393.98 804.21L1373.02 804.21L1373.02 833.474L1366.35 833.474L1366.35 804.21L1345.26 804.21L1345.26 836.007L1338.59 836.007L1338.59 796.356Z" fill="#101920"/>
<path d="M1338.59 895.09L1338.59 875.074L1400.65 875.074L1400.65 895.977C1400.65 902.268 1399.41 907.652 1396.92 912.128C1394.46 916.604 1390.91 920.035 1386.29 922.421C1381.68 924.807 1376.17 926 1369.74 926C1363.28 926 1357.71 924.796 1353.05 922.39C1348.4 919.983 1344.82 916.478 1342.32 911.875C1339.83 907.272 1338.59 901.677 1338.59 895.09ZM1345.26 882.928L1345.26 894.583C1345.26 899.946 1346.25 904.39 1348.23 907.916C1350.21 911.442 1353.03 914.071 1356.68 915.802C1360.34 917.533 1364.69 918.399 1369.74 918.399C1374.75 918.399 1379.07 917.544 1382.68 915.834C1386.32 914.124 1389.11 911.569 1391.05 908.17C1393.01 904.77 1393.98 900.537 1393.98 895.47L1393.98 882.928L1345.26 882.928Z" fill="#101920"/>
<path fill-rule="evenodd" clip-rule="evenodd" d="M107.005 47.7867H1412.99C1413.63 47.7867 1414.14 48.2931 1414.14 48.9178V1369.08C1414.14 1369.71 1413.63 1370.21 1412.99 1370.21H1061.76V1377H1412.99C1417.42 1377 1421 1373.46 1421 1369.08V48.9178C1421 44.5449 1417.42 41 1412.99 41H107.005C102.584 41 99 44.5449 99 48.9178V1369.08C99 1373.46 102.584 1377 107.005 1377H443.87V1370.21H107.005C106.374 1370.21 105.862 1369.71 105.862 1369.08V48.9178C105.862 48.2931 106.374 47.7867 107.005 47.7867Z" fill="#101920"/>
<rect y="40" width="99" height="1439" fill="white"/>
<rect x="1421" y="40" width="99" height="1453.68" fill="white"/>
<rect y="40" width="39.9999" height="1520" transform="rotate(-90 0 40)" fill="white"/>
<rect y="1519" width="39.9999" height="1520" transform="rotate(-90 0 1519)" fill="white"/>
</svg>
