<svg width="1016" height="1016" viewBox="0 0 1016 1016" fill="none" xmlns="http://www.w3.org/2000/svg">
<rect width="874.295" height="956.511" transform="translate(70.8525 32.0844)" fill="white"/>
<rect width="874.295" height="59.4895" transform="translate(70.8525 32.0844)" fill="white"/>
<path d="M351.022 46.5882V50.2647H336V46.5882H351.022ZM340.378 39.8235H344.832V66.7353C344.832 67.9608 345.015 68.8799 345.38 69.4926C345.757 70.0931 346.235 70.4976 346.814 70.7059C347.405 70.902 348.028 71 348.682 71C349.173 71 349.575 70.9755 349.89 70.9265C350.205 70.8652 350.456 70.8162 350.645 70.7794L351.551 74.6765C351.249 74.7868 350.827 74.8971 350.286 75.0074C349.745 75.1299 349.06 75.1912 348.229 75.1912C346.971 75.1912 345.738 74.9277 344.53 74.4007C343.335 73.8738 342.341 73.0711 341.548 71.9926C340.768 70.9142 340.378 69.5539 340.378 67.9118V39.8235Z" fill="#101920"/>
<path d="M366.252 75.4853C364.415 75.4853 362.748 75.1483 361.251 74.4743C359.754 73.788 358.565 72.8015 357.684 71.5147C356.804 70.2157 356.363 68.6471 356.363 66.8088C356.363 65.1912 356.69 63.8799 357.345 62.875C357.999 61.8578 358.873 61.0613 359.968 60.4853C361.062 59.9093 362.27 59.4804 363.591 59.1985C364.925 58.9044 366.265 58.6716 367.611 58.5C369.373 58.2794 370.801 58.114 371.895 58.0037C373.002 57.8811 373.808 57.6789 374.311 57.3971C374.827 57.1152 375.085 56.625 375.085 55.9265V55.7794C375.085 53.9657 374.575 52.5564 373.556 51.5515C372.549 50.5466 371.021 50.0441 368.97 50.0441C366.844 50.0441 365.177 50.4975 363.969 51.4044C362.761 52.3113 361.912 53.2794 361.421 54.3088L357.194 52.8382C357.949 51.1225 358.955 49.7868 360.213 48.8309C361.484 47.8627 362.868 47.1887 364.365 46.8088C365.875 46.4167 367.36 46.2206 368.819 46.2206C369.75 46.2206 370.819 46.3309 372.027 46.5515C373.248 46.7598 374.424 47.1949 375.556 47.8566C376.701 48.5184 377.651 49.5172 378.406 50.8529C379.161 52.1887 379.538 53.9779 379.538 56.2206V74.8235H375.085V71H374.858C374.556 71.6127 374.053 72.2684 373.348 72.9669C372.644 73.6654 371.706 74.2598 370.536 74.75C369.366 75.2402 367.938 75.4853 366.252 75.4853ZM366.932 71.5882C368.693 71.5882 370.178 71.2512 371.386 70.5772C372.606 69.9032 373.524 69.0331 374.141 67.9669C374.77 66.9007 375.085 65.7794 375.085 64.6029V60.6324C374.896 60.8529 374.481 61.0551 373.839 61.239C373.21 61.4105 372.48 61.5637 371.65 61.6985C370.832 61.8211 370.033 61.9314 369.253 62.0294C368.486 62.1152 367.863 62.1887 367.385 62.25C366.227 62.3971 365.145 62.636 364.139 62.9669C363.145 63.2855 362.339 63.7696 361.723 64.4191C361.119 65.0564 360.817 65.9265 360.817 67.0294C360.817 68.5368 361.39 69.6765 362.534 70.4485C363.692 71.2083 365.158 71.5882 366.932 71.5882Z" fill="#101920"/>
<path d="M399.369 86C397.217 86 395.368 85.7304 393.82 85.1912C392.273 84.6642 390.983 83.9657 389.951 83.0956C388.932 82.2377 388.121 81.3186 387.517 80.3382L391.065 77.9118C391.467 78.4265 391.977 79.0147 392.593 79.6765C393.21 80.3505 394.053 80.9326 395.122 81.4228C396.204 81.9252 397.62 82.1765 399.369 82.1765C401.709 82.1765 403.64 81.625 405.162 80.5221C406.685 79.4191 407.446 77.6912 407.446 75.3382V69.6029H407.068C406.741 70.1176 406.276 70.7549 405.672 71.5147C405.081 72.2623 404.225 72.9301 403.105 73.5184C401.998 74.0944 400.501 74.3824 398.614 74.3824C396.273 74.3824 394.172 73.8431 392.31 72.7647C390.461 71.6863 388.995 70.1176 387.913 68.0588C386.844 66 386.309 63.5 386.309 60.5588C386.309 57.6667 386.831 55.1483 387.875 53.0037C388.92 50.8468 390.373 49.1801 392.235 48.0037C394.097 46.8149 396.248 46.2206 398.689 46.2206C400.576 46.2206 402.074 46.527 403.181 47.1397C404.301 47.7402 405.156 48.4265 405.747 49.1985C406.351 49.9583 406.817 50.5833 407.144 51.0735H407.597V46.5882H411.9V75.6324C411.9 78.0588 411.334 80.0319 410.201 81.5515C409.081 83.0833 407.572 84.2047 405.672 84.9154C403.785 85.6385 401.684 86 399.369 86ZM399.218 70.4853C401.004 70.4853 402.514 70.087 403.747 69.2904C404.98 68.4939 405.917 67.348 406.559 65.8529C407.201 64.3578 407.521 62.5686 407.521 60.4853C407.521 58.451 407.207 56.6556 406.578 55.0993C405.949 53.5429 405.018 52.3235 403.785 51.4412C402.552 50.5588 401.029 50.1176 399.218 50.1176C397.33 50.1176 395.758 50.5833 394.499 51.5147C393.254 52.4461 392.317 53.6961 391.688 55.2647C391.071 56.8333 390.763 58.5735 390.763 60.4853C390.763 62.4461 391.077 64.1801 391.706 65.6875C392.348 67.1826 393.292 68.3591 394.537 69.2169C395.795 70.0625 397.355 70.4853 399.218 70.4853Z" fill="#101920"/>
<path d="M440.586 52.9118L436.585 54.0147C436.333 53.3652 435.962 52.7341 435.471 52.1213C434.993 51.4963 434.339 50.9816 433.509 50.5772C432.678 50.1728 431.615 49.9706 430.319 49.9706C428.545 49.9706 427.067 50.3689 425.884 51.1654C424.714 51.9498 424.129 52.9485 424.129 54.1618C424.129 55.2402 424.532 56.0919 425.337 56.7169C426.142 57.3419 427.4 57.8627 429.111 58.2794L433.414 59.3088C436.006 59.9216 437.937 60.8591 439.208 62.1213C440.479 63.3713 441.114 64.9828 441.114 66.9559C441.114 68.5735 440.636 70.0196 439.68 71.2941C438.736 72.5686 437.415 73.5735 435.717 74.3088C434.018 75.0441 432.043 75.4118 429.791 75.4118C426.834 75.4118 424.387 74.7868 422.449 73.5368C420.512 72.2868 419.285 70.4608 418.769 68.0588L422.997 67.0294C423.399 68.549 424.16 69.6887 425.28 70.4485C426.413 71.2083 427.891 71.5882 429.715 71.5882C431.791 71.5882 433.439 71.1593 434.66 70.3015C435.893 69.4314 436.509 68.3897 436.509 67.1765C436.509 66.1961 436.157 65.375 435.452 64.7132C434.748 64.0392 433.666 63.5368 432.206 63.2059L427.375 62.1029C424.72 61.4902 422.77 60.5404 421.525 59.2537C420.292 57.9547 419.675 56.3309 419.675 54.3824C419.675 52.7892 420.134 51.3799 421.053 50.1544C421.984 48.9289 423.248 47.9669 424.846 47.2684C426.457 46.5699 428.281 46.2206 430.319 46.2206C433.188 46.2206 435.44 46.8333 437.075 48.0588C438.724 49.2843 439.894 50.902 440.586 52.9118Z" fill="#101920"/>
<path d="M451.065 75.1176C450.134 75.1176 449.335 74.7929 448.668 74.1434C448.001 73.4939 447.668 72.7157 447.668 71.8088C447.668 70.902 448.001 70.1238 448.668 69.4743C449.335 68.8248 450.134 68.5 451.065 68.5C451.996 68.5 452.795 68.8248 453.461 69.4743C454.128 70.1238 454.462 70.902 454.462 71.8088C454.462 72.4093 454.304 72.9608 453.99 73.4632C453.688 73.9657 453.279 74.3701 452.763 74.6765C452.26 74.9706 451.694 75.1176 451.065 75.1176Z" fill="#101920"/>
<path d="M462.454 74.8235V46.5882H466.908V74.8235H462.454ZM464.719 41.8824C463.851 41.8824 463.102 41.5944 462.473 41.0184C461.856 40.4424 461.548 39.75 461.548 38.9412C461.548 38.1324 461.856 37.44 462.473 36.864C463.102 36.288 463.851 36 464.719 36C465.587 36 466.329 36.288 466.946 36.864C467.575 37.44 467.889 38.1324 467.889 38.9412C467.889 39.75 467.575 40.4424 466.946 41.0184C466.329 41.5944 465.587 41.8824 464.719 41.8824Z" fill="#101920"/>
<path d="M486.842 75.4118C484.225 75.4118 481.929 74.8051 479.953 73.5919C477.991 72.3787 476.456 70.6814 475.349 68.5C474.254 66.3186 473.707 63.7696 473.707 60.8529C473.707 57.9118 474.254 55.3444 475.349 53.1507C476.456 50.9571 477.991 49.2537 479.953 48.0404C481.929 46.8272 484.225 46.2206 486.842 46.2206C489.459 46.2206 491.749 46.8272 493.711 48.0404C495.687 49.2537 497.222 50.9571 498.316 53.1507C499.423 55.3444 499.977 57.9118 499.977 60.8529C499.977 63.7696 499.423 66.3186 498.316 68.5C497.222 70.6814 495.687 72.3787 493.711 73.5919C491.749 74.8051 489.459 75.4118 486.842 75.4118ZM486.842 71.5147C488.83 71.5147 490.465 71.0184 491.749 70.0257C493.032 69.0331 493.982 67.7279 494.598 66.1103C495.215 64.4926 495.523 62.7402 495.523 60.8529C495.523 58.9657 495.215 57.2071 494.598 55.5772C493.982 53.9473 493.032 52.6299 491.749 51.625C490.465 50.6201 488.83 50.1176 486.842 50.1176C484.854 50.1176 483.218 50.6201 481.935 51.625C480.652 52.6299 479.702 53.9473 479.085 55.5772C478.469 57.2071 478.16 58.9657 478.16 60.8529C478.16 62.7402 478.469 64.4926 479.085 66.1103C479.702 67.7279 480.652 69.0331 481.935 70.0257C483.218 71.0184 484.854 71.5147 486.842 71.5147Z" fill="#101920"/>
<path d="M508.904 46.5882L515.849 58.1323L522.794 46.5882H527.927L518.566 60.7059L527.927 74.8235H522.794L515.849 63.8676L508.904 74.8235H503.77L512.98 60.7059L503.77 46.5882H508.904Z" fill="#101920"/>
<path d="M534.282 74.8235V46.5882H538.736V74.8235H534.282ZM536.547 41.8824C535.679 41.8824 534.93 41.5944 534.301 41.0184C533.684 40.4424 533.376 39.75 533.376 38.9412C533.376 38.1324 533.684 37.44 534.301 36.864C534.93 36.288 535.679 36 536.547 36C537.415 36 538.157 36.288 538.774 36.864C539.403 37.44 539.717 38.1324 539.717 38.9412C539.717 39.75 539.403 40.4424 538.774 41.0184C538.157 41.5944 537.415 41.8824 536.547 41.8824Z" fill="#101920"/>
<path d="M558.67 75.4118C556.053 75.4118 553.757 74.8051 551.781 73.5919C549.819 72.3787 548.284 70.6814 547.177 68.5C546.082 66.3186 545.535 63.7696 545.535 60.8529C545.535 57.9118 546.082 55.3444 547.177 53.1507C548.284 50.9571 549.819 49.2537 551.781 48.0404C553.757 46.8272 556.053 46.2206 558.67 46.2206C561.287 46.2206 563.577 46.8272 565.539 48.0404C567.515 49.2537 569.05 50.9571 570.144 53.1507C571.251 55.3444 571.805 57.9118 571.805 60.8529C571.805 63.7696 571.251 66.3186 570.144 68.5C569.05 70.6814 567.515 72.3787 565.539 73.5919C563.577 74.8051 561.287 75.4118 558.67 75.4118ZM558.67 71.5147C560.658 71.5147 562.293 71.0184 563.577 70.0257C564.86 69.0331 565.81 67.7279 566.426 66.1103C567.043 64.4926 567.351 62.7402 567.351 60.8529C567.351 58.9657 567.043 57.2071 566.426 55.5772C565.81 53.9473 564.86 52.6299 563.577 51.625C562.293 50.6201 560.658 50.1176 558.67 50.1176C556.682 50.1176 555.046 50.6201 553.763 51.625C552.48 52.6299 551.53 53.9473 550.913 55.5772C550.297 57.2071 549.989 58.9657 549.989 60.8529C549.989 62.7402 550.297 64.4926 550.913 66.1103C551.53 67.7279 552.48 69.0331 553.763 70.0257C555.046 71.0184 556.682 71.5147 558.67 71.5147Z" fill="#101920"/>
<path d="M581.85 75.1176C580.919 75.1176 580.12 74.7929 579.453 74.1434C578.786 73.4939 578.453 72.7157 578.453 71.8088C578.453 70.902 578.786 70.1238 579.453 69.4743C580.12 68.8248 580.919 68.5 581.85 68.5C582.781 68.5 583.58 68.8248 584.247 69.4743C584.913 70.1238 585.247 70.902 585.247 71.8088C585.247 72.4093 585.09 72.9608 584.775 73.4632C584.473 73.9657 584.064 74.3701 583.548 74.6765C583.045 74.9706 582.479 75.1176 581.85 75.1176Z" fill="#101920"/>
<path d="M604.185 75.4118C601.77 75.4118 599.637 74.8174 597.787 73.6287C595.938 72.4277 594.491 70.7365 593.447 68.5551C592.403 66.3615 591.88 63.7696 591.88 60.7794C591.88 57.8137 592.403 55.2402 593.447 53.0588C594.491 50.8774 595.944 49.1924 597.806 48.0037C599.668 46.8149 601.82 46.2206 604.261 46.2206C606.148 46.2206 607.639 46.527 608.733 47.1397C609.841 47.7402 610.684 48.4265 611.262 49.1985C611.854 49.9583 612.313 50.5833 612.64 51.0735H613.017V37.1765H617.471V74.8235H613.168V70.4853H612.64C612.313 71 611.847 71.6495 611.243 72.4338C610.639 73.2059 609.778 73.8983 608.658 74.511C607.538 75.1115 606.047 75.4118 604.185 75.4118ZM604.789 71.5147C606.576 71.5147 608.085 71.0613 609.318 70.1544C610.551 69.2353 611.489 67.9669 612.13 66.3493C612.772 64.7194 613.093 62.8382 613.093 60.7059C613.093 58.598 612.778 56.7537 612.149 55.1728C611.52 53.5797 610.589 52.3419 609.356 51.4596C608.123 50.565 606.601 50.1176 604.789 50.1176C602.902 50.1176 601.329 50.5895 600.071 51.5331C598.825 52.4645 597.888 53.7328 597.259 55.3382C596.643 56.9314 596.334 58.7206 596.334 60.7059C596.334 62.7157 596.649 64.5417 597.278 66.1838C597.92 67.8137 598.863 69.1127 600.109 70.0809C601.367 71.0368 602.927 71.5147 604.789 71.5147Z" fill="#101920"/>
<path d="M638.401 75.4118C635.608 75.4118 633.198 74.8113 631.173 73.6103C629.16 72.3971 627.606 70.7059 626.511 68.5368C625.429 66.3554 624.888 63.8186 624.888 60.9265C624.888 58.0343 625.429 55.4853 626.511 53.2794C627.606 51.0613 629.128 49.3333 631.078 48.0956C633.041 46.8456 635.331 46.2206 637.948 46.2206C639.458 46.2206 640.948 46.4657 642.42 46.9559C643.893 47.4461 645.232 48.2426 646.44 49.3456C647.648 50.4363 648.611 51.8823 649.328 53.6838C650.045 55.4853 650.403 57.7034 650.403 60.3382V62.1765H628.059V58.4265H645.874C645.874 56.8333 645.547 55.4118 644.893 54.1618C644.251 52.9118 643.333 51.9252 642.137 51.2022C640.955 50.4792 639.558 50.1176 637.948 50.1176C636.174 50.1176 634.639 50.5466 633.343 51.4044C632.06 52.25 631.072 53.3529 630.38 54.7132C629.688 56.0735 629.342 57.5319 629.342 59.0882V61.5882C629.342 63.7206 629.719 65.5282 630.474 67.011C631.242 68.4816 632.305 69.6029 633.664 70.375C635.023 71.1348 636.602 71.5147 638.401 71.5147C639.571 71.5147 640.628 71.3554 641.571 71.0368C642.527 70.7059 643.352 70.2157 644.043 69.5662C644.735 68.9044 645.27 68.0833 645.648 67.1029L649.951 68.2794C649.498 69.701 648.736 70.951 647.667 72.0294C646.598 73.0956 645.276 73.9289 643.704 74.5294C642.131 75.1176 640.363 75.4118 638.401 75.4118Z" fill="#101920"/>
<path d="M680 46.5882L669.281 74.8235H664.751L654.032 46.5882H658.863L666.865 69.0882H667.167L675.169 46.5882H680Z" fill="#101920"/>
<rect width="874.295" height="141.705" transform="translate(70.8525 846.89)" fill="white"/>
<path fill-rule="evenodd" clip-rule="evenodd" d="M384.657 860.056C389.889 856.56 396.041 854.694 402.333 854.694C410.769 854.7 418.858 858.054 424.823 864.02C430.788 869.985 434.142 878.073 434.149 886.509C434.149 892.802 432.283 898.953 428.787 904.185C425.291 909.417 420.322 913.495 414.508 915.903C408.695 918.311 402.298 918.941 396.126 917.713C389.955 916.486 384.286 913.456 379.836 909.006C375.387 904.557 372.357 898.888 371.129 892.716C369.901 886.545 370.531 880.148 372.939 874.334C375.347 868.521 379.425 863.552 384.657 860.056ZM388.957 906.513C392.916 909.159 397.571 910.571 402.333 910.571C408.715 910.568 414.834 908.032 419.348 903.521C423.862 899.009 426.4 892.891 426.407 886.509C426.409 881.747 425 877.092 422.356 873.131C419.712 869.171 415.953 866.083 411.554 864.259C407.156 862.435 402.315 861.957 397.644 862.884C392.973 863.812 388.683 866.104 385.315 869.47C381.947 872.836 379.653 877.126 378.723 881.796C377.793 886.466 378.269 891.307 380.091 895.707C381.912 900.106 384.998 903.867 388.957 906.513ZM330.314 857.452H337.884V916.652H330.314V857.452ZM589.122 857.452H581.553V916.652H589.122V857.452ZM636.194 860.056C641.426 856.56 647.577 854.694 653.87 854.694C662.305 854.704 670.391 858.059 676.356 864.023C682.32 869.988 685.675 878.074 685.685 886.509C685.685 892.802 683.819 898.953 680.323 904.185C676.827 909.417 671.858 913.495 666.045 915.903C660.231 918.311 653.834 918.941 647.663 917.713C641.491 916.486 635.822 913.456 631.373 909.006C626.923 904.557 623.893 898.888 622.665 892.716C621.438 886.545 622.068 880.148 624.476 874.334C626.884 868.521 630.962 863.552 636.194 860.056ZM640.494 906.513C644.453 909.159 649.108 910.571 653.87 910.571C660.251 910.568 666.371 908.032 670.884 903.521C675.398 899.009 677.937 892.891 677.943 886.509C677.946 881.747 676.536 877.092 673.892 873.131C671.248 869.171 667.489 866.083 663.091 864.259C658.692 862.435 653.851 861.957 649.181 862.884C644.51 863.812 640.219 866.104 636.851 869.47C633.483 872.836 631.189 877.126 630.259 881.796C629.329 886.466 629.805 891.307 631.627 895.707C633.449 900.106 636.534 903.867 640.494 906.513ZM464.634 856.762H450.813L494.259 886.362L449.816 916.652H463.625L501.163 891.076L508.068 886.362L501.163 881.661L464.634 856.762ZM538.445 916.65L509.842 897.167L516.722 892.478L552.193 916.65H538.445ZM551.196 856.762H537.436L509.842 875.569L516.722 880.258L551.196 856.762ZM534.909 962.32C534.909 973.301 543.208 980.791 553.127 980.791C562.64 980.791 570.585 973.757 569.674 962.016H555.252V965.711H565.424C564.563 973.352 559.25 976.742 553.329 976.742C545.637 976.742 539.362 970.973 539.362 962.32C539.362 953.666 545.586 948.049 553.329 948.049C556.871 948.049 561.122 949.213 564.108 953.211L567.245 950.883C563.349 945.317 557.63 943.849 553.228 943.849C543.208 943.849 534.909 951.339 534.909 962.32ZM456.682 980.285V948.404H447.168V944.355H470.548V948.404H461.034V980.285H456.682ZM498.883 944.355H503.235L517.505 980.285H512.799L509.56 971.986H492.557L489.318 980.285H484.612L498.883 944.355ZM507.991 967.937L501.059 949.972L494.126 967.937H507.991Z" fill="#101920"/>
<rect x="68.5131" y="29.7449" width="878.974" height="961.19" stroke="white" stroke-width="4.67895"/>
<rect width="755.316" height="59.4894" transform="matrix(4.37114e-08 1 1 -4.37114e-08 70.8525 91.574)" fill="white"/>
<rect width="755.316" height="59.4894" transform="translate(945.146 91.574) rotate(90)" fill="white"/>
<path fill-rule="evenodd" clip-rule="evenodd" d="M71.5247 31.9417H944.476C944.898 31.9417 945.24 32.2802 945.24 32.6977V915.123C945.24 915.541 944.898 915.879 944.476 915.879H709.703V920.416H944.476C947.431 920.416 949.826 918.046 949.826 915.123V32.6977C949.826 29.7748 947.431 27.4053 944.476 27.4053H71.5247C68.5695 27.4053 66.1738 29.7748 66.1738 32.6977V915.123C66.1738 918.046 68.5695 920.416 71.5247 920.416H296.692V915.879H71.5247C71.1025 915.879 70.7603 915.541 70.7603 915.123V32.6977C70.7603 32.2802 71.1025 31.9417 71.5247 31.9417Z" fill="#101920"/>
<rect y="26.7367" width="66.1737" height="961.858" fill="white"/>
<rect x="949.826" y="26.7367" width="66.1737" height="971.673" fill="white"/>
<rect y="26.7367" width="26.7368" height="1016" transform="rotate(-90 0 26.7367)" fill="white"/>
<rect y="1015.33" width="26.7368" height="1016" transform="rotate(-90 0 1015.33)" fill="white"/>
</svg>
