<svg width="132" height="146" viewBox="0 0 132 146" fill="none" xmlns="http://www.w3.org/2000/svg">
<path fill-rule="evenodd" clip-rule="evenodd" d="M0.799307 0.68512H131.201C131.264 0.68512 131.315 0.736243 131.315 0.799307V134.07C131.315 134.133 131.264 134.184 131.201 134.184H96.1304V134.87H131.201C131.642 134.87 132 134.512 132 134.07V0.799307C132 0.357862 131.642 0 131.201 0H0.799307C0.357862 0 0 0.357858 0 0.799303V134.07C0 134.512 0.357862 134.87 0.799307 134.87H34.4348V134.184H0.799307C0.736243 134.184 0.68512 134.133 0.68512 134.07V0.799303C0.68512 0.736244 0.736239 0.68512 0.799307 0.68512Z" fill="#0F2543"/>
<g clip-path="url(#clip0_396_40)">
<path d="M39.6886 126.686H38.5215V135.815H39.6886V126.686Z" fill="#0F2543"/>
<path d="M49.6265 126.261C48.6563 126.261 47.7078 126.549 46.901 127.088C46.0942 127.627 45.4655 128.393 45.0941 129.289C44.7228 130.186 44.6257 131.172 44.815 132.124C45.0043 133.075 45.4715 133.95 46.1576 134.636C46.8437 135.322 47.7178 135.789 48.6695 135.978C49.6211 136.168 50.6075 136.07 51.5039 135.699C52.4004 135.328 53.1665 134.699 53.7056 133.892C54.2447 133.085 54.5324 132.137 54.5324 131.167C54.5314 129.866 54.0142 128.619 53.0944 127.699C52.1746 126.779 50.9273 126.262 49.6265 126.261ZM49.6265 134.877C48.8923 134.877 48.1745 134.659 47.564 134.251C46.9535 133.843 46.4777 133.263 46.1968 132.585C45.9159 131.907 45.8425 131.16 45.9859 130.44C46.1293 129.72 46.483 129.058 47.0024 128.539C47.5217 128.02 48.1833 127.667 48.9035 127.524C49.6237 127.381 50.3702 127.455 51.0484 127.736C51.7267 128.017 52.3063 128.493 52.714 129.104C53.1216 129.715 53.339 130.432 53.3387 131.167C53.3377 132.151 52.9462 133.094 52.2502 133.79C51.5542 134.485 50.6106 134.876 49.6265 134.877Z" fill="#0F2543"/>
<path d="M78.4289 126.686H77.2617V135.815H78.4289V126.686Z" fill="#0F2543"/>
<path d="M88.4127 126.261C87.4424 126.261 86.4939 126.549 85.6871 127.088C84.8804 127.627 84.2516 128.393 83.8803 129.289C83.509 130.186 83.4118 131.172 83.6011 132.124C83.7904 133.075 84.2576 133.95 84.9437 134.636C85.6298 135.322 86.504 135.789 87.4556 135.978C88.4072 136.168 89.3936 136.07 90.2901 135.699C91.1865 135.328 91.9527 134.699 92.4917 133.892C93.0308 133.085 93.3185 132.137 93.3185 131.167C93.317 129.866 92.7997 128.619 91.88 127.699C90.9603 126.78 89.7133 126.262 88.4127 126.261ZM88.4127 134.877C87.6784 134.877 86.9606 134.659 86.3501 134.251C85.7396 133.843 85.2639 133.263 84.9829 132.585C84.702 131.907 84.6286 131.16 84.772 130.44C84.9154 129.72 85.2691 129.058 85.7885 128.539C86.3078 128.02 86.9694 127.667 87.6896 127.524C88.4098 127.381 89.1563 127.455 89.8346 127.736C90.5128 128.017 91.0924 128.493 91.5001 129.104C91.9078 129.715 92.1252 130.432 92.1248 131.167C92.1238 132.151 91.7323 133.094 91.0363 133.79C90.3403 134.485 89.3967 134.876 88.4127 134.877Z" fill="#0F2543"/>
<path d="M59.2332 126.58H57.102L63.8012 131.144L56.9482 135.815H59.0776L64.8659 131.871L65.9306 131.144L64.8659 130.419L59.2332 126.58Z" fill="#0F2543"/>
<path d="M66.2041 132.81L70.6146 135.814H72.7345L67.265 132.087L66.2041 132.81Z" fill="#0F2543"/>
<path d="M72.5807 126.58H70.459L66.2041 129.48L67.265 130.203L72.5807 126.58Z" fill="#0F2543"/>
</g>
<path d="M58.007 145.627V140.711H56.54V140.086H60.1451V140.711H58.6781V145.627H58.007Z" fill="#0F2543"/>
<path d="M64.5142 140.086H65.1853L67.3858 145.627H66.6601L66.1607 144.347H63.5389L63.0395 145.627H62.3138L64.5142 140.086ZM63.7808 143.723H65.9188L64.8498 140.952L63.7808 143.723Z" fill="#0F2543"/>
<path d="M72.8785 145.705C71.3491 145.705 70.0694 144.55 70.0694 142.856C70.0694 141.163 71.3491 140.008 72.8941 140.008C73.573 140.008 74.4547 140.235 75.0556 141.093L74.5718 141.452C74.1114 140.835 73.4559 140.656 72.9097 140.656C71.7158 140.656 70.756 141.522 70.756 142.856C70.756 144.191 71.7236 145.08 72.9097 145.08C73.8227 145.08 74.642 144.558 74.7747 143.379H73.2062V142.81H75.4301C75.5706 144.62 74.3455 145.705 72.8785 145.705Z" fill="#0F2543"/>
<path d="M44.0683 3.39949V3.88542H42V3.39949H44.0683ZM42.6028 2.50537H43.216V6.0624C43.216 6.22438 43.2412 6.34587 43.2914 6.42685C43.3434 6.50622 43.4092 6.55968 43.4889 6.58721C43.5703 6.61313 43.656 6.62609 43.7461 6.62609C43.8137 6.62609 43.8691 6.62285 43.9124 6.61637C43.9557 6.60827 43.9903 6.60179 44.0163 6.59693L44.1411 7.11202C44.0995 7.1266 44.0414 7.14118 43.967 7.15575C43.8925 7.17195 43.7981 7.18005 43.6837 7.18005C43.5105 7.18005 43.3408 7.14523 43.1745 7.07558C43.0099 7.00592 42.8731 6.89983 42.7639 6.75729C42.6565 6.61475 42.6028 6.43495 42.6028 6.2179V2.50537Z" fill="#0F2543"/>
<path d="M46.1652 7.21893C45.9123 7.21893 45.6827 7.17438 45.4766 7.08529C45.2705 6.99459 45.1068 6.86419 44.9855 6.69412C44.8643 6.52242 44.8036 6.31509 44.8036 6.07212C44.8036 5.85831 44.8487 5.685 44.9387 5.55217C45.0288 5.41773 45.1492 5.31245 45.2999 5.23632C45.4506 5.16019 45.6169 5.1035 45.7988 5.06624C45.9824 5.02737 46.1669 4.99659 46.3523 4.97391C46.5948 4.94476 46.7914 4.92289 46.9421 4.90831C47.0945 4.89211 47.2054 4.86539 47.2747 4.82813C47.3457 4.79088 47.3812 4.72609 47.3812 4.63376V4.61432C47.3812 4.3746 47.3111 4.18832 47.1707 4.0555C47.0322 3.92268 46.8217 3.85627 46.5393 3.85627C46.2466 3.85627 46.0171 3.9162 45.8508 4.03606C45.6845 4.15592 45.5676 4.28389 45.5 4.41995L44.918 4.22558C45.0219 3.99881 45.1605 3.82225 45.3337 3.69591C45.5087 3.56795 45.6992 3.47886 45.9053 3.42864C46.1132 3.37681 46.3176 3.3509 46.5186 3.3509C46.6467 3.3509 46.794 3.36547 46.9603 3.39463C47.1283 3.42217 47.2903 3.47967 47.4462 3.56714C47.6038 3.6546 47.7346 3.78662 47.8385 3.96317C47.9425 4.13973 47.9944 4.37621 47.9944 4.67263V7.13146H47.3812V6.62609H47.35C47.3085 6.70708 47.2392 6.79373 47.1422 6.88606C47.0452 6.97839 46.9161 7.05695 46.755 7.12174C46.5939 7.18653 46.3973 7.21893 46.1652 7.21893ZM46.2587 6.70384C46.5012 6.70384 46.7056 6.65929 46.8719 6.5702C47.04 6.48112 47.1664 6.36611 47.2513 6.22519C47.3379 6.08427 47.3812 5.93606 47.3812 5.78056V5.25575C47.3552 5.28491 47.2981 5.31164 47.2097 5.33593C47.1231 5.35861 47.0226 5.37886 46.9083 5.39668C46.7957 5.41287 46.6857 5.42745 46.5783 5.44041C46.4726 5.45175 46.3869 5.46147 46.3211 5.46957C46.1617 5.489 46.0127 5.52059 45.8742 5.56432C45.7373 5.60644 45.6264 5.67042 45.5416 5.75627C45.4584 5.84049 45.4168 5.9555 45.4168 6.10128C45.4168 6.30051 45.4957 6.45115 45.6533 6.5532C45.8127 6.65362 46.0145 6.70384 46.2587 6.70384Z" fill="#0F2543"/>
<path d="M50.7247 8.6087C50.4284 8.6087 50.1738 8.57306 49.9607 8.50179C49.7477 8.43214 49.5701 8.33981 49.4281 8.22481C49.2878 8.11142 49.176 7.98994 49.0929 7.86036L49.5814 7.53964C49.6368 7.60767 49.707 7.68542 49.7918 7.77289C49.8767 7.86198 49.9928 7.93892 50.14 8.00371C50.289 8.07012 50.4839 8.10332 50.7247 8.10332C51.0469 8.10332 51.3128 8.03043 51.5224 7.88465C51.732 7.73887 51.8368 7.51049 51.8368 7.19949V6.44143H51.7848C51.7397 6.50946 51.6757 6.59369 51.5925 6.69412C51.5111 6.79292 51.3933 6.8812 51.2391 6.95895C51.0867 7.03508 50.8806 7.07315 50.6207 7.07315C50.2985 7.07315 50.0092 7.00188 49.7529 6.85933C49.4982 6.71679 49.2964 6.50946 49.1474 6.23734C49.0002 5.96522 48.9266 5.63478 48.9266 5.24604C48.9266 4.86377 48.9985 4.5309 49.1423 4.24744C49.286 3.96236 49.4861 3.74207 49.7425 3.58657C49.9988 3.42945 50.2951 3.3509 50.6311 3.3509C50.891 3.3509 51.0971 3.39139 51.2495 3.47238C51.4037 3.55175 51.5215 3.64246 51.6029 3.7445C51.6861 3.84493 51.7501 3.92754 51.7952 3.99233H51.8575V3.39949H52.45V7.23836C52.45 7.55908 52.372 7.81986 52.2161 8.02072C52.0619 8.22319 51.8541 8.3714 51.5925 8.46534C51.3327 8.56091 51.0434 8.6087 50.7247 8.6087ZM50.7039 6.55806C50.9498 6.55806 51.1577 6.50541 51.3275 6.40013C51.4972 6.29484 51.6263 6.14339 51.7146 5.94578C51.803 5.74817 51.8471 5.51168 51.8471 5.23632C51.8471 4.96743 51.8038 4.73014 51.7172 4.52442C51.6306 4.31871 51.5024 4.15754 51.3327 4.04092C51.1629 3.9243 50.9533 3.86598 50.7039 3.86598C50.444 3.86598 50.2275 3.92754 50.0543 4.05064C49.8828 4.17374 49.7537 4.33896 49.6671 4.54629C49.5822 4.75362 49.5398 4.98363 49.5398 5.23632C49.5398 5.49548 49.5831 5.72468 49.6697 5.92391C49.7581 6.12153 49.888 6.27702 50.0595 6.39041C50.2327 6.50217 50.4475 6.55806 50.7039 6.55806Z" fill="#0F2543"/>
<path d="M56.3995 4.23529L55.8486 4.38107C55.814 4.29523 55.7629 4.21181 55.6953 4.13082C55.6295 4.04821 55.5394 3.98018 55.4251 3.92673C55.3108 3.87327 55.1644 3.84655 54.986 3.84655C54.7417 3.84655 54.5382 3.89919 54.3754 4.00448C54.2143 4.10814 54.1337 4.24015 54.1337 4.40051C54.1337 4.54305 54.1891 4.65563 54.3 4.73823C54.4109 4.82084 54.5841 4.88968 54.8197 4.94476L55.4121 5.08082C55.7689 5.16181 56.0348 5.28572 56.2098 5.45256C56.3848 5.61777 56.4722 5.83078 56.4722 6.09156C56.4722 6.30537 56.4064 6.4965 56.2748 6.66496C56.1448 6.83342 55.963 6.96624 55.7291 7.06343C55.4953 7.16061 55.2233 7.20921 54.9132 7.20921C54.5061 7.20921 54.1692 7.1266 53.9025 6.96138C53.6357 6.79616 53.4668 6.55482 53.3958 6.23734L53.9778 6.10128C54.0332 6.30213 54.138 6.45277 54.2922 6.5532C54.4481 6.65362 54.6516 6.70384 54.9028 6.70384C55.1886 6.70384 55.4156 6.64714 55.5836 6.53376C55.7534 6.41876 55.8382 6.28107 55.8382 6.12072C55.8382 5.99113 55.7897 5.88261 55.6927 5.79514C55.5957 5.70605 55.4467 5.63964 55.2458 5.59591L54.5806 5.45013C54.2151 5.36914 53.9466 5.24361 53.7751 5.07353C53.6054 4.90183 53.5205 4.68721 53.5205 4.42967C53.5205 4.2191 53.5837 4.03282 53.7102 3.87084C53.8384 3.70887 54.0125 3.58171 54.2324 3.48939C54.4542 3.39706 54.7053 3.3509 54.986 3.3509C55.3809 3.3509 55.691 3.43188 55.9162 3.59386C56.1431 3.75584 56.3042 3.96965 56.3995 4.23529Z" fill="#0F2543"/>
<path d="M57.8422 7.17033C57.714 7.17033 57.604 7.12741 57.5122 7.04156C57.4204 6.95571 57.3745 6.85286 57.3745 6.73299C57.3745 6.61313 57.4204 6.51027 57.5122 6.42442C57.604 6.33858 57.714 6.29565 57.8422 6.29565C57.9704 6.29565 58.0804 6.33858 58.1722 6.42442C58.264 6.51027 58.3099 6.61313 58.3099 6.73299C58.3099 6.81236 58.2883 6.88525 58.245 6.95166C58.2034 7.01807 58.1471 7.07153 58.0761 7.11202C58.0068 7.1509 57.9288 7.17033 57.8422 7.17033Z" fill="#0F2543"/>
<path d="M59.4103 7.13146V3.39949H60.0235V7.13146H59.4103ZM59.7221 2.77749C59.6026 2.77749 59.4995 2.73943 59.4129 2.6633C59.3281 2.58717 59.2856 2.49565 59.2856 2.38875C59.2856 2.28184 59.3281 2.19032 59.4129 2.11419C59.4995 2.03806 59.6026 2 59.7221 2C59.8417 2 59.9439 2.03806 60.0287 2.11419C60.1154 2.19032 60.1587 2.28184 60.1587 2.38875C60.1587 2.49565 60.1154 2.58717 60.0287 2.6633C59.9439 2.73943 59.8417 2.77749 59.7221 2.77749Z" fill="#0F2543"/>
<path d="M62.7681 7.20921C62.4078 7.20921 62.0916 7.12903 61.8197 6.96867C61.5494 6.80831 61.3381 6.58397 61.1857 6.29565C61.035 6.00733 60.9596 5.67042 60.9596 5.28491C60.9596 4.89616 61.035 4.55682 61.1857 4.26688C61.3381 3.97694 61.5494 3.75179 61.8197 3.59143C62.0916 3.43107 62.4078 3.3509 62.7681 3.3509C63.1284 3.3509 63.4436 3.43107 63.7139 3.59143C63.9858 3.75179 64.1972 3.97694 64.3479 4.26688C64.5003 4.55682 64.5765 4.89616 64.5765 5.28491C64.5765 5.67042 64.5003 6.00733 64.3479 6.29565C64.1972 6.58397 63.9858 6.80831 63.7139 6.96867C63.4436 7.12903 63.1284 7.20921 62.7681 7.20921ZM62.7681 6.69412C63.0418 6.69412 63.267 6.62852 63.4436 6.49731C63.6203 6.36611 63.7511 6.19361 63.836 5.9798C63.9209 5.76598 63.9633 5.53436 63.9633 5.28491C63.9633 5.03546 63.9209 4.80303 63.836 4.5876C63.7511 4.37217 63.6203 4.19804 63.4436 4.06522C63.267 3.9324 63.0418 3.86598 62.7681 3.86598C62.4944 3.86598 62.2692 3.9324 62.0925 4.06522C61.9158 4.19804 61.785 4.37217 61.7001 4.5876C61.6153 4.80303 61.5728 5.03546 61.5728 5.28491C61.5728 5.53436 61.6153 5.76598 61.7001 5.9798C61.785 6.19361 61.9158 6.36611 62.0925 6.49731C62.2692 6.62852 62.4944 6.69412 62.7681 6.69412Z" fill="#0F2543"/>
<path d="M65.8056 3.39949L66.7618 4.92532L67.718 3.39949H68.4247L67.1359 5.26547L68.4247 7.13146H67.718L66.7618 5.68338L65.8056 7.13146H65.0988L66.3668 5.26547L65.0988 3.39949H65.8056Z" fill="#0F2543"/>
<path d="M69.2997 7.13146V3.39949H69.9129V7.13146H69.2997ZM69.6115 2.77749C69.492 2.77749 69.3889 2.73943 69.3023 2.6633C69.2174 2.58717 69.175 2.49565 69.175 2.38875C69.175 2.28184 69.2174 2.19032 69.3023 2.11419C69.3889 2.03806 69.492 2 69.6115 2C69.731 2 69.8332 2.03806 69.9181 2.11419C70.0047 2.19032 70.048 2.28184 70.048 2.38875C70.048 2.49565 70.0047 2.58717 69.9181 2.6633C69.8332 2.73943 69.731 2.77749 69.6115 2.77749Z" fill="#0F2543"/>
<path d="M72.6574 7.20921C72.2971 7.20921 71.981 7.12903 71.709 6.96867C71.4388 6.80831 71.2275 6.58397 71.075 6.29565C70.9243 6.00733 70.849 5.67042 70.849 5.28491C70.849 4.89616 70.9243 4.55682 71.075 4.26688C71.2275 3.97694 71.4388 3.75179 71.709 3.59143C71.981 3.43107 72.2971 3.3509 72.6574 3.3509C73.0177 3.3509 73.333 3.43107 73.6032 3.59143C73.8752 3.75179 74.0865 3.97694 74.2372 4.26688C74.3897 4.55682 74.4659 4.89616 74.4659 5.28491C74.4659 5.67042 74.3897 6.00733 74.2372 6.29565C74.0865 6.58397 73.8752 6.80831 73.6032 6.96867C73.333 7.12903 73.0177 7.20921 72.6574 7.20921ZM72.6574 6.69412C72.9311 6.69412 73.1563 6.62852 73.333 6.49731C73.5097 6.36611 73.6405 6.19361 73.7254 5.9798C73.8102 5.76598 73.8527 5.53436 73.8527 5.28491C73.8527 5.03546 73.8102 4.80303 73.7254 4.5876C73.6405 4.37217 73.5097 4.19804 73.333 4.06522C73.1563 3.9324 72.9311 3.86598 72.6574 3.86598C72.3837 3.86598 72.1586 3.9324 71.9819 4.06522C71.8052 4.19804 71.6744 4.37217 71.5895 4.5876C71.5046 4.80303 71.4622 5.03546 71.4622 5.28491C71.4622 5.53436 71.5046 5.76598 71.5895 5.9798C71.6744 6.19361 71.8052 6.36611 71.9819 6.49731C72.1586 6.62852 72.3837 6.69412 72.6574 6.69412Z" fill="#0F2543"/>
<path d="M75.8489 7.17033C75.7207 7.17033 75.6107 7.12741 75.5189 7.04156C75.4271 6.95571 75.3812 6.85286 75.3812 6.73299C75.3812 6.61313 75.4271 6.51027 75.5189 6.42442C75.6107 6.33858 75.7207 6.29565 75.8489 6.29565C75.9771 6.29565 76.0871 6.33858 76.1789 6.42442C76.2707 6.51027 76.3166 6.61313 76.3166 6.73299C76.3166 6.81236 76.2949 6.88525 76.2516 6.95166C76.2101 7.01807 76.1538 7.07153 76.0827 7.11202C76.0134 7.1509 75.9355 7.17033 75.8489 7.17033Z" fill="#0F2543"/>
<path d="M78.924 7.20921C78.5915 7.20921 78.2978 7.13065 78.0432 6.97353C77.7886 6.81479 77.5894 6.59126 77.4456 6.30294C77.3018 6.013 77.2299 5.67042 77.2299 5.27519C77.2299 4.88321 77.3018 4.54305 77.4456 4.25473C77.5894 3.96641 77.7894 3.74369 78.0458 3.58657C78.3022 3.42945 78.5984 3.3509 78.9344 3.3509C79.1943 3.3509 79.3995 3.39139 79.5503 3.47238C79.7027 3.55175 79.8187 3.64246 79.8984 3.7445C79.9798 3.84493 80.0431 3.92754 80.0881 3.99233H80.1401V2.1555H80.7533V7.13146H80.1609V6.55806H80.0881C80.0431 6.62609 79.979 6.71194 79.8958 6.8156C79.8127 6.91765 79.694 7.00916 79.5399 7.09015C79.3857 7.16952 79.1804 7.20921 78.924 7.20921ZM79.0072 6.69412C79.2532 6.69412 79.461 6.63419 79.6308 6.51432C79.8006 6.39284 79.9296 6.22519 80.018 6.01138C80.1063 5.79595 80.1505 5.54731 80.1505 5.26547C80.1505 4.98687 80.1072 4.74309 80.0206 4.53414C79.9339 4.32357 79.8058 4.15997 79.636 4.04335C79.4662 3.92511 79.2566 3.86598 79.0072 3.86598C78.7474 3.86598 78.5308 3.92835 78.3576 4.05307C78.1861 4.17617 78.0571 4.34382 77.9704 4.55601C77.8856 4.76658 77.8431 5.00307 77.8431 5.26547C77.8431 5.53112 77.8864 5.77246 77.973 5.98951C78.0614 6.20494 78.1913 6.37664 78.3628 6.5046C78.536 6.63095 78.7508 6.69412 79.0072 6.69412Z" fill="#0F2543"/>
<path d="M83.6349 7.20921C83.2503 7.20921 82.9186 7.12984 82.6397 6.9711C82.3625 6.81074 82.1486 6.58721 81.9979 6.30051C81.8489 6.01219 81.7745 5.6769 81.7745 5.29463C81.7745 4.91236 81.8489 4.57545 81.9979 4.28389C82.1486 3.99071 82.3582 3.76232 82.6267 3.59872C82.8969 3.4335 83.2122 3.3509 83.5725 3.3509C83.7804 3.3509 83.9857 3.38329 84.1883 3.44808C84.391 3.51287 84.5755 3.61816 84.7418 3.76394C84.9081 3.9081 85.0406 4.09923 85.1393 4.33734C85.2381 4.57545 85.2874 4.86863 85.2874 5.21688V5.45985H82.211V4.96419H84.6638C84.6638 4.75362 84.6188 4.56573 84.5287 4.40051C84.4404 4.23529 84.3139 4.1049 84.1494 4.00933C83.9865 3.91377 83.7942 3.86598 83.5725 3.86598C83.3283 3.86598 83.1169 3.92268 82.9385 4.03606C82.7618 4.14783 82.6258 4.29361 82.5306 4.4734C82.4353 4.6532 82.3877 4.84595 82.3877 5.05166V5.3821C82.3877 5.66394 82.4396 5.90286 82.5436 6.09885C82.6492 6.29322 82.7956 6.44143 82.9827 6.54348C83.1698 6.6439 83.3872 6.69412 83.6349 6.69412C83.796 6.69412 83.9415 6.67306 84.0714 6.63095C84.2031 6.58721 84.3165 6.52242 84.4118 6.43657C84.5071 6.3491 84.5807 6.24058 84.6326 6.111L85.2251 6.2665C85.1627 6.45439 85.0579 6.61961 84.9107 6.76215C84.7634 6.90307 84.5815 7.01321 84.365 7.09258C84.1485 7.17033 83.9051 7.20921 83.6349 7.20921Z" fill="#0F2543"/>
<path d="M89.3623 3.39949L87.8864 7.13146H87.2628L85.787 3.39949H86.4522L87.5539 6.3734H87.5954L88.6971 3.39949H89.3623Z" fill="#0F2543"/>
<defs>
<clipPath id="clip0_396_40">
<rect width="54.7993" height="9.80978" fill="white" transform="translate(38.5225 126.261)"/>
</clipPath>
</defs>
</svg>
