<svg width="92" height="102" viewBox="0 0 92 102" fill="none" xmlns="http://www.w3.org/2000/svg">
<path fill-rule="evenodd" clip-rule="evenodd" d="M0.557093 0.477508H91.4429C91.4869 0.477508 91.5225 0.513139 91.5225 0.557093V93.4429C91.5225 93.4869 91.4869 93.5225 91.4429 93.5225H67V94H91.4429C91.7506 94 92 93.7506 92 93.4429V0.557093C92 0.249419 91.7506 0 91.4429 0H0.557093C0.249419 0 0 0.249416 0 0.55709V93.4429C0 93.7506 0.249419 94 0.557093 94H24V93.5225H0.557093C0.513139 93.5225 0.477508 93.4869 0.477508 93.4429V0.55709C0.477508 0.513139 0.513136 0.477508 0.557093 0.477508Z" fill="#0F2543"/>
<g clip-path="url(#clip0_396_39)">
<path d="M27.6611 88.2964H26.8477V94.6586H27.6611V88.2964Z" fill="#0F2543"/>
<path d="M34.5872 88C33.9109 88 33.2499 88.2005 32.6876 88.5762C32.1253 88.952 31.687 89.486 31.4282 90.1107C31.1695 90.7355 31.1017 91.423 31.2337 92.0863C31.3656 92.7495 31.6913 93.3588 32.1694 93.837C32.6476 94.3152 33.2569 94.6408 33.9201 94.7727C34.5834 94.9047 35.2709 94.837 35.8957 94.5782C36.5205 94.3194 37.0545 93.8811 37.4302 93.3188C37.8059 92.7565 38.0064 92.0955 38.0064 91.4192C38.0057 90.5126 37.6452 89.6433 37.0042 89.0022C36.3631 88.3612 35.4938 88.0007 34.5872 88ZM34.5872 94.0051C34.0754 94.0051 33.5752 93.8534 33.1497 93.569C32.7242 93.2847 32.3926 92.8805 32.1968 92.4077C32.001 91.9349 31.9498 91.4146 32.0498 90.9127C32.1497 90.4108 32.3962 89.9498 32.7582 89.588C33.1202 89.2262 33.5813 88.9799 34.0833 88.8802C34.5852 88.7805 35.1055 88.832 35.5782 89.028C36.0509 89.224 36.4549 89.5558 36.739 89.9815C37.0232 90.4071 37.1747 90.9075 37.1744 91.4192C37.1737 92.1051 36.9009 92.7626 36.4158 93.2474C35.9307 93.7323 35.273 94.0048 34.5872 94.0051Z" fill="#0F2543"/>
<path d="M54.6621 88.2964H53.8486V94.6586H54.6621V88.2964Z" fill="#0F2543"/>
<path d="M61.6204 88C60.9441 88 60.2831 88.2005 59.7208 88.5762C59.1585 88.952 58.7202 89.486 58.4614 90.1107C58.2027 90.7355 58.1349 91.423 58.2669 92.0863C58.3988 92.7495 58.7245 93.3588 59.2026 93.837C59.6808 94.3152 60.2901 94.6408 60.9533 94.7727C61.6166 94.9047 62.3041 94.837 62.9289 94.5782C63.5537 94.3194 64.0877 93.8811 64.4634 93.3188C64.8391 92.7565 65.0396 92.0955 65.0396 91.4192C65.0386 90.5127 64.678 89.6436 64.037 89.0026C63.396 88.3616 62.5269 88.0011 61.6204 88ZM61.6204 94.0051C61.1086 94.0051 60.6084 93.8534 60.1829 93.569C59.7574 93.2847 59.4258 92.8805 59.23 92.4077C59.0342 91.9349 58.983 91.4146 59.083 90.9127C59.1829 90.4108 59.4294 89.9498 59.7914 89.588C60.1534 89.2262 60.6145 88.9799 61.1165 88.8802C61.6184 88.7805 62.1387 88.832 62.6114 89.028C63.0841 89.224 63.4881 89.5558 63.7722 89.9815C64.0564 90.4071 64.2079 90.9075 64.2076 91.4192C64.2069 92.1051 63.9341 92.7626 63.449 93.2474C62.9639 93.7323 62.3062 94.0048 61.6204 94.0051Z" fill="#0F2543"/>
<path d="M41.283 88.2223H39.7976L44.4668 91.4034L39.6904 94.6586H41.1745L45.2088 91.91L45.9508 91.4034L45.2088 90.8981L41.283 88.2223Z" fill="#0F2543"/>
<path d="M46.1416 92.5646L49.2156 94.6585H50.6931L46.881 92.0607L46.1416 92.5646Z" fill="#0F2543"/>
<path d="M50.5859 88.2223H49.1071L46.1416 90.2434L46.881 90.7474L50.5859 88.2223Z" fill="#0F2543"/>
</g>
<path d="M40.4287 101.497V98.071H39.4062V97.6359H41.9189V98.071H40.8964V101.497H40.4287Z" fill="#0F2543"/>
<path d="M44.964 97.6359H45.4317L46.9654 101.497H46.4596L46.1116 100.605H44.2842L43.9361 101.497H43.4304L44.964 97.6359ZM44.4528 100.17H45.943L45.1979 98.2396L44.4528 100.17Z" fill="#0F2543"/>
<path d="M50.7937 101.552C49.7277 101.552 48.8358 100.747 48.8358 99.5666C48.8358 98.3864 49.7277 97.5815 50.8045 97.5815C51.2777 97.5815 51.8922 97.7393 52.311 98.3375L51.9738 98.5877C51.653 98.158 51.1961 98.0329 50.8154 98.0329C49.9833 98.0329 49.3144 98.6366 49.3144 99.5666C49.3144 100.497 49.9888 101.117 50.8154 101.117C51.4517 101.117 52.0228 100.752 52.1152 99.931H51.0221V99.534H52.5721C52.67 100.796 51.8161 101.552 50.7937 101.552Z" fill="#0F2543"/>
<path d="M25.8778 3.27059V3.71176H24V3.27059H25.8778ZM24.5473 2.45882H25.104V5.68824C25.104 5.83529 25.1268 5.94559 25.1724 6.01912C25.2196 6.09118 25.2794 6.13971 25.3517 6.16471C25.4256 6.18824 25.5035 6.2 25.5853 6.2C25.6466 6.2 25.6969 6.19706 25.7363 6.19118C25.7756 6.18382 25.807 6.17794 25.8306 6.17353L25.9438 6.64118C25.9061 6.65441 25.8534 6.66765 25.7858 6.68088C25.7182 6.69559 25.6325 6.70294 25.5287 6.70294C25.3714 6.70294 25.2173 6.67132 25.0663 6.60809C24.9169 6.54485 24.7926 6.44853 24.6936 6.31912C24.5961 6.18971 24.5473 6.02647 24.5473 5.82941V2.45882Z" fill="#0F2543"/>
<path d="M27.7815 6.73823C27.5519 6.73823 27.3435 6.69779 27.1564 6.61691C26.9692 6.53456 26.8206 6.41618 26.7105 6.26176C26.6004 6.10588 26.5454 5.91765 26.5454 5.69706C26.5454 5.50294 26.5863 5.34559 26.6681 5.225C26.7499 5.10294 26.8592 5.00735 26.996 4.93824C27.1328 4.86912 27.2838 4.81765 27.4489 4.78382C27.6156 4.74853 27.7831 4.72059 27.9514 4.7C28.1716 4.67353 28.3501 4.65368 28.4869 4.64044C28.6253 4.62574 28.7259 4.60147 28.7889 4.56765C28.8533 4.53382 28.8856 4.475 28.8856 4.39118V4.37353C28.8856 4.15588 28.8219 3.98676 28.6945 3.86618C28.5687 3.74559 28.3776 3.68529 28.1212 3.68529C27.8555 3.68529 27.6471 3.73971 27.4961 3.84853C27.3451 3.95735 27.239 4.07353 27.1776 4.19706L26.6492 4.02059C26.7436 3.81471 26.8694 3.65441 27.0266 3.53971C27.1855 3.42353 27.3585 3.34265 27.5456 3.29706C27.7344 3.25 27.9199 3.22647 28.1024 3.22647C28.2188 3.22647 28.3524 3.23971 28.5034 3.26618C28.656 3.29118 28.803 3.34338 28.9445 3.42279C29.0877 3.50221 29.2064 3.62206 29.3008 3.78235C29.3951 3.94265 29.4423 4.15735 29.4423 4.42647V6.65882H28.8856V6.2H28.8573C28.8195 6.27353 28.7566 6.35221 28.6685 6.43603C28.5805 6.51985 28.4633 6.59118 28.317 6.65C28.1708 6.70882 27.9923 6.73823 27.7815 6.73823ZM27.8665 6.27059C28.0866 6.27059 28.2722 6.23015 28.4232 6.14926C28.5758 6.06838 28.6906 5.96397 28.7676 5.83603C28.8463 5.70809 28.8856 5.57353 28.8856 5.43235V4.95588C28.862 4.98235 28.8101 5.00662 28.7299 5.02868C28.6512 5.04926 28.56 5.06765 28.4562 5.08382C28.354 5.09853 28.2541 5.11176 28.1566 5.12353C28.0607 5.13382 27.9828 5.14265 27.9231 5.15C27.7784 5.16765 27.6431 5.19632 27.5173 5.23603C27.3931 5.27426 27.2924 5.33235 27.2154 5.41029C27.1399 5.48676 27.1021 5.59118 27.1021 5.72353C27.1021 5.90441 27.1737 6.04118 27.3168 6.13382C27.4615 6.225 27.6447 6.27059 27.8665 6.27059Z" fill="#0F2543"/>
<path d="M31.9211 8C31.6521 8 31.421 7.96765 31.2275 7.90294C31.0341 7.83971 30.8729 7.75588 30.7439 7.65147C30.6165 7.54853 30.5151 7.43823 30.4396 7.32059L30.8831 7.02941C30.9334 7.09118 30.9971 7.16176 31.0742 7.24118C31.1512 7.32206 31.2566 7.39191 31.3903 7.45074C31.5255 7.51103 31.7025 7.54118 31.9211 7.54118C32.2136 7.54118 32.455 7.475 32.6453 7.34265C32.8356 7.21029 32.9307 7.00294 32.9307 6.72059V6.03235H32.8836C32.8427 6.09412 32.7845 6.17059 32.709 6.26176C32.6351 6.35147 32.5281 6.43162 32.3882 6.50221C32.2498 6.57132 32.0626 6.60588 31.8267 6.60588C31.5342 6.60588 31.2715 6.54118 31.0388 6.41176C30.8076 6.28235 30.6244 6.09412 30.4891 5.84706C30.3555 5.6 30.2886 5.3 30.2886 4.94706C30.2886 4.6 30.3539 4.29779 30.4844 4.04044C30.6149 3.78162 30.7966 3.58162 31.0294 3.44044C31.2621 3.29779 31.531 3.22647 31.8361 3.22647C32.072 3.22647 32.2592 3.26324 32.3976 3.33676C32.5376 3.40882 32.6445 3.49118 32.7184 3.58382C32.7939 3.675 32.8521 3.75 32.893 3.80882H32.9496V3.27059H33.4875V6.75588C33.4875 7.04706 33.4167 7.28382 33.2752 7.46618C33.1352 7.65 32.9465 7.78456 32.709 7.86985C32.4731 7.95662 32.2104 8 31.9211 8ZM31.9022 6.13824C32.1255 6.13824 32.3142 6.09044 32.4684 5.99485C32.6225 5.89926 32.7397 5.76176 32.8199 5.58235C32.9001 5.40294 32.9402 5.18824 32.9402 4.93824C32.9402 4.69412 32.9009 4.47868 32.8222 4.29191C32.7436 4.10515 32.6272 3.95882 32.4731 3.85294C32.319 3.74706 32.1287 3.69412 31.9022 3.69412C31.6663 3.69412 31.4697 3.75 31.3124 3.86176C31.1567 3.97353 31.0396 4.12353 30.9609 4.31176C30.8839 4.5 30.8453 4.70882 30.8453 4.93824C30.8453 5.17353 30.8847 5.38162 30.9633 5.5625C31.0435 5.74191 31.1615 5.88309 31.3172 5.98603C31.4744 6.0875 31.6694 6.13824 31.9022 6.13824Z" fill="#0F2543"/>
<path d="M37.0732 4.02941L36.5731 4.16176C36.5416 4.08382 36.4952 4.00809 36.4339 3.93456C36.3742 3.85956 36.2924 3.79779 36.1886 3.74926C36.0848 3.70074 35.9519 3.67647 35.7899 3.67647C35.5681 3.67647 35.3834 3.72426 35.2355 3.81985C35.0893 3.91397 35.0161 4.03382 35.0161 4.17941C35.0161 4.30882 35.0665 4.41103 35.1671 4.48603C35.2678 4.56103 35.425 4.62353 35.6389 4.67353L36.1768 4.79706C36.5008 4.87059 36.7422 4.98309 36.901 5.13456C37.0598 5.28456 37.1393 5.47794 37.1393 5.71471C37.1393 5.90882 37.0795 6.08235 36.96 6.23529C36.842 6.38824 36.6769 6.50882 36.4646 6.59706C36.2523 6.68529 36.0054 6.72941 35.7238 6.72941C35.3543 6.72941 35.0484 6.65441 34.8062 6.50441C34.564 6.35441 34.4106 6.13529 34.3462 5.84706L34.8746 5.72353C34.9249 5.90588 35.0201 6.04265 35.16 6.13382C35.3016 6.225 35.4864 6.27059 35.7144 6.27059C35.9739 6.27059 36.1799 6.21912 36.3325 6.11618C36.4866 6.01176 36.5637 5.88676 36.5637 5.74118C36.5637 5.62353 36.5196 5.525 36.4316 5.44559C36.3435 5.36471 36.2082 5.30441 36.0258 5.26471L35.4219 5.13235C35.09 5.05882 34.8463 4.94485 34.6906 4.79044C34.5365 4.63456 34.4594 4.43971 34.4594 4.20588C34.4594 4.01471 34.5168 3.84559 34.6316 3.69853C34.748 3.55147 34.906 3.43603 35.1058 3.35221C35.3071 3.26838 35.5351 3.22647 35.7899 3.22647C36.1485 3.22647 36.43 3.3 36.6344 3.44706C36.8405 3.59412 36.9867 3.78823 37.0732 4.02941Z" fill="#0F2543"/>
<path d="M38.3831 6.69412C38.2667 6.69412 38.1668 6.65515 38.0835 6.57721C38.0001 6.49926 37.9584 6.40588 37.9584 6.29706C37.9584 6.18823 38.0001 6.09485 38.0835 6.01691C38.1668 5.93897 38.2667 5.9 38.3831 5.9C38.4994 5.9 38.5993 5.93897 38.6827 6.01691C38.766 6.09485 38.8077 6.18823 38.8077 6.29706C38.8077 6.36912 38.788 6.43529 38.7487 6.49559C38.711 6.55588 38.6599 6.60441 38.5954 6.64118C38.5325 6.67647 38.4617 6.69412 38.3831 6.69412Z" fill="#0F2543"/>
<path d="M39.8068 6.65882V3.27059H40.3635V6.65882H39.8068ZM40.0898 2.70588C39.9813 2.70588 39.8877 2.67132 39.8091 2.60221C39.732 2.53309 39.6935 2.45 39.6935 2.35294C39.6935 2.25588 39.732 2.17279 39.8091 2.10368C39.8877 2.03456 39.9813 2 40.0898 2C40.1984 2 40.2911 2.03456 40.3682 2.10368C40.4468 2.17279 40.4862 2.25588 40.4862 2.35294C40.4862 2.45 40.4468 2.53309 40.3682 2.60221C40.2911 2.67132 40.1984 2.70588 40.0898 2.70588Z" fill="#0F2543"/>
<path d="M42.8552 6.72941C42.5281 6.72941 42.2411 6.65662 41.9942 6.51103C41.7488 6.36544 41.557 6.16176 41.4186 5.9C41.2817 5.63824 41.2133 5.33235 41.2133 4.98235C41.2133 4.62941 41.2817 4.32132 41.4186 4.05809C41.557 3.79485 41.7488 3.59044 41.9942 3.44485C42.2411 3.29926 42.5281 3.22647 42.8552 3.22647C43.1823 3.22647 43.4686 3.29926 43.7139 3.44485C43.9608 3.59044 44.1527 3.79485 44.2895 4.05809C44.4279 4.32132 44.4971 4.62941 44.4971 4.98235C44.4971 5.33235 44.4279 5.63824 44.2895 5.9C44.1527 6.16176 43.9608 6.36544 43.7139 6.51103C43.4686 6.65662 43.1823 6.72941 42.8552 6.72941ZM42.8552 6.26176C43.1037 6.26176 43.3082 6.20221 43.4686 6.08309C43.629 5.96397 43.7477 5.80735 43.8248 5.61324C43.9018 5.41912 43.9404 5.20882 43.9404 4.98235C43.9404 4.75588 43.9018 4.54485 43.8248 4.34926C43.7477 4.15368 43.629 3.99559 43.4686 3.875C43.3082 3.75441 43.1037 3.69412 42.8552 3.69412C42.6067 3.69412 42.4023 3.75441 42.2419 3.875C42.0815 3.99559 41.9627 4.15368 41.8857 4.34926C41.8086 4.54485 41.7701 4.75588 41.7701 4.98235C41.7701 5.20882 41.8086 5.41912 41.8857 5.61324C41.9627 5.80735 42.0815 5.96397 42.2419 6.08309C42.4023 6.20221 42.6067 6.26176 42.8552 6.26176Z" fill="#0F2543"/>
<path d="M45.6129 3.27059L46.4811 4.65588L47.3492 3.27059H47.9909L46.8208 4.96471L47.9909 6.65882H47.3492L46.4811 5.34412L45.6129 6.65882H44.9713L46.1225 4.96471L44.9713 3.27059H45.6129Z" fill="#0F2543"/>
<path d="M48.7853 6.65882V3.27059H49.342V6.65882H48.7853ZM49.0683 2.70588C48.9598 2.70588 48.8663 2.67132 48.7876 2.60221C48.7106 2.53309 48.672 2.45 48.672 2.35294C48.672 2.25588 48.7106 2.17279 48.7876 2.10368C48.8663 2.03456 48.9598 2 49.0683 2C49.1769 2 49.2696 2.03456 49.3467 2.10368C49.4253 2.17279 49.4647 2.25588 49.4647 2.35294C49.4647 2.45 49.4253 2.53309 49.3467 2.60221C49.2696 2.67132 49.1769 2.70588 49.0683 2.70588Z" fill="#0F2543"/>
<path d="M51.8337 6.72941C51.5066 6.72941 51.2196 6.65662 50.9727 6.51103C50.7273 6.36544 50.5355 6.16176 50.3971 5.9C50.2602 5.63824 50.1918 5.33235 50.1918 4.98235C50.1918 4.62941 50.2602 4.32132 50.3971 4.05809C50.5355 3.79485 50.7273 3.59044 50.9727 3.44485C51.2196 3.29926 51.5066 3.22647 51.8337 3.22647C52.1608 3.22647 52.4471 3.29926 52.6924 3.44485C52.9393 3.59044 53.1312 3.79485 53.268 4.05809C53.4064 4.32132 53.4756 4.62941 53.4756 4.98235C53.4756 5.33235 53.4064 5.63824 53.268 5.9C53.1312 6.16176 52.9393 6.36544 52.6924 6.51103C52.4471 6.65662 52.1608 6.72941 51.8337 6.72941ZM51.8337 6.26176C52.0822 6.26176 52.2867 6.20221 52.4471 6.08309C52.6075 5.96397 52.7262 5.80735 52.8033 5.61324C52.8804 5.41912 52.9189 5.20882 52.9189 4.98235C52.9189 4.75588 52.8804 4.54485 52.8033 4.34926C52.7262 4.15368 52.6075 3.99559 52.4471 3.875C52.2867 3.75441 52.0822 3.69412 51.8337 3.69412C51.5852 3.69412 51.3808 3.75441 51.2204 3.875C51.06 3.99559 50.9412 4.15368 50.8642 4.34926C50.7871 4.54485 50.7486 4.75588 50.7486 4.98235C50.7486 5.20882 50.7871 5.41912 50.8642 5.61324C50.9412 5.80735 51.06 5.96397 51.2204 6.08309C51.3808 6.20221 51.5852 6.26176 51.8337 6.26176Z" fill="#0F2543"/>
<path d="M54.7312 6.69412C54.6148 6.69412 54.515 6.65515 54.4316 6.57721C54.3483 6.49926 54.3066 6.40588 54.3066 6.29706C54.3066 6.18823 54.3483 6.09485 54.4316 6.01691C54.515 5.93897 54.6148 5.9 54.7312 5.9C54.8476 5.9 54.9475 5.93897 55.0308 6.01691C55.1142 6.09485 55.1558 6.18823 55.1558 6.29706C55.1558 6.36912 55.1362 6.43529 55.0969 6.49559C55.0591 6.55588 55.008 6.60441 54.9435 6.64118C54.8806 6.67647 54.8099 6.69412 54.7312 6.69412Z" fill="#0F2543"/>
<path d="M57.5231 6.72941C57.2212 6.72941 56.9546 6.65809 56.7234 6.51544C56.4922 6.37132 56.3114 6.16838 56.1809 5.90662C56.0503 5.64338 55.9851 5.33235 55.9851 4.97353C55.9851 4.61765 56.0503 4.30882 56.1809 4.04706C56.3114 3.78529 56.493 3.58309 56.7258 3.44044C56.9585 3.29779 57.2275 3.22647 57.5326 3.22647C57.7685 3.22647 57.9548 3.26324 58.0917 3.33676C58.2301 3.40882 58.3354 3.49118 58.4078 3.58382C58.4817 3.675 58.5391 3.75 58.58 3.80882H58.6272V2.14118H59.1839V6.65882H58.646V6.13824H58.58C58.5391 6.2 58.4809 6.27794 58.4054 6.37206C58.3299 6.46471 58.2222 6.54779 58.0822 6.62132C57.9423 6.69338 57.7559 6.72941 57.5231 6.72941ZM57.5986 6.26176C57.822 6.26176 58.0107 6.20735 58.1648 6.09853C58.3189 5.98823 58.4361 5.83603 58.5163 5.64191C58.5965 5.44632 58.6366 5.22059 58.6366 4.96471C58.6366 4.71176 58.5973 4.49044 58.5187 4.30074C58.44 4.10956 58.3236 3.96103 58.1695 3.85515C58.0154 3.74779 57.8251 3.69412 57.5986 3.69412C57.3627 3.69412 57.1661 3.75074 57.0089 3.86397C56.8532 3.97574 56.736 4.12794 56.6574 4.32059C56.5803 4.51176 56.5418 4.72647 56.5418 4.96471C56.5418 5.20588 56.5811 5.425 56.6597 5.62206C56.7399 5.81765 56.8579 5.97353 57.0136 6.08971C57.1709 6.20441 57.3659 6.26176 57.5986 6.26176Z" fill="#0F2543"/>
<path d="M61.8001 6.72941C61.4509 6.72941 61.1498 6.65735 60.8966 6.51324C60.6449 6.36765 60.4507 6.16471 60.3139 5.90441C60.1786 5.64265 60.111 5.33823 60.111 4.99118C60.111 4.64412 60.1786 4.33823 60.3139 4.07353C60.4507 3.80735 60.641 3.6 60.8848 3.45147C61.1301 3.30147 61.4163 3.22647 61.7435 3.22647C61.9322 3.22647 62.1186 3.25588 62.3026 3.31471C62.4866 3.37353 62.6541 3.46912 62.805 3.60147C62.956 3.73235 63.0763 3.90588 63.166 4.12206C63.2556 4.33823 63.3004 4.60441 63.3004 4.92059V5.14118H60.5073V4.69118H62.7343C62.7343 4.5 62.6934 4.32941 62.6116 4.17941C62.5314 4.02941 62.4166 3.91103 62.2672 3.82426C62.1193 3.7375 61.9448 3.69412 61.7435 3.69412C61.5217 3.69412 61.3298 3.74559 61.1679 3.84853C61.0075 3.95 60.884 4.08235 60.7975 4.24559C60.711 4.40882 60.6677 4.58382 60.6677 4.77059V5.07059C60.6677 5.32647 60.7149 5.54338 60.8093 5.72132C60.9052 5.89779 61.0381 6.03235 61.208 6.125C61.3778 6.21618 61.5752 6.26176 61.8001 6.26176C61.9463 6.26176 62.0785 6.24265 62.1964 6.20441C62.3159 6.16471 62.4189 6.10588 62.5054 6.02794C62.5919 5.94853 62.6588 5.85 62.706 5.73235L63.2438 5.87353C63.1872 6.04412 63.0921 6.19412 62.9584 6.32353C62.8247 6.45147 62.6596 6.55147 62.463 6.62353C62.2664 6.69412 62.0454 6.72941 61.8001 6.72941Z" fill="#0F2543"/>
<path d="M67 3.27059L65.6601 6.65882H65.0939L63.754 3.27059H64.3579L65.3581 5.97059H65.3959L66.3961 3.27059H67Z" fill="#0F2543"/>
<defs>
<clipPath id="clip0_396_39">
<rect width="38.1934" height="6.83712" fill="white" transform="translate(26.8486 88)"/>
</clipPath>
</defs>
</svg>
