<svg width="934" height="1014" viewBox="0 0 934 1014" fill="none" xmlns="http://www.w3.org/2000/svg">
<rect width="874.295" height="956.511" transform="translate(29.8525 32.0844)" fill="white"/>
<rect width="874.295" height="59.4895" transform="translate(29.8525 32.0844)" fill="white"/>
<path d="M310.022 46.5882V50.2647H295V46.5882H310.022ZM299.378 39.8235H303.832V66.7353C303.832 67.9608 304.015 68.8799 304.38 69.4926C304.757 70.0931 305.235 70.4976 305.814 70.7059C306.405 70.902 307.028 71 307.682 71C308.173 71 308.575 70.9755 308.89 70.9265C309.205 70.8652 309.456 70.8162 309.645 70.7794L310.551 74.6765C310.249 74.7868 309.827 74.8971 309.286 75.0074C308.745 75.1299 308.06 75.1912 307.229 75.1912C305.971 75.1912 304.738 74.9277 303.53 74.4007C302.335 73.8738 301.341 73.0711 300.548 71.9926C299.768 70.9142 299.378 69.5539 299.378 67.9118V39.8235Z" fill="#101920"/>
<path d="M325.252 75.4853C323.415 75.4853 321.748 75.1483 320.251 74.4743C318.754 73.788 317.565 72.8015 316.684 71.5147C315.804 70.2157 315.363 68.6471 315.363 66.8088C315.363 65.1912 315.69 63.8799 316.345 62.875C316.999 61.8578 317.873 61.0613 318.968 60.4853C320.062 59.9093 321.27 59.4804 322.591 59.1985C323.925 58.9044 325.265 58.6716 326.611 58.5C328.373 58.2794 329.801 58.114 330.895 58.0037C332.002 57.8811 332.808 57.6789 333.311 57.3971C333.827 57.1152 334.085 56.625 334.085 55.9265V55.7794C334.085 53.9657 333.575 52.5564 332.556 51.5515C331.549 50.5466 330.021 50.0441 327.97 50.0441C325.844 50.0441 324.177 50.4975 322.969 51.4044C321.761 52.3113 320.912 53.2794 320.421 54.3088L316.194 52.8382C316.949 51.1225 317.955 49.7868 319.213 48.8309C320.484 47.8627 321.868 47.1887 323.365 46.8088C324.875 46.4167 326.36 46.2206 327.819 46.2206C328.75 46.2206 329.819 46.3309 331.027 46.5515C332.248 46.7598 333.424 47.1949 334.556 47.8566C335.701 48.5184 336.651 49.5172 337.406 50.8529C338.161 52.1887 338.538 53.9779 338.538 56.2206V74.8235H334.085V71H333.858C333.556 71.6127 333.053 72.2684 332.348 72.9669C331.644 73.6654 330.706 74.2598 329.536 74.75C328.366 75.2402 326.938 75.4853 325.252 75.4853ZM325.932 71.5882C327.693 71.5882 329.178 71.2512 330.386 70.5772C331.606 69.9032 332.524 69.0331 333.141 67.9669C333.77 66.9007 334.085 65.7794 334.085 64.6029V60.6324C333.896 60.8529 333.481 61.0551 332.839 61.239C332.21 61.4105 331.48 61.5637 330.65 61.6985C329.832 61.8211 329.033 61.9314 328.253 62.0294C327.486 62.1152 326.863 62.1887 326.385 62.25C325.227 62.3971 324.145 62.636 323.139 62.9669C322.145 63.2855 321.339 63.7696 320.723 64.4191C320.119 65.0564 319.817 65.9265 319.817 67.0294C319.817 68.5368 320.39 69.6765 321.534 70.4485C322.692 71.2083 324.158 71.5882 325.932 71.5882Z" fill="#101920"/>
<path d="M358.369 86C356.217 86 354.368 85.7304 352.82 85.1912C351.273 84.6642 349.983 83.9657 348.951 83.0956C347.932 82.2377 347.121 81.3186 346.517 80.3382L350.065 77.9118C350.467 78.4265 350.977 79.0147 351.593 79.6765C352.21 80.3505 353.053 80.9326 354.122 81.4228C355.204 81.9252 356.62 82.1765 358.369 82.1765C360.709 82.1765 362.64 81.625 364.162 80.5221C365.685 79.4191 366.446 77.6912 366.446 75.3382V69.6029H366.068C365.741 70.1176 365.276 70.7549 364.672 71.5147C364.081 72.2623 363.225 72.9301 362.105 73.5184C360.998 74.0944 359.501 74.3824 357.614 74.3824C355.273 74.3824 353.172 73.8431 351.31 72.7647C349.461 71.6863 347.995 70.1176 346.913 68.0588C345.844 66 345.309 63.5 345.309 60.5588C345.309 57.6667 345.831 55.1483 346.875 53.0037C347.92 50.8468 349.373 49.1801 351.235 48.0037C353.097 46.8149 355.248 46.2206 357.689 46.2206C359.576 46.2206 361.074 46.527 362.181 47.1397C363.301 47.7402 364.156 48.4265 364.747 49.1985C365.351 49.9583 365.817 50.5833 366.144 51.0735H366.597V46.5882H370.9V75.6324C370.9 78.0588 370.334 80.0319 369.201 81.5515C368.081 83.0833 366.572 84.2047 364.672 84.9154C362.785 85.6385 360.684 86 358.369 86ZM358.218 70.4853C360.004 70.4853 361.514 70.087 362.747 69.2904C363.98 68.4939 364.917 67.348 365.559 65.8529C366.201 64.3578 366.521 62.5686 366.521 60.4853C366.521 58.451 366.207 56.6556 365.578 55.0993C364.949 53.5429 364.018 52.3235 362.785 51.4412C361.552 50.5588 360.029 50.1176 358.218 50.1176C356.33 50.1176 354.758 50.5833 353.499 51.5147C352.254 52.4461 351.317 53.6961 350.688 55.2647C350.071 56.8333 349.763 58.5735 349.763 60.4853C349.763 62.4461 350.077 64.1801 350.706 65.6875C351.348 67.1826 352.292 68.3591 353.537 69.2169C354.795 70.0625 356.355 70.4853 358.218 70.4853Z" fill="#101920"/>
<path d="M399.586 52.9118L395.585 54.0147C395.333 53.3652 394.962 52.7341 394.471 52.1213C393.993 51.4963 393.339 50.9816 392.509 50.5772C391.678 50.1728 390.615 49.9706 389.319 49.9706C387.545 49.9706 386.067 50.3689 384.884 51.1654C383.714 51.9498 383.129 52.9485 383.129 54.1618C383.129 55.2402 383.532 56.0919 384.337 56.7169C385.142 57.3419 386.4 57.8627 388.111 58.2794L392.414 59.3088C395.006 59.9216 396.937 60.8591 398.208 62.1213C399.479 63.3713 400.114 64.9828 400.114 66.9559C400.114 68.5735 399.636 70.0196 398.68 71.2941C397.736 72.5686 396.415 73.5735 394.717 74.3088C393.018 75.0441 391.043 75.4118 388.791 75.4118C385.834 75.4118 383.387 74.7868 381.449 73.5368C379.512 72.2868 378.285 70.4608 377.769 68.0588L381.997 67.0294C382.399 68.549 383.16 69.6887 384.28 70.4485C385.413 71.2083 386.891 71.5882 388.715 71.5882C390.791 71.5882 392.439 71.1593 393.66 70.3015C394.893 69.4314 395.509 68.3897 395.509 67.1765C395.509 66.1961 395.157 65.375 394.452 64.7132C393.748 64.0392 392.666 63.5368 391.206 63.2059L386.375 62.1029C383.72 61.4902 381.77 60.5404 380.525 59.2537C379.292 57.9547 378.675 56.3309 378.675 54.3824C378.675 52.7892 379.134 51.3799 380.053 50.1544C380.984 48.9289 382.248 47.9669 383.846 47.2684C385.457 46.5699 387.281 46.2206 389.319 46.2206C392.188 46.2206 394.44 46.8333 396.075 48.0588C397.724 49.2843 398.894 50.902 399.586 52.9118Z" fill="#101920"/>
<path d="M410.065 75.1176C409.134 75.1176 408.335 74.7929 407.668 74.1434C407.001 73.4939 406.668 72.7157 406.668 71.8088C406.668 70.902 407.001 70.1238 407.668 69.4743C408.335 68.8248 409.134 68.5 410.065 68.5C410.996 68.5 411.795 68.8248 412.461 69.4743C413.128 70.1238 413.462 70.902 413.462 71.8088C413.462 72.4093 413.304 72.9608 412.99 73.4632C412.688 73.9657 412.279 74.3701 411.763 74.6765C411.26 74.9706 410.694 75.1176 410.065 75.1176Z" fill="#101920"/>
<path d="M421.454 74.8235V46.5882H425.908V74.8235H421.454ZM423.719 41.8824C422.851 41.8824 422.102 41.5944 421.473 41.0184C420.856 40.4424 420.548 39.75 420.548 38.9412C420.548 38.1324 420.856 37.44 421.473 36.864C422.102 36.288 422.851 36 423.719 36C424.587 36 425.329 36.288 425.946 36.864C426.575 37.44 426.889 38.1324 426.889 38.9412C426.889 39.75 426.575 40.4424 425.946 41.0184C425.329 41.5944 424.587 41.8824 423.719 41.8824Z" fill="#101920"/>
<path d="M445.842 75.4118C443.225 75.4118 440.929 74.8051 438.953 73.5919C436.991 72.3787 435.456 70.6814 434.349 68.5C433.254 66.3186 432.707 63.7696 432.707 60.8529C432.707 57.9118 433.254 55.3444 434.349 53.1507C435.456 50.9571 436.991 49.2537 438.953 48.0404C440.929 46.8272 443.225 46.2206 445.842 46.2206C448.459 46.2206 450.749 46.8272 452.711 48.0404C454.687 49.2537 456.222 50.9571 457.316 53.1507C458.423 55.3444 458.977 57.9118 458.977 60.8529C458.977 63.7696 458.423 66.3186 457.316 68.5C456.222 70.6814 454.687 72.3787 452.711 73.5919C450.749 74.8051 448.459 75.4118 445.842 75.4118ZM445.842 71.5147C447.83 71.5147 449.465 71.0184 450.749 70.0257C452.032 69.0331 452.982 67.7279 453.598 66.1103C454.215 64.4926 454.523 62.7402 454.523 60.8529C454.523 58.9657 454.215 57.2071 453.598 55.5772C452.982 53.9473 452.032 52.6299 450.749 51.625C449.465 50.6201 447.83 50.1176 445.842 50.1176C443.854 50.1176 442.218 50.6201 440.935 51.625C439.652 52.6299 438.702 53.9473 438.085 55.5772C437.469 57.2071 437.16 58.9657 437.16 60.8529C437.16 62.7402 437.469 64.4926 438.085 66.1103C438.702 67.7279 439.652 69.0331 440.935 70.0257C442.218 71.0184 443.854 71.5147 445.842 71.5147Z" fill="#101920"/>
<path d="M467.904 46.5882L474.849 58.1323L481.794 46.5882H486.927L477.566 60.7059L486.927 74.8235H481.794L474.849 63.8676L467.904 74.8235H462.77L471.98 60.7059L462.77 46.5882H467.904Z" fill="#101920"/>
<path d="M493.282 74.8235V46.5882H497.736V74.8235H493.282ZM495.547 41.8824C494.679 41.8824 493.93 41.5944 493.301 41.0184C492.684 40.4424 492.376 39.75 492.376 38.9412C492.376 38.1324 492.684 37.44 493.301 36.864C493.93 36.288 494.679 36 495.547 36C496.415 36 497.157 36.288 497.774 36.864C498.403 37.44 498.717 38.1324 498.717 38.9412C498.717 39.75 498.403 40.4424 497.774 41.0184C497.157 41.5944 496.415 41.8824 495.547 41.8824Z" fill="#101920"/>
<path d="M517.67 75.4118C515.053 75.4118 512.757 74.8051 510.781 73.5919C508.819 72.3787 507.284 70.6814 506.177 68.5C505.082 66.3186 504.535 63.7696 504.535 60.8529C504.535 57.9118 505.082 55.3444 506.177 53.1507C507.284 50.9571 508.819 49.2537 510.781 48.0404C512.757 46.8272 515.053 46.2206 517.67 46.2206C520.287 46.2206 522.577 46.8272 524.539 48.0404C526.515 49.2537 528.05 50.9571 529.144 53.1507C530.251 55.3444 530.805 57.9118 530.805 60.8529C530.805 63.7696 530.251 66.3186 529.144 68.5C528.05 70.6814 526.515 72.3787 524.539 73.5919C522.577 74.8051 520.287 75.4118 517.67 75.4118ZM517.67 71.5147C519.658 71.5147 521.293 71.0184 522.577 70.0257C523.86 69.0331 524.81 67.7279 525.426 66.1103C526.043 64.4926 526.351 62.7402 526.351 60.8529C526.351 58.9657 526.043 57.2071 525.426 55.5772C524.81 53.9473 523.86 52.6299 522.577 51.625C521.293 50.6201 519.658 50.1176 517.67 50.1176C515.682 50.1176 514.046 50.6201 512.763 51.625C511.48 52.6299 510.53 53.9473 509.913 55.5772C509.297 57.2071 508.989 58.9657 508.989 60.8529C508.989 62.7402 509.297 64.4926 509.913 66.1103C510.53 67.7279 511.48 69.0331 512.763 70.0257C514.046 71.0184 515.682 71.5147 517.67 71.5147Z" fill="#101920"/>
<path d="M540.85 75.1176C539.919 75.1176 539.12 74.7929 538.453 74.1434C537.786 73.4939 537.453 72.7157 537.453 71.8088C537.453 70.902 537.786 70.1238 538.453 69.4743C539.12 68.8248 539.919 68.5 540.85 68.5C541.781 68.5 542.58 68.8248 543.247 69.4743C543.913 70.1238 544.247 70.902 544.247 71.8088C544.247 72.4093 544.09 72.9608 543.775 73.4632C543.473 73.9657 543.064 74.3701 542.548 74.6765C542.045 74.9706 541.479 75.1176 540.85 75.1176Z" fill="#101920"/>
<path d="M563.185 75.4118C560.77 75.4118 558.637 74.8174 556.787 73.6287C554.938 72.4277 553.491 70.7365 552.447 68.5551C551.403 66.3615 550.88 63.7696 550.88 60.7794C550.88 57.8137 551.403 55.2402 552.447 53.0588C553.491 50.8774 554.944 49.1924 556.806 48.0037C558.668 46.8149 560.82 46.2206 563.261 46.2206C565.148 46.2206 566.639 46.527 567.733 47.1397C568.841 47.7402 569.684 48.4265 570.262 49.1985C570.854 49.9583 571.313 50.5833 571.64 51.0735H572.017V37.1765H576.471V74.8235H572.168V70.4853H571.64C571.313 71 570.847 71.6495 570.243 72.4338C569.639 73.2059 568.778 73.8983 567.658 74.511C566.538 75.1115 565.047 75.4118 563.185 75.4118ZM563.789 71.5147C565.576 71.5147 567.085 71.0613 568.318 70.1544C569.551 69.2353 570.489 67.9669 571.13 66.3493C571.772 64.7194 572.093 62.8382 572.093 60.7059C572.093 58.598 571.778 56.7537 571.149 55.1728C570.52 53.5797 569.589 52.3419 568.356 51.4596C567.123 50.565 565.601 50.1176 563.789 50.1176C561.902 50.1176 560.329 50.5895 559.071 51.5331C557.825 52.4645 556.888 53.7328 556.259 55.3382C555.643 56.9314 555.334 58.7206 555.334 60.7059C555.334 62.7157 555.649 64.5417 556.278 66.1838C556.92 67.8137 557.863 69.1127 559.109 70.0809C560.367 71.0368 561.927 71.5147 563.789 71.5147Z" fill="#101920"/>
<path d="M597.401 75.4118C594.608 75.4118 592.198 74.8113 590.173 73.6103C588.16 72.3971 586.606 70.7059 585.511 68.5368C584.429 66.3554 583.888 63.8186 583.888 60.9265C583.888 58.0343 584.429 55.4853 585.511 53.2794C586.606 51.0613 588.128 49.3333 590.078 48.0956C592.041 46.8456 594.331 46.2206 596.948 46.2206C598.458 46.2206 599.948 46.4657 601.42 46.9559C602.893 47.4461 604.232 48.2426 605.44 49.3456C606.648 50.4363 607.611 51.8823 608.328 53.6838C609.045 55.4853 609.403 57.7034 609.403 60.3382V62.1765H587.059V58.4265H604.874C604.874 56.8333 604.547 55.4118 603.893 54.1618C603.251 52.9118 602.333 51.9252 601.137 51.2022C599.955 50.4792 598.558 50.1176 596.948 50.1176C595.174 50.1176 593.639 50.5466 592.343 51.4044C591.06 52.25 590.072 53.3529 589.38 54.7132C588.688 56.0735 588.342 57.5319 588.342 59.0882V61.5882C588.342 63.7206 588.719 65.5282 589.474 67.011C590.242 68.4816 591.305 69.6029 592.664 70.375C594.023 71.1348 595.602 71.5147 597.401 71.5147C598.571 71.5147 599.628 71.3554 600.571 71.0368C601.527 70.7059 602.352 70.2157 603.043 69.5662C603.735 68.9044 604.27 68.0833 604.648 67.1029L608.951 68.2794C608.498 69.701 607.736 70.951 606.667 72.0294C605.598 73.0956 604.276 73.9289 602.704 74.5294C601.131 75.1176 599.363 75.4118 597.401 75.4118Z" fill="#101920"/>
<path d="M639 46.5882L628.281 74.8235H623.751L613.032 46.5882H617.863L625.865 69.0882H626.167L634.169 46.5882H639Z" fill="#101920"/>
<rect width="874.295" height="141.705" transform="translate(29.8525 846.89)" fill="white"/>
<path fill-rule="evenodd" clip-rule="evenodd" d="M343.657 860.056C348.889 856.56 355.041 854.694 361.333 854.694C369.769 854.7 377.858 858.054 383.823 864.02C389.788 869.985 393.142 878.073 393.149 886.509C393.149 892.802 391.283 898.953 387.787 904.185C384.291 909.417 379.322 913.495 373.508 915.903C367.695 918.311 361.298 918.941 355.126 917.713C348.955 916.486 343.286 913.456 338.836 909.006C334.387 904.557 331.357 898.888 330.129 892.716C328.901 886.545 329.531 880.148 331.939 874.334C334.347 868.521 338.425 863.552 343.657 860.056ZM347.957 906.513C351.916 909.159 356.571 910.571 361.333 910.571C367.715 910.568 373.834 908.032 378.348 903.521C382.862 899.009 385.4 892.891 385.407 886.509C385.409 881.747 384 877.092 381.356 873.131C378.712 869.171 374.953 866.083 370.554 864.259C366.156 862.435 361.315 861.957 356.644 862.884C351.973 863.812 347.683 866.104 344.315 869.47C340.947 872.836 338.653 877.126 337.723 881.796C336.793 886.466 337.269 891.307 339.091 895.707C340.912 900.106 343.998 903.867 347.957 906.513ZM289.314 857.452H296.884V916.652H289.314V857.452ZM548.122 857.452H540.553V916.652H548.122V857.452ZM595.194 860.056C600.426 856.56 606.577 854.694 612.87 854.694C621.305 854.704 629.391 858.059 635.356 864.023C641.32 869.988 644.675 878.074 644.685 886.509C644.685 892.802 642.819 898.953 639.323 904.185C635.827 909.417 630.858 913.495 625.045 915.903C619.231 918.311 612.834 918.941 606.663 917.713C600.491 916.486 594.822 913.456 590.373 909.006C585.923 904.557 582.893 898.888 581.665 892.716C580.438 886.545 581.068 880.148 583.476 874.334C585.884 868.521 589.962 863.552 595.194 860.056ZM599.494 906.513C603.453 909.159 608.108 910.571 612.87 910.571C619.251 910.568 625.371 908.032 629.884 903.521C634.398 899.009 636.937 892.891 636.943 886.509C636.946 881.747 635.536 877.092 632.892 873.131C630.248 869.171 626.489 866.083 622.091 864.259C617.692 862.435 612.851 861.957 608.181 862.884C603.51 863.812 599.219 866.104 595.851 869.47C592.483 872.836 590.189 877.126 589.259 881.796C588.329 886.466 588.805 891.307 590.627 895.707C592.449 900.106 595.534 903.867 599.494 906.513ZM423.634 856.762H409.813L453.259 886.362L408.816 916.652H422.625L460.163 891.076L467.068 886.362L460.163 881.661L423.634 856.762ZM497.445 916.65L468.842 897.167L475.722 892.478L511.193 916.65H497.445ZM510.196 856.762H496.436L468.842 875.569L475.722 880.258L510.196 856.762ZM493.909 962.32C493.909 973.301 502.208 980.791 512.127 980.791C521.64 980.791 529.585 973.757 528.674 962.016H514.252V965.711H524.424C523.563 973.352 518.25 976.742 512.329 976.742C504.637 976.742 498.362 970.973 498.362 962.32C498.362 953.666 504.586 948.049 512.329 948.049C515.871 948.049 520.122 949.213 523.108 953.211L526.245 950.883C522.349 945.317 516.63 943.849 512.228 943.849C502.208 943.849 493.909 951.339 493.909 962.32ZM415.682 980.285V948.404H406.168V944.355H429.548V948.404H420.034V980.285H415.682ZM457.883 944.355H462.235L476.505 980.285H471.799L468.56 971.986H451.557L448.318 980.285H443.612L457.883 944.355ZM466.991 967.937L460.059 949.972L453.126 967.937H466.991Z" fill="#101920"/>
<rect x="27.5131" y="29.7449" width="878.974" height="961.19" stroke="white" stroke-width="4.67895"/>
<rect width="755.316" height="59.4894" transform="matrix(4.37114e-08 1 1 -4.37114e-08 29.8525 91.574)" fill="white"/>
<rect width="755.316" height="59.4894" transform="translate(904.146 91.574) rotate(90)" fill="white"/>
<path fill-rule="evenodd" clip-rule="evenodd" d="M30.5247 31.9417H903.476C903.898 31.9417 904.24 32.2802 904.24 32.6977V915.123C904.24 915.541 903.898 915.879 903.476 915.879H668.703V920.416H903.476C906.431 920.416 908.826 918.046 908.826 915.123V32.6977C908.826 29.7748 906.431 27.4053 903.476 27.4053H30.5247C27.5695 27.4053 25.1738 29.7748 25.1738 32.6977V915.123C25.1738 918.046 27.5695 920.416 30.5247 920.416H255.692V915.879H30.5247C30.1025 915.879 29.7603 915.541 29.7603 915.123V32.6977C29.7603 32.2802 30.1025 31.9417 30.5247 31.9417Z" fill="#101920"/>
<rect y="27" width="26" height="961" fill="white"/>
<rect x="908" y="27" width="26" height="961" fill="white"/>
<rect y="29" width="26" height="934" transform="rotate(-90 0 29)" fill="white"/>
<rect y="1014" width="26" height="934" transform="rotate(-90 0 1014)" fill="white"/>
</svg>
