<svg width="1282" height="1415" viewBox="0 0 1282 1415" fill="none" xmlns="http://www.w3.org/2000/svg">
<path fill-rule="evenodd" clip-rule="evenodd" d="M8.17895 7.38107H1273.37C1273.98 7.38107 1274.48 7.87708 1274.48 8.48894V1301.52C1274.48 1302.14 1273.98 1302.63 1273.37 1302.63H933.111V1309.28H1273.37C1277.66 1309.28 1281.13 1305.81 1281.13 1301.52V8.48894C1281.13 4.20591 1277.66 0.733826 1273.37 0.733826H8.17895C3.89591 0.733826 0.423828 4.20588 0.423828 8.48891V1301.52C0.423828 1305.81 3.89591 1309.28 8.17895 1309.28H334.521V1302.63H8.17895C7.56708 1302.63 7.07107 1302.14 7.07107 1301.52V8.48891C7.07107 7.87709 7.56705 7.38107 8.17895 7.38107Z" fill="#101920"/>
<g clip-path="url(#clip0_630_19)">
<path d="M385.494 1229.88H374.17V1318.45H385.494V1229.88Z" fill="#101920"/>
<path d="M481.914 1225.76C472.5 1225.76 463.298 1228.55 455.47 1233.78C447.643 1239.01 441.542 1246.44 437.94 1255.14C434.337 1263.84 433.394 1273.41 435.231 1282.64C437.068 1291.87 441.601 1300.35 448.258 1307.01C454.914 1313.67 463.395 1318.2 472.628 1320.04C481.862 1321.87 491.432 1320.93 500.129 1317.33C508.827 1313.73 516.26 1307.62 521.491 1299.8C526.721 1291.97 529.512 1282.77 529.512 1273.35C529.503 1260.73 524.485 1248.63 515.56 1239.71C506.636 1230.78 494.535 1225.77 481.914 1225.76ZM481.914 1309.35C474.79 1309.35 467.826 1307.24 461.903 1303.28C455.98 1299.32 451.364 1293.7 448.638 1287.11C445.913 1280.53 445.2 1273.29 446.592 1266.3C447.983 1259.31 451.415 1252.9 456.454 1247.86C461.492 1242.83 467.912 1239.4 474.899 1238.01C481.887 1236.62 489.129 1237.34 495.71 1240.07C502.291 1242.79 507.914 1247.41 511.87 1253.34C515.825 1259.26 517.934 1266.23 517.93 1273.35C517.921 1282.9 514.122 1292.05 507.37 1298.8C500.617 1305.55 491.462 1309.35 481.914 1309.35Z" fill="#101920"/>
<path d="M761.363 1229.88H750.039V1318.45H761.363V1229.88Z" fill="#101920"/>
<path d="M858.229 1225.76C848.815 1225.76 839.612 1228.55 831.785 1233.78C823.957 1239.01 817.857 1246.44 814.254 1255.14C810.651 1263.84 809.709 1273.41 811.545 1282.64C813.382 1291.87 817.915 1300.35 824.572 1307.01C831.229 1313.67 839.71 1318.2 848.943 1320.04C858.176 1321.87 867.746 1320.93 876.444 1317.33C885.141 1313.73 892.575 1307.62 897.805 1299.8C903.035 1291.97 905.827 1282.77 905.827 1273.35C905.812 1260.73 900.793 1248.64 891.87 1239.71C882.946 1230.79 870.848 1225.77 858.229 1225.76ZM858.229 1309.35C851.105 1309.35 844.141 1307.24 838.217 1303.28C832.294 1299.32 827.678 1293.7 824.953 1287.11C822.227 1280.53 821.515 1273.29 822.906 1266.3C824.297 1259.31 827.729 1252.9 832.768 1247.86C837.807 1242.83 844.226 1239.4 851.214 1238.01C858.201 1236.62 865.444 1237.34 872.024 1240.07C878.605 1242.79 884.229 1247.41 888.184 1253.34C892.139 1259.26 894.249 1266.23 894.245 1273.35C894.235 1282.9 890.437 1292.05 883.684 1298.8C876.931 1305.55 867.776 1309.35 858.229 1309.35Z" fill="#101920"/>
<path d="M575.121 1228.85H554.443L619.441 1273.13L552.951 1318.45H573.611L629.771 1280.19L640.101 1273.13L629.771 1266.1L575.121 1228.85Z" fill="#101920"/>
<path d="M642.754 1289.3L685.546 1318.45H706.114L653.047 1282.28L642.754 1289.3Z" fill="#101920"/>
<path d="M704.622 1228.85H684.036L642.754 1256.99L653.047 1264L704.622 1228.85Z" fill="#101920"/>
</g>
<path d="M563.225 1413.65V1365.95H548.992V1359.89H583.97V1365.95H569.736V1413.65H563.225Z" fill="#101920"/>
<path d="M626.36 1359.89H632.871L654.221 1413.65H647.18L642.335 1401.23H616.897L612.051 1413.65H605.011L626.36 1359.89ZM619.244 1395.17H639.988L629.616 1368.3L619.244 1395.17Z" fill="#101920"/>
<path d="M707.513 1414.4C692.674 1414.4 680.258 1403.2 680.258 1386.77C680.258 1370.34 692.674 1359.14 707.664 1359.14C714.251 1359.14 722.806 1361.33 728.636 1369.66L723.942 1373.14C719.475 1367.16 713.115 1365.42 707.816 1365.42C696.232 1365.42 686.92 1373.82 686.92 1386.77C686.92 1399.72 696.308 1408.35 707.816 1408.35C716.674 1408.35 724.623 1403.28 725.91 1391.84H710.693V1386.32H732.27C733.632 1403.88 721.746 1414.4 707.513 1414.4Z" fill="#101920"/>
<path d="M427.987 33.7168V38.4315H407.92V33.7168H427.987ZM413.769 25.0418H419.718V59.5532C419.718 61.1248 419.962 62.3035 420.449 63.0892C420.954 63.8593 421.592 64.3779 422.365 64.6451C423.155 64.8965 423.987 65.0223 424.861 65.0223C425.517 65.0223 426.054 64.9908 426.475 64.928C426.895 64.8494 427.231 64.7865 427.483 64.7394L428.693 69.7369C428.29 69.8784 427.727 70.0198 427.004 70.1613C426.281 70.3184 425.365 70.397 424.256 70.397C422.575 70.397 420.928 70.0591 419.315 69.3833C417.718 68.7076 416.391 67.6782 415.332 66.2952C414.29 64.9123 413.769 63.1678 413.769 61.0619V25.0418Z" fill="#101920"/>
<path d="M448.332 70.7742C445.878 70.7742 443.651 70.342 441.651 69.4776C439.651 68.5976 438.063 67.3325 436.886 65.6823C435.71 64.0165 435.122 62.0049 435.122 59.6475C435.122 57.5731 435.559 55.8915 436.433 54.6028C437.307 53.2984 438.475 52.2769 439.937 51.5383C441.399 50.7997 443.012 50.2496 444.777 49.8882C446.559 49.511 448.349 49.2124 450.147 48.9924C452.5 48.7095 454.407 48.4973 455.87 48.3559C457.349 48.1987 458.424 47.9394 459.096 47.578C459.786 47.2165 460.13 46.5879 460.13 45.6921V45.5035C460.13 43.1776 459.449 41.3703 458.088 40.0816C456.744 38.793 454.701 38.1486 451.962 38.1486C449.122 38.1486 446.895 38.7301 445.281 39.893C443.668 41.056 442.533 42.2975 441.878 43.6176L436.231 41.7318C437.239 39.5316 438.584 37.8186 440.265 36.5928C441.962 35.3512 443.811 34.4869 445.811 33.9997C447.828 33.4968 449.811 33.2453 451.76 33.2453C453.004 33.2453 454.433 33.3868 456.046 33.6697C457.676 33.9368 459.248 34.4947 460.76 35.3434C462.29 36.192 463.559 37.4728 464.567 39.1858C465.575 40.8988 466.08 43.1933 466.08 46.0693V69.9255H460.13V65.0223H459.828C459.424 65.808 458.752 66.6488 457.811 67.5446C456.87 68.4404 455.617 69.2026 454.054 69.8312C452.491 70.4599 450.584 70.7742 448.332 70.7742ZM449.239 65.7766C451.592 65.7766 453.575 65.3444 455.189 64.4801C456.819 63.6157 458.046 62.4999 458.87 61.1327C459.71 59.7654 460.13 58.3274 460.13 56.8187V51.7269C459.878 52.0098 459.323 52.2691 458.466 52.5048C457.626 52.7248 456.651 52.9213 455.542 53.0941C454.449 53.2513 453.382 53.3927 452.34 53.5185C451.315 53.6285 450.483 53.7228 449.844 53.8013C448.298 53.9899 446.853 54.2964 445.508 54.7207C444.18 55.1293 443.105 55.7501 442.281 56.583C441.475 57.4002 441.071 58.516 441.071 59.9304C441.071 61.8634 441.836 63.325 443.365 64.3151C444.912 65.2894 446.87 65.7766 449.239 65.7766Z" fill="#101920"/>
<path d="M492.569 84.2581C489.695 84.2581 487.225 83.9124 485.157 83.2209C483.09 82.5451 481.368 81.6493 479.989 80.5335C478.628 79.4335 477.544 78.2548 476.737 76.9975L481.477 73.8859C482.015 74.5459 482.695 75.3003 483.519 76.1489C484.342 77.0133 485.468 77.7597 486.897 78.3884C488.342 79.0327 490.233 79.3549 492.569 79.3549C495.695 79.3549 498.275 78.6477 500.309 77.2333C502.342 75.8189 503.359 73.603 503.359 70.5856V63.2307H502.855C502.418 63.8907 501.796 64.708 500.989 65.6823C500.199 66.641 499.057 67.4975 497.561 68.2518C496.082 68.9905 494.082 69.3598 491.561 69.3598C488.435 69.3598 485.628 68.6683 483.141 67.2853C480.67 65.9023 478.712 63.8907 477.267 61.2505C475.838 58.6103 475.124 55.4043 475.124 51.6326C475.124 47.9237 475.821 44.6942 477.216 41.9439C478.611 39.178 480.552 37.0407 483.04 35.532C485.527 34.0076 488.401 33.2453 491.662 33.2453C494.183 33.2453 496.183 33.6382 497.662 34.424C499.157 35.1941 500.3 36.0742 501.09 37.0642C501.897 38.0386 502.519 38.8401 502.956 39.4687H503.561V33.7168H509.309V70.9628C509.309 74.0744 508.552 76.6046 507.04 78.5534C505.544 80.5178 503.527 81.9558 500.989 82.8673C498.468 83.7945 495.662 84.2581 492.569 84.2581ZM492.368 64.3622C494.754 64.3622 496.771 63.8515 498.418 62.8299C500.065 61.8084 501.317 60.339 502.174 58.4217C503.031 56.5044 503.46 54.2099 503.46 51.5383C503.46 48.9295 503.04 46.6272 502.199 44.6313C501.359 42.6354 500.115 41.0717 498.468 39.9402C496.821 38.8087 494.788 38.2429 492.368 38.2429C489.847 38.2429 487.746 38.8401 486.065 40.0345C484.401 41.2289 483.149 42.8319 482.309 44.8434C481.485 46.855 481.073 49.0867 481.073 51.5383C481.073 54.0528 481.494 56.2765 482.334 58.2096C483.191 60.1269 484.452 61.6356 486.115 62.7356C487.796 63.82 489.88 64.3622 492.368 64.3622Z" fill="#101920"/>
<path d="M547.628 41.8261L542.284 43.2405C541.947 42.4075 541.452 41.5982 540.796 40.8124C540.158 40.0109 539.284 39.3509 538.174 38.8322C537.065 38.3136 535.645 38.0543 533.914 38.0543C531.544 38.0543 529.569 38.5651 527.989 39.5866C526.426 40.5924 525.645 41.8732 525.645 43.429C525.645 44.812 526.183 45.9042 527.258 46.7057C528.334 47.5072 530.015 48.1752 532.3 48.7095L538.048 50.0296C541.51 50.8154 544.09 52.0176 545.788 53.6363C547.485 55.2393 548.334 57.3059 548.334 59.8361C548.334 61.9106 547.695 63.765 546.418 65.3994C545.158 67.0339 543.393 68.3225 541.124 69.2655C538.855 70.2084 536.216 70.6799 533.208 70.6799C529.258 70.6799 525.989 69.8784 523.401 68.2754C520.813 66.6724 519.174 64.3308 518.485 61.2505L524.132 59.9304C524.67 61.8791 525.687 63.3407 527.183 64.3151C528.695 65.2894 530.67 65.7766 533.107 65.7766C535.88 65.7766 538.082 65.2266 539.712 64.1265C541.359 63.0107 542.183 61.6748 542.183 60.119C542.183 58.8618 541.712 57.8088 540.771 56.9602C539.83 56.0958 538.384 55.4515 536.435 55.0271L529.981 53.6127C526.435 52.827 523.83 51.609 522.166 49.9589C520.519 48.293 519.695 46.2107 519.695 43.7119C519.695 41.6689 520.309 39.8616 521.536 38.2901C522.779 36.7185 524.468 35.4848 526.603 34.589C528.754 33.6932 531.191 33.2453 533.914 33.2453C537.746 33.2453 540.754 34.0311 542.939 35.6027C545.141 37.1742 546.704 39.2487 547.628 41.8261Z" fill="#101920"/>
<path d="M561.626 70.3027C560.382 70.3027 559.315 69.8862 558.424 69.0533C557.534 68.2204 557.088 67.2224 557.088 66.0595C557.088 64.8965 557.534 63.8986 558.424 63.0657C559.315 62.2327 560.382 61.8163 561.626 61.8163C562.87 61.8163 563.937 62.2327 564.828 63.0657C565.718 63.8986 566.164 64.8965 566.164 66.0595C566.164 66.8296 565.954 67.5368 565.534 68.1811C565.13 68.8254 564.584 69.344 563.895 69.7369C563.223 70.1141 562.466 70.3027 561.626 70.3027Z" fill="#101920"/>
<path d="M576.84 69.9255V33.7168H582.79V69.9255H576.84ZM579.866 27.682C578.706 27.682 577.706 27.3127 576.866 26.5741C576.042 25.8354 575.63 24.9475 575.63 23.9103C575.63 22.8731 576.042 21.9851 576.866 21.2465C577.706 20.5079 578.706 20.1385 579.866 20.1385C581.025 20.1385 582.017 20.5079 582.84 21.2465C583.681 21.9851 584.101 22.8731 584.101 23.9103C584.101 24.9475 583.681 25.8354 582.84 26.5741C582.017 27.3127 581.025 27.682 579.866 27.682Z" fill="#101920"/>
<path d="M609.418 70.6799C605.922 70.6799 602.855 69.902 600.216 68.3461C597.595 66.7903 595.544 64.6137 594.065 61.8163C592.603 59.0189 591.872 55.7501 591.872 52.0098C591.872 48.238 592.603 44.9456 594.065 42.1325C595.544 39.3194 597.595 37.135 600.216 35.5791C602.855 34.0233 605.922 33.2453 609.418 33.2453C612.914 33.2453 615.973 34.0233 618.595 35.5791C621.233 37.135 623.284 39.3194 624.746 42.1325C626.225 44.9456 626.964 48.238 626.964 52.0098C626.964 55.7501 626.225 59.0189 624.746 61.8163C623.284 64.6137 621.233 66.7903 618.595 68.3461C615.973 69.902 612.914 70.6799 609.418 70.6799ZM609.418 65.6823C612.074 65.6823 614.258 65.0458 615.973 63.7729C617.687 62.4999 618.956 60.8262 619.779 58.7517C620.603 56.6773 621.015 54.43 621.015 52.0098C621.015 49.5896 620.603 47.3344 619.779 45.2442C618.956 43.154 617.687 41.4646 615.973 40.1759C614.258 38.8872 612.074 38.2429 609.418 38.2429C606.763 38.2429 604.578 38.8872 602.863 40.1759C601.149 41.4646 599.88 43.154 599.057 45.2442C598.233 47.3344 597.821 49.5896 597.821 52.0098C597.821 54.43 598.233 56.6773 599.057 58.7517C599.88 60.8262 601.149 62.4999 602.863 63.7729C604.578 65.0458 606.763 65.6823 609.418 65.6823Z" fill="#101920"/>
<path d="M638.889 33.7168L648.166 48.5209L657.443 33.7168H664.301L651.796 51.8212L664.301 69.9255H657.443L648.166 55.8758L638.889 69.9255H632.032L644.334 51.8212L632.032 33.7168H638.889Z" fill="#101920"/>
<path d="M672.79 69.9255V33.7168H678.74V69.9255H672.79ZM675.815 27.682C674.656 27.682 673.656 27.3127 672.815 26.5741C671.992 25.8354 671.58 24.9475 671.58 23.9103C671.58 22.8731 671.992 21.9851 672.815 21.2465C673.656 20.5079 674.656 20.1385 675.815 20.1385C676.975 20.1385 677.966 20.5079 678.79 21.2465C679.63 21.9851 680.051 22.8731 680.051 23.9103C680.051 24.9475 679.63 25.8354 678.79 26.5741C677.966 27.3127 676.975 27.682 675.815 27.682Z" fill="#101920"/>
<path d="M705.368 70.6799C701.872 70.6799 698.805 69.902 696.166 68.3461C693.544 66.7903 691.494 64.6137 690.015 61.8163C688.553 59.0189 687.822 55.7501 687.822 52.0098C687.822 48.238 688.553 44.9456 690.015 42.1325C691.494 39.3194 693.544 37.135 696.166 35.5791C698.805 34.0233 701.872 33.2453 705.368 33.2453C708.864 33.2453 711.922 34.0233 714.544 35.5791C717.183 37.135 719.233 39.3194 720.696 42.1325C722.175 44.9456 722.914 48.238 722.914 52.0098C722.914 55.7501 722.175 59.0189 720.696 61.8163C719.233 64.6137 717.183 66.7903 714.544 68.3461C711.922 69.902 708.864 70.6799 705.368 70.6799ZM705.368 65.6823C708.023 65.6823 710.208 65.0458 711.922 63.7729C713.637 62.4999 714.906 60.8262 715.729 58.7517C716.553 56.6773 716.964 54.43 716.964 52.0098C716.964 49.5896 716.553 47.3344 715.729 45.2442C714.906 43.154 713.637 41.4646 711.922 40.1759C710.208 38.8872 708.023 38.2429 705.368 38.2429C702.712 38.2429 700.527 38.8872 698.813 40.1759C697.099 41.4646 695.83 43.154 695.006 45.2442C694.183 47.3344 693.771 49.5896 693.771 52.0098C693.771 54.43 694.183 56.6773 695.006 58.7517C695.83 60.8262 697.099 62.4999 698.813 63.7729C700.527 65.0458 702.712 65.6823 705.368 65.6823Z" fill="#101920"/>
<path d="M736.332 70.3027C735.088 70.3027 734.021 69.8862 733.13 69.0533C732.24 68.2204 731.794 67.2224 731.794 66.0595C731.794 64.8965 732.24 63.8986 733.13 63.0657C734.021 62.2327 735.088 61.8163 736.332 61.8163C737.576 61.8163 738.643 62.2327 739.534 63.0657C740.425 63.8986 740.87 64.8965 740.87 66.0595C740.87 66.8296 740.66 67.5368 740.24 68.1811C739.836 68.8254 739.29 69.344 738.601 69.7369C737.929 70.1141 737.172 70.3027 736.332 70.3027Z" fill="#101920"/>
<path d="M766.168 70.6799C762.941 70.6799 760.093 69.9177 757.622 68.3933C755.151 66.8531 753.219 64.6844 751.824 61.887C750.429 59.0739 749.731 55.7501 749.731 51.9155C749.731 48.1123 750.429 44.812 751.824 42.0146C753.219 39.2173 755.16 37.0564 757.647 35.532C760.135 34.0076 763.009 33.2453 766.269 33.2453C768.79 33.2453 770.782 33.6382 772.244 34.424C773.723 35.1941 774.849 36.0742 775.622 37.0642C776.412 38.0386 777.025 38.8401 777.462 39.4687H777.967V21.6472H783.916V69.9255H778.168V64.3622H777.462C777.025 65.0223 776.404 65.8552 775.597 66.861C774.79 67.8511 773.639 68.739 772.143 69.5248C770.647 70.2948 768.656 70.6799 766.168 70.6799ZM766.975 65.6823C769.362 65.6823 771.378 65.1008 773.025 63.9379C774.673 62.7592 775.925 61.1327 776.782 59.0582C777.639 56.968 778.067 54.5557 778.067 51.8212C778.067 49.1181 777.647 46.7529 776.807 44.7256C775.967 42.6826 774.723 41.0953 773.076 39.9638C771.429 38.8165 769.395 38.2429 766.975 38.2429C764.454 38.2429 762.353 38.848 760.673 40.0581C759.009 41.2524 757.757 42.879 756.916 44.9377C756.093 46.9808 755.681 49.2752 755.681 51.8212C755.681 54.3985 756.101 56.7401 756.941 58.846C757.799 60.9362 759.059 62.6021 760.723 63.8436C762.404 65.0694 764.488 65.6823 766.975 65.6823Z" fill="#101920"/>
<path d="M811.874 70.6799C808.143 70.6799 804.925 69.9098 802.219 68.3697C799.53 66.8138 797.454 64.6451 795.992 61.8634C794.546 59.0661 793.824 55.8129 793.824 52.104C793.824 48.3952 794.546 45.1263 795.992 42.2975C797.454 39.453 799.488 37.2371 802.093 35.6498C804.715 34.0468 807.773 33.2453 811.269 33.2453C813.286 33.2453 815.278 33.5597 817.244 34.1883C819.21 34.8169 821 35.8384 822.614 37.2528C824.227 38.6515 825.513 40.5059 826.471 42.8161C827.429 45.1263 827.908 47.9708 827.908 51.3497V53.707H798.059V48.8981H821.857C821.857 46.855 821.42 45.032 820.547 43.429C819.689 41.8261 818.462 40.561 816.866 39.6337C815.286 38.7065 813.42 38.2429 811.269 38.2429C808.899 38.2429 806.849 38.7929 805.118 39.893C803.404 40.9774 802.084 42.3918 801.16 44.1362C800.236 45.8807 799.773 47.7508 799.773 49.7467V52.9527C799.773 55.6872 800.278 58.0053 801.286 59.9068C802.311 61.7927 803.731 63.2307 805.547 64.2208C807.362 65.1951 809.471 65.6823 811.874 65.6823C813.437 65.6823 814.849 65.478 816.11 65.0694C817.387 64.6451 818.488 64.0165 819.412 63.1835C820.336 62.3349 821.051 61.282 821.555 60.0247L827.303 61.5334C826.698 63.3564 825.681 64.9594 824.252 66.3424C822.824 67.7096 821.059 68.7783 818.958 69.5484C816.857 70.3027 814.496 70.6799 811.874 70.6799Z" fill="#101920"/>
<path d="M867.444 33.7168L853.124 69.9255H847.074L832.755 33.7168H839.208L849.897 62.5706H850.301L860.99 33.7168H867.444Z" fill="#101920"/>
<path d="M41.9348 796.431C39.6072 796.719 37.8003 797.887 36.514 799.936C35.2277 801.984 34.5845 804.497 34.5845 807.474C34.5845 809.65 34.9214 811.555 35.5952 813.187C36.269 814.803 37.1954 816.068 38.3745 816.98C39.5536 817.876 40.8935 818.324 42.3942 818.324C43.6498 818.324 44.7294 818.012 45.6329 817.388C46.521 816.748 47.2637 815.932 47.8609 814.939C48.4428 813.947 48.9251 812.907 49.308 811.819C49.6755 810.73 49.9741 809.73 50.2038 808.818L51.4901 803.825C51.8116 802.544 52.2557 801.12 52.8223 799.552C53.3889 797.967 54.1622 796.455 55.1422 795.015C56.1069 793.558 57.3473 792.358 58.8633 791.414C60.3793 790.47 62.2398 789.997 64.4449 789.997C66.9868 789.997 69.2838 790.694 71.3357 792.086C73.3876 793.462 75.0185 795.479 76.2282 798.135C77.4379 800.776 78.0428 803.985 78.0428 807.762C78.0428 811.283 77.4992 814.331 76.412 816.908C75.3247 819.468 73.8088 821.485 71.864 822.957C69.9193 824.414 67.6606 825.238 65.088 825.43L65.088 819.284C66.8643 819.124 68.3344 818.5 69.4981 817.412C70.6466 816.308 71.5041 814.915 72.0707 813.235C72.622 811.539 72.8976 809.714 72.8976 807.762C72.8976 805.489 72.5454 803.449 71.841 801.64C71.1213 799.832 70.126 798.399 68.855 797.343C67.5687 796.287 66.068 795.759 64.353 795.759C62.7911 795.759 61.5201 796.215 60.54 797.127C59.56 798.039 58.7637 799.24 58.1512 800.728C57.5387 802.216 57.0028 803.825 56.5434 805.553L54.8896 811.603C53.833 815.444 52.3246 818.484 50.3646 820.725C48.4045 822.965 45.8396 824.086 42.6698 824.086C40.036 824.086 37.739 823.341 35.779 821.853C33.8036 820.349 32.2723 818.332 31.1851 815.804C30.0825 813.259 29.5312 810.418 29.5312 807.282C29.5312 804.113 30.0749 801.296 31.1621 798.832C32.234 796.367 33.704 794.414 35.5722 792.974C37.4404 791.518 39.5613 790.75 41.9348 790.67L41.9348 796.431Z" fill="#101920"/>
<path d="M30.1744 754.99L77.2159 754.99L77.2159 760.943L30.1744 760.943L30.1744 754.99Z" fill="#101920"/>
<path d="M44.8749 690.179C43.3282 690.707 41.9424 691.403 40.7174 692.267C39.477 693.115 38.4204 694.132 37.5476 695.316C36.6748 696.484 36.0086 697.812 35.5492 699.301C35.0899 700.789 34.8602 702.422 34.8602 704.198C34.8602 707.111 35.5799 709.759 37.0193 712.144C38.4587 714.528 40.5796 716.425 43.3818 717.833C46.1841 719.242 49.6219 719.946 53.6951 719.946C57.7684 719.946 61.2062 719.234 64.0084 717.809C66.8107 716.385 68.9316 714.456 70.371 712.024C71.8104 709.591 72.5301 706.855 72.5301 703.814C72.5301 700.997 71.9559 698.517 70.8074 696.372C69.6436 694.212 68.0051 692.531 65.8919 691.331C63.7634 690.115 61.2598 689.506 58.3809 689.506L58.7484 687.682L58.7484 702.47L53.6951 702.47L53.6951 683.745L58.7484 683.745C62.6226 683.745 65.9915 684.609 68.855 686.338C71.7185 688.05 73.9389 690.419 75.5161 693.443C77.0781 696.452 77.859 699.909 77.859 703.814C77.859 708.167 76.879 711.992 74.9189 715.289C72.9589 718.569 70.1719 721.13 66.558 722.97C62.9442 724.795 58.6565 725.707 53.6951 725.707C49.9741 725.707 46.6282 725.187 43.6575 724.147C40.6714 723.09 38.1295 721.602 36.0316 719.682C33.9337 717.761 32.3259 715.489 31.208 712.864C30.0902 710.239 29.5312 707.351 29.5312 704.198C29.5312 701.605 29.9064 699.189 30.6567 696.948C31.3918 694.692 32.4407 692.683 33.8036 690.923C35.1511 689.146 36.7666 687.666 38.6501 686.482C40.5183 685.297 42.5932 684.481 44.8749 684.033L44.8749 690.179Z" fill="#101920"/>
<path d="M30.1744 615.297L77.2159 615.297L77.2159 621.059L40.281 647.849L40.281 648.329L77.2159 648.329L77.2159 654.283L30.1744 654.283L30.1744 648.521L67.2012 621.635L67.2012 621.155L30.1744 621.155L30.1744 615.297Z" fill="#101920"/>
<path d="M77.2159 584.118L30.1744 584.118L30.1744 554.447L35.2277 554.447L35.2277 578.165L51.1226 578.165L51.1226 555.983L56.1758 555.983L56.1758 578.165L72.1626 578.165L72.1626 554.063L77.2159 554.063L77.2159 584.118Z" fill="#101920"/>
<path d="M77.2159 509.279L77.2159 524.45L30.1744 524.451L30.1744 508.607C30.1744 503.838 31.1161 499.757 32.9996 496.364C34.8678 492.971 37.5552 490.37 41.0619 488.562C44.5533 486.753 48.7337 485.849 53.6033 485.849C58.5034 485.849 62.7221 486.761 66.2594 488.586C69.7814 490.41 72.4918 493.067 74.3906 496.556C76.2741 500.045 77.2159 504.286 77.2159 509.279ZM72.1626 518.497L72.1626 509.663C72.1626 505.598 71.4123 502.229 69.9116 499.557C68.4109 496.884 66.2748 494.891 63.5031 493.579C60.7314 492.267 57.4315 491.611 53.6033 491.611C49.8056 491.611 46.5363 492.259 43.7953 493.555C41.0389 494.851 38.9258 496.788 37.4557 499.364C35.9703 501.941 35.2277 505.15 35.2277 508.991L35.2277 518.497L72.1626 518.497Z" fill="#101920"/>
<path d="M1249.32 514.848C1251.65 514.56 1253.45 513.392 1254.74 511.343C1256.03 509.295 1256.67 506.782 1256.67 503.805C1256.67 501.629 1256.33 499.724 1255.66 498.092C1254.98 496.476 1254.06 495.211 1252.88 494.299C1251.7 493.403 1250.36 492.955 1248.86 492.955C1247.6 492.955 1246.52 493.267 1245.62 493.891C1244.73 494.531 1243.99 495.347 1243.39 496.34C1242.81 497.332 1242.33 498.372 1241.95 499.46C1241.58 500.549 1241.28 501.549 1241.05 502.461L1239.76 507.454C1239.44 508.735 1239 510.159 1238.43 511.727C1237.87 513.312 1237.09 514.824 1236.11 516.264C1235.15 517.721 1233.91 518.921 1232.39 519.865C1230.87 520.809 1229.01 521.282 1226.81 521.282C1224.27 521.282 1221.97 520.585 1219.92 519.193C1217.87 517.817 1216.24 515.8 1215.03 513.144C1213.82 510.503 1213.21 507.294 1213.21 503.517C1213.21 499.996 1213.75 496.948 1214.84 494.371C1215.93 491.811 1217.45 489.794 1219.39 488.322C1221.33 486.865 1223.59 486.041 1226.17 485.849L1226.17 491.995C1224.39 492.155 1222.92 492.779 1221.76 493.867C1220.61 494.971 1219.75 496.364 1219.18 498.044C1218.63 499.74 1218.36 501.565 1218.36 503.517C1218.36 505.79 1218.71 507.83 1219.41 509.639C1220.13 511.447 1221.13 512.88 1222.4 513.936C1223.69 514.992 1225.19 515.52 1226.9 515.52C1228.46 515.52 1229.73 515.064 1230.71 514.152C1231.69 513.24 1232.49 512.039 1233.1 510.551C1233.72 509.063 1234.25 507.454 1234.71 505.726L1236.36 499.676C1237.42 495.835 1238.93 492.795 1240.89 490.554C1242.85 488.314 1245.41 487.193 1248.58 487.193C1251.22 487.193 1253.51 487.938 1255.47 489.426C1257.45 490.93 1258.98 492.947 1260.07 495.475C1261.17 498.02 1261.72 500.861 1261.72 503.997C1261.72 507.166 1261.18 509.983 1260.09 512.447C1259.02 514.912 1257.55 516.865 1255.68 518.305C1253.81 519.761 1251.69 520.529 1249.32 520.609L1249.32 514.848Z" fill="#101920"/>
<path d="M1261.08 556.289L1214.04 556.289L1214.04 550.336L1261.08 550.336L1261.08 556.289Z" fill="#101920"/>
<path d="M1246.38 621.1C1247.93 620.572 1249.31 619.876 1250.54 619.012C1251.78 618.164 1252.83 617.147 1253.71 615.963C1254.58 614.795 1255.25 613.467 1255.7 611.978C1256.16 610.49 1256.39 608.857 1256.39 607.081C1256.39 604.168 1255.67 601.52 1254.23 599.135C1252.8 596.751 1250.67 594.854 1247.87 593.446C1245.07 592.037 1241.63 591.333 1237.56 591.333C1233.49 591.333 1230.05 592.045 1227.25 593.47C1224.44 594.894 1222.32 596.823 1220.88 599.255C1219.44 601.688 1218.72 604.424 1218.72 607.465C1218.72 610.282 1219.3 612.762 1220.45 614.907C1221.61 617.067 1223.25 618.748 1225.36 619.948C1227.49 621.164 1229.99 621.773 1232.87 621.773L1232.51 623.597L1232.51 608.809L1237.56 608.809L1237.56 627.534L1232.51 627.534C1228.63 627.534 1225.26 626.67 1222.4 624.941C1219.54 623.229 1217.31 620.86 1215.74 617.836C1214.18 614.827 1213.39 611.37 1213.39 607.465C1213.39 603.112 1214.37 599.287 1216.33 595.99C1218.3 592.71 1221.08 590.149 1224.7 588.309C1228.31 586.484 1232.6 585.572 1237.56 585.572C1241.28 585.572 1244.63 586.092 1247.6 587.132C1250.58 588.189 1253.12 589.677 1255.22 591.597C1257.32 593.518 1258.93 595.79 1260.05 598.415C1261.16 601.04 1261.72 603.928 1261.72 607.081C1261.72 609.674 1261.35 612.09 1260.6 614.331C1259.86 616.587 1258.81 618.596 1257.45 620.356C1256.1 622.133 1254.49 623.613 1252.6 624.797C1250.74 625.982 1248.66 626.798 1246.38 627.246L1246.38 621.1Z" fill="#101920"/>
<path d="M1261.08 695.982L1214.04 695.982L1214.04 690.22L1250.97 663.43L1250.97 662.95L1214.04 662.95L1214.04 656.996L1261.08 656.996L1261.08 662.758L1224.05 689.644L1224.05 690.124L1261.08 690.124L1261.08 695.982Z" fill="#101920"/>
<path d="M1214.04 727.161L1261.08 727.161L1261.08 756.832L1256.03 756.832L1256.03 733.114L1240.13 733.114L1240.13 755.296L1235.08 755.296L1235.08 733.114L1219.09 733.114L1219.09 757.216L1214.04 757.216L1214.04 727.161Z" fill="#101920"/>
<path d="M1214.04 802L1214.04 786.829L1261.08 786.829L1261.08 802.672C1261.08 807.441 1260.14 811.522 1258.25 814.915C1256.39 818.308 1253.7 820.909 1250.19 822.717C1246.7 824.526 1242.52 825.43 1237.65 825.43C1232.75 825.43 1228.53 824.518 1224.99 822.693C1221.47 820.869 1218.76 818.212 1216.86 814.723C1214.98 811.234 1214.04 806.993 1214.04 802ZM1219.09 792.782L1219.09 801.616C1219.09 805.681 1219.84 809.05 1221.34 811.723C1222.84 814.395 1224.98 816.388 1227.75 817.7C1230.52 819.012 1233.82 819.668 1237.65 819.668C1241.45 819.668 1244.72 819.02 1247.46 817.724C1250.21 816.428 1252.33 814.491 1253.8 811.915C1255.28 809.338 1256.03 806.129 1256.03 802.288L1256.03 792.782L1219.09 792.782Z" fill="#101920"/>
<defs>
<clipPath id="clip0_630_19">
<rect width="531.679" height="95.1775" fill="white" transform="translate(374.18 1225.76)"/>
</clipPath>
</defs>
</svg>
