<svg width="1402" height="1520" viewBox="0 0 1402 1520" fill="none" xmlns="http://www.w3.org/2000/svg">
<rect width="1308" height="1431" transform="translate(47 48)" fill="white"/>
<rect width="1308" height="89" transform="translate(47 48)" fill="white"/>
<path d="M491.067 73.5529V78.2588H471V73.5529H491.067ZM476.849 64.8941H482.798V99.3412C482.798 100.91 483.042 102.086 483.529 102.871C484.034 103.639 484.672 104.157 485.445 104.424C486.235 104.675 487.067 104.8 487.941 104.8C488.597 104.8 489.134 104.769 489.555 104.706C489.975 104.627 490.311 104.565 490.563 104.518L491.773 109.506C491.37 109.647 490.807 109.788 490.084 109.929C489.361 110.086 488.445 110.165 487.336 110.165C485.655 110.165 484.008 109.827 482.395 109.153C480.798 108.478 479.471 107.451 478.412 106.071C477.37 104.69 476.849 102.949 476.849 100.847V64.8941Z" fill="#101920"/>
<path d="M511.412 110.541C508.958 110.541 506.731 110.11 504.731 109.247C502.731 108.369 501.143 107.106 499.966 105.459C498.79 103.796 498.202 101.788 498.202 99.4353C498.202 97.3647 498.639 95.6863 499.513 94.4C500.387 93.098 501.555 92.0784 503.017 91.3412C504.479 90.6039 506.092 90.0549 507.857 89.6941C509.639 89.3176 511.429 89.0196 513.227 88.8C515.58 88.5176 517.487 88.3059 518.95 88.1647C520.429 88.0078 521.504 87.749 522.177 87.3882C522.866 87.0275 523.21 86.4 523.21 85.5059V85.3176C523.21 82.9961 522.529 81.1922 521.168 79.9059C519.824 78.6196 517.782 77.9765 515.042 77.9765C512.202 77.9765 509.975 78.5569 508.361 79.7176C506.748 80.8784 505.613 82.1176 504.958 83.4353L499.311 81.5529C500.319 79.3569 501.664 77.6471 503.345 76.4235C505.042 75.1843 506.891 74.3216 508.891 73.8353C510.908 73.3333 512.891 73.0824 514.84 73.0824C516.084 73.0824 517.513 73.2235 519.126 73.5059C520.756 73.7725 522.328 74.3294 523.84 75.1765C525.37 76.0235 526.639 77.302 527.647 79.0118C528.656 80.7216 529.16 83.0118 529.16 85.8824V109.694H523.21V104.8H522.908C522.504 105.584 521.832 106.424 520.891 107.318C519.95 108.212 518.698 108.973 517.135 109.6C515.571 110.227 513.664 110.541 511.412 110.541ZM512.319 105.553C514.672 105.553 516.656 105.122 518.269 104.259C519.899 103.396 521.126 102.282 521.95 100.918C522.79 99.5529 523.21 98.1176 523.21 96.6118V91.5294C522.958 91.8118 522.403 92.0706 521.546 92.3059C520.706 92.5255 519.731 92.7216 518.622 92.8941C517.529 93.051 516.462 93.1922 515.42 93.3176C514.395 93.4275 513.563 93.5216 512.924 93.6C511.378 93.7882 509.933 94.0941 508.588 94.5176C507.261 94.9255 506.185 95.5451 505.361 96.3765C504.555 97.1922 504.151 98.3059 504.151 99.7176C504.151 101.647 504.916 103.106 506.445 104.094C507.992 105.067 509.95 105.553 512.319 105.553Z" fill="#101920"/>
<path d="M555.649 124C552.775 124 550.305 123.655 548.237 122.965C546.17 122.29 544.448 121.396 543.069 120.282C541.708 119.184 540.624 118.008 539.817 116.753L544.557 113.647C545.095 114.306 545.775 115.059 546.599 115.906C547.422 116.769 548.548 117.514 549.977 118.141C551.422 118.784 553.313 119.106 555.649 119.106C558.775 119.106 561.355 118.4 563.389 116.988C565.422 115.576 566.439 113.365 566.439 110.353V103.012H565.935C565.498 103.671 564.876 104.486 564.069 105.459C563.28 106.416 562.137 107.271 560.641 108.024C559.162 108.761 557.162 109.129 554.641 109.129C551.515 109.129 548.708 108.439 546.221 107.059C543.75 105.678 541.792 103.671 540.347 101.035C538.918 98.4 538.204 95.2 538.204 91.4353C538.204 87.7333 538.901 84.5098 540.296 81.7647C541.691 79.0039 543.632 76.8706 546.12 75.3647C548.607 73.8431 551.481 73.0824 554.742 73.0824C557.263 73.0824 559.263 73.4745 560.742 74.2588C562.238 75.0274 563.38 75.9059 564.17 76.8941C564.977 77.8667 565.599 78.6667 566.036 79.2941H566.641V73.5529H572.389V110.729C572.389 113.835 571.632 116.361 570.12 118.306C568.624 120.267 566.607 121.702 564.069 122.612C561.548 123.537 558.742 124 555.649 124ZM555.448 104.141C557.834 104.141 559.851 103.631 561.498 102.612C563.145 101.592 564.397 100.125 565.254 98.2118C566.111 96.298 566.54 94.0078 566.54 91.3412C566.54 88.7373 566.12 86.4392 565.28 84.4471C564.439 82.4549 563.196 80.8941 561.548 79.7647C559.901 78.6353 557.868 78.0706 555.448 78.0706C552.927 78.0706 550.826 78.6667 549.145 79.8588C547.481 81.051 546.229 82.651 545.389 84.6588C544.565 86.6667 544.153 88.8941 544.153 91.3412C544.153 93.851 544.574 96.0706 545.414 98C546.271 99.9137 547.532 101.42 549.195 102.518C550.876 103.6 552.96 104.141 555.448 104.141Z" fill="#101920"/>
<path d="M610.708 81.6471L605.364 83.0588C605.027 82.2274 604.532 81.4196 603.876 80.6353C603.238 79.8353 602.364 79.1765 601.254 78.6588C600.145 78.1412 598.725 77.8824 596.994 77.8824C594.624 77.8824 592.649 78.3922 591.069 79.4118C589.506 80.4157 588.725 81.6941 588.725 83.2471C588.725 84.6275 589.263 85.7176 590.338 86.5176C591.414 87.3176 593.095 87.9843 595.38 88.5176L601.128 89.8353C604.591 90.6196 607.17 91.8196 608.868 93.4353C610.565 95.0353 611.414 97.098 611.414 99.6235C611.414 101.694 610.775 103.545 609.498 105.176C608.238 106.808 606.473 108.094 604.204 109.035C601.935 109.976 599.296 110.447 596.288 110.447C592.338 110.447 589.069 109.647 586.481 108.047C583.893 106.447 582.254 104.11 581.565 101.035L587.212 99.7176C587.75 101.663 588.767 103.122 590.263 104.094C591.775 105.067 593.75 105.553 596.187 105.553C598.96 105.553 601.162 105.004 602.792 103.906C604.439 102.792 605.263 101.459 605.263 99.9059C605.263 98.651 604.792 97.6 603.851 96.7529C602.91 95.8902 601.464 95.2471 599.515 94.8235L593.061 93.4118C589.515 92.6274 586.91 91.4118 585.246 89.7647C583.599 88.102 582.775 86.0235 582.775 83.5294C582.775 81.4902 583.389 79.6863 584.616 78.1176C585.859 76.549 587.548 75.3176 589.683 74.4235C591.834 73.5294 594.271 73.0824 596.994 73.0824C600.826 73.0824 603.834 73.8667 606.019 75.4353C608.221 77.0039 609.784 79.0745 610.708 81.6471Z" fill="#101920"/>
<path d="M624.706 110.071C623.462 110.071 622.395 109.655 621.504 108.824C620.614 107.992 620.168 106.996 620.168 105.835C620.168 104.675 620.614 103.678 621.504 102.847C622.395 102.016 623.462 101.6 624.706 101.6C625.95 101.6 627.017 102.016 627.908 102.847C628.799 103.678 629.244 104.675 629.244 105.835C629.244 106.604 629.034 107.31 628.614 107.953C628.21 108.596 627.664 109.114 626.975 109.506C626.303 109.882 625.546 110.071 624.706 110.071Z" fill="#101920"/>
<path d="M639.92 109.694V73.5529H645.87V109.694H639.92ZM642.946 67.5294C641.786 67.5294 640.786 67.1608 639.946 66.4235C639.122 65.6863 638.71 64.8 638.71 63.7647C638.71 62.7294 639.122 61.8431 639.946 61.1059C640.786 60.3686 641.786 60 642.946 60C644.105 60 645.097 60.3686 645.92 61.1059C646.761 61.8431 647.181 62.7294 647.181 63.7647C647.181 64.8 646.761 65.6863 645.92 66.4235C645.097 67.1608 644.105 67.5294 642.946 67.5294Z" fill="#101920"/>
<path d="M672.498 110.447C669.002 110.447 665.935 109.671 663.296 108.118C660.675 106.565 658.624 104.392 657.145 101.6C655.683 98.8078 654.952 95.5451 654.952 91.8118C654.952 88.0471 655.683 84.7608 657.145 81.9529C658.624 79.1451 660.675 76.9647 663.296 75.4118C665.935 73.8588 669.002 73.0824 672.498 73.0824C675.994 73.0824 679.053 73.8588 681.675 75.4118C684.313 76.9647 686.364 79.1451 687.826 81.9529C689.305 84.7608 690.044 88.0471 690.044 91.8118C690.044 95.5451 689.305 98.8078 687.826 101.6C686.364 104.392 684.313 106.565 681.675 108.118C679.053 109.671 675.994 110.447 672.498 110.447ZM672.498 105.459C675.154 105.459 677.339 104.824 679.053 103.553C680.767 102.282 682.036 100.612 682.86 98.5412C683.683 96.4706 684.095 94.2275 684.095 91.8118C684.095 89.3961 683.683 87.1451 682.86 85.0588C682.036 82.9726 680.767 81.2863 679.053 80C677.339 78.7137 675.154 78.0706 672.498 78.0706C669.843 78.0706 667.658 78.7137 665.944 80C664.229 81.2863 662.96 82.9726 662.137 85.0588C661.313 87.1451 660.902 89.3961 660.902 91.8118C660.902 94.2275 661.313 96.4706 662.137 98.5412C662.96 100.612 664.229 102.282 665.944 103.553C667.658 104.824 669.843 105.459 672.498 105.459Z" fill="#101920"/>
<path d="M701.969 73.5529L711.246 88.3294L720.523 73.5529H727.381L714.876 91.6235L727.381 109.694H720.523L711.246 95.6706L701.969 109.694H695.112L707.414 91.6235L695.112 73.5529H701.969Z" fill="#101920"/>
<path d="M735.87 109.694V73.5529H741.82V109.694H735.87ZM738.895 67.5294C737.736 67.5294 736.736 67.1608 735.895 66.4235C735.072 65.6863 734.66 64.8 734.66 63.7647C734.66 62.7294 735.072 61.8431 735.895 61.1059C736.736 60.3686 737.736 60 738.895 60C740.055 60 741.047 60.3686 741.87 61.1059C742.71 61.8431 743.131 62.7294 743.131 63.7647C743.131 64.8 742.71 65.6863 741.87 66.4235C741.047 67.1608 740.055 67.5294 738.895 67.5294Z" fill="#101920"/>
<path d="M768.448 110.447C764.952 110.447 761.885 109.671 759.246 108.118C756.624 106.565 754.574 104.392 753.095 101.6C751.633 98.8078 750.902 95.5451 750.902 91.8118C750.902 88.0471 751.633 84.7608 753.095 81.9529C754.574 79.1451 756.624 76.9647 759.246 75.4118C761.885 73.8588 764.952 73.0824 768.448 73.0824C771.944 73.0824 775.003 73.8588 777.624 75.4118C780.263 76.9647 782.313 79.1451 783.776 81.9529C785.255 84.7608 785.994 88.0471 785.994 91.8118C785.994 95.5451 785.255 98.8078 783.776 101.6C782.313 104.392 780.263 106.565 777.624 108.118C775.003 109.671 771.944 110.447 768.448 110.447ZM768.448 105.459C771.103 105.459 773.288 104.824 775.003 103.553C776.717 102.282 777.986 100.612 778.809 98.5412C779.633 96.4706 780.045 94.2275 780.045 91.8118C780.045 89.3961 779.633 87.1451 778.809 85.0588C777.986 82.9726 776.717 81.2863 775.003 80C773.288 78.7137 771.103 78.0706 768.448 78.0706C765.792 78.0706 763.608 78.7137 761.893 80C760.179 81.2863 758.91 82.9726 758.087 85.0588C757.263 87.1451 756.851 89.3961 756.851 91.8118C756.851 94.2275 757.263 96.4706 758.087 98.5412C758.91 100.612 760.179 102.282 761.893 103.553C763.608 104.824 765.792 105.459 768.448 105.459Z" fill="#101920"/>
<path d="M799.412 110.071C798.168 110.071 797.101 109.655 796.211 108.824C795.32 107.992 794.874 106.996 794.874 105.835C794.874 104.675 795.32 103.678 796.211 102.847C797.101 102.016 798.168 101.6 799.412 101.6C800.656 101.6 801.723 102.016 802.614 102.847C803.505 103.678 803.95 104.675 803.95 105.835C803.95 106.604 803.74 107.31 803.32 107.953C802.916 108.596 802.37 109.114 801.681 109.506C801.009 109.882 800.253 110.071 799.412 110.071Z" fill="#101920"/>
<path d="M829.248 110.447C826.021 110.447 823.173 109.686 820.702 108.165C818.232 106.627 816.299 104.463 814.904 101.671C813.509 98.8627 812.811 95.5451 812.811 91.7176C812.811 87.9216 813.509 84.6274 814.904 81.8353C816.299 79.0431 818.24 76.8863 820.727 75.3647C823.215 73.8431 826.089 73.0824 829.349 73.0824C831.87 73.0824 833.862 73.4745 835.324 74.2588C836.803 75.0274 837.929 75.9059 838.702 76.8941C839.492 77.8667 840.106 78.6667 840.543 79.2941H841.047V61.5059H846.996V109.694H841.248V104.141H840.543C840.106 104.8 839.484 105.631 838.677 106.635C837.87 107.624 836.719 108.51 835.223 109.294C833.727 110.063 831.736 110.447 829.248 110.447ZM830.055 105.459C832.442 105.459 834.458 104.878 836.106 103.718C837.753 102.541 839.005 100.918 839.862 98.8471C840.719 96.7608 841.148 94.3529 841.148 91.6235C841.148 88.9255 840.727 86.5647 839.887 84.5412C839.047 82.502 837.803 80.9176 836.156 79.7882C834.509 78.6431 832.475 78.0706 830.055 78.0706C827.534 78.0706 825.433 78.6745 823.753 79.8824C822.089 81.0745 820.837 82.698 819.996 84.7529C819.173 86.7922 818.761 89.0823 818.761 91.6235C818.761 94.1961 819.181 96.5333 820.021 98.6353C820.879 100.722 822.139 102.384 823.803 103.624C825.484 104.847 827.568 105.459 830.055 105.459Z" fill="#101920"/>
<path d="M874.954 110.447C871.223 110.447 868.005 109.678 865.299 108.141C862.61 106.588 860.534 104.424 859.072 101.647C857.627 98.8549 856.904 95.6078 856.904 91.9059C856.904 88.2039 857.627 84.9412 859.072 82.1176C860.534 79.2784 862.568 77.0667 865.173 75.4824C867.795 73.8824 870.853 73.0824 874.349 73.0824C876.366 73.0824 878.358 73.3961 880.324 74.0235C882.29 74.651 884.08 75.6706 885.694 77.0824C887.307 78.4784 888.593 80.3294 889.551 82.6353C890.509 84.9412 890.988 87.7804 890.988 91.1529V93.5059H861.139V88.7059H884.938C884.938 86.6667 884.501 84.8471 883.627 83.2471C882.769 81.6471 881.543 80.3843 879.946 79.4588C878.366 78.5333 876.501 78.0706 874.349 78.0706C871.98 78.0706 869.929 78.6196 868.198 79.7176C866.484 80.8 865.164 82.2118 864.24 83.9529C863.316 85.6941 862.853 87.5608 862.853 89.5529V92.7529C862.853 95.4824 863.358 97.7961 864.366 99.6941C865.391 101.576 866.811 103.012 868.627 104C870.442 104.973 872.551 105.459 874.954 105.459C876.517 105.459 877.929 105.255 879.19 104.847C880.467 104.424 881.568 103.796 882.492 102.965C883.417 102.118 884.131 101.067 884.635 99.8118L890.383 101.318C889.778 103.137 888.761 104.737 887.332 106.118C885.904 107.482 884.139 108.549 882.038 109.318C879.938 110.071 877.576 110.447 874.954 110.447Z" fill="#101920"/>
<path d="M930.524 73.5529L916.204 109.694H910.154L895.835 73.5529H902.288L912.977 102.353H913.381L924.07 73.5529H930.524Z" fill="#101920"/>
<rect width="1308" height="212" transform="translate(47 1267)" fill="white"/>
<path fill-rule="evenodd" clip-rule="evenodd" d="M516.472 1286.7C524.3 1281.47 533.502 1278.68 542.916 1278.68C555.537 1278.69 567.638 1283.7 576.562 1292.63C585.487 1301.55 590.505 1313.65 590.514 1326.27C590.514 1335.69 587.723 1344.89 582.493 1352.72C577.262 1360.54 569.829 1366.65 561.131 1370.25C552.434 1373.85 542.864 1374.79 533.63 1372.96C524.397 1371.12 515.916 1366.59 509.259 1359.93C502.603 1353.27 498.07 1344.79 496.233 1335.56C494.396 1326.33 495.339 1316.76 498.942 1308.06C502.544 1299.36 508.645 1291.93 516.472 1286.7ZM522.905 1356.2C528.828 1360.16 535.792 1362.27 542.916 1362.27C552.464 1362.27 561.619 1358.47 568.372 1351.72C575.124 1344.97 578.923 1335.82 578.932 1326.27C578.936 1319.15 576.827 1312.18 572.872 1306.26C568.916 1300.33 563.293 1295.71 556.712 1292.99C550.131 1290.26 542.889 1289.54 535.901 1290.93C528.914 1292.32 522.494 1295.75 517.456 1300.78C512.417 1305.82 508.985 1312.23 507.594 1319.22C506.202 1326.21 506.915 1333.45 509.64 1340.03C512.365 1346.62 516.982 1352.24 522.905 1356.2ZM435.172 1282.8H446.496V1371.37H435.172V1282.8ZM822.365 1282.8H811.041V1371.37H822.365V1282.8ZM892.787 1286.7C900.614 1281.47 909.817 1278.68 919.231 1278.68C931.85 1278.69 943.948 1283.71 952.871 1292.63C961.795 1301.56 966.814 1313.65 966.829 1326.27C966.829 1335.69 964.037 1344.89 958.807 1352.72C953.577 1360.54 946.143 1366.65 937.446 1370.25C928.748 1373.85 919.178 1374.79 909.945 1372.96C900.712 1371.12 892.231 1366.59 885.574 1359.93C878.917 1353.27 874.384 1344.79 872.547 1335.56C870.711 1326.33 871.653 1316.76 875.256 1308.06C878.859 1299.36 884.959 1291.93 892.787 1286.7ZM899.219 1356.2C905.143 1360.16 912.107 1362.27 919.231 1362.27C928.778 1362.27 937.933 1358.47 944.686 1351.72C951.439 1344.97 955.237 1335.82 955.247 1326.27C955.25 1319.15 953.141 1312.18 949.186 1306.26C945.231 1300.33 939.607 1295.71 933.026 1292.99C926.446 1290.26 919.203 1289.54 912.216 1290.93C905.228 1292.32 898.809 1295.75 893.77 1300.78C888.731 1305.82 885.299 1312.23 883.908 1319.22C882.517 1326.21 883.229 1333.45 885.954 1340.03C888.68 1346.62 893.296 1352.24 899.219 1356.2ZM636.123 1281.77H615.445L680.443 1326.05L613.953 1371.37H634.613L690.773 1333.11L701.102 1326.05L690.773 1319.02L636.123 1281.77ZM746.548 1371.37L703.756 1342.22L714.049 1335.2L767.115 1371.37H746.548ZM765.624 1281.77H745.038L703.756 1309.91L714.049 1316.92L765.624 1281.77ZM741.258 1439.69C741.258 1456.12 753.674 1467.32 768.513 1467.32C782.746 1467.32 794.632 1456.8 793.27 1439.24H771.693V1444.76H786.91C785.623 1456.2 777.674 1461.27 768.816 1461.27C757.308 1461.27 747.92 1452.64 747.92 1439.69C747.92 1426.74 757.232 1418.34 768.816 1418.34C774.115 1418.34 780.475 1420.08 784.942 1426.06L789.636 1422.58C783.806 1414.25 775.251 1412.06 768.664 1412.06C753.674 1412.06 741.258 1423.26 741.258 1439.69ZM624.225 1466.57V1418.87H609.992V1412.81H644.97V1418.87H630.736V1466.57H624.225ZM687.36 1412.81H693.871L715.221 1466.57H708.18L703.335 1454.15H677.897L673.051 1466.57H666.011L687.36 1412.81ZM700.988 1448.09L690.616 1421.22L680.244 1448.09H700.988Z" fill="#101920"/>
<rect x="43.5" y="44.5" width="1315" height="1438" stroke="white" stroke-width="7"/>
<rect width="1130" height="88.9999" transform="matrix(4.37114e-08 1 1 -4.37114e-08 47 137)" fill="white"/>
<path d="M75.8636 887.742C72.7929 888.122 70.4091 889.664 68.7121 892.366C67.0152 895.069 66.1667 898.384 66.1667 902.311C66.1667 905.182 66.6111 907.695 67.5 909.848C68.3889 911.981 69.6111 913.649 71.1667 914.852C72.7222 916.034 74.4899 916.626 76.4697 916.626C78.1263 916.626 79.5505 916.214 80.7424 915.39C81.9141 914.546 82.8939 913.469 83.6818 912.16C84.4495 910.851 85.0859 909.479 85.5909 908.043C86.0758 906.607 86.4697 905.288 86.7727 904.084L88.4697 897.497C88.8939 895.808 89.4798 893.929 90.2273 891.859C90.9747 889.769 91.9949 887.774 93.2879 885.874C94.5606 883.953 96.197 882.369 98.197 881.123C100.197 879.878 102.652 879.255 105.561 879.255C108.914 879.255 111.944 880.173 114.652 882.01C117.359 883.826 119.51 886.486 121.106 889.991C122.702 893.475 123.5 897.708 123.5 902.691C123.5 907.336 122.783 911.358 121.348 914.757C119.914 918.135 117.914 920.795 115.348 922.738C112.783 924.659 109.803 925.747 106.409 926L106.409 917.892C108.753 917.681 110.692 916.858 112.227 915.422C113.742 913.965 114.874 912.128 115.621 909.911C116.348 907.673 116.712 905.267 116.712 902.691C116.712 899.693 116.247 897.001 115.318 894.615C114.369 892.229 113.056 890.339 111.379 888.946C109.682 887.552 107.702 886.856 105.439 886.856C103.379 886.856 101.702 887.457 100.409 888.661C99.1162 889.864 98.0657 891.448 97.2576 893.411C96.4495 895.375 95.7424 897.497 95.1364 899.777L92.9545 907.758C91.5606 912.825 89.5707 916.837 86.9849 919.793C84.399 922.748 81.0152 924.226 76.8333 924.226C73.3586 924.226 70.3283 923.245 67.7424 921.281C65.1364 919.296 63.1162 916.636 61.6818 913.3C60.2273 909.943 59.5 906.196 59.5 902.057C59.5 897.877 60.2172 894.161 61.6515 890.909C63.0657 887.658 65.005 885.082 67.4697 883.182C69.9343 881.261 72.7323 880.247 75.8636 880.142L75.8636 887.742Z" fill="#101920"/>
<path d="M60.3485 833.07L122.409 833.07L122.409 840.924L60.3485 840.924L60.3485 833.07Z" fill="#101920"/>
<path d="M79.7424 747.566C77.702 748.263 75.8737 749.182 74.2576 750.322C72.6212 751.441 71.2273 752.781 70.0758 754.344C68.9242 755.885 68.0454 757.638 67.4394 759.601C66.8333 761.565 66.5303 763.718 66.5303 766.062C66.5303 769.904 67.4798 773.399 69.3788 776.545C71.2778 779.691 74.0758 782.192 77.7727 784.05C81.4697 785.908 86.005 786.837 91.3788 786.837C96.7525 786.837 101.288 785.898 104.985 784.019C108.682 782.14 111.48 779.596 113.379 776.386C115.278 773.177 116.227 769.567 116.227 765.555C116.227 761.839 115.47 758.567 113.955 755.737C112.419 752.887 110.258 750.67 107.47 749.087C104.662 747.482 101.359 746.68 97.5606 746.68L98.0454 744.273L98.0454 763.782L91.3788 763.782L91.3788 739.079L98.0454 739.079C103.157 739.079 107.601 740.219 111.379 742.499C115.157 744.758 118.086 747.883 120.167 751.874C122.227 755.843 123.258 760.403 123.258 765.555C123.258 771.298 121.965 776.344 119.379 780.693C116.793 785.022 113.116 788.4 108.348 790.828C103.581 793.235 97.9242 794.438 91.3788 794.438C86.4697 794.438 82.0555 793.752 78.1364 792.38C74.197 790.986 70.8434 789.023 68.0758 786.489C65.3081 783.955 63.1869 780.957 61.7121 777.495C60.2374 774.032 59.5 770.221 59.5 766.062C59.5 762.641 59.9949 759.453 60.9848 756.497C61.9545 753.52 63.3384 750.871 65.1364 748.548C66.9141 746.205 69.0454 744.252 71.5303 742.689C73.9949 741.127 76.7323 740.05 79.7424 739.459L79.7424 747.566Z" fill="#101920"/>
<path d="M60.3485 648.777L122.409 648.777L122.409 656.378L73.6818 691.722L73.6818 692.355L122.409 692.355L122.409 700.21L60.3485 700.21L60.3485 692.609L109.197 657.138L109.197 656.505L60.3485 656.505L60.3485 648.777Z" fill="#101920"/>
<path d="M122.409 607.644L60.3485 607.644L60.3485 568.499L67.0151 568.499L67.0151 599.79L87.9848 599.79L87.9848 570.526L94.6515 570.526L94.6515 599.79L115.742 599.79L115.742 567.993L122.409 567.993L122.409 607.644Z" fill="#101920"/>
<path d="M122.409 508.91L122.409 528.926L60.3485 528.926L60.3485 508.023C60.3485 501.732 61.5909 496.348 64.0757 491.872C66.5404 487.396 70.0858 483.965 74.7121 481.579C79.3182 479.193 84.8333 478 91.2576 478C97.7222 478 103.288 479.204 107.955 481.61C112.601 484.017 116.177 487.522 118.682 492.125C121.167 496.728 122.409 502.323 122.409 508.91ZM115.742 521.072L115.742 509.417C115.742 504.054 114.753 499.61 112.773 496.084C110.793 492.558 107.975 489.929 104.318 488.198C100.662 486.467 96.3081 485.601 91.2576 485.601C86.2475 485.601 81.9343 486.456 78.3182 488.166C74.6818 489.876 71.8939 492.431 69.9545 495.83C67.9949 499.23 67.0151 503.463 67.0151 508.53L67.0151 521.072L115.742 521.072Z" fill="#101920"/>
<rect width="1130" height="88.9999" transform="translate(1355 137) rotate(90)" fill="white"/>
<path d="M1326.14 516.258C1329.21 515.878 1331.59 514.336 1333.29 511.634C1334.98 508.931 1335.83 505.616 1335.83 501.689C1335.83 498.818 1335.39 496.305 1334.5 494.152C1333.61 492.019 1332.39 490.351 1330.83 489.148C1329.28 487.966 1327.51 487.374 1325.53 487.374C1323.87 487.374 1322.45 487.786 1321.26 488.61C1320.09 489.454 1319.11 490.531 1318.32 491.84C1317.55 493.149 1316.91 494.521 1316.41 495.957C1315.92 497.393 1315.53 498.712 1315.23 499.916L1313.53 506.503C1313.11 508.192 1312.52 510.071 1311.77 512.141C1311.03 514.231 1310.01 516.226 1308.71 518.126C1307.44 520.047 1305.8 521.631 1303.8 522.877C1301.8 524.122 1299.35 524.745 1296.44 524.745C1293.09 524.745 1290.06 523.827 1287.35 521.99C1284.64 520.174 1282.49 517.514 1280.89 514.009C1279.3 510.525 1278.5 506.292 1278.5 501.309C1278.5 496.664 1279.22 492.642 1280.65 489.243C1282.09 485.865 1284.09 483.205 1286.65 481.262C1289.22 479.341 1292.2 478.253 1295.59 478L1295.59 486.108C1293.25 486.319 1291.31 487.142 1289.77 488.578C1288.26 490.035 1287.13 491.872 1286.38 494.089C1285.65 496.327 1285.29 498.733 1285.29 501.309C1285.29 504.307 1285.75 506.999 1286.68 509.385C1287.63 511.771 1288.94 513.661 1290.62 515.054C1292.32 516.448 1294.3 517.144 1296.56 517.144C1298.62 517.144 1300.3 516.543 1301.59 515.339C1302.88 514.136 1303.93 512.552 1304.74 510.589C1305.55 508.625 1306.26 506.503 1306.86 504.223L1309.05 496.242C1310.44 491.175 1312.43 487.163 1315.02 484.207C1317.6 481.252 1320.98 479.774 1325.17 479.774C1328.64 479.774 1331.67 480.755 1334.26 482.719C1336.86 484.704 1338.88 487.364 1340.32 490.7C1341.77 494.057 1342.5 497.804 1342.5 501.943C1342.5 506.123 1341.78 509.839 1340.35 513.091C1338.93 516.342 1336.99 518.918 1334.53 520.818C1332.07 522.739 1329.27 523.753 1326.14 523.858L1326.14 516.258Z" fill="#101920"/>
<path d="M1341.65 570.93L1279.59 570.93L1279.59 563.076L1341.65 563.076L1341.65 570.93Z" fill="#101920"/>
<path d="M1322.26 656.434C1324.3 655.737 1326.13 654.818 1327.74 653.678C1329.38 652.559 1330.77 651.219 1331.92 649.656C1333.08 648.115 1333.95 646.362 1334.56 644.399C1335.17 642.435 1335.47 640.282 1335.47 637.938C1335.47 634.096 1334.52 630.601 1332.62 627.455C1330.72 624.309 1327.92 621.808 1324.23 619.95C1320.53 618.092 1315.99 617.163 1310.62 617.163C1305.25 617.163 1300.71 618.102 1297.02 619.981C1293.32 621.86 1290.52 624.404 1288.62 627.614C1286.72 630.823 1285.77 634.433 1285.77 638.445C1285.77 642.161 1286.53 645.433 1288.05 648.263C1289.58 651.113 1291.74 653.33 1294.53 654.913C1297.34 656.518 1300.64 657.32 1304.44 657.32L1303.95 659.727L1303.95 640.218L1310.62 640.218L1310.62 664.921L1303.95 664.921C1298.84 664.921 1294.4 663.781 1290.62 661.501C1286.84 659.242 1283.91 656.117 1281.83 652.126C1279.77 648.157 1278.74 643.597 1278.74 638.445C1278.74 632.702 1280.04 627.656 1282.62 623.307C1285.21 618.978 1288.88 615.6 1293.65 613.172C1298.42 610.765 1304.08 609.562 1310.62 609.562C1315.53 609.562 1319.94 610.248 1323.86 611.62C1327.8 613.014 1331.16 614.977 1333.92 617.511C1336.69 620.045 1338.81 623.043 1340.29 626.505C1341.76 629.968 1342.5 633.779 1342.5 637.938C1342.5 641.359 1342.01 644.547 1341.02 647.503C1340.05 650.48 1338.66 653.129 1336.86 655.452C1335.09 657.795 1332.95 659.748 1330.47 661.311C1328.01 662.873 1325.27 663.95 1322.26 664.541L1322.26 656.434Z" fill="#101920"/>
<path d="M1341.65 755.223L1279.59 755.223L1279.59 747.622L1328.32 712.278L1328.32 711.645L1279.59 711.645L1279.59 703.79L1341.65 703.79L1341.65 711.391L1292.8 746.862L1292.8 747.495L1341.65 747.495L1341.65 755.223Z" fill="#101920"/>
<path d="M1279.59 796.356L1341.65 796.356L1341.65 835.501L1334.98 835.501L1334.98 804.21L1314.02 804.21L1314.02 833.474L1307.35 833.474L1307.35 804.21L1286.26 804.21L1286.26 836.007L1279.59 836.007L1279.59 796.356Z" fill="#101920"/>
<path d="M1279.59 895.09L1279.59 875.074L1341.65 875.074L1341.65 895.977C1341.65 902.268 1340.41 907.652 1337.92 912.128C1335.46 916.604 1331.91 920.035 1327.29 922.421C1322.68 924.807 1317.17 926 1310.74 926C1304.28 926 1298.71 924.796 1294.05 922.39C1289.4 919.983 1285.82 916.478 1283.32 911.875C1280.83 907.272 1279.59 901.677 1279.59 895.09ZM1286.26 882.928L1286.26 894.583C1286.26 899.946 1287.25 904.39 1289.23 907.916C1291.21 911.442 1294.03 914.071 1297.68 915.802C1301.34 917.533 1305.69 918.399 1310.74 918.399C1315.75 918.399 1320.07 917.544 1323.68 915.834C1327.32 914.124 1330.11 911.569 1332.05 908.17C1334.01 904.77 1334.98 900.537 1334.98 895.47L1334.98 882.928L1286.26 882.928Z" fill="#101920"/>
<path fill-rule="evenodd" clip-rule="evenodd" d="M48.0052 47.7867H1353.99C1354.63 47.7867 1355.14 48.2931 1355.14 48.9178V1369.08C1355.14 1369.71 1354.63 1370.21 1353.99 1370.21H1002.76V1377H1353.99C1358.42 1377 1362 1373.46 1362 1369.08V48.9178C1362 44.5449 1358.42 41 1353.99 41H48.0052C43.584 41 40 44.5449 40 48.9178V1369.08C40 1373.46 43.584 1377 48.0052 1377H384.87V1370.21H48.0052C47.3736 1370.21 46.8616 1369.71 46.8616 1369.08V48.9178C46.8616 48.2931 47.3735 47.7867 48.0052 47.7867Z" fill="#101920"/>
<rect x="1" y="38" width="40" height="1443" fill="white"/>
<rect x="1362" y="38.5" width="40" height="1442" fill="white"/>
<rect x="1" y="42" width="39.9999" height="1401" transform="rotate(-90 1 42)" fill="white"/>
<rect x="1" y="1519" width="39.9999" height="1401" transform="rotate(-90 1 1519)" fill="white"/>
</svg>
